<?xml version="1.0" standalone="no"?>
<!DOCTYPE svg PUBLIC "-//W3C//DTD SVG 1.1//EN" "http://www.w3.org/Graphics/SVG/1.1/DTD/svg11.dtd" >
<svg xmlns="http://www.w3.org/2000/svg" xmlns:xlink="http://www.w3.org/1999/xlink" version="1.1">
<metadata>
Created by FontForge 20190801 at Thu Jun 13 22:22:51 2019
 By www-data
Copyright (c) 2018 ParaType Inc., ParaType Ltd. All rights reserved.
</metadata>
<defs>
<font id="SBSansDisplayLight" horiz-adv-x="584" >
  <font-face 
    font-family="SBSansDisplayLight"
    font-weight="300"
    font-stretch="normal"
    units-per-em="1000"
    panose-1="2 11 3 3 4 5 4 2 2 4"
    ascent="801"
    descent="-199"
    x-height="500"
    cap-height="700"
    bbox="-330 -250 1191 900"
    underline-thickness="50"
    underline-position="-109"
    unicode-range="U+0020-FB04"
  />
<missing-glyph horiz-adv-x="0" 
 />
    <glyph glyph-name="f_f" unicode="ff" horiz-adv-x="637" 
d="M24 500h90v74q0 93 43.5 137t114.5 44q60 0 93 -28v-62q-30 46 -96 46q-110 0 -110 -137v-74h167h90v74q0 93 43.5 137t114.5 44q60 0 93 -28v-62q-30 46 -96 46q-110 0 -110 -137v-74h167v-42h-167v-458h-45v458h-257v-458h-45v458h-90v42z" />
    <glyph glyph-name="fi" unicode="fi" horiz-adv-x="582" 
d="M24 500h90v74q0 93 43.5 137t114.5 44q60 0 93 -28v-62q-30 46 -96 46q-110 0 -110 -137v-74h167v-42h-167v-458h-45v458h-90v42zM440 0v500h45v-500h-45zM428 726q0 14 9.5 23t24.5 9q16 0 25 -9t9 -23t-9 -23t-25 -9q-15 0 -24.5 9t-9.5 23z" />
    <glyph glyph-name="fl" unicode="fl" horiz-adv-x="643" 
d="M24 500h90v74q0 93 43.5 137t114.5 44q60 0 93 -28v-62q-30 46 -96 46q-110 0 -110 -137v-74h167v-42h-167v-458h-45v458h-90v42zM625 48v-42q-28 -16 -78 -16q-117 0 -117 125v635h45v-623q0 -51 18.5 -72t61.5 -21q42 0 70 14z" />
    <glyph glyph-name="f_f_i" unicode="ffi" horiz-adv-x="882" 
d="M24 500h90v74q0 93 43.5 137t114.5 44q60 0 93 -28v-62q-30 46 -96 46q-110 0 -110 -137v-74h167h90v74q0 93 43.5 137t114.5 44q60 0 93 -28v-62q-30 46 -96 46q-110 0 -110 -137v-74h167v-42h-167v-458h-45v458h-257v-458h-45v458h-90v42zM740 0v500h45v-500h-45z
M728 726q0 14 9.5 23t24.5 9q16 0 25 -9t9 -23t-9 -23t-25 -9q-15 0 -24.5 9t-9.5 23z" />
    <glyph glyph-name="f_f_l" unicode="ffl" horiz-adv-x="939" 
d="M24 500h90v74q0 93 43.5 137t114.5 44q60 0 93 -28v-62q-30 46 -96 46q-110 0 -110 -137v-74h257v74q0 93 43.5 137t114.5 44q60 0 93 -28v-62q-30 46 -96 46q-110 0 -110 -137v-74h167v-42h-167v-458h-45v458h-257v-458h-45v458h-90v42zM921 48v-42q-28 -16 -78 -16
q-117 0 -117 125v635h45v-623q0 -51 18.5 -72t61.5 -21q42 0 70 14z" />
    <glyph glyph-name=".notdef" horiz-adv-x="0" 
 />
    <glyph glyph-name=".null" horiz-adv-x="0" 
 />
    <glyph glyph-name="nonmarkingreturn" horiz-adv-x="333" 
 />
    <glyph glyph-name="space" unicode=" " horiz-adv-x="260" 
 />
    <glyph glyph-name="exclam" unicode="!" horiz-adv-x="300" 
d="M174 700v-470h-48v470h48zM108 35q0 41 42 41t42 -41t-42 -41t-42 41z" />
    <glyph glyph-name="quotedbl" unicode="&#x22;" horiz-adv-x="468" 
d="M300 430v270h46v-270h-46zM118 430v270h46v-270h-46z" />
    <glyph glyph-name="numbersign" unicode="#" horiz-adv-x="671" 
d="M35 251h110l76 215h-136l15 42h136l68 192h46l-68 -192h203l68 192h46l-68 -192h120l-15 -42h-120l-76 -215h146l-15 -42h-146l-74 -209h-46l74 209h-203l-74 -209h-46l74 209h-110zM267 466l-76 -215h203l76 215h-203z" />
    <glyph glyph-name="dollar" unicode="$" 
d="M493 562q-31 47 -83.5 74t-115.5 26q-168 -3 -168 -121q0 -36 16.5 -63t43.5 -42.5t61.5 -29.5t70.5 -24t70.5 -27t61.5 -37t43.5 -54.5t16.5 -80.5q0 -175 -197 -189v-122h-43v120q-124 3 -192 71v75q31 -47 84 -73.5t115 -25.5q183 1 183 140q0 43 -21 73.5t-55 48
t-74.5 31.5t-81.5 29t-75 35t-55 55t-21 84q0 159 191 173v116h44v-115q116 -5 181 -72v-75z" />
    <glyph glyph-name="percent" unicode="%" horiz-adv-x="823" 
d="M64 548q0 72 46.5 115.5t121.5 43.5q72 0 115.5 -42.5t43.5 -116.5t-45.5 -118t-120.5 -44q-72 0 -116.5 45t-44.5 117zM105 548q0 -54 34.5 -87.5t90.5 -33.5q55 0 88 33t33 88t-33 86.5t-90 31.5q-56 0 -89.5 -31.5t-33.5 -86.5zM432 150q0 72 46.5 115.5t121.5 43.5
q72 0 115.5 -42.5t43.5 -116.5t-45.5 -118t-120.5 -44q-72 0 -116.5 45t-44.5 117zM473 150q0 -54 34.5 -87.5t90.5 -33.5q55 0 88 33t33 88t-33 86.5t-90 31.5q-56 0 -89.5 -31.5t-33.5 -86.5zM694 700l-504 -700h-53l507 700h50z" />
    <glyph glyph-name="ampersand" unicode="&#x26;" horiz-adv-x="832" 
d="M550 126q62 70 95 177t33 217h46q-1 -115 -35.5 -228.5t-101.5 -190.5q71 -45 139 -61v-52q-83 20 -172 79q-91 -83 -216 -83q-121 0 -189.5 63t-68.5 164q0 84 44.5 134.5t121.5 89.5q-32 75 -32 139q0 66 39 101.5t106 35.5q57 0 92 -30.5t35 -79.5q0 -34 -12.5 -60.5
t-41 -48t-51 -34t-64.5 -32.5q-11 -5 -17 -8q40 -81 106 -158.5t144 -133.5zM262 399q-64 -33 -99.5 -74.5t-35.5 -108.5q0 -80 58 -132t162 -52q97 0 170 62q-80 61 -147.5 142t-107.5 163zM440 593q0 33 -22 53.5t-60 20.5q-48 0 -73.5 -24.5t-25.5 -69.5q0 -55 26 -119
q92 43 118 66q37 31 37 73z" />
    <glyph glyph-name="quotesingle" unicode="'" horiz-adv-x="282" 
d="M118 430v270h46v-270h-46z" />
    <glyph glyph-name="parenleft" unicode="(" horiz-adv-x="305" 
d="M60 286q0 89 20.5 170.5t54 139t64 96t61.5 63.5l25 -23q-27 -23 -54 -58t-57 -89.5t-49 -132.5t-19 -166t19 -166.5t49 -133t57 -89.5t54 -58l-25 -23q-31 25 -61.5 63.5t-64 96t-54 139t-20.5 171.5z" />
    <glyph glyph-name="parenright" unicode=")" horiz-adv-x="305" 
d="M20 -160q27 23 54 57.5t57 89t49 132.5t19 166t-19 166.5t-49 133t-57 89.5t-54 58l25 23q31 -25 62 -63t63.5 -96t53.5 -139t21 -170q0 -90 -20.5 -171.5t-53.5 -139t-64 -96t-62 -63.5z" />
    <glyph glyph-name="asterisk" unicode="*" horiz-adv-x="488" 
d="M279 700l-23 -180l165 77l22 -67l-178 -33l124 -134l-57 -41l-88 158l-88 -158l-57 41l124 133l-178 35l22 66l163 -78l-21 181h70z" />
    <glyph glyph-name="plus" unicode="+" 
d="M270 135v188h-188v44h188v188h44v-188h188v-44h-188v-188h-44z" />
    <glyph glyph-name="comma" unicode="," horiz-adv-x="324" 
d="M61 -131q49 13 74.5 55t12.5 76q-6 -6 -16 -6q-40 0 -40 41t42 41q32 0 47.5 -27t15.5 -63q0 -56 -33.5 -97t-74.5 -53z" />
    <glyph glyph-name="hyphen" unicode="-" horiz-adv-x="410" 
d="M77 272v46h256v-46h-256z" />
    <glyph glyph-name="hyphen" unicode="&#xad;" horiz-adv-x="410" 
d="M77 272v46h256v-46h-256z" />
    <glyph glyph-name="period" unicode="." horiz-adv-x="240" 
d="M78 35q0 41 42 41t42 -41t-42 -41t-42 41z" />
    <glyph glyph-name="slash" unicode="/" horiz-adv-x="254" 
d="M-20 -180l248 930h46l-248 -930h-46z" />
    <glyph glyph-name="zero" unicode="0" horiz-adv-x="620" 
d="M308 708q115 0 177.5 -90t62.5 -269q0 -188 -66 -273.5t-171 -85.5q-115 1 -177 90.5t-62 268.5q0 187 65.5 272.5t170.5 86.5zM119 349q0 -311 192 -313q190 0 190 313q0 310 -192 313q-190 0 -190 -313z" />
    <glyph glyph-name="one" unicode="1" horiz-adv-x="420" 
d="M242 0v648l-195 -125v51l206 133h34v-707h-45z" />
    <glyph glyph-name="two" unicode="2" horiz-adv-x="560" 
d="M68 0v1l-1 -1h-18v32q226 190 304.5 285t78.5 186q0 75 -44.5 117t-123.5 42q-121 1 -192 -94v65q30 32 82.5 54t124.5 21q92 -2 146 -54.5t54 -144.5q0 -94 -62 -182t-225 -223l-72 -60h381v-44h-433z" />
    <glyph glyph-name="three" unicode="3" horiz-adv-x="560" 
d="M66 633q69 75 207 75q95 -1 147 -47.5t52 -122.5q0 -142 -131 -177q75 -10 118.5 -55t43.5 -117q0 -87 -62 -141.5t-179 -55.5q-71 1 -122 22t-79 51v75q31 -48 84 -75.5t115 -26.5q94 1 145.5 42t51.5 108q0 68 -48.5 107t-139.5 39h-90v42h69q85 0 131 40.5t46 108.5
q0 66 -45 101.5t-122 35.5q-121 1 -192 -94v65z" />
    <glyph glyph-name="four" unicode="4" horiz-adv-x="620" 
d="M42 234l361 466h58v-457h122v-44h-122v-199h-45v199h-374v35zM101 243h315v402z" />
    <glyph glyph-name="five" unicode="5" horiz-adv-x="560" 
d="M67 140q31 -47 87.5 -75t115.5 -27q89 1 137.5 47.5t48.5 129.5q0 79 -55.5 121t-146.5 42q-86 0 -153 -21l24 343h346v-44h-306l-18 -247q44 12 116 12q111 0 175.5 -54t64.5 -151q0 -106 -62 -165t-172 -59q-67 0 -119.5 21.5t-82.5 51.5v75z" />
    <glyph glyph-name="six" unicode="6" horiz-adv-x="620" 
d="M518 560q-29 48 -77.5 75t-104.5 26q-104 -2 -161 -80t-57 -234q0 -47 6 -91q13 78 72 127t149 49q98 0 158 -58t60 -148q0 -112 -67.5 -173t-167.5 -61q-123 0 -189 91t-66 254q0 187 69 278t192 93q118 1 184 -73v-75zM338 388q-90 0 -143.5 -52t-58.5 -137
q47 -160 195 -160q81 0 133 48.5t52 132.5q0 79 -48.5 123.5t-129.5 44.5z" />
    <glyph glyph-name="seven" unicode="7" horiz-adv-x="530" 
d="M31 651v49h457v-42l-291 -658h-51l290 651h-405z" />
    <glyph glyph-name="eight" unicode="8" horiz-adv-x="620" 
d="M311 -9q-114 0 -183.5 51.5t-69.5 145.5q0 69 43 116.5t128 66.5q-147 29 -147 164q0 79 60 127.5t168 48.5q105 0 162.5 -47t57.5 -124q0 -66 -39 -109t-107 -60q86 -12 132 -57t46 -120q0 -94 -68 -148.5t-183 -54.5zM312 37q99 0 151 43.5t52 115.5q0 71 -52.5 111.5
t-153.5 40.5q-98 0 -150.5 -42t-52.5 -107q0 -78 55 -120t151 -42zM309 387q80 0 127.5 40t47.5 104q0 134 -175 134q-87 0 -134 -37t-47 -98q0 -65 50.5 -104t130.5 -39z" />
    <glyph glyph-name="nine" unicode="9" horiz-adv-x="620" 
d="M100 140q29 -48 77.5 -75t105.5 -26q103 2 160 80t57 234q0 50 -7 91q-12 -78 -71 -127t-149 -49q-98 0 -157.5 58t-59.5 148q0 112 67 173t167 61q123 0 189 -91t66 -254q0 -187 -69 -278t-192 -93q-118 -1 -184 73v75zM280 312q89 0 142.5 51.5t59.5 135.5
q-46 162 -194 162q-82 0 -134 -48.5t-52 -132.5q0 -79 48.5 -123.5t129.5 -44.5z" />
    <glyph glyph-name="colon" unicode=":" horiz-adv-x="264" 
d="M90 35q0 41 42 41t42 -41t-42 -41t-42 41zM90 458q0 41 42 41t42 -41t-42 -41t-42 41z" />
    <glyph glyph-name="semicolon" unicode=";" horiz-adv-x="274" 
d="M88 458q0 41 42 41t42 -41t-42 -41t-42 41zM61 -131q49 13 74.5 55t12.5 76q-6 -6 -16 -6q-40 0 -40 41t42 41q32 0 47.5 -27t15.5 -63q0 -56 -33.5 -97t-74.5 -53z" />
    <glyph glyph-name="less" unicode="&#x3c;" 
d="M63 347l422 251v-52l-341 -199l341 -199v-52z" />
    <glyph glyph-name="equal" unicode="=" 
d="M82 285h420v-44h-420v44zM82 459h420v-44h-420v44z" />
    <glyph glyph-name="greater" unicode="&#x3e;" 
d="M521 347l-422 -251v52l341 199l-341 199v52z" />
    <glyph glyph-name="question" unicode="?" horiz-adv-x="511" 
d="M60 633q73 79 207 74q86 -5 135 -49t49 -126q0 -51 -21 -90.5t-51 -63.5t-60 -45t-51 -46.5t-21 -56.5h-44q0 40 21 71t50.5 52t59 43t50.5 56t21 78q0 63 -40 98t-113 35q-122 0 -192 -95v65zM184 35q0 41 41 41q42 0 42 -41t-42 -41q-41 0 -41 41z" />
    <glyph glyph-name="at" unicode="@" horiz-adv-x="960" 
d="M624 426v75h37v-332q1 -38 15.5 -53.5t50.5 -15.5q57 0 92.5 46.5t36.5 136.5q0 169 -103 272.5t-273 103.5q-171 0 -273 -102t-103 -270q0 -167 100.5 -270.5t267.5 -105.5q62 -1 114 20.5t84 61.5v-73q-78 -51 -198 -50q-187 3 -299.5 118.5t-112.5 297.5
q2 184 116 299t304 115q191 0 305.5 -116t114.5 -301q-1 -104 -48 -162t-127 -58q-49 0 -74 23t-26 77h-2v8q-36 -109 -168 -109q-87 0 -137.5 53t-50.5 159q0 231 193 231q61 0 104 -28t59 -75zM623 306q0 76 -43 120t-115 44q-159 0 -159 -192q0 -92 42 -136t117 -44
q77 0 117.5 44t40.5 120v44z" />
    <glyph glyph-name="A" unicode="A" horiz-adv-x="699" 
d="M323 700h51l313 -700h-52l-92 205h-391l-90 -205h-51zM347 645l-175 -396h352z" />
    <glyph glyph-name="B" unicode="B" horiz-adv-x="690" 
d="M373 0h-273v700h291q216 0 216 -170q0 -128 -119 -165q140 -21 140 -161q0 -204 -255 -204zM148 44h230q202 0 202 159q0 136 -185 136h-247v-295zM148 380h241q80 0 125 40t45 102q0 69 -43.5 101.5t-134.5 32.5h-233v-276z" />
    <glyph glyph-name="C" unicode="C" horiz-adv-x="698" 
d="M658 158v-77q-30 -36 -98.5 -63.5t-154.5 -27.5q-166 3 -260.5 99.5t-94.5 261.5q0 157 98.5 258t258.5 101q80 0 143.5 -24.5t94.5 -56.5v-83q-31 54 -95.5 87t-142.5 33q-136 0 -221.5 -86.5t-85.5 -229.5q0 -138 80 -224.5t221 -91.5q91 0 158.5 35t98.5 89z" />
    <glyph glyph-name="D" unicode="D" horiz-adv-x="745" 
d="M100 700h228q176 0 271.5 -87.5t95.5 -248.5q0 -96 -29.5 -167.5t-83 -113.5t-120.5 -62.5t-148 -20.5h-214v700zM148 44h161q160 0 248 80.5t88 234.5q0 146 -83.5 221.5t-242.5 75.5h-171v-612z" />
    <glyph glyph-name="E" unicode="E" horiz-adv-x="629" 
d="M529 382v-44h-381v-294h430v-44h-478v700h467v-44h-419v-274h381z" />
    <glyph glyph-name="F" unicode="F" horiz-adv-x="604" 
d="M548 352v-44h-400v-308h-48v700h468v-44h-420v-304h400z" />
    <glyph glyph-name="G" unicode="G" horiz-adv-x="739" 
d="M407 -10q-167 2 -262 98.5t-95 262.5q0 156 98 257t257 102q80 0 143.5 -24.5t94.5 -56.5v-83q-31 54 -95.5 87t-142.5 33q-135 -1 -220 -87.5t-85 -228.5t84 -228.5t231 -87.5q71 1 126 22t84 51v201h-225v44h270v-263q-30 -39 -104.5 -69t-158.5 -30z" />
    <glyph glyph-name="H" unicode="H" horiz-adv-x="788" 
d="M640 0v338h-492v-338h-48v700h48v-318h492v318h48v-700h-48z" />
    <glyph glyph-name="I" unicode="I" horiz-adv-x="248" 
d="M148 700v-700h-48v700h48z" />
    <glyph glyph-name="J" unicode="J" horiz-adv-x="410" 
d="M310 700v-538q0 -81 -43.5 -124t-118.5 -43q-78 0 -122 38v66q43 -60 117 -60q119 0 119 126v535h48z" />
    <glyph glyph-name="K" unicode="K" horiz-adv-x="713" 
d="M148 335v-335h-48v700h48v-323h149l300 323h62l-319 -341l357 -359h-64l-334 335h-151z" />
    <glyph glyph-name="L" unicode="L" horiz-adv-x="604" 
d="M148 700v-656h430v-44h-478v700h48z" />
    <glyph glyph-name="M" unicode="M" horiz-adv-x="905" 
d="M757 0v632l-291 -466h-21l-297 459v-625h-48v700h59l298 -467l291 467h57v-700h-48z" />
    <glyph glyph-name="N" unicode="N" horiz-adv-x="798" 
d="M647 0l-499 625v-625h-48v700h51l499 -625v625h48v-700h-51z" />
    <glyph glyph-name="O" unicode="O" horiz-adv-x="814" 
d="M404 710h3q167 -2 262 -99t95 -262q0 -156 -97.5 -257t-255.5 -102q-169 1 -265 97.5t-96 263.5q0 155 96.5 255.5t257.5 103.5zM100 350q0 -142 84 -228.5t231 -87.5q133 2 216 88.5t83 227.5q0 142 -84 229.5t-231 86.5q-133 -1 -216 -88t-83 -228z" />
    <glyph glyph-name="P" unicode="P" horiz-adv-x="655" 
d="M303 246h-155v-246h-48v700h222q277 0 277 -224q0 -114 -75.5 -172t-220.5 -58zM317 656h-169v-366h152q124 0 186.5 46t62.5 143q0 94 -57.5 135.5t-174.5 41.5z" />
    <glyph glyph-name="Q" unicode="Q" horiz-adv-x="814" 
d="M632 -180h-60l-143 171q-7 -1 -22 -1q-167 2 -262 98.5t-95 262.5q0 156 97.5 257t259.5 102q166 1 261.5 -97t95.5 -264q0 -137 -76 -233t-205 -119zM406 666q-133 -1 -219.5 -88.5t-86.5 -227.5q0 -142 84 -228.5t231 -87.5q133 2 216 88.5t83 227.5t-83.5 229
t-224.5 87z" />
    <glyph glyph-name="R" unicode="R" horiz-adv-x="681" 
d="M580 0l-184 253q-41 -7 -96 -7h-152v-246h-48v700h219q277 0 277 -224q0 -161 -150 -210l193 -266h-59zM314 656h-166v-366h149q124 0 186.5 46t62.5 143q0 94 -57.5 135.5t-174.5 41.5z" />
    <glyph glyph-name="S" unicode="S" horiz-adv-x="631" 
d="M548 547q-31 54 -95 87t-140 33q-90 -2 -140.5 -35.5t-50.5 -94.5q0 -48 33 -80t82.5 -46.5t107.5 -32t107.5 -36t82.5 -60t33 -102.5q0 -86 -65.5 -138t-179.5 -52q-88 0 -159 27.5t-102 63.5v77q33 -54 103 -89t163 -35q85 0 137.5 37t52.5 108q0 58 -46 92t-111 51
t-130.5 36.5t-111.5 62.5t-46 114q0 84 67 130t173 46q78 0 141 -24.5t94 -56.5v-83z" />
    <glyph glyph-name="T" unicode="T" horiz-adv-x="614" 
d="M604 700v-44h-273v-656h-48v656h-273v44h594z" />
    <glyph glyph-name="U" unicode="U" horiz-adv-x="750" 
d="M143 700v-413q0 -134 61 -193.5t178 -59.5q225 0 225 241v425h48v-422q0 -149 -73.5 -218.5t-204.5 -69.5q-282 0 -282 289v421h48z" />
    <glyph glyph-name="V" unicode="V" horiz-adv-x="689" 
d="M366 0h-42l-313 700h52l283 -634l281 634h51z" />
    <glyph glyph-name="W" unicode="W" horiz-adv-x="928" 
d="M24 700h50l166 -616l209 616h43l204 -616l160 616h48l-180 -700h-46l-209 622l-214 -622h-47z" />
    <glyph glyph-name="X" unicode="X" horiz-adv-x="652" 
d="M19 0l271 359l-253 341h57l229 -308l243 308h56l-267 -338l278 -362h-57l-254 328l-247 -328h-56z" />
    <glyph glyph-name="Y" unicode="Y" horiz-adv-x="626" 
d="M618 700l-280 -420v-280h-48v280l-282 420h56l252 -373l247 373h55z" />
    <glyph glyph-name="Z" unicode="Z" horiz-adv-x="612" 
d="M46 656v44h537v-30l-486 -626h475v-44h-542v30l487 626h-471z" />
    <glyph glyph-name="bracketleft" unicode="[" horiz-adv-x="328" 
d="M80 -180v930h212v-44h-168v-842h170v-44h-214z" />
    <glyph glyph-name="backslash" unicode="\" horiz-adv-x="278" 
d="M50 750l248 -930h-46l-248 930h46z" />
    <glyph glyph-name="bracketright" unicode="]" horiz-adv-x="329" 
d="M249 750v-930h-212v44h168v842h-171v44h215z" />
    <glyph glyph-name="asciicircum" unicode="^" 
d="M124 351h-51l182 349h74l182 -349h-51l-168 326z" />
    <glyph glyph-name="underscore" unicode="_" horiz-adv-x="260" 
d="M0 -180v44h260v-44h-260z" />
    <glyph glyph-name="grave" unicode="`" horiz-adv-x="264" 
d="M212 590l-140 160h74l100 -160h-34z" />
    <glyph glyph-name="a" unicode="a" horiz-adv-x="517" 
d="M395 238h-148q-79 0 -118 -22.5t-39 -74.5q0 -49 35 -77.5t95 -28.5q78 0 125.5 48t49.5 104v51zM79 460q61 50 170 50q96 0 143.5 -41t47.5 -141v-328h-43v114q-20 -56 -70.5 -89t-117.5 -33q-75 0 -120 38.5t-45 107.5q0 75 51.5 106.5t151.5 31.5h148v51q0 74 -35 108
t-111 34q-117 0 -170 -82v73z" />
    <glyph glyph-name="b" unicode="b" horiz-adv-x="592" 
d="M83 750h45v-367q17 54 65 90.5t132 36.5q103 0 162 -62t59 -187q0 -141 -60.5 -206.5t-166.5 -65.5q-74 0 -124 33.5t-69 89.5v-112h-43v750zM313 31q187 0 187 225q0 109 -49.5 160.5t-137.5 51.5q-84 0 -131.5 -45t-53.5 -123v-103q7 -78 57 -122t128 -44z" />
    <glyph glyph-name="c" unicode="c" horiz-adv-x="498" 
d="M450 51q-19 -26 -61 -43.5t-102 -17.5q-114 0 -177.5 66.5t-63.5 195.5q0 123 67 190.5t172 67.5q99 0 160 -50v-73q-53 82 -160 82q-90 0 -141.5 -55.5t-51.5 -161.5v-3q0 -109 52 -163.5t143 -54.5q59 0 101 23t62 59v-62z" />
    <glyph glyph-name="d" unicode="d" horiz-adv-x="593" 
d="M465 750h44v-750h-42v125q-16 -58 -64 -97t-136 -39q-102 0 -161 62t-59 187q0 272 227 272q71 0 121.5 -33t69.5 -87v360zM465 215v61q0 89 -50.5 140.5t-135.5 51.5q-187 0 -187 -225q0 -109 49.5 -160.5t137.5 -51.5t136 49.5t50 134.5z" />
    <glyph glyph-name="e" unicode="e" horiz-adv-x="546" 
d="M285 510q101 0 158.5 -62.5t57.5 -173.5v-37h-409q3 -103 54.5 -154.5t140.5 -51.5q68 0 115 23t69 59v-62q-21 -26 -68 -43.5t-116 -17.5q-114 0 -177.5 66.5t-63.5 195.5q0 123 67 190.5t172 67.5zM285 469q-84 0 -135 -49t-57 -143h363v3q0 91 -46.5 140t-124.5 49z
" />
    <glyph glyph-name="f" unicode="f" horiz-adv-x="335" 
d="M24 500h90v74q0 93 43.5 137t114.5 44q60 0 93 -28v-62q-30 46 -96 46q-110 0 -110 -137v-74h167v-42h-167v-458h-45v458h-90v42z" />
    <glyph glyph-name="g" unicode="g" horiz-adv-x="593" 
d="M465 23v96q-41 -130 -198 -130q-102 0 -161 62t-59 187q0 272 227 272q72 0 122 -33.5t69 -88.5l2 17v95h43v-476q0 -109 -57.5 -160t-173.5 -51q-60 0 -112.5 20t-76.5 44v68q24 -38 72.5 -64t117.5 -26q93 0 139 40t46 128zM465 215v61q0 89 -50.5 140.5t-135.5 51.5
q-187 0 -187 -225q0 -109 49.5 -160.5t137.5 -51.5t136 49.5t50 134.5z" />
    <glyph glyph-name="h" unicode="h" horiz-adv-x="579" 
d="M457 0v315q0 82 -38 117.5t-116 35.5q-87 0 -131 -46t-44 -129v-293h-45v750h45v-356q16 52 63.5 83.5t125.5 31.5h2q183 -2 183 -180v-329h-45z" />
    <glyph glyph-name="i" unicode="i" horiz-adv-x="240" 
d="M86 726q0 14 9.5 23t24.5 9q16 0 25 -9t9 -23t-9 -23t-25 -9q-15 0 -24.5 9t-9.5 23zM98 0v500h45v-500h-45z" />
    <glyph glyph-name="j" unicode="j" horiz-adv-x="237" 
d="M97 -36v536h45v-534q0 -77 -28 -114.5t-94 -37.5q-42 0 -74 19v59q29 -34 75 -34q39 0 57.5 23.5t18.5 82.5zM85 726q0 14 9.5 23t25.5 9t25 -9t9 -23t-9.5 -23t-24.5 -9q-16 0 -25.5 9t-9.5 23z" />
    <glyph glyph-name="k" unicode="k" horiz-adv-x="525" 
d="M83 750h45v-473h112l177 223h53l-192 -239l224 -261h-58l-204 237h-112v-237h-45v750z" />
    <glyph glyph-name="l" unicode="l" horiz-adv-x="296" 
d="M278 48v-42q-28 -16 -77 -16q-118 0 -118 125v635h45v-623q0 -51 18.5 -72t61.5 -21q42 0 70 14z" />
    <glyph glyph-name="m" unicode="m" horiz-adv-x="849" 
d="M406 0v325q0 143 -132 143q-70 0 -108 -45.5t-38 -118.5v-304h-45v500h44v-104q12 51 54.5 82.5t103.5 31.5q67 0 108 -31.5t53 -87.5q14 55 57 87t104 32q80 0 122.5 -45t42.5 -133v-332h-45v320q0 75 -31 111.5t-99 36.5q-72 0 -109 -44.5t-37 -117.5v-306h-45z" />
    <glyph glyph-name="n" unicode="n" horiz-adv-x="579" 
d="M457 0v315q0 82 -38 117.5t-116 35.5q-87 0 -131 -46t-44 -129v-293h-45v500h44v-106q17 52 64.5 83.5t125.5 31.5q89 0 137 -45t48 -135v-329h-45z" />
    <glyph glyph-name="o" unicode="o" horiz-adv-x="572" 
d="M46 252q0 123 67 190.5t172 67.5q113 -1 176.5 -67.5t63.5 -194.5q0 -123 -67 -190.5t-172 -67.5q-114 1 -177 67t-63 195zM92 252v-3q0 -109 51.5 -163.5t142.5 -54.5q90 0 141.5 55.5t51.5 161.5v3q0 109 -52 163.5t-143 54.5q-90 -1 -141 -56.5t-51 -160.5z" />
    <glyph glyph-name="p" unicode="p" horiz-adv-x="592" 
d="M83 -180v680h43v-111l1 -11q17 56 64.5 94t134.5 38q102 0 161 -62t59 -187q0 -272 -227 -272q-72 0 -122 32.5t-69 87.5v-289h-45zM128 283v-60q0 -89 50.5 -140.5t135.5 -51.5q187 0 187 225q0 109 -49.5 160.5t-137.5 51.5t-136 -50t-50 -135z" />
    <glyph glyph-name="q" unicode="q" horiz-adv-x="593" 
d="M466 387v113h44v-680h-45v299q-41 -130 -198 -130q-103 0 -162 62t-59 187q0 141 60.5 206.5t166.5 65.5q73 0 123.5 -33.5t69.5 -89.5zM279 468q-187 0 -187 -225q0 -109 49.5 -160.5t137.5 -51.5q90 0 138 52t48 141v61q-3 85 -53.5 134t-132.5 49z" />
    <glyph glyph-name="r" unicode="r" horiz-adv-x="358" 
d="M258 468q-65 0 -98 -46t-32 -129v-293h-45v500h44v-106q12 52 47 83t92 32q43 0 62 -17v-53q-25 28 -70 28v1z" />
    <glyph glyph-name="s" unicode="s" horiz-adv-x="478" 
d="M408 387q-53 82 -160 82h-2q-64 0 -101.5 -24t-37.5 -69q0 -39 33 -61.5t79.5 -33.5t93 -23.5t79.5 -43t33 -80.5q0 -69 -48.5 -106t-140.5 -38q-62 0 -109 17.5t-69 43.5v62q23 -36 70 -59t108 -23q68 0 106 26t38 73q0 39 -33 62t-79.5 34.5t-93 24t-79.5 42.5t-33 79
q0 62 47.5 100t138.5 38q99 0 160 -50v-73z" />
    <glyph glyph-name="t" unicode="t" horiz-adv-x="409" 
d="M26 500h96v109l46 19v-128h198v-42h-198v-312q0 -64 23.5 -89t80.5 -25q62 0 112 26v-41q-46 -27 -114 -27q-76 0 -112 34t-36 111v323h-96v42z" />
    <glyph glyph-name="u" unicode="u" horiz-adv-x="573" 
d="M122 500v-315q0 -80 37 -116t111 -37h3q85 0 128.5 46t43.5 129v293h45v-500h-44v106q-17 -52 -63 -83t-121 -32h-2h-2q-181 3 -181 180v329h45z" />
    <glyph glyph-name="v" unicode="v" horiz-adv-x="489" 
d="M228 0l-212 500h50l183 -435l176 435h48l-207 -500h-38z" />
    <glyph glyph-name="w" unicode="w" horiz-adv-x="743" 
d="M165 0l-135 500h47l117 -433l157 433h44l160 -430l113 430h45l-135 -500h-46l-159 440l-162 -440h-46z" />
    <glyph glyph-name="x" unicode="x" horiz-adv-x="482" 
d="M19 0l191 257l-179 243h57l151 -207l156 207h54l-183 -239l197 -261h-56l-169 225l-165 -225h-54z" />
    <glyph glyph-name="y" unicode="y" horiz-adv-x="502" 
d="M249 -2l-223 502h52l195 -443l166 443h49l-213 -553q-28 -73 -59 -103.5t-73 -30.5t-67 19v54q25 -29 65 -29q30 0 56 29.5t52 111.5z" />
    <glyph glyph-name="z" unicode="z" horiz-adv-x="462" 
d="M427 0h-395v35l334 423h-317v42h377v-35l-337 -423h338v-42z" />
    <glyph glyph-name="braceleft" unicode="{" horiz-adv-x="388" 
d="M34 263v44q110 0 110 120v189q0 72 31.5 103t101.5 31h77v-44h-76q-49 0 -69.5 -21t-20.5 -70v-189q0 -62 -22.5 -95.5t-78.5 -45.5q56 -11 78.5 -45.5t22.5 -95.5v-189q0 -49 20.5 -70t69.5 -21h76v-44h-77q-70 0 -101.5 31t-31.5 103v189q0 120 -110 120z" />
    <glyph glyph-name="bar" unicode="|" horiz-adv-x="244" 
d="M100 -180v930h44v-930h-44z" />
    <glyph glyph-name="braceright" unicode="}" horiz-adv-x="388" 
d="M354 307v-44q-110 0 -110 -120v-189q0 -72 -31.5 -103t-101.5 -31h-77v44h76q49 0 69.5 21t20.5 70v189q0 61 22.5 95.5t78.5 45.5q-56 12 -78.5 45.5t-22.5 95.5v189q0 49 -20.5 70t-69.5 21h-76v44h77q70 0 101.5 -31t31.5 -103v-189q0 -120 110 -120z" />
    <glyph glyph-name="asciitilde" unicode="~" 
d="M82 300v47q49 46 111 46q41 0 110.5 -43t106.5 -43q59 0 92 45v-51q-40 -38 -96 -38q-47 0 -115.5 43t-102.5 43q-54 0 -106 -49z" />
    <glyph glyph-name="exclamdown" unicode="&#xa1;" horiz-adv-x="299" 
d="M126 -200v470h48v-470h-48zM191 465q0 -41 -41 -41q-42 0 -42 41t42 41q41 0 41 -41z" />
    <glyph glyph-name="cent" unicode="&#xa2;" horiz-adv-x="518" 
d="M460 51q-42 -57 -150 -61v-118h-44v120q-100 8 -154.5 74t-54.5 186q0 114 57.5 180.5t151.5 75.5v120h44v-119q90 -4 145 -49v-73q-53 82 -160 82q-90 0 -141.5 -55.5t-51.5 -161.5v-3q0 -109 52 -163.5t143 -54.5q59 0 101 23t62 59v-62z" />
    <glyph glyph-name="sterling" unicode="&#xa3;" horiz-adv-x="620" 
d="M80 367h84v118q0 105 53 165t154 60q99 0 160 -50v-73q-53 82 -160 82q-78 0 -120 -47t-42 -130v-125h291v-44h-291v-279h331v-44h-461v44h85v279h-84v44z" />
    <glyph glyph-name="currency" unicode="&#xa4;" horiz-adv-x="620" 
d="M146 368q0 59 31 99l-91 92l31 31l92 -93q44 30 106 30q55 0 96 -27l90 90l31 -31l-90 -90q31 -40 31 -101t-31 -101l92 -92l-31 -31l-93 92q-43 -30 -103 -30q-57 0 -97 28l-92 -92l-31 31l92 92q-33 42 -33 103zM187 368q0 -54 34.5 -87.5t90.5 -33.5q55 0 88 33t33 88
t-33 86.5t-90 31.5q-56 0 -89.5 -31.5t-33.5 -86.5z" />
    <glyph glyph-name="yen" unicode="&#xa5;" horiz-adv-x="620" 
d="M100 327h157l-239 373h53l242 -373l238 373h52l-239 -373h156v-44h-184l-1 -2v-115h185v-44h-185v-122h-48v122h-187v44h187v115l-1 2h-186v44z" />
    <glyph glyph-name="brokenbar" unicode="&#xa6;" horiz-adv-x="283" 
d="M113 -180v380h45v-380h-45zM113 370v380h45v-380h-45z" />
    <glyph glyph-name="section" unicode="&#xa7;" horiz-adv-x="519" 
d="M420 586q-53 82 -160 82q-55 -1 -84 -22.5t-29 -54.5t30.5 -55.5t73.5 -37t86 -31t73.5 -49t30.5 -80.5q0 -106 -107 -138q89 -39 89 -113q0 -55 -42.5 -89.5t-124.5 -35.5q-99 0 -160 50v73q53 -82 160 -82q56 0 89 22t33 60q0 34 -31 56.5t-75 35.5t-88 29t-75 48
t-31 81q0 110 115 138q-91 41 -91 115q0 52 39 86t119 35q99 0 160 -50v-73zM123 343q0 -11 2.5 -21.5t6 -18.5t11.5 -16l13.5 -13.5t18 -12t18.5 -10t21.5 -9t21.5 -8t24 -8t23 -7.5q113 27 113 114q0 17 -4.5 31t-19 26.5t-22 19t-33 17t-32.5 13t-38 13.5
q-61 -7 -92.5 -35.5t-31.5 -74.5z" />
    <glyph glyph-name="dieresis" unicode="&#xa8;" horiz-adv-x="356" 
d="M248 726q0 14 9.5 23t24.5 9q16 0 25 -9t9 -23t-9 -23t-25 -9q-15 0 -24.5 9t-9.5 23zM40 726q0 14 9.5 23t24.5 9q16 0 25 -9t9 -23t-9 -23t-25 -9q-15 0 -24.5 9t-9.5 23z" />
    <glyph glyph-name="copyright" unicode="&#xa9;" horiz-adv-x="959" 
d="M60 287q2 183 116 297.5t303 115.5q191 0 305.5 -116t114.5 -301q-2 -183 -116 -297.5t-303 -115.5q-191 0 -305.5 115.5t-114.5 300.5v1zM479 659q-171 0 -272.5 -102t-102.5 -270q0 -169 102 -272t273 -104q171 0 272.5 102t103.5 270q0 169 -103 272.5t-273 103.5z
M635 115q-42 -52 -148 -52q-103 0 -160.5 57t-57.5 168q0 106 60.5 164t155.5 58q91 0 145 -43v-63q-46 71 -145 71q-81 0 -128 -48t-47 -139v-2q0 -93 47 -140.5t130 -47.5q106 0 148 71v-54z" />
    <glyph glyph-name="ordfeminine" unicode="&#xaa;" horiz-adv-x="417" 
d="M83 573v59q59 32 137 32q60 -2 90.5 -24t30.5 -78v-212h-37v66q-17 -32 -50.5 -51.5t-78.5 -19.5q-52 0 -81.5 25t-29.5 69q0 49 36.5 69t105.5 20h97v29q0 64 -87 69q-87 0 -133 -53zM303 462v37h-96q-101 0 -101 -58q0 -27 20 -42.5t57 -15.5q50 0 82 26t38 53z" />
    <glyph glyph-name="guillemotleft" unicode="&#xab;" horiz-adv-x="471" 
d="M415 89v-57l-195 218l195 218v-58l-144 -160zM235 89v-57l-195 218l195 218v-58l-144 -160z" />
    <glyph glyph-name="logicalnot" unicode="&#xac;" 
d="M457 161v162h-375v44h420v-206h-45z" />
    <glyph glyph-name="registered" unicode="&#xae;" horiz-adv-x="623" 
d="M311 708q114 0 183 -69.5t69 -180.5q-2 -110 -70 -179t-181 -69q-114 0 -183 70t-69 181q1 109 69 177.5t182 69.5zM537 458q0 102 -62 164t-164 62q-103 -1 -163.5 -62.5t-61.5 -161.5q0 -102 62 -163.5t164 -61.5t162.5 61t62.5 162zM214 328v265h91q63 0 91.5 -21
t28.5 -68q0 -29 -18.5 -48.5t-49.5 -26.5l87 -101h-31l-84 98h-5h-84v-98h-26zM399 504q0 37 -22.5 52t-72.5 15h-64v-125h82q35 0 55.5 15.5t21.5 42.5z" />
    <glyph glyph-name="macron" unicode="&#xaf;" horiz-adv-x="380" 
d="M40 641v41h300v-41h-300z" />
    <glyph glyph-name="degree" unicode="&#xb0;" horiz-adv-x="479" 
d="M76 548q0 72 46.5 115.5t121.5 43.5q72 0 115.5 -42.5t43.5 -116.5t-45.5 -118t-120.5 -44q-72 0 -116.5 45t-44.5 117zM117 548q0 -54 34.5 -87.5t90.5 -33.5q55 0 88 33t33 88t-33 86.5t-90 31.5q-56 0 -89.5 -31.5t-33.5 -86.5z" />
    <glyph glyph-name="plusminus" unicode="&#xb1;" 
d="M266 262v111h-184v44h184v181h44v-181h192v-44h-192v-111h-44zM82 192h420v-44h-420v44z" />
    <glyph glyph-name="acute" unicode="&#xb4;" horiz-adv-x="254" 
d="M74 590h-34l100 160h74z" />
    <glyph glyph-name="mu" unicode="&#xb5;" horiz-adv-x="620" 
d="M149 500v-315q0 -80 37 -116t112 -37h3q85 0 128 46t43 129v293h45v-500h-43v106q-17 -52 -64 -83.5t-123 -31.5q-93 2 -138 48v-219h-45v680h45z" />
    <glyph glyph-name="mu" unicode="&#x3bc;" horiz-adv-x="620" 
d="M149 500v-315q0 -80 37 -116t112 -37h3q85 0 128 46t43 129v293h45v-500h-43v106q-17 -52 -64 -83.5t-123 -31.5q-93 2 -138 48v-219h-45v680h45z" />
    <glyph glyph-name="paragraph" unicode="&#xb6;" horiz-adv-x="672" 
d="M528 -180v888h-180v-888h-44v423h-12q-245 0 -245 253q0 127 65 190.5t180 63.5h280v-930h-44zM92 500q0 -116 52 -166t150 -50h10v424h-7q-205 0 -205 -208z" />
    <glyph glyph-name="periodcentered" unicode="&#xb7;" horiz-adv-x="304" 
d="M110 335q0 41 42 41t42 -41t-42 -41t-42 41z" />
    <glyph glyph-name="cedilla" unicode="&#xb8;" horiz-adv-x="269" 
d="M136 0l-22 -65q115 -11 115 -77q0 -36 -31.5 -61.5t-73 -36t-84.5 -10.5v26q55 0 98 21t43 57q0 52 -111 54l31 92h35z" />
    <glyph glyph-name="ordmasculine" unicode="&#xba;" horiz-adv-x="447" 
d="M60 508q0 72 46.5 115.5t121.5 43.5q72 0 115.5 -42.5t43.5 -116.5t-45.5 -118t-120.5 -44q-72 0 -116.5 45t-44.5 117zM101 508q0 -54 34.5 -87.5t90.5 -33.5q55 0 88 33t33 88t-33 86.5t-90 31.5q-56 0 -89.5 -31.5t-33.5 -86.5z" />
    <glyph glyph-name="guillemotright" unicode="&#xbb;" horiz-adv-x="471" 
d="M56 411v57l195 -218l-195 -218v58l144 160zM236 411v57l195 -218l-195 -218v58l144 160z" />
    <glyph glyph-name="onequarter" unicode="&#xbc;" horiz-adv-x="784" 
d="M386 124l220 232h40v-233h78v-36h-78v-87h-40v87h-220v37zM641 700l-504 -700h-52l507 700h49zM215 704v-354h-40v305l-115 -61v40l128 70h27zM435 123h171v179z" />
    <glyph glyph-name="onehalf" unicode="&#xbd;" horiz-adv-x="803" 
d="M629 700l-504 -700h-52l507 700h49zM731 36v-36h-266l-27 -1v25q139 80 185.5 121t46.5 90q0 36 -23.5 58t-67.5 23q-37 1 -72 -13.5t-57 -39.5v59q61 33 133 32q59 -1 93 -30t34 -81q0 -49 -31 -90.5t-116 -92.5l-39 -24h207zM60 594v40l128 70h27v-354h-40v305z" />
    <glyph glyph-name="threequarters" unicode="&#xbe;" horiz-adv-x="850" 
d="M452 124l220 232h40v-233h78v-36h-78v-87h-40v87h-220v37zM63 613v59q59 32 133 32q61 0 93 -25t32 -67q0 -59 -65 -80q87 -13 87 -82q0 -49 -40 -76.5t-113 -27.5q-83 1 -130 38v59q17 -26 52.5 -42.5t80.5 -16.5q110 0 110 69q0 57 -101 57h-72v36h52q100 0 100 60
q0 57 -90 60q-38 1 -73 -14t-56 -39zM707 700l-504 -700h-52l507 700h49zM501 123h171v179z" />
    <glyph glyph-name="questiondown" unicode="&#xbf;" horiz-adv-x="511" 
d="M451 -133q-73 -79 -207 -74q-86 5 -135 49t-49 126q0 51 21 90.5t51 63.5t60 45t51 46.5t21 56.5h44q0 -40 -21 -71t-50.5 -52t-59 -43t-50.5 -56t-21 -78q0 -63 40 -98t113 -35q122 0 192 95v-65zM327 465q0 -41 -41 -41q-42 0 -42 41t42 41q41 0 41 -41z" />
    <glyph glyph-name="Agrave" unicode="&#xc0;" horiz-adv-x="699" 
d="M323 700h51l313 -700h-52l-92 205h-391l-90 -205h-51zM347 645l-175 -396h352zM376 740l-178 120h88l135 -120h-45z" />
    <glyph glyph-name="Aacute" unicode="&#xc1;" horiz-adv-x="699" 
d="M323 700h51l313 -700h-52l-92 205h-391l-90 -205h-51zM347 645l-175 -396h352zM323 740h-45l135 120h88z" />
    <glyph glyph-name="Acircumflex" unicode="&#xc2;" horiz-adv-x="699" 
d="M323 700h51l313 -700h-52l-92 205h-391l-90 -205h-51zM347 645l-175 -396h352zM373 860l155 -114h-39l-140 72l-140 -72h-39l155 114h48z" />
    <glyph glyph-name="Atilde" unicode="&#xc3;" horiz-adv-x="699" 
d="M323 700h51l313 -700h-52l-92 205h-391l-90 -205h-51zM347 645l-175 -396h352zM529 848q-31 -102 -105 -102q-32 0 -81 31t-72 31q-44 0 -70 -62h-32q36 107 111 107q29 0 77.5 -31t70.5 -31q46 0 71 57h30z" />
    <glyph glyph-name="Adieresis" unicode="&#xc4;" horiz-adv-x="699" 
d="M323 700h51l313 -700h-52l-92 205h-391l-90 -205h-51zM347 645l-175 -396h352zM419 823q0 14 9.5 23t24.5 9q16 0 25 -9t9 -23t-9 -23t-25 -9q-15 0 -24.5 9t-9.5 23zM211 823q0 14 9.5 23t24.5 9q16 0 25 -9t9 -23t-9 -23t-25 -9q-15 0 -24.5 9t-9.5 23z" />
    <glyph glyph-name="Aring" unicode="&#xc5;" horiz-adv-x="699" 
d="M323 700h51l313 -700h-52l-92 205h-391l-90 -205h-51zM347 645l-175 -396h352zM231 780q0 39 31.5 59.5t87.5 20.5q55 0 86.5 -21t31.5 -59t-31.5 -59t-86.5 -21q-56 0 -87.5 21t-31.5 59zM269 780q0 -50 81 -50q80 0 80 50t-80 50q-81 0 -81 -50z" />
    <glyph glyph-name="AE" unicode="&#xc6;" horiz-adv-x="991" 
d="M888 382v-44h-366v-294h418v-44h-466v217h-278l-134 -217h-51l435 700h483v-44h-407v-274h366zM468 656l-245 -395h251v395h-6z" />
    <glyph glyph-name="Ccedilla" unicode="&#xc7;" horiz-adv-x="698" 
d="M658 158v-77q-29 -35 -97.5 -62.5t-154.5 -28.5l-18 -55q115 -11 115 -77q0 -36 -31.5 -61.5t-73 -36t-84.5 -10.5v26q55 0 98 21t43 57q0 52 -111 54l28 84q-151 12 -236.5 107t-85.5 252t98.5 258t258.5 101q80 0 143.5 -24.5t94.5 -56.5v-83q-31 54 -95.5 87
t-142.5 33q-136 0 -221.5 -86.5t-85.5 -229.5q0 -138 80 -224.5t221 -91.5q91 0 158.5 35t98.5 89z" />
    <glyph glyph-name="Egrave" unicode="&#xc8;" horiz-adv-x="629" 
d="M529 382v-44h-381v-294h430v-44h-478v700h467v-44h-419v-274h381zM381 740l-178 120h88l135 -120h-45z" />
    <glyph glyph-name="Eacute" unicode="&#xc9;" horiz-adv-x="629" 
d="M529 382v-44h-381v-294h430v-44h-478v700h467v-44h-419v-274h381zM278 740h-45l135 120h88z" />
    <glyph glyph-name="Ecircumflex" unicode="&#xca;" horiz-adv-x="629" 
d="M529 382v-44h-381v-294h430v-44h-478v700h467v-44h-419v-274h381zM363 860l155 -114h-39l-140 72l-140 -72h-39l155 114h48z" />
    <glyph glyph-name="Edieresis" unicode="&#xcb;" horiz-adv-x="629" 
d="M529 382v-44h-381v-294h430v-44h-478v700h467v-44h-419v-274h381zM404 823q0 14 9.5 23t24.5 9q16 0 25 -9t9 -23t-9 -23t-25 -9q-15 0 -24.5 9t-9.5 23zM196 823q0 14 9.5 23t24.5 9q16 0 25 -9t9 -23t-9 -23t-25 -9q-15 0 -24.5 9t-9.5 23z" />
    <glyph glyph-name="Igrave" unicode="&#xcc;" horiz-adv-x="248" 
d="M148 700v-700h-48v700h48zM150 740l-178 120h88l135 -120h-45z" />
    <glyph glyph-name="Iacute" unicode="&#xcd;" horiz-adv-x="248" 
d="M148 700v-700h-48v700h48zM97 740h-45l135 120h88z" />
    <glyph glyph-name="Icircumflex" unicode="&#xce;" horiz-adv-x="248" 
d="M148 700v-700h-48v700h48zM148 860l155 -114h-39l-140 72l-140 -72h-39l155 114h48z" />
    <glyph glyph-name="Idieresis" unicode="&#xcf;" horiz-adv-x="248" 
d="M148 700v-700h-48v700h48zM194 823q0 14 9.5 23t24.5 9q16 0 25 -9t9 -23t-9 -23t-25 -9q-15 0 -24.5 9t-9.5 23zM-14 823q0 14 9.5 23t24.5 9q16 0 25 -9t9 -23t-9 -23t-25 -9q-15 0 -24.5 9t-9.5 23z" />
    <glyph glyph-name="Eth" unicode="&#xd0;" horiz-adv-x="770" 
d="M126 700h228q176 0 271.5 -87.5t95.5 -248.5q0 -96 -29.5 -167.5t-83 -113.5t-120.5 -62.5t-148 -20.5h-214v338h-119v44h119v318zM366 382v-44h-192v-294h161q160 0 248 80.5t88 234.5q0 146 -83.5 221.5t-242.5 75.5h-171v-274h192z" />
    <glyph glyph-name="Ntilde" unicode="&#xd1;" horiz-adv-x="798" 
d="M647 0l-499 625v-625h-48v700h51l499 -625v625h48v-700h-51zM599 848q-31 -102 -105 -102q-32 0 -81 31t-72 31q-44 0 -70 -62h-32q36 107 111 107q29 0 77.5 -31t70.5 -31q46 0 71 57h30z" />
    <glyph glyph-name="Ograve" unicode="&#xd2;" horiz-adv-x="814" 
d="M404 710h3q167 -2 262 -99t95 -262q0 -156 -97.5 -257t-255.5 -102q-169 1 -265 97.5t-96 263.5q0 155 96.5 255.5t257.5 103.5zM100 350q0 -142 84 -228.5t231 -87.5q133 2 216 88.5t83 227.5q0 142 -84 229.5t-231 86.5q-133 -1 -216 -88t-83 -228zM473 740l-178 120
h88l135 -120h-45z" />
    <glyph glyph-name="Oacute" unicode="&#xd3;" horiz-adv-x="814" 
d="M404 710h3q167 -2 262 -99t95 -262q0 -156 -97.5 -257t-255.5 -102q-169 1 -265 97.5t-96 263.5q0 155 96.5 255.5t257.5 103.5zM100 350q0 -142 84 -228.5t231 -87.5q133 2 216 88.5t83 227.5q0 142 -84 229.5t-231 86.5q-133 -1 -216 -88t-83 -228zM360 740h-45
l135 120h88z" />
    <glyph glyph-name="Ocircumflex" unicode="&#xd4;" horiz-adv-x="814" 
d="M404 710h3q167 -2 262 -99t95 -262q0 -156 -97.5 -257t-255.5 -102q-169 1 -265 97.5t-96 263.5q0 155 96.5 255.5t257.5 103.5zM100 350q0 -142 84 -228.5t231 -87.5q133 2 216 88.5t83 227.5q0 142 -84 229.5t-231 86.5q-133 -1 -216 -88t-83 -228zM431 860l155 -114
h-39l-140 72l-140 -72h-39l155 114h48z" />
    <glyph glyph-name="Otilde" unicode="&#xd5;" horiz-adv-x="814" 
d="M404 710h3q167 -2 262 -99t95 -262q0 -156 -97.5 -257t-255.5 -102q-169 1 -265 97.5t-96 263.5q0 155 96.5 255.5t257.5 103.5zM100 350q0 -142 84 -228.5t231 -87.5q133 2 216 88.5t83 227.5q0 142 -84 229.5t-231 86.5q-133 -1 -216 -88t-83 -228zM587 848
q-31 -102 -105 -102q-32 0 -81 31t-72 31q-44 0 -70 -62h-32q36 107 111 107q29 0 77.5 -31t70.5 -31q46 0 71 57h30z" />
    <glyph glyph-name="Odieresis" unicode="&#xd6;" horiz-adv-x="814" 
d="M404 710h3q167 -2 262 -99t95 -262q0 -156 -97.5 -257t-255.5 -102q-169 1 -265 97.5t-96 263.5q0 155 96.5 255.5t257.5 103.5zM100 350q0 -142 84 -228.5t231 -87.5q133 2 216 88.5t83 227.5q0 142 -84 229.5t-231 86.5q-133 -1 -216 -88t-83 -228zM477 823
q0 14 9.5 23t24.5 9q16 0 25 -9t9 -23t-9 -23t-25 -9q-15 0 -24.5 9t-9.5 23zM269 823q0 14 9.5 23t24.5 9q16 0 25 -9t9 -23t-9 -23t-25 -9q-15 0 -24.5 9t-9.5 23z" />
    <glyph glyph-name="multiply" unicode="&#xd7;" 
d="M425 181l-133 133l-133 -133l-31 31l133 133l-133 133l31 31l133 -133l133 133l31 -31l-133 -133l133 -133z" />
    <glyph glyph-name="Oslash" unicode="&#xd8;" horiz-adv-x="814" 
d="M230 -86l36 99q-103 37 -159.5 124.5t-56.5 213.5q0 156 96 257.5t253 101.5q61 0 115 -14l34 92l42 -15l-33 -90q99 -39 153 -125t54 -209q0 -157 -98.5 -258t-258.5 -101q-58 2 -98 11l-37 -102zM399 666q-133 -3 -216 -89t-83 -227q0 -105 47.5 -182t134.5 -111
l217 596q-50 13 -100 13zM415 34q133 2 216 88.5t83 227.5q0 102 -45 177.5t-128 110.5l-216 -594q45 -10 90 -10z" />
    <glyph glyph-name="Ugrave" unicode="&#xd9;" horiz-adv-x="750" 
d="M143 700v-413q0 -134 61 -193.5t178 -59.5q225 0 225 241v425h48v-422q0 -149 -73.5 -218.5t-204.5 -69.5q-282 0 -282 289v421h48zM441 740l-178 120h88l135 -120h-45z" />
    <glyph glyph-name="Uacute" unicode="&#xda;" horiz-adv-x="750" 
d="M143 700v-413q0 -134 61 -193.5t178 -59.5q225 0 225 241v425h48v-422q0 -149 -73.5 -218.5t-204.5 -69.5q-282 0 -282 289v421h48zM338 740h-45l135 120h88z" />
    <glyph glyph-name="Ucircumflex" unicode="&#xdb;" horiz-adv-x="750" 
d="M143 700v-413q0 -134 61 -193.5t178 -59.5q225 0 225 241v425h48v-422q0 -149 -73.5 -218.5t-204.5 -69.5q-282 0 -282 289v421h48zM399 860l155 -114h-39l-140 72l-140 -72h-39l155 114h48z" />
    <glyph glyph-name="Udieresis" unicode="&#xdc;" horiz-adv-x="750" 
d="M143 700v-413q0 -134 61 -193.5t178 -59.5q225 0 225 241v425h48v-422q0 -149 -73.5 -218.5t-204.5 -69.5q-282 0 -282 289v421h48zM445 823q0 14 9.5 23t24.5 9q16 0 25 -9t9 -23t-9 -23t-25 -9q-15 0 -24.5 9t-9.5 23zM237 823q0 14 9.5 23t24.5 9q16 0 25 -9t9 -23
t-9 -23t-25 -9q-15 0 -24.5 9t-9.5 23z" />
    <glyph glyph-name="Yacute" unicode="&#xdd;" horiz-adv-x="626" 
d="M618 700l-280 -420v-280h-48v280l-282 420h56l252 -373l247 373h55zM276 740h-45l135 120h88z" />
    <glyph glyph-name="Thorn" unicode="&#xde;" horiz-adv-x="647" 
d="M148 700v-100h166q277 0 277 -224q0 -114 -75.5 -172t-220.5 -58h-147v-146h-48v700h48zM309 556h-161v-366h144q124 0 186.5 46t62.5 143q0 94 -57.5 135.5t-174.5 41.5z" />
    <glyph glyph-name="germandbls" unicode="&#xdf;" horiz-adv-x="665" 
d="M380 450h-1q-21 -10 -34.5 -18t-25.5 -26t-12 -41q0 -33 31.5 -53t76.5 -30.5t89.5 -23.5t76 -42.5t31.5 -76.5q0 -69 -49 -108.5t-140 -40.5q-60 0 -102 17.5t-61 43.5v62q20 -36 62 -59t101 -23q68 0 106 26t38 79q0 36 -31.5 58t-76.5 33t-90 24t-76.5 40.5
t-31.5 71.5q0 84 96 121q56 26 79.5 52.5t23.5 66.5q0 52 -35 83t-109 31q-103 0 -145 -52.5t-43 -164.5v-500h-45v500q0 127 54 192.5t185 65.5q97 0 140 -45.5t43 -106.5q0 -59 -32 -93.5t-93 -62.5z" />
    <glyph glyph-name="agrave" unicode="&#xe0;" horiz-adv-x="517" 
d="M395 238h-148q-79 0 -118 -22.5t-39 -74.5q0 -49 35 -77.5t95 -28.5q78 0 125.5 48t49.5 104v51zM79 460q61 50 170 50q96 0 143.5 -41t47.5 -141v-328h-43v114q-20 -56 -70.5 -89t-117.5 -33q-75 0 -120 38.5t-45 107.5q0 75 51.5 106.5t151.5 31.5h148v51q0 74 -35 108
t-111 34q-117 0 -170 -82v73zM298 590l-140 160h74l100 -160h-34z" />
    <glyph glyph-name="aacute" unicode="&#xe1;" horiz-adv-x="517" 
d="M395 238h-148q-79 0 -118 -22.5t-39 -74.5q0 -49 35 -77.5t95 -28.5q78 0 125.5 48t49.5 104v51zM79 460q61 50 170 50q96 0 143.5 -41t47.5 -141v-328h-43v114q-20 -56 -70.5 -89t-117.5 -33q-75 0 -120 38.5t-45 107.5q0 75 51.5 106.5t151.5 31.5h148v51q0 74 -35 108
t-111 34q-117 0 -170 -82v73zM225 590h-34l100 160h74z" />
    <glyph glyph-name="acircumflex" unicode="&#xe2;" horiz-adv-x="517" 
d="M395 238h-148q-79 0 -118 -22.5t-39 -74.5q0 -49 35 -77.5t95 -28.5q78 0 125.5 48t49.5 104v51zM79 460q61 50 170 50q96 0 143.5 -41t47.5 -141v-328h-43v114q-20 -56 -70.5 -89t-117.5 -33q-75 0 -120 38.5t-45 107.5q0 75 51.5 106.5t151.5 31.5h148v51q0 74 -35 108
t-111 34q-117 0 -170 -82v73zM238 750h40l143 -154h-33l-130 109l-130 -109h-33z" />
    <glyph glyph-name="atilde" unicode="&#xe3;" horiz-adv-x="517" 
d="M395 238h-148q-79 0 -118 -22.5t-39 -74.5q0 -49 35 -77.5t95 -28.5q78 0 125.5 48t49.5 104v51zM79 460q61 50 170 50q96 0 143.5 -41t47.5 -141v-328h-43v114q-20 -56 -70.5 -89t-117.5 -33q-75 0 -120 38.5t-45 107.5q0 75 51.5 106.5t151.5 31.5h148v51q0 74 -35 108
t-111 34q-117 0 -170 -82v73zM434 724q-25 -106 -100 -106q-32 0 -80.5 30t-73.5 30q-43 0 -65 -60h-32q18 59 47.5 82t57.5 23q33 0 80 -30t70 -30q46 0 65 61h31z" />
    <glyph glyph-name="adieresis" unicode="&#xe4;" horiz-adv-x="517" 
d="M395 238h-148q-79 0 -118 -22.5t-39 -74.5q0 -49 35 -77.5t95 -28.5q78 0 125.5 48t49.5 104v51zM79 460q61 50 170 50q96 0 143.5 -41t47.5 -141v-328h-43v114q-20 -56 -70.5 -89t-117.5 -33q-75 0 -120 38.5t-45 107.5q0 75 51.5 106.5t151.5 31.5h148v51q0 74 -35 108
t-111 34q-117 0 -170 -82v73zM328 726q0 14 9.5 23t24.5 9q16 0 25 -9t9 -23t-9 -23t-25 -9q-15 0 -24.5 9t-9.5 23zM120 726q0 14 9.5 23t24.5 9q16 0 25 -9t9 -23t-9 -23t-25 -9q-15 0 -24.5 9t-9.5 23z" />
    <glyph glyph-name="aring" unicode="&#xe5;" horiz-adv-x="517" 
d="M395 238h-148q-79 0 -118 -22.5t-39 -74.5q0 -49 35 -77.5t95 -28.5q78 0 125.5 48t49.5 104v51zM79 460q61 50 170 50q96 0 143.5 -41t47.5 -141v-328h-43v114q-20 -56 -70.5 -89t-117.5 -33q-75 0 -120 38.5t-45 107.5q0 75 51.5 106.5t151.5 31.5h148v51q0 74 -35 108
t-111 34q-117 0 -170 -82v73zM157 689q0 44 27 71.5t74 27.5t74 -27.5t27 -71.5q0 -45 -27.5 -72t-73.5 -27t-73.5 27.5t-27.5 71.5zM191 689q0 -29 18.5 -48t48.5 -19t48.5 18.5t18.5 48.5q0 29 -18 48t-49 19q-30 0 -48.5 -18.5t-18.5 -48.5z" />
    <glyph glyph-name="ae" unicode="&#xe6;" horiz-adv-x="879" 
d="M804 51q-21 -26 -68 -43.5t-116 -17.5q-169 0 -220 138q-17 -62 -68.5 -99t-122.5 -37q-75 0 -120 38.5t-45 107.5q0 75 51.5 106.5t151.5 31.5h133v39q0 73 -30.5 109t-91.5 42q-50 5 -96.5 -18t-76.5 -65v76q31 22 78 36t94 13q127 -6 159 -106q30 53 83 80.5t119 27.5
q101 0 158.5 -62.5t57.5 -173.5v-37h-409q3 -103 54.5 -154.5t140.5 -51.5q68 0 115 23t69 59v-62zM618 469q-84 0 -135 -49t-57 -143h363v3q0 91 -46.5 140t-124.5 49zM220 35q67 0 112 36.5t58 86.5q-8 34 -10 80h-133q-79 0 -118 -22.5t-39 -74.5q0 -49 35 -77.5
t95 -28.5z" />
    <glyph glyph-name="ccedilla" unicode="&#xe7;" horiz-adv-x="498" 
d="M450 51q-19 -26 -60 -43t-99 -18l-18 -55q115 -11 115 -77q0 -36 -31.5 -61.5t-73 -36t-84.5 -10.5v26q55 0 98 21t43 57q0 52 -111 54l28 84q-100 8 -155.5 74t-55.5 186q0 123 67 190.5t172 67.5q99 0 160 -50v-73q-53 82 -160 82q-90 0 -141.5 -55.5t-51.5 -161.5v-3
q0 -109 52 -163.5t143 -54.5q59 0 101 23t62 59v-62z" />
    <glyph glyph-name="egrave" unicode="&#xe8;" horiz-adv-x="546" 
d="M285 510q101 0 158.5 -62.5t57.5 -173.5v-37h-409q3 -103 54.5 -154.5t140.5 -51.5q68 0 115 23t69 59v-62q-21 -26 -68 -43.5t-116 -17.5q-114 0 -177.5 66.5t-63.5 195.5q0 123 67 190.5t172 67.5zM285 469q-84 0 -135 -49t-57 -143h363v3q0 91 -46.5 140t-124.5 49z
M313 590l-140 160h74l100 -160h-34z" />
    <glyph glyph-name="eacute" unicode="&#xe9;" horiz-adv-x="546" 
d="M285 510q101 0 158.5 -62.5t57.5 -173.5v-37h-409q3 -103 54.5 -154.5t140.5 -51.5q68 0 115 23t69 59v-62q-21 -26 -68 -43.5t-116 -17.5q-114 0 -177.5 66.5t-63.5 195.5q0 123 67 190.5t172 67.5zM285 469q-84 0 -135 -49t-57 -143h363v3q0 91 -46.5 140t-124.5 49z
M240 590h-34l100 160h74z" />
    <glyph glyph-name="ecircumflex" unicode="&#xea;" horiz-adv-x="546" 
d="M285 510q101 0 158.5 -62.5t57.5 -173.5v-37h-409q3 -103 54.5 -154.5t140.5 -51.5q68 0 115 23t69 59v-62q-21 -26 -68 -43.5t-116 -17.5q-114 0 -177.5 66.5t-63.5 195.5q0 123 67 190.5t172 67.5zM285 469q-84 0 -135 -49t-57 -143h363v3q0 91 -46.5 140t-124.5 49z
M253 750h40l143 -154h-33l-130 109l-130 -109h-33z" />
    <glyph glyph-name="edieresis" unicode="&#xeb;" horiz-adv-x="546" 
d="M285 510q101 0 158.5 -62.5t57.5 -173.5v-37h-409q3 -103 54.5 -154.5t140.5 -51.5q68 0 115 23t69 59v-62q-21 -26 -68 -43.5t-116 -17.5q-114 0 -177.5 66.5t-63.5 195.5q0 123 67 190.5t172 67.5zM285 469q-84 0 -135 -49t-57 -143h363v3q0 91 -46.5 140t-124.5 49z
M343 726q0 14 9.5 23t24.5 9q16 0 25 -9t9 -23t-9 -23t-25 -9q-15 0 -24.5 9t-9.5 23zM135 726q0 14 9.5 23t24.5 9q16 0 25 -9t9 -23t-9 -23t-25 -9q-15 0 -24.5 9t-9.5 23z" />
    <glyph glyph-name="igrave" unicode="&#xec;" horiz-adv-x="222" 
d="M83 0v500h45v-500h-45zM141 590l-140 160h74l100 -160h-34z" />
    <glyph glyph-name="iacute" unicode="&#xed;" horiz-adv-x="222" 
d="M83 0v500h45v-500h-45zM78 590h-34l100 160h74z" />
    <glyph glyph-name="icircumflex" unicode="&#xee;" horiz-adv-x="222" 
d="M83 0v500h45v-500h-45zM91 750h40l143 -154h-33l-130 109l-130 -109h-33z" />
    <glyph glyph-name="idieresis" unicode="&#xef;" horiz-adv-x="222" 
d="M83 0v500h45v-500h-45zM181 726q0 14 9.5 23t24.5 9q16 0 25 -9t9 -23t-9 -23t-25 -9q-15 0 -24.5 9t-9.5 23zM-27 726q0 14 9.5 23t24.5 9q16 0 25 -9t9 -23t-9 -23t-25 -9q-15 0 -24.5 9t-9.5 23z" />
    <glyph glyph-name="eth" unicode="&#xf0;" horiz-adv-x="572" 
d="M186 549l-19 36l128 66q-53 47 -113 76l18 27q65 -26 131 -85l103 53l19 -37l-90 -46q123 -129 153 -307q9 -38 9 -84q0 -123 -66.5 -190t-171.5 -68q-114 0 -177 66.5t-63 195.5q0 123 66 190t171 68q98 0 154 -59q-41 96 -111 170zM92 249q0 -109 51.5 -163.5
t142.5 -54.5q90 0 141.5 55.5t51.5 161.5v3q0 108 -51.5 162.5t-142.5 55.5q-90 0 -141.5 -55.5t-51.5 -161.5v-3z" />
    <glyph glyph-name="ntilde" unicode="&#xf1;" horiz-adv-x="579" 
d="M457 0v315q0 82 -38 117.5t-116 35.5q-87 0 -131 -46t-44 -129v-293h-45v500h44v-106q17 52 64.5 83.5t125.5 31.5q89 0 137 -45t48 -135v-329h-45zM465 724q-25 -106 -100 -106q-32 0 -80.5 30t-73.5 30q-43 0 -65 -60h-32q18 59 47.5 82t57.5 23q33 0 80 -30t70 -30
q46 0 65 61h31z" />
    <glyph glyph-name="ograve" unicode="&#xf2;" horiz-adv-x="572" 
d="M46 252q0 123 67 190.5t172 67.5q113 -1 176.5 -67.5t63.5 -194.5q0 -123 -67 -190.5t-172 -67.5q-114 1 -177 67t-63 195zM92 252v-3q0 -109 51.5 -163.5t142.5 -54.5q90 0 141.5 55.5t51.5 161.5v3q0 109 -52 163.5t-143 54.5q-90 -1 -141 -56.5t-51 -160.5zM326 590
l-140 160h74l100 -160h-34z" />
    <glyph glyph-name="oacute" unicode="&#xf3;" horiz-adv-x="572" 
d="M46 252q0 123 67 190.5t172 67.5q113 -1 176.5 -67.5t63.5 -194.5q0 -123 -67 -190.5t-172 -67.5q-114 1 -177 67t-63 195zM92 252v-3q0 -109 51.5 -163.5t142.5 -54.5q90 0 141.5 55.5t51.5 161.5v3q0 109 -52 163.5t-143 54.5q-90 -1 -141 -56.5t-51 -160.5zM253 590
h-34l100 160h74z" />
    <glyph glyph-name="ocircumflex" unicode="&#xf4;" horiz-adv-x="572" 
d="M46 252q0 123 67 190.5t172 67.5q113 -1 176.5 -67.5t63.5 -194.5q0 -123 -67 -190.5t-172 -67.5q-114 1 -177 67t-63 195zM92 252v-3q0 -109 51.5 -163.5t142.5 -54.5q90 0 141.5 55.5t51.5 161.5v3q0 109 -52 163.5t-143 54.5q-90 -1 -141 -56.5t-51 -160.5zM266 750
h40l143 -154h-33l-130 109l-130 -109h-33z" />
    <glyph glyph-name="otilde" unicode="&#xf5;" horiz-adv-x="572" 
d="M46 252q0 123 67 190.5t172 67.5q113 -1 176.5 -67.5t63.5 -194.5q0 -123 -67 -190.5t-172 -67.5q-114 1 -177 67t-63 195zM92 252v-3q0 -109 51.5 -163.5t142.5 -54.5q90 0 141.5 55.5t51.5 161.5v3q0 109 -52 163.5t-143 54.5q-90 -1 -141 -56.5t-51 -160.5zM461 724
q-25 -106 -100 -106q-32 0 -80.5 30t-73.5 30q-43 0 -65 -60h-32q18 59 47.5 82t57.5 23q33 0 80 -30t70 -30q46 0 65 61h31z" />
    <glyph glyph-name="odieresis" unicode="&#xf6;" horiz-adv-x="572" 
d="M46 252q0 123 67 190.5t172 67.5q113 -1 176.5 -67.5t63.5 -194.5q0 -123 -67 -190.5t-172 -67.5q-114 1 -177 67t-63 195zM92 252v-3q0 -109 51.5 -163.5t142.5 -54.5q90 0 141.5 55.5t51.5 161.5v3q0 109 -52 163.5t-143 54.5q-90 -1 -141 -56.5t-51 -160.5zM356 726
q0 14 9.5 23t24.5 9q16 0 25 -9t9 -23t-9 -23t-25 -9q-15 0 -24.5 9t-9.5 23zM148 726q0 14 9.5 23t24.5 9q16 0 25 -9t9 -23t-9 -23t-25 -9q-15 0 -24.5 9t-9.5 23z" />
    <glyph glyph-name="divide" unicode="&#xf7;" 
d="M82 367h420v-44h-420v44zM258 515q0 14 9 23t25 9t25 -9t9 -23t-9.5 -23t-24.5 -9q-16 0 -25 9t-9 23zM258 170q0 14 9.5 23t24.5 9q16 0 25 -9t9 -23t-9 -23t-25 -9q-15 0 -24.5 9t-9.5 23z" />
    <glyph glyph-name="oslash" unicode="&#xf8;" horiz-adv-x="572" 
d="M363 500l37 101l37 -14l-37 -100q125 -59 125 -239q0 -123 -67 -190.5t-172 -67.5q-30 0 -65 7l-39 -109l-37 14l38 105q-136 54 -136 245q0 123 66.5 190.5t171.5 67.5q44 0 78 -10zM92 252v-3q0 -156 106 -202l151 413q-30 9 -65 9q-90 -1 -141 -56.5t-51 -160.5z
M286 31q90 0 141.5 55.5t51.5 161.5v3q0 145 -93 195l-150 -410q25 -5 50 -5z" />
    <glyph glyph-name="ugrave" unicode="&#xf9;" horiz-adv-x="573" 
d="M122 500v-315q0 -80 37 -116t111 -37h3q85 0 128.5 46t43.5 129v293h45v-500h-44v106q-17 -52 -63 -83t-121 -32h-2h-2q-181 3 -181 180v329h45zM306 590l-140 160h74l100 -160h-34z" />
    <glyph glyph-name="uacute" unicode="&#xfa;" horiz-adv-x="573" 
d="M122 500v-315q0 -80 37 -116t111 -37h3q85 0 128.5 46t43.5 129v293h45v-500h-44v106q-17 -52 -63 -83t-121 -32h-2h-2q-181 3 -181 180v329h45zM273 590h-34l100 160h74z" />
    <glyph glyph-name="ucircumflex" unicode="&#xfb;" horiz-adv-x="573" 
d="M122 500v-315q0 -80 37 -116t111 -37h3q85 0 128.5 46t43.5 129v293h45v-500h-44v106q-17 -52 -63 -83t-121 -32h-2h-2q-181 3 -181 180v329h45zM266 750h40l143 -154h-33l-130 109l-130 -109h-33z" />
    <glyph glyph-name="udieresis" unicode="&#xfc;" horiz-adv-x="573" 
d="M122 500v-315q0 -80 37 -116t111 -37h3q85 0 128.5 46t43.5 129v293h45v-500h-44v106q-17 -52 -63 -83t-121 -32h-2h-2q-181 3 -181 180v329h45zM356 726q0 14 9.5 23t24.5 9q16 0 25 -9t9 -23t-9 -23t-25 -9q-15 0 -24.5 9t-9.5 23zM148 726q0 14 9.5 23t24.5 9
q16 0 25 -9t9 -23t-9 -23t-25 -9q-15 0 -24.5 9t-9.5 23z" />
    <glyph glyph-name="yacute" unicode="&#xfd;" horiz-adv-x="502" 
d="M249 -2l-223 502h52l195 -443l166 443h49l-213 -553q-28 -73 -59 -103.5t-73 -30.5t-67 19v54q25 -29 65 -29q30 0 56 29.5t52 111.5zM238 590h-34l100 160h74z" />
    <glyph glyph-name="thorn" unicode="&#xfe;" horiz-adv-x="593" 
d="M83 750h45v-370q17 56 64.5 93t133.5 37q102 0 161 -62t59 -187q0 -272 -226 -272q-72 0 -122.5 32.5t-69.5 87.5v-289h-45v930zM128 283v-60q0 -89 50.5 -140.5t135.5 -51.5q187 0 187 225q0 109 -49.5 160.5t-137.5 51.5t-136 -50t-50 -135z" />
    <glyph glyph-name="ydieresis" unicode="&#xff;" horiz-adv-x="502" 
d="M249 -2l-223 502h52l195 -443l166 443h49l-213 -553q-28 -73 -59 -103.5t-73 -30.5t-67 19v54q25 -29 65 -29q30 0 56 29.5t52 111.5zM321 726q0 14 9.5 23t24.5 9q16 0 25 -9t9 -23t-9 -23t-25 -9q-15 0 -24.5 9t-9.5 23zM113 726q0 14 9.5 23t24.5 9q16 0 25 -9t9 -23
t-9 -23t-25 -9q-15 0 -24.5 9t-9.5 23z" />
    <glyph glyph-name="Amacron" unicode="&#x100;" horiz-adv-x="699" 
d="M323 700h51l313 -700h-52l-92 205h-391l-90 -205h-51zM347 645l-175 -396h352zM199 781v41h300v-41h-300z" />
    <glyph glyph-name="amacron" unicode="&#x101;" horiz-adv-x="517" 
d="M395 238h-148q-79 0 -118 -22.5t-39 -74.5q0 -49 35 -77.5t95 -28.5q78 0 125.5 48t49.5 104v51zM79 460q61 50 170 50q96 0 143.5 -41t47.5 -141v-328h-43v114q-20 -56 -70.5 -89t-117.5 -33q-75 0 -120 38.5t-45 107.5q0 75 51.5 106.5t151.5 31.5h148v51q0 74 -35 108
t-111 34q-117 0 -170 -82v73zM108 641v41h300v-41h-300z" />
    <glyph glyph-name="Abreve" unicode="&#x102;" horiz-adv-x="699" 
d="M323 700h51l313 -700h-52l-92 205h-391l-90 -205h-51zM347 645l-175 -396h352zM349 743q-67 0 -112 33t-60 84h27q48 -75 145 -75q48 0 88.5 21.5t56.5 53.5h27q-15 -51 -62 -84t-110 -33z" />
    <glyph glyph-name="abreve" unicode="&#x103;" horiz-adv-x="517" 
d="M395 238h-148q-79 0 -118 -22.5t-39 -74.5q0 -49 35 -77.5t95 -28.5q78 0 125.5 48t49.5 104v51zM79 460q61 50 170 50q96 0 143.5 -41t47.5 -141v-328h-43v114q-20 -56 -70.5 -89t-117.5 -33q-75 0 -120 38.5t-45 107.5q0 75 51.5 106.5t151.5 31.5h148v51q0 74 -35 108
t-111 34q-117 0 -170 -82v73zM258 602q-64 0 -104 38.5t-52 109.5h29q32 -104 127 -104q98 0 126 104h30q-10 -70 -52.5 -109t-103.5 -39z" />
    <glyph glyph-name="Aogonek" unicode="&#x104;" horiz-adv-x="699" 
d="M687 0h-2q-115 -68 -115 -144q0 -44 37 -61.5t91 -3.5v-26q-32 -15 -70 -15q-52 0 -80 27t-28 68q0 85 119 155h-4l-92 205h-391l-90 -205h-51l312 700h51zM347 645l-175 -396h352z" />
    <glyph glyph-name="aogonek" unicode="&#x105;" horiz-adv-x="517" 
d="M79 460q61 50 170 50q96 0 143.5 -41t47.5 -141v-328q-115 -68 -115 -144q0 -44 37 -61.5t91 -3.5v-26q-32 -15 -70 -15q-52 0 -80 27t-28 68q0 86 122 157v112q-20 -56 -70.5 -89t-117.5 -33q-75 0 -120 38.5t-45 107.5q0 75 51.5 106.5t151.5 31.5h148v51q0 74 -35 108
t-111 34q-117 0 -170 -82v73zM395 238h-148q-79 0 -118 -22.5t-39 -74.5q0 -49 35 -77.5t95 -28.5q78 0 125.5 48t49.5 104v51z" />
    <glyph glyph-name="Cacute" unicode="&#x106;" horiz-adv-x="698" 
d="M658 158v-77q-30 -36 -98.5 -63.5t-154.5 -27.5q-166 3 -260.5 99.5t-94.5 261.5q0 157 98.5 258t258.5 101q80 0 143.5 -24.5t94.5 -56.5v-83q-31 54 -95.5 87t-142.5 33q-136 0 -221.5 -86.5t-85.5 -229.5q0 -138 80 -224.5t221 -91.5q91 0 158.5 35t98.5 89zM322 740
h-45l135 120h88z" />
    <glyph glyph-name="cacute" unicode="&#x107;" horiz-adv-x="498" 
d="M450 51q-19 -26 -61 -43.5t-102 -17.5q-114 0 -177.5 66.5t-63.5 195.5q0 123 67 190.5t172 67.5q99 0 160 -50v-73q-53 82 -160 82q-90 0 -141.5 -55.5t-51.5 -161.5v-3q0 -109 52 -163.5t143 -54.5q59 0 101 23t62 59v-62zM256 590h-34l100 160h74z" />
    <glyph glyph-name="Cdotaccent" unicode="&#x10a;" horiz-adv-x="698" 
d="M658 158v-77q-30 -36 -98.5 -63.5t-154.5 -27.5q-166 3 -260.5 99.5t-94.5 261.5q0 157 98.5 258t258.5 101q80 0 143.5 -24.5t94.5 -56.5v-83q-31 54 -95.5 87t-142.5 33q-136 0 -221.5 -86.5t-85.5 -229.5q0 -138 80 -224.5t221 -91.5q91 0 158.5 35t98.5 89zM355 823
q0 14 9.5 23t24.5 9q16 0 25 -9t9 -23t-9 -23t-25 -9q-15 0 -24.5 9t-9.5 23z" />
    <glyph glyph-name="cdotaccent" unicode="&#x10b;" horiz-adv-x="498" 
d="M450 51q-19 -26 -61 -43.5t-102 -17.5q-114 0 -177.5 66.5t-63.5 195.5q0 123 67 190.5t172 67.5q99 0 160 -50v-73q-53 82 -160 82q-90 0 -141.5 -55.5t-51.5 -161.5v-3q0 -109 52 -163.5t143 -54.5q59 0 101 23t62 59v-62zM241 726q0 14 9.5 23t24.5 9q16 0 25 -9
t9 -23t-9 -23t-25 -9q-15 0 -24.5 9t-9.5 23z" />
    <glyph glyph-name="Ccaron" unicode="&#x10c;" horiz-adv-x="698" 
d="M658 158v-77q-30 -36 -98.5 -63.5t-154.5 -27.5q-166 3 -260.5 99.5t-94.5 261.5q0 157 98.5 258t258.5 101q80 0 143.5 -24.5t94.5 -56.5v-83q-31 54 -95.5 87t-142.5 33q-136 0 -221.5 -86.5t-85.5 -229.5q0 -138 80 -224.5t221 -91.5q91 0 158.5 35t98.5 89zM423 746
h-48l-155 114h39l140 -72l140 72h39z" />
    <glyph glyph-name="ccaron" unicode="&#x10d;" horiz-adv-x="498" 
d="M450 51q-19 -26 -61 -43.5t-102 -17.5q-114 0 -177.5 66.5t-63.5 195.5q0 123 67 190.5t172 67.5q99 0 160 -50v-73q-53 82 -160 82q-90 0 -141.5 -55.5t-51.5 -161.5v-3q0 -109 52 -163.5t143 -54.5q59 0 101 23t62 59v-62zM299 596h-40l-143 154h33l130 -109l130 109
h33z" />
    <glyph glyph-name="Dcaron" unicode="&#x10e;" horiz-adv-x="745" 
d="M100 700h228q176 0 271.5 -87.5t95.5 -248.5q0 -96 -29.5 -167.5t-83 -113.5t-120.5 -62.5t-148 -20.5h-214v700zM148 44h161q160 0 248 80.5t88 234.5q0 146 -83.5 221.5t-242.5 75.5h-171v-612zM356 746h-48l-155 114h39l140 -72l140 72h39z" />
    <glyph glyph-name="dcaron" unicode="&#x10f;" horiz-adv-x="593" 
d="M465 750h44v-750h-42v125q-16 -58 -64 -97t-136 -39q-102 0 -161 62t-59 187q0 272 227 272q71 0 121.5 -33t69.5 -87v360zM465 215v61q0 89 -50.5 140.5t-135.5 51.5q-187 0 -187 -225q0 -109 49.5 -160.5t137.5 -51.5t136 49.5t50 134.5zM550 575q45 11 67.5 49.5
t10.5 68.5q-6 -6 -12 -6q-38 0 -38 38q0 37 38 37q27 0 42 -23t15 -59q0 -51 -30.5 -88t-67.5 -47z" />
    <glyph glyph-name="Dcroat" unicode="&#x110;" horiz-adv-x="770" 
d="M126 700h228q176 0 271.5 -87.5t95.5 -248.5q0 -96 -29.5 -167.5t-83 -113.5t-120.5 -62.5t-148 -20.5h-214v338h-119v44h119v318zM366 382v-44h-192v-294h161q160 0 248 80.5t88 234.5q0 146 -83.5 221.5t-242.5 75.5h-171v-274h192z" />
    <glyph glyph-name="dcroat" unicode="&#x111;" horiz-adv-x="608" 
d="M466 750h44v-100h76v-42h-76v-608h-42v129q-15 -59 -63 -99.5t-138 -40.5q-102 0 -161 62t-59 187q0 272 227 272q72 0 122.5 -33.5t69.5 -89.5v221h-182v42h182v100zM465 276q0 89 -50.5 140.5t-135.5 51.5q-187 0 -187 -225q0 -109 49.5 -160.5t137.5 -51.5
q90 0 138 52t48 141q0 -1 1 -2v55z" />
    <glyph glyph-name="Emacron" unicode="&#x112;" horiz-adv-x="629" 
d="M529 382v-44h-381v-294h430v-44h-478v700h467v-44h-419v-274h381zM200 781v41h300v-41h-300z" />
    <glyph glyph-name="emacron" unicode="&#x113;" horiz-adv-x="546" 
d="M285 510q101 0 158.5 -62.5t57.5 -173.5v-37h-409q3 -103 54.5 -154.5t140.5 -51.5q68 0 115 23t69 59v-62q-21 -26 -68 -43.5t-116 -17.5q-114 0 -177.5 66.5t-63.5 195.5q0 123 67 190.5t172 67.5zM285 469q-84 0 -135 -49t-57 -143h363v3q0 91 -46.5 140t-124.5 49z
M123 641v41h300v-41h-300z" />
    <glyph glyph-name="Edotaccent" unicode="&#x116;" horiz-adv-x="629" 
d="M529 382v-44h-381v-294h430v-44h-478v700h467v-44h-419v-274h381zM310 823q0 14 9.5 23t24.5 9q16 0 25 -9t9 -23t-9 -23t-25 -9q-15 0 -24.5 9t-9.5 23z" />
    <glyph glyph-name="edotaccent" unicode="&#x117;" horiz-adv-x="546" 
d="M285 510q101 0 158.5 -62.5t57.5 -173.5v-37h-409q3 -103 54.5 -154.5t140.5 -51.5q68 0 115 23t69 59v-62q-21 -26 -68 -43.5t-116 -17.5q-114 0 -177.5 66.5t-63.5 195.5q0 123 67 190.5t172 67.5zM285 469q-84 0 -135 -49t-57 -143h363v3q0 91 -46.5 140t-124.5 49z
M239 726q0 14 9.5 23t24.5 9q16 0 25 -9t9 -23t-9 -23t-25 -9q-15 0 -24.5 9t-9.5 23z" />
    <glyph glyph-name="Eogonek" unicode="&#x118;" horiz-adv-x="629" 
d="M529 382v-44h-381v-294h430v-44q-115 -68 -115 -144q0 -44 37 -61.5t91 -3.5v-26q-32 -15 -70 -15q-52 0 -80 27t-28 68q0 85 119 155h-432v700h467v-44h-419v-274h381z" />
    <glyph glyph-name="eogonek" unicode="&#x119;" horiz-adv-x="546" 
d="M285 510q101 0 158.5 -62.5t57.5 -173.5v-37h-409q3 -103 54.5 -154.5t140.5 -51.5q68 0 115 23t69 59v-62q-33 -40 -108 -54q-109 -66 -109 -141q0 -44 37 -61.5t91 -3.5v-26q-32 -15 -70 -15q-52 0 -80 27t-28 68q0 79 103 146q-6 -1 -20 -1q-114 0 -177.5 66.5
t-63.5 195.5q0 123 67 190.5t172 67.5zM285 469q-84 0 -135 -49t-57 -143h363v3q0 91 -46.5 140t-124.5 49z" />
    <glyph glyph-name="Ecaron" unicode="&#x11a;" horiz-adv-x="629" 
d="M529 382v-44h-381v-294h430v-44h-478v700h467v-44h-419v-274h381zM363 746h-48l-155 114h39l140 -72l140 72h39z" />
    <glyph glyph-name="ecaron" unicode="&#x11b;" horiz-adv-x="546" 
d="M285 510q101 0 158.5 -62.5t57.5 -173.5v-37h-409q3 -103 54.5 -154.5t140.5 -51.5q68 0 115 23t69 59v-62q-21 -26 -68 -43.5t-116 -17.5q-114 0 -177.5 66.5t-63.5 195.5q0 123 67 190.5t172 67.5zM285 469q-84 0 -135 -49t-57 -143h363v3q0 91 -46.5 140t-124.5 49z
M293 596h-40l-143 154h33l130 -109l130 109h33z" />
    <glyph glyph-name="Gbreve" unicode="&#x11e;" horiz-adv-x="739" 
d="M407 -10q-167 2 -262 98.5t-95 262.5q0 156 98 257t257 102q80 0 143.5 -24.5t94.5 -56.5v-83q-31 54 -95.5 87t-142.5 33q-135 -1 -220 -87.5t-85 -228.5t84 -228.5t231 -87.5q71 1 126 22t84 51v201h-225v44h270v-263q-30 -39 -104.5 -69t-158.5 -30zM399 743
q-67 0 -112 33t-60 84h27q48 -75 145 -75q48 0 88.5 21.5t56.5 53.5h27q-15 -51 -62 -84t-110 -33z" />
    <glyph glyph-name="gbreve" unicode="&#x11f;" horiz-adv-x="593" 
d="M465 23v96q-41 -130 -198 -130q-102 0 -161 62t-59 187q0 272 227 272q72 0 122 -33.5t69 -88.5l2 17v95h43v-476q0 -109 -57.5 -160t-173.5 -51q-60 0 -112.5 20t-76.5 44v68q24 -38 72.5 -64t117.5 -26q93 0 139 40t46 128zM465 215v61q0 89 -50.5 140.5t-135.5 51.5
q-187 0 -187 -225q0 -109 49.5 -160.5t137.5 -51.5t136 49.5t50 134.5zM276 602q-64 0 -104 38.5t-52 109.5h29q32 -104 127 -104q98 0 126 104h30q-10 -70 -52.5 -109t-103.5 -39z" />
    <glyph glyph-name="Gdotaccent" unicode="&#x120;" horiz-adv-x="739" 
d="M407 -10q-167 2 -262 98.5t-95 262.5q0 156 98 257t257 102q80 0 143.5 -24.5t94.5 -56.5v-83q-31 54 -95.5 87t-142.5 33q-135 -1 -220 -87.5t-85 -228.5t84 -228.5t231 -87.5q71 1 126 22t84 51v201h-225v44h270v-263q-30 -39 -104.5 -69t-158.5 -30zM355 823
q0 14 9.5 23t24.5 9q16 0 25 -9t9 -23t-9 -23t-25 -9q-15 0 -24.5 9t-9.5 23z" />
    <glyph glyph-name="gdotaccent" unicode="&#x121;" horiz-adv-x="593" 
d="M465 23v96q-41 -130 -198 -130q-102 0 -161 62t-59 187q0 272 227 272q72 0 122 -33.5t69 -88.5l2 17v95h43v-476q0 -109 -57.5 -160t-173.5 -51q-60 0 -112.5 20t-76.5 44v68q24 -38 72.5 -64t117.5 -26q93 0 139 40t46 128zM465 215v61q0 89 -50.5 140.5t-135.5 51.5
q-187 0 -187 -225q0 -109 49.5 -160.5t137.5 -51.5t136 49.5t50 134.5zM242 726q0 14 9.5 23t24.5 9q16 0 25 -9t9 -23t-9 -23t-25 -9q-15 0 -24.5 9t-9.5 23z" />
    <glyph glyph-name="Gcommaaccent" unicode="&#x122;" horiz-adv-x="739" 
d="M407 -10q-167 2 -262 98.5t-95 262.5q0 156 98 257t257 102q80 0 143.5 -24.5t94.5 -56.5v-83q-31 54 -95.5 87t-142.5 33q-135 -1 -220 -87.5t-85 -228.5t84 -228.5t231 -87.5q71 1 126 22t84 51v201h-225v44h270v-263q-30 -39 -104.5 -69t-158.5 -30zM339 -224
q43 10 65 43t11 60q-5 -5 -13 -5q-36 0 -36 33q0 32 37 32q28 0 42 -21.5t14 -49.5q0 -45 -30 -77.5t-66 -40.5z" />
    <glyph glyph-name="gcommaaccent" unicode="&#x123;" horiz-adv-x="593" 
d="M465 23v96q-41 -130 -198 -130q-102 0 -161 62t-59 187q0 272 227 272q72 0 122 -33.5t69 -88.5l2 17v95h43v-476q0 -109 -57.5 -160t-173.5 -51q-60 0 -112.5 20t-76.5 44v68q24 -38 72.5 -64t117.5 -26q93 0 139 40t46 128zM465 215v61q0 89 -50.5 140.5t-135.5 51.5
q-187 0 -187 -225q0 -109 49.5 -160.5t137.5 -51.5t136 49.5t50 134.5zM346 733q-43 -10 -65 -43t-11 -60q5 5 13 5q36 0 36 -33q0 -32 -37 -32q-28 0 -42 21.5t-14 49.5q0 45 30 77.5t66 40.5z" />
    <glyph glyph-name="Hbar" unicode="&#x126;" horiz-adv-x="795" 
d="M14 536v44h93v120h48v-120h486v120h48v-120h92v-44h-92v-536h-48v338h-486v-338h-48v536h-93zM155 536v-154h486v154h-486z" />
    <glyph glyph-name="hbar" unicode="&#x127;" horiz-adv-x="610" 
d="M488 0v315q0 81 -37.5 116.5t-113.5 36.5h-3q-87 0 -131 -46t-44 -129v-293h-45v608h-92v42h92v100h45v-100h165v-42h-165v-214q16 52 63.5 83.5t125.5 31.5h2q183 -2 183 -180v-329h-45z" />
    <glyph glyph-name="Imacron" unicode="&#x12a;" horiz-adv-x="248" 
d="M148 700v-700h-48v700h48zM-26 781v41h300v-41h-300z" />
    <glyph glyph-name="imacron" unicode="&#x12b;" horiz-adv-x="222" 
d="M83 0v500h45v-500h-45zM-39 641v41h300v-41h-300z" />
    <glyph glyph-name="Iogonek" unicode="&#x12e;" horiz-adv-x="248" 
d="M148 700v-699l1 -1q-115 -68 -115 -144q0 -44 37 -61.5t91 -3.5v-26q-32 -15 -70 -15q-52 0 -80 27t-28 68q0 85 119 155h-3v700h48z" />
    <glyph glyph-name="iogonek" unicode="&#x12f;" horiz-adv-x="222" 
d="M127 0q-115 -68 -115 -144q0 -44 37 -61.5t91 -3.5v-26q-32 -15 -70 -15q-52 0 -80 27t-28 68q0 86 121 156v499h45v-500h-1z" />
    <glyph glyph-name="Idotaccent" unicode="&#x130;" horiz-adv-x="248" 
d="M148 700v-700h-48v700h48zM90 823q0 14 9.5 23t24.5 9q16 0 25 -9t9 -23t-9 -23t-25 -9q-15 0 -24.5 9t-9.5 23z" />
    <glyph glyph-name="dotlessi" unicode="&#x131;" horiz-adv-x="222" 
d="M83 0v500h45v-500h-45z" />
    <glyph glyph-name="Kcommaaccent" unicode="&#x136;" horiz-adv-x="713" 
d="M148 335v-335h-48v700h48v-323h149l300 323h62l-319 -341l357 -359h-64l-334 335h-151zM279 -224q43 10 65 43t11 60q-5 -5 -13 -5q-36 0 -36 33q0 32 37 32q28 0 42 -21.5t14 -49.5q0 -45 -30 -77.5t-66 -40.5z" />
    <glyph glyph-name="kcommaaccent" unicode="&#x137;" horiz-adv-x="525" 
d="M83 750h45v-473h112l177 223h53l-192 -239l224 -261h-58l-204 237h-112v-237h-45v750zM192 -224q43 10 65 43t11 60q-5 -5 -13 -5q-36 0 -36 33q0 32 37 32q28 0 42 -21.5t14 -49.5q0 -45 -30 -77.5t-66 -40.5z" />
    <glyph glyph-name="Lacute" unicode="&#x139;" horiz-adv-x="604" 
d="M148 700v-656h430v-44h-478v700h48zM140 740h-45l135 120h88z" />
    <glyph glyph-name="lacute" unicode="&#x13a;" horiz-adv-x="296" 
d="M278 48v-42q-28 -16 -77 -16q-118 0 -118 125v635h45v-623q0 -51 18.5 -72t61.5 -21q42 0 70 14zM116 780h-45l135 120h88z" />
    <glyph glyph-name="Lcommaaccent" unicode="&#x13b;" horiz-adv-x="604" 
d="M148 700v-656h430v-44h-478v700h48zM262 -224q43 10 65 43t11 60q-5 -5 -13 -5q-36 0 -36 33q0 32 37 32q28 0 42 -21.5t14 -49.5q0 -45 -30 -77.5t-66 -40.5z" />
    <glyph glyph-name="lcommaaccent" unicode="&#x13c;" horiz-adv-x="296" 
d="M278 48v-42q-28 -16 -77 -16q-118 0 -118 125v635h45v-623q0 -51 18.5 -72t61.5 -21q42 0 70 14zM118 -224q43 10 65 43t11 60q-5 -5 -13 -5q-36 0 -36 33q0 32 37 32q28 0 42 -21.5t14 -49.5q0 -45 -30 -77.5t-66 -40.5z" />
    <glyph glyph-name="Lcaron" unicode="&#x13d;" horiz-adv-x="604" 
d="M148 700v-656h430v-44h-478v700h48zM373 516q46 12 69.5 50t11.5 68q-5 -5 -13 -5q-39 0 -39 37t39 37q28 0 44 -22.5t16 -58.5q0 -51 -32 -88t-70 -48z" />
    <glyph glyph-name="lcaron" unicode="&#x13e;" horiz-adv-x="296" 
d="M278 48v-42q-28 -16 -77 -16q-118 0 -118 125v635h45v-623q0 -51 18.5 -72t61.5 -21q42 0 70 14zM231 575q45 11 67.5 49.5t10.5 68.5q-6 -6 -12 -6q-38 0 -38 38q0 37 38 37q27 0 42 -23t15 -59q0 -51 -30.5 -88t-67.5 -47z" />
    <glyph glyph-name="Ldot" unicode="&#x13f;" horiz-adv-x="604" 
d="M148 700v-656h430v-44h-478v700h48zM386 406q0 14 9.5 23t24.5 9q16 0 25 -9t9 -23t-9 -23t-25 -9q-15 0 -24.5 9t-9.5 23z" />
    <glyph glyph-name="ldot" unicode="&#x140;" horiz-adv-x="317" 
d="M278 48v-42q-28 -16 -77 -16q-118 0 -118 125v635h45v-623q0 -51 18.5 -72t61.5 -21q42 0 70 14zM231 416q0 14 9.5 23t25.5 9t25 -9t9 -23t-9.5 -23t-24.5 -9q-16 0 -25.5 9t-9.5 23z" />
    <glyph glyph-name="Lslash" unicode="&#x141;" horiz-adv-x="626" 
d="M366 494v-51l-196 -154v-245h430v-44h-478v251l-104 -81l-1 48l105 83v399h48v-361z" />
    <glyph glyph-name="lslash" unicode="&#x142;" horiz-adv-x="331" 
d="M298 503v-51l-144 -132v-193q0 -51 18.5 -72t61.5 -21q42 0 70 14v-42q-28 -16 -78 -16q-117 0 -117 125v164l-89 -81l-1 48l90 83v421h45v-380z" />
    <glyph glyph-name="Nacute" unicode="&#x143;" horiz-adv-x="798" 
d="M647 0l-499 625v-625h-48v700h51l499 -625v625h48v-700h-51zM372 740h-45l135 120h88z" />
    <glyph glyph-name="nacute" unicode="&#x144;" horiz-adv-x="579" 
d="M457 0v315q0 82 -38 117.5t-116 35.5q-87 0 -131 -46t-44 -129v-293h-45v500h44v-106q17 52 64.5 83.5t125.5 31.5q89 0 137 -45t48 -135v-329h-45zM266 590h-34l100 160h74z" />
    <glyph glyph-name="Ncommaaccent" unicode="&#x145;" horiz-adv-x="798" 
d="M647 0l-499 625v-625h-48v700h51l499 -625v625h48v-700h-51zM299 -224q43 10 65 43t11 60q-5 -5 -13 -5q-36 0 -36 33q0 32 37 32q28 0 42 -21.5t14 -49.5q0 -45 -30 -77.5t-66 -40.5z" />
    <glyph glyph-name="ncommaaccent" unicode="&#x146;" horiz-adv-x="579" 
d="M457 0v315q0 82 -38 117.5t-116 35.5q-87 0 -131 -46t-44 -129v-293h-45v500h44v-106q17 52 64.5 83.5t125.5 31.5q89 0 137 -45t48 -135v-329h-45zM229 -224q43 10 65 43t11 60q-5 -5 -13 -5q-36 0 -36 33q0 32 37 32q28 0 42 -21.5t14 -49.5q0 -45 -30 -77.5t-66 -40.5
z" />
    <glyph glyph-name="Ncaron" unicode="&#x147;" horiz-adv-x="798" 
d="M647 0l-499 625v-625h-48v700h51l499 -625v625h48v-700h-51zM433 746h-48l-155 114h39l140 -72l140 72h39z" />
    <glyph glyph-name="ncaron" unicode="&#x148;" horiz-adv-x="579" 
d="M457 0v315q0 82 -38 117.5t-116 35.5q-87 0 -131 -46t-44 -129v-293h-45v500h44v-106q17 52 64.5 83.5t125.5 31.5q89 0 137 -45t48 -135v-329h-45zM329 596h-40l-143 154h33l130 -109l130 109h33z" />
    <glyph glyph-name="Omacron" unicode="&#x14c;" horiz-adv-x="814" 
d="M404 710h3q167 -2 262 -99t95 -262q0 -156 -97.5 -257t-255.5 -102q-169 1 -265 97.5t-96 263.5q0 155 96.5 255.5t257.5 103.5zM100 350q0 -142 84 -228.5t231 -87.5q133 2 216 88.5t83 227.5q0 142 -84 229.5t-231 86.5q-133 -1 -216 -88t-83 -228zM257 781v41h300v-41
h-300z" />
    <glyph glyph-name="omacron" unicode="&#x14d;" horiz-adv-x="572" 
d="M46 252q0 123 67 190.5t172 67.5q113 -1 176.5 -67.5t63.5 -194.5q0 -123 -67 -190.5t-172 -67.5q-114 1 -177 67t-63 195zM92 252v-3q0 -109 51.5 -163.5t142.5 -54.5q90 0 141.5 55.5t51.5 161.5v3q0 109 -52 163.5t-143 54.5q-90 -1 -141 -56.5t-51 -160.5zM136 641
v41h300v-41h-300z" />
    <glyph glyph-name="Ohungarumlaut" unicode="&#x150;" horiz-adv-x="814" 
d="M404 710h3q167 -2 262 -99t95 -262q0 -156 -97.5 -257t-255.5 -102q-169 1 -265 97.5t-96 263.5q0 155 96.5 255.5t257.5 103.5zM100 350q0 -142 84 -228.5t231 -87.5q133 2 216 88.5t83 227.5q0 142 -84 229.5t-231 86.5q-133 -1 -216 -88t-83 -228zM333 740h-40l82 120
h76zM487 740h-40l123 120h90z" />
    <glyph glyph-name="ohungarumlaut" unicode="&#x151;" horiz-adv-x="572" 
d="M46 252q0 123 67 190.5t172 67.5q113 -1 176.5 -67.5t63.5 -194.5q0 -123 -67 -190.5t-172 -67.5q-114 1 -177 67t-63 195zM92 252v-3q0 -109 51.5 -163.5t142.5 -54.5q90 0 141.5 55.5t51.5 161.5v3q0 109 -52 163.5t-143 54.5q-90 -1 -141 -56.5t-51 -160.5zM200 590
h-34l74 160h67zM354 590h-34l109 160h77z" />
    <glyph glyph-name="OE" unicode="&#x152;" horiz-adv-x="1076" 
d="M1014 700v-44h-409v-274h372v-44h-372v-294h420v-44h-608q-176 0 -271.5 87.5t-95.5 248.5q0 96 29.5 167.5t83 113.5t120.5 62.5t148 20.5h583zM100 341q0 -146 83.5 -221.5t242.5 -75.5h131v612h-121q-160 0 -248 -80.5t-88 -234.5z" />
    <glyph glyph-name="oe" unicode="&#x153;" horiz-adv-x="934" 
d="M673 510q101 0 158.5 -62.5t57.5 -173.5v-37h-409q3 -103 54.5 -154.5t140.5 -51.5q68 0 115 23t69 59v-62q-21 -26 -68 -43.5t-116 -17.5q-156 0 -213 119q-44 -120 -195 -120q-102 0 -161 62t-59 187q0 272 227 272q71 0 121 -32.5t69 -86.5q30 58 84.5 88.5
t124.5 30.5zM279 468q-187 0 -187 -225q0 -109 49.5 -160.5t137.5 -51.5q131 0 171 106q-16 48 -16 115q0 56 16 106q-20 52 -64.5 81t-106.5 29zM481 277h363v3q0 91 -46.5 140t-124.5 49q-84 0 -135 -49t-57 -143z" />
    <glyph glyph-name="Racute" unicode="&#x154;" horiz-adv-x="681" 
d="M580 0l-184 253q-41 -7 -96 -7h-152v-246h-48v700h219q277 0 277 -224q0 -161 -150 -210l193 -266h-59zM314 656h-166v-366h149q124 0 186.5 46t62.5 143q0 94 -57.5 135.5t-174.5 41.5zM274 740h-45l135 120h88z" />
    <glyph glyph-name="racute" unicode="&#x155;" horiz-adv-x="358" 
d="M258 468q-65 0 -98 -46t-32 -129v-293h-45v500h44v-106q12 52 47 83t92 32q43 0 62 -17v-53q-25 28 -70 28v1zM206 590h-34l100 160h74z" />
    <glyph glyph-name="Rcommaaccent" unicode="&#x156;" horiz-adv-x="681" 
d="M580 0l-184 253q-41 -7 -96 -7h-152v-246h-48v700h219q277 0 277 -224q0 -161 -150 -210l193 -266h-59zM314 656h-166v-366h149q124 0 186.5 46t62.5 143q0 94 -57.5 135.5t-174.5 41.5zM263 -224q43 10 65 43t11 60q-5 -5 -13 -5q-36 0 -36 33q0 32 37 32q28 0 42 -21.5
t14 -49.5q0 -45 -30 -77.5t-66 -40.5z" />
    <glyph glyph-name="rcommaaccent" unicode="&#x157;" horiz-adv-x="358" 
d="M258 468q-65 0 -98 -46t-32 -129v-293h-45v500h44v-106q12 52 47 83t92 32q43 0 62 -17v-53q-25 28 -70 28v1zM40 -224q43 10 65 43t11 60q-5 -5 -13 -5q-36 0 -36 33q0 32 37 32q28 0 42 -21.5t14 -49.5q0 -45 -30 -77.5t-66 -40.5z" />
    <glyph glyph-name="Rcaron" unicode="&#x158;" horiz-adv-x="681" 
d="M580 0l-184 253q-41 -7 -96 -7h-152v-246h-48v700h219q277 0 277 -224q0 -161 -150 -210l193 -266h-59zM314 656h-166v-366h149q124 0 186.5 46t62.5 143q0 94 -57.5 135.5t-174.5 41.5zM334 746h-48l-155 114h39l140 -72l140 72h39z" />
    <glyph glyph-name="rcaron" unicode="&#x159;" horiz-adv-x="358" 
d="M258 468q-65 0 -98 -46t-32 -129v-293h-45v500h44v-106q12 52 47 83t92 32q43 0 62 -17v-53q-25 28 -70 28v1zM229 596h-40l-143 154h33l130 -109l130 109h33z" />
    <glyph glyph-name="Sacute" unicode="&#x15a;" horiz-adv-x="631" 
d="M548 547q-31 54 -95 87t-140 33q-90 -2 -140.5 -35.5t-50.5 -94.5q0 -48 33 -80t82.5 -46.5t107.5 -32t107.5 -36t82.5 -60t33 -102.5q0 -86 -65.5 -138t-179.5 -52q-88 0 -159 27.5t-102 63.5v77q33 -54 103 -89t163 -35q85 0 137.5 37t52.5 108q0 58 -46 92t-111 51
t-130.5 36.5t-111.5 62.5t-46 114q0 84 67 130t173 46q78 0 141 -24.5t94 -56.5v-83zM279 740h-45l135 120h88z" />
    <glyph glyph-name="sacute" unicode="&#x15b;" horiz-adv-x="478" 
d="M408 387q-53 82 -160 82h-2q-64 0 -101.5 -24t-37.5 -69q0 -39 33 -61.5t79.5 -33.5t93 -23.5t79.5 -43t33 -80.5q0 -69 -48.5 -106t-140.5 -38q-62 0 -109 17.5t-69 43.5v62q23 -36 70 -59t108 -23q68 0 106 26t38 73q0 39 -33 62t-79.5 34.5t-93 24t-79.5 42.5t-33 79
q0 62 47.5 100t138.5 38q99 0 160 -50v-73zM216 590h-34l100 160h74z" />
    <glyph glyph-name="Scedilla" unicode="&#x15e;" horiz-adv-x="631" 
d="M548 547q-31 54 -95 87t-140 33q-90 -2 -140.5 -35.5t-50.5 -94.5q0 -48 33 -80t82.5 -46.5t107.5 -32t107.5 -36t82.5 -60t33 -102.5q0 -86 -65 -137.5t-177 -52.5l-18 -55q115 -11 115 -77q0 -36 -31.5 -61.5t-73 -36t-84.5 -10.5v26q55 0 98 21t43 57q0 52 -111 54
l28 83q-78 5 -140 31.5t-90 58.5v77q33 -54 103 -89t163 -35q85 0 137.5 37t52.5 108q0 58 -46 92t-111 51t-130.5 36.5t-111.5 62.5t-46 114q0 84 67 130t173 46q78 0 141 -24.5t94 -56.5v-83z" />
    <glyph glyph-name="scedilla" unicode="&#x15f;" horiz-adv-x="478" 
d="M408 387q-53 82 -160 82h-2q-64 0 -101.5 -24t-37.5 -69q0 -39 33 -61.5t79.5 -33.5t93 -23.5t79.5 -43t33 -80.5q0 -65 -43.5 -102t-126.5 -41l-19 -56q115 -11 115 -77q0 -36 -31.5 -61.5t-73 -36t-84.5 -10.5v26q55 0 98 21t43 57q0 52 -111 54l27 83q-56 2 -98.5 19
t-62.5 41v62q23 -36 70 -59t108 -23q68 0 106 26t38 73q0 39 -33 62t-79.5 34.5t-93 24t-79.5 42.5t-33 79q0 62 47.5 100t138.5 38q99 0 160 -50v-73z" />
    <glyph glyph-name="Scaron" unicode="&#x160;" horiz-adv-x="631" 
d="M548 547q-31 54 -95 87t-140 33q-90 -2 -140.5 -35.5t-50.5 -94.5q0 -48 33 -80t82.5 -46.5t107.5 -32t107.5 -36t82.5 -60t33 -102.5q0 -86 -65.5 -138t-179.5 -52q-88 0 -159 27.5t-102 63.5v77q33 -54 103 -89t163 -35q85 0 137.5 37t52.5 108q0 58 -46 92t-111 51
t-130.5 36.5t-111.5 62.5t-46 114q0 84 67 130t173 46q78 0 141 -24.5t94 -56.5v-83zM339 746h-48l-155 114h39l140 -72l140 72h39z" />
    <glyph glyph-name="scaron" unicode="&#x161;" horiz-adv-x="478" 
d="M408 387q-53 82 -160 82h-2q-64 0 -101.5 -24t-37.5 -69q0 -39 33 -61.5t79.5 -33.5t93 -23.5t79.5 -43t33 -80.5q0 -69 -48.5 -106t-140.5 -38q-62 0 -109 17.5t-69 43.5v62q23 -36 70 -59t108 -23q68 0 106 26t38 73q0 39 -33 62t-79.5 34.5t-93 24t-79.5 42.5t-33 79
q0 62 47.5 100t138.5 38q99 0 160 -50v-73zM259 596h-40l-143 154h33l130 -109l130 109h33z" />
    <glyph glyph-name="Tcedilla" unicode="&#x162;" horiz-adv-x="614" 
d="M604 700v-44h-273v-656h-6l-22 -65q115 -11 115 -77q0 -36 -31.5 -61.5t-73 -36t-84.5 -10.5v26q55 0 98 21t43 57q0 52 -111 54l31 92h-7v656h-273v44h594z" />
    <glyph glyph-name="tcedilla" unicode="&#x163;" horiz-adv-x="409" 
d="M26 500h96v109l46 19v-128h198v-42h-198v-312q0 -64 23.5 -89t80.5 -25q62 0 112 26v-41q-40 -24 -102 -27l-18 -55q115 -11 115 -77q0 -36 -31.5 -61.5t-73 -36t-84.5 -10.5v26q55 0 98 21t43 57q0 52 -111 54l28 83q-65 5 -95.5 38.5t-30.5 105.5v323h-96v42z" />
    <glyph glyph-name="Tcaron" unicode="&#x164;" horiz-adv-x="614" 
d="M604 700v-44h-273v-656h-48v656h-273v44h594zM331 746h-48l-155 114h39l140 -72l140 72h39z" />
    <glyph glyph-name="tcaron" unicode="&#x165;" horiz-adv-x="460" 
d="M26 500h96v109l46 19v-128h198v-42h-198v-312q0 -64 23.5 -89t80.5 -25q62 0 112 26v-41q-46 -27 -114 -27q-76 0 -112 34t-36 111v323h-96v42zM383 474q45 11 67.5 49.5t10.5 68.5q-6 -6 -12 -6q-38 0 -38 38q0 37 38 37q27 0 42 -23t15 -59q0 -51 -30.5 -88t-67.5 -47z
" />
    <glyph glyph-name="Umacron" unicode="&#x16a;" horiz-adv-x="750" 
d="M143 700v-413q0 -134 61 -193.5t178 -59.5q225 0 225 241v425h48v-422q0 -149 -73.5 -218.5t-204.5 -69.5q-282 0 -282 289v421h48zM225 781v41h300v-41h-300z" />
    <glyph glyph-name="umacron" unicode="&#x16b;" horiz-adv-x="573" 
d="M122 500v-315q0 -80 37 -116t111 -37h3q85 0 128.5 46t43.5 129v293h45v-500h-44v106q-17 -52 -63 -83t-121 -32h-2h-2q-181 3 -181 180v329h45zM136 641v41h300v-41h-300z" />
    <glyph glyph-name="Uring" unicode="&#x16e;" horiz-adv-x="750" 
d="M143 700v-413q0 -134 61 -193.5t178 -59.5q225 0 225 241v425h48v-422q0 -149 -73.5 -218.5t-204.5 -69.5q-282 0 -282 289v421h48zM256 780q0 39 31.5 59.5t87.5 20.5q55 0 86.5 -21t31.5 -59t-31.5 -59t-86.5 -21q-56 0 -87.5 21t-31.5 59zM294 780q0 -50 81 -50
q80 0 80 50t-80 50q-81 0 -81 -50z" />
    <glyph glyph-name="uring" unicode="&#x16f;" horiz-adv-x="573" 
d="M122 500v-315q0 -80 37 -116t111 -37h3q85 0 128.5 46t43.5 129v293h45v-500h-44v106q-17 -52 -63 -83t-121 -32h-2h-2q-181 3 -181 180v329h45zM185 689q0 44 27 71.5t74 27.5t74 -27.5t27 -71.5q0 -45 -27.5 -72t-73.5 -27t-73.5 27.5t-27.5 71.5zM219 689
q0 -29 18.5 -48t48.5 -19t48.5 18.5t18.5 48.5q0 29 -18 48t-49 19q-30 0 -48.5 -18.5t-18.5 -48.5z" />
    <glyph glyph-name="Uhungarumlaut" unicode="&#x170;" horiz-adv-x="750" 
d="M143 700v-413q0 -134 61 -193.5t178 -59.5q225 0 225 241v425h48v-422q0 -149 -73.5 -218.5t-204.5 -69.5q-282 0 -282 289v421h48zM281 740h-40l82 120h76zM435 740h-40l123 120h90z" />
    <glyph glyph-name="uhungarumlaut" unicode="&#x171;" horiz-adv-x="573" 
d="M122 500v-315q0 -80 37 -116t111 -37h3q85 0 128.5 46t43.5 129v293h45v-500h-44v106q-17 -52 -63 -83t-121 -32h-2h-2q-181 3 -181 180v329h45zM200 590h-34l74 160h67zM354 590h-34l109 160h77z" />
    <glyph glyph-name="Uogonek" unicode="&#x172;" horiz-adv-x="750" 
d="M143 700v-413q0 -134 61 -193.5t178 -59.5q225 0 225 241v425h48v-422q0 -243 -199 -281q-110 -66 -110 -141q0 -44 37 -61.5t91 -3.5v-26q-32 -15 -70 -15q-52 0 -80 27t-28 68q0 79 103 146q-7 -1 -22 -1q-282 0 -282 289v421h48z" />
    <glyph glyph-name="uogonek" unicode="&#x173;" horiz-adv-x="573" 
d="M122 500v-315q0 -80 37 -116t111 -37h3q85 0 128.5 46t43.5 129v293h45v-500q-115 -68 -115 -144q0 -44 37 -61.5t91 -3.5v-26q-32 -15 -70 -15q-52 0 -80 27t-28 68q0 86 121 156v105q-17 -52 -63 -83t-121 -32h-4q-181 3 -181 180v329h45z" />
    <glyph glyph-name="Ydieresis" unicode="&#x178;" horiz-adv-x="626" 
d="M618 700l-280 -420v-280h-48v280l-282 420h56l252 -373l247 373h55zM383 823q0 14 9.5 23t24.5 9q16 0 25 -9t9 -23t-9 -23t-25 -9q-15 0 -24.5 9t-9.5 23zM175 823q0 14 9.5 23t24.5 9q16 0 25 -9t9 -23t-9 -23t-25 -9q-15 0 -24.5 9t-9.5 23z" />
    <glyph glyph-name="Zacute" unicode="&#x179;" horiz-adv-x="612" 
d="M46 656v44h537v-30l-486 -626h475v-44h-542v30l487 626h-471zM279 740h-45l135 120h88z" />
    <glyph glyph-name="zacute" unicode="&#x17a;" horiz-adv-x="462" 
d="M427 0h-395v35l334 423h-317v42h377v-35l-337 -423h338v-42zM218 590h-34l100 160h74z" />
    <glyph glyph-name="Zdotaccent" unicode="&#x17b;" horiz-adv-x="612" 
d="M46 656v44h537v-30l-486 -626h475v-44h-542v30l487 626h-471zM272 823q0 14 9.5 23t24.5 9q16 0 25 -9t9 -23t-9 -23t-25 -9q-15 0 -24.5 9t-9.5 23z" />
    <glyph glyph-name="zdotaccent" unicode="&#x17c;" horiz-adv-x="462" 
d="M427 0h-395v35l334 423h-317v42h377v-35l-337 -423h338v-42zM197 726q0 14 9.5 23t24.5 9q16 0 25 -9t9 -23t-9 -23t-25 -9q-15 0 -24.5 9t-9.5 23z" />
    <glyph glyph-name="Zcaron" unicode="&#x17d;" horiz-adv-x="612" 
d="M46 656v44h537v-30l-486 -626h475v-44h-542v30l487 626h-471zM330 746h-48l-155 114h39l140 -72l140 72h39z" />
    <glyph glyph-name="zcaron" unicode="&#x17e;" horiz-adv-x="462" 
d="M427 0h-395v35l334 423h-317v42h377v-35l-337 -423h338v-42zM251 596h-40l-143 154h33l130 -109l130 109h33z" />
    <glyph glyph-name="Schwa" unicode="&#x18f;" horiz-adv-x="783" 
d="M147 546v83q35 37 101 59t137 22q162 0 255 -97t93 -264q0 -157 -94 -257.5t-248 -101.5q-146 0 -243.5 89t-97.5 252v51h634q-9 129 -88 206.5t-211 77.5q-78 0 -142.5 -33t-95.5 -87zM390 34q128 0 210 83t86 221h-588v-7q0 -140 82 -218t210 -79z" />
    <glyph glyph-name="florin" unicode="&#x192;" horiz-adv-x="416" 
d="M48 496h89l8 74q19 181 158 181q60 0 93 -28v-62q-30 46 -96 46q-48 0 -75 -30t-35 -107l-8 -74h168v-42h-173l-47 -454l-3 -31q-5 -76 -34 -113.5t-95 -37.5q-41 0 -73 19v59q29 -34 75 -34q38 0 58 23t24 82l3 33l48 454h-85v42z" />
    <glyph glyph-name="eturn" unicode="&#x1dd;" horiz-adv-x="553" 
d="M79 454q58 56 182 56q114 0 177.5 -66.5t63.5 -195.5q0 -123 -67 -190.5t-172 -67.5q-101 0 -158.5 62.5t-57.5 173.5v37h409q-3 102 -54.5 154t-140.5 52q-125 0 -182 -85v70zM263 31q84 0 134.5 49t57.5 143h-363v-3q0 -91 46.5 -140t124.5 -49z" />
    <glyph glyph-name="Scommaaccent" unicode="&#x218;" horiz-adv-x="631" 
d="M548 547q-31 54 -95 87t-140 33q-90 -2 -140.5 -35.5t-50.5 -94.5q0 -48 33 -80t82.5 -46.5t107.5 -32t107.5 -36t82.5 -60t33 -102.5q0 -86 -65.5 -138t-179.5 -52q-88 0 -159 27.5t-102 63.5v77q33 -54 103 -89t163 -35q85 0 137.5 37t52.5 108q0 58 -46 92t-111 51
t-130.5 36.5t-111.5 62.5t-46 114q0 84 67 130t173 46q78 0 141 -24.5t94 -56.5v-83zM255 -224q43 10 65 43t11 60q-5 -5 -13 -5q-36 0 -36 33q0 32 37 32q28 0 42 -21.5t14 -49.5q0 -45 -30 -77.5t-66 -40.5z" />
    <glyph glyph-name="scommaaccent" unicode="&#x219;" horiz-adv-x="478" 
d="M408 387q-53 82 -160 82h-2q-64 0 -101.5 -24t-37.5 -69q0 -39 33 -61.5t79.5 -33.5t93 -23.5t79.5 -43t33 -80.5q0 -69 -48.5 -106t-140.5 -38q-62 0 -109 17.5t-69 43.5v62q23 -36 70 -59t108 -23q68 0 106 26t38 73q0 39 -33 62t-79.5 34.5t-93 24t-79.5 42.5t-33 79
q0 62 47.5 100t138.5 38q99 0 160 -50v-73zM162 -224q43 10 65 43t11 60q-5 -5 -13 -5q-36 0 -36 33q0 32 37 32q28 0 42 -21.5t14 -49.5q0 -45 -30 -77.5t-66 -40.5z" />
    <glyph glyph-name="Tcommaaccent" unicode="&#x21a;" horiz-adv-x="614" 
d="M604 700v-44h-273v-656h-48v656h-273v44h594zM237 -224q43 10 65 43t11 60q-5 -5 -13 -5q-36 0 -36 33q0 32 37 32q28 0 42 -21.5t14 -49.5q0 -45 -30 -77.5t-66 -40.5z" />
    <glyph glyph-name="tcommaaccent" unicode="&#x21b;" horiz-adv-x="409" 
d="M26 500h96v109l46 19v-128h198v-42h-198v-312q0 -64 23.5 -89t80.5 -25q62 0 112 26v-41q-46 -27 -114 -27q-76 0 -112 34t-36 111v323h-96v42zM184 -224q43 10 65 43t11 60q-5 -5 -13 -5q-36 0 -36 33q0 32 37 32q28 0 42 -21.5t14 -49.5q0 -45 -30 -77.5t-66 -40.5z
" />
    <glyph glyph-name="dotlessj" unicode="&#x237;" horiz-adv-x="225" 
d="M97 -36v536h45v-534q0 -77 -28 -114.5t-94 -37.5q-42 0 -74 19v59q29 -34 75 -34q39 0 57.5 23.5t18.5 82.5z" />
    <glyph glyph-name="schwa" unicode="&#x259;" horiz-adv-x="553" 
d="M79 454q58 56 182 56q114 0 177.5 -66.5t63.5 -195.5q0 -123 -67 -190.5t-172 -67.5q-101 0 -158.5 62.5t-57.5 173.5v37h409q-3 102 -54.5 154t-140.5 52q-125 0 -182 -85v70zM263 31q84 0 134.5 49t57.5 143h-363v-3q0 -91 46.5 -140t124.5 -49z" />
    <glyph glyph-name="afii57929" unicode="&#x2bc;" horiz-adv-x="203" 
d="M40 474q45 11 67.5 49.5t10.5 68.5q-6 -6 -12 -6q-38 0 -38 38q0 37 38 37q27 0 42 -23t15 -59q0 -51 -30.5 -88t-67.5 -47z" />
    <glyph glyph-name="circumflex" unicode="&#x2c6;" horiz-adv-x="406" 
d="M183 750h40l143 -154h-33l-130 109l-130 -109h-33z" />
    <glyph glyph-name="caron" unicode="&#x2c7;" horiz-adv-x="406" 
d="M223 596h-40l-143 154h33l130 -109l130 109h33z" />
    <glyph glyph-name="breve" unicode="&#x2d8;" horiz-adv-x="392" 
d="M196 602q-64 0 -104 38.5t-52 109.5h29q32 -104 127 -104q98 0 126 104h30q-10 -70 -52.5 -109t-103.5 -39z" />
    <glyph glyph-name="dotaccent" unicode="&#x2d9;" horiz-adv-x="148" 
d="M40 726q0 14 9.5 23t24.5 9q16 0 25 -9t9 -23t-9 -23t-25 -9q-15 0 -24.5 9t-9.5 23z" />
    <glyph glyph-name="ring" unicode="&#x2da;" horiz-adv-x="282" 
d="M40 689q0 44 27 71.5t74 27.5t74 -27.5t27 -71.5q0 -45 -27.5 -72t-73.5 -27t-73.5 27.5t-27.5 71.5zM74 689q0 -29 18.5 -48t48.5 -19t48.5 18.5t18.5 48.5q0 29 -18 48t-49 19q-30 0 -48.5 -18.5t-18.5 -48.5z" />
    <glyph glyph-name="ogonek" unicode="&#x2db;" horiz-adv-x="258" 
d="M205 0q-115 -68 -115 -144q0 -44 37 -61.5t91 -3.5v-26q-32 -15 -70 -15q-52 0 -80 27t-28 68q0 95 149 172z" />
    <glyph glyph-name="tilde" unicode="&#x2dc;" horiz-adv-x="431" 
d="M391 724q-25 -106 -100 -106q-32 0 -80.5 30t-73.5 30q-43 0 -65 -60h-32q18 59 47.5 82t57.5 23q33 0 80 -30t70 -30q46 0 65 61h31z" />
    <glyph glyph-name="hungarumlaut" unicode="&#x2dd;" horiz-adv-x="420" 
d="M74 590h-34l74 160h67zM228 590h-34l109 160h77z" />
    <glyph glyph-name="acutecomb" unicode="&#x301;" horiz-adv-x="0" 
d="M-296 590h-34l100 160h74z" />
    <glyph glyph-name="Delta" unicode="&#x394;" horiz-adv-x="620" 
d="M338 700l248 -700h-552l248 700h56zM310 649l-215 -605h429z" />
    <glyph glyph-name="Delta" unicode="&#x2206;" horiz-adv-x="620" 
d="M338 700l248 -700h-552l248 700h56zM310 649l-215 -605h429z" />
    <glyph glyph-name="Omega" unicode="&#x3a9;" horiz-adv-x="851" 
d="M424 710q172 0 271.5 -94.5t99.5 -256.5q0 -112 -51.5 -195t-146.5 -120h201v-44h-353v50q135 0 217.5 83.5t82.5 216.5q0 142 -83.5 228.5t-237.5 87.5q-151 -1 -235 -84t-84 -227q0 -127 79 -215.5t222 -89.5v-50h-352v44h198q-95 37 -146 120.5t-51 196.5
q0 158 97 253t272 96z" />
    <glyph glyph-name="Omega" unicode="&#x2126;" horiz-adv-x="851" 
d="M424 710q172 0 271.5 -94.5t99.5 -256.5q0 -112 -51.5 -195t-146.5 -120h201v-44h-353v50q135 0 217.5 83.5t82.5 216.5q0 142 -83.5 228.5t-237.5 87.5q-151 -1 -235 -84t-84 -227q0 -127 79 -215.5t222 -89.5v-50h-352v44h198q-95 37 -146 120.5t-51 196.5
q0 158 97 253t272 96z" />
    <glyph glyph-name="pi" unicode="&#x3c0;" horiz-adv-x="686" 
d="M650 48v-42q-28 -16 -78 -16q-118 0 -118 125v343h-275v-458h-45v458h-82v42h528v-42h-81v-331q0 -51 18.5 -72t62.5 -21q42 0 70 14z" />
    <glyph glyph-name="afii10023" unicode="&#x401;" horiz-adv-x="629" 
d="M529 382v-44h-381v-294h430v-44h-478v700h467v-44h-419v-274h381zM405 823q0 14 9.5 23t24.5 9q16 0 25 -9t9 -23t-9 -23t-25 -9q-15 0 -24.5 9t-9.5 23zM197 823q0 14 9.5 23t24.5 9q16 0 25 -9t9 -23t-9 -23t-25 -9q-15 0 -24.5 9t-9.5 23z" />
    <glyph glyph-name="afii10051" unicode="&#x402;" horiz-adv-x="840" 
d="M603 700v-44h-275v-251q78 38 195 38q265 0 265 -188v-93q0 -81 -43.5 -124t-118.5 -43q-78 0 -122 38v66q20 -28 51.5 -44t64.5 -16q120 0 120 126v71q0 86 -54 124.5t-171 38.5q-116 0 -187 -37v-362h-48v656h-270v44h593z" />
    <glyph glyph-name="afii10052" unicode="&#x403;" horiz-adv-x="574" 
d="M560 700v-44h-412v-656h-48v700h460zM300 740h-45l135 120h88z" />
    <glyph glyph-name="afii10053" unicode="&#x404;" horiz-adv-x="707" 
d="M510 382v-44h-401q4 -134 83.5 -216.5t217.5 -87.5q91 0 158.5 35t98.5 89v-77q-30 -36 -98.5 -63.5t-154.5 -27.5q-166 3 -260.5 99.5t-94.5 261.5q0 157 98.5 258t258.5 101q80 0 143.5 -24.5t94.5 -56.5v-83q-31 54 -95.5 87t-142.5 33q-128 0 -212 -77.5t-94 -206.5
h400z" />
    <glyph glyph-name="afii10054" unicode="&#x405;" horiz-adv-x="631" 
d="M548 547q-31 54 -95 87t-140 33q-90 -2 -140.5 -35.5t-50.5 -94.5q0 -48 33 -80t82.5 -46.5t107.5 -32t107.5 -36t82.5 -60t33 -102.5q0 -86 -65.5 -138t-179.5 -52q-88 0 -159 27.5t-102 63.5v77q33 -54 103 -89t163 -35q85 0 137.5 37t52.5 108q0 58 -46 92t-111 51
t-130.5 36.5t-111.5 62.5t-46 114q0 84 67 130t173 46q78 0 141 -24.5t94 -56.5v-83z" />
    <glyph glyph-name="afii10055" unicode="&#x406;" horiz-adv-x="248" 
d="M148 700v-700h-48v700h48z" />
    <glyph glyph-name="afii10056" unicode="&#x407;" horiz-adv-x="290" 
d="M166 700v-700h-48v700h48zM182 828q0 12 7.5 20t20.5 8t20.5 -8t7.5 -20q0 -28 -28 -28t-28 28zM42 828q0 12 7.5 20t20.5 8t20.5 -8t7.5 -20q0 -28 -28 -28t-28 28z" />
    <glyph glyph-name="afii10057" unicode="&#x408;" horiz-adv-x="410" 
d="M310 700v-538q0 -81 -43.5 -124t-118.5 -43q-78 0 -122 38v66q43 -60 117 -60q119 0 119 126v535h48z" />
    <glyph glyph-name="afii10058" unicode="&#x409;" horiz-adv-x="1112" 
d="M585 0v656h-356l-6 -163q-6 -130 -19 -224t-29 -146.5t-40 -82.5t-44.5 -38.5t-48.5 -8.5q-18 0 -30 4v53q11 -6 27 -6q15 0 27.5 5.5t28 21.5t28 48.5t24 81t19 125.5t11.5 176l6 198h450v-246h150q277 0 277 -224q0 -114 -75.5 -172t-220.5 -58h-179zM778 410h-145
v-366h128q124 0 186.5 46t62.5 143q0 94 -57.5 135.5t-174.5 41.5z" />
    <glyph glyph-name="afii10059" unicode="&#x40a;" horiz-adv-x="1135" 
d="M614 0v357h-466v-357h-48v700h48v-299h466v299h48v-299h145q145 0 210.5 -43.5t65.5 -153.5q0 -109 -65.5 -156.5t-210.5 -47.5h-193zM806 357h-144v-313h142q124 0 176.5 35.5t52.5 126.5q0 86 -52 118.5t-175 32.5z" />
    <glyph glyph-name="afii10060" unicode="&#x40b;" horiz-adv-x="841" 
d="M603 700v-44h-275v-252q76 39 196 39q265 0 265 -188v-255h-48v236q0 86 -54 124.5t-171 38.5q-50 0 -103.5 -10.5t-84.5 -26.5v-362h-48v656h-270v44h593z" />
    <glyph glyph-name="afii10061" unicode="&#x40c;" horiz-adv-x="713" 
d="M148 335v-335h-48v700h48v-323h149l300 323h62l-319 -341l357 -359h-64l-334 335h-151zM320 740h-45l135 120h88z" />
    <glyph glyph-name="afii10062" unicode="&#x40e;" horiz-adv-x="679" 
d="M246 38q55 0 94 82l-322 580h56l293 -523l243 523h51l-274 -585q-33 -69 -64 -96t-75 -27q-31 0 -59 14v60q21 -28 57 -28zM477 880h44q-6 -66 -53 -98.5t-123 -32.5q-176 0 -187 131h47q9 -91 138 -91q124 0 134 91z" />
    <glyph glyph-name="afii10145" unicode="&#x40f;" horiz-adv-x="769" 
d="M100 0v700h48v-656h473v656h48v-700h-262v-130h-45v130h-262z" />
    <glyph glyph-name="afii10017" unicode="&#x410;" horiz-adv-x="699" 
d="M323 700h51l313 -700h-52l-92 205h-391l-90 -205h-51zM347 645l-175 -396h352z" />
    <glyph glyph-name="afii10018" unicode="&#x411;" horiz-adv-x="657" 
d="M100 0v700h463v-44h-415v-214h155q150 0 223 -51.5t73 -166.5q0 -224 -296 -224h-203zM304 398h-156v-354h152q125 0 187 43t62 140q0 94 -59.5 132.5t-185.5 38.5z" />
    <glyph glyph-name="afii10019" unicode="&#x412;" horiz-adv-x="690" 
d="M373 0h-273v700h291q216 0 216 -170q0 -128 -119 -165q140 -21 140 -161q0 -204 -255 -204zM148 44h230q202 0 202 159q0 136 -185 136h-247v-295zM148 380h241q80 0 125 40t45 102q0 69 -43.5 101.5t-134.5 32.5h-233v-276z" />
    <glyph glyph-name="afii10020" unicode="&#x413;" horiz-adv-x="574" 
d="M560 700v-44h-412v-656h-48v700h460z" />
    <glyph glyph-name="afii10021" unicode="&#x414;" horiz-adv-x="759" 
d="M8 44h84q31 78 53 216.5t24 294.5l2 145h464v-656h96v-174h-46v130h-631v-130h-46v174zM213 552q-7 -320 -74 -508h448v612h-372z" />
    <glyph glyph-name="afii10022" unicode="&#x415;" horiz-adv-x="629" 
d="M529 382v-44h-381v-294h430v-44h-478v700h467v-44h-419v-274h381z" />
    <glyph glyph-name="afii10024" unicode="&#x416;" horiz-adv-x="990" 
d="M516 700v-326h173l193 326h52l-200 -340l235 -360h-58l-221 336h-174v-336h-48v336h-171l-218 -336h-58l232 356l-200 344h55l188 -326h172v326h48z" />
    <glyph glyph-name="afii10025" unicode="&#x417;" horiz-adv-x="643" 
d="M65 546v83q31 32 94.5 56.5t143.5 24.5q109 -1 175.5 -46t66.5 -132q0 -129 -130 -167q79 -10 122.5 -53.5t43.5 -114.5q0 -91 -71 -148.5t-195 -58.5q-90 0 -162 27.5t-103 63.5v77q33 -54 103.5 -89t166.5 -35q97 2 154 45.5t57 118.5q0 140 -208 140h-111v42h110
q86 0 130 39t44 103q0 69 -55.5 106t-137.5 38q-78 1 -142.5 -32.5t-95.5 -87.5z" />
    <glyph glyph-name="afii10026" unicode="&#x418;" horiz-adv-x="795" 
d="M148 700v-634l494 634h53v-700h-48v636l-494 -636h-53v700h48z" />
    <glyph glyph-name="afii10027" unicode="&#x419;" horiz-adv-x="795" 
d="M148 700v-634l494 634h53v-700h-48v636l-494 -636h-53v700h48zM530 880h44q-6 -66 -53 -98.5t-123 -32.5q-176 0 -187 131h47q9 -91 138 -91q124 0 134 91z" />
    <glyph glyph-name="afii10028" unicode="&#x41a;" horiz-adv-x="713" 
d="M148 335v-335h-48v700h48v-323h149l300 323h62l-319 -341l357 -359h-64l-334 335h-151z" />
    <glyph glyph-name="afii10029" unicode="&#x41b;" horiz-adv-x="753" 
d="M605 0v656h-376l-6 -163q-6 -130 -19 -224t-29 -146.5t-40 -82.5t-44.5 -38.5t-48.5 -8.5q-18 0 -30 4v53q11 -6 27 -6q15 0 27.5 5.5t28 21.5t28 48.5t24 81t19 125.5t11.5 176l6 198h470v-700h-48z" />
    <glyph glyph-name="afii10030" unicode="&#x41c;" horiz-adv-x="905" 
d="M757 0v632l-291 -466h-21l-297 459v-625h-48v700h59l298 -467l291 467h57v-700h-48z" />
    <glyph glyph-name="afii10031" unicode="&#x41d;" horiz-adv-x="788" 
d="M640 0v338h-492v-338h-48v700h48v-318h492v318h48v-700h-48z" />
    <glyph glyph-name="afii10032" unicode="&#x41e;" horiz-adv-x="814" 
d="M404 710h3q167 -2 262 -99t95 -262q0 -156 -97.5 -257t-255.5 -102q-169 1 -265 97.5t-96 263.5q0 155 96.5 255.5t257.5 103.5zM100 350q0 -142 84 -228.5t231 -87.5q133 2 216 88.5t83 227.5q0 142 -84 229.5t-231 86.5q-133 -1 -216 -88t-83 -228z" />
    <glyph glyph-name="afii10033" unicode="&#x41f;" horiz-adv-x="781" 
d="M633 0v656h-485v-656h-48v700h581v-700h-48z" />
    <glyph glyph-name="afii10034" unicode="&#x420;" horiz-adv-x="655" 
d="M303 246h-155v-246h-48v700h222q277 0 277 -224q0 -114 -75.5 -172t-220.5 -58zM317 656h-169v-366h152q124 0 186.5 46t62.5 143q0 94 -57.5 135.5t-174.5 41.5z" />
    <glyph glyph-name="afii10035" unicode="&#x421;" horiz-adv-x="698" 
d="M658 158v-77q-30 -36 -98.5 -63.5t-154.5 -27.5q-166 3 -260.5 99.5t-94.5 261.5q0 157 98.5 258t258.5 101q80 0 143.5 -24.5t94.5 -56.5v-83q-31 54 -95.5 87t-142.5 33q-136 0 -221.5 -86.5t-85.5 -229.5q0 -138 80 -224.5t221 -91.5q91 0 158.5 35t98.5 89z" />
    <glyph glyph-name="afii10036" unicode="&#x422;" horiz-adv-x="614" 
d="M604 700v-44h-273v-656h-48v656h-273v44h594z" />
    <glyph glyph-name="afii10037" unicode="&#x423;" horiz-adv-x="679" 
d="M246 38q55 0 94 82l-322 580h56l293 -523l243 523h51l-274 -585q-33 -69 -64 -96t-75 -27q-31 0 -59 14v60q21 -28 57 -28z" />
    <glyph glyph-name="afii10038" unicode="&#x424;" horiz-adv-x="934" 
d="M488 720v-53h29q170 0 259.5 -81t89.5 -228q0 -153 -91 -232t-261 -79h-26v-67h-48v67h-29q-170 0 -259.5 81t-89.5 228q0 153 91 232t261 79h26v53h48zM516 625h-28v-536h27q150 0 225.5 67t75.5 196q0 137 -77.5 205t-222.5 68zM112 362q0 -137 77.5 -205t222.5 -68h28
v536h-27q-150 0 -225.5 -67t-75.5 -196z" />
    <glyph glyph-name="afii10039" unicode="&#x425;" horiz-adv-x="652" 
d="M19 0l271 359l-253 341h57l229 -308l243 308h56l-267 -338l278 -362h-57l-254 328l-247 -328h-56z" />
    <glyph glyph-name="afii10040" unicode="&#x426;" horiz-adv-x="793" 
d="M100 0v700h48v-656h473v656h48v-656h96v-174h-46v130h-619z" />
    <glyph glyph-name="afii10041" unicode="&#x427;" horiz-adv-x="689" 
d="M118 700v-233q0 -86 54 -124.5t170 -38.5q56 0 113.5 12t85.5 31v353h48v-700h-48v304q-29 -18 -87.5 -31t-118.5 -13q-265 0 -265 188v252h48z" />
    <glyph glyph-name="afii10042" unicode="&#x428;" horiz-adv-x="1000" 
d="M521 700v-656h331v656h48v-700h-800v700h48v-656h325v656h48z" />
    <glyph glyph-name="afii10043" unicode="&#x429;" horiz-adv-x="1024" 
d="M521 700v-656h331v656h48v-656h96v-174h-46v130h-850v700h48v-656h325v656h48z" />
    <glyph glyph-name="afii10044" unicode="&#x42a;" horiz-adv-x="725" 
d="M14 656v44h217v-246h164q277 0 277 -224q0 -114 -75.5 -172t-220.5 -58h-193v656h-169zM390 410h-159v-366h142q250 0 250 189q0 94 -58 135.5t-175 41.5z" />
    <glyph glyph-name="afii10045" unicode="&#x42b;" horiz-adv-x="848" 
d="M148 700v-246h158q277 0 277 -224q0 -114 -75.5 -172t-220.5 -58h-187v700h48zM301 410h-153v-366h136q124 0 186.5 46t62.5 143q0 94 -57.5 135.5t-174.5 41.5zM700 0v700h48v-700h-48z" />
    <glyph glyph-name="afii10046" unicode="&#x42c;" horiz-adv-x="643" 
d="M148 700v-246h166q277 0 277 -224q0 -114 -75.5 -172t-220.5 -58h-195v700h48zM309 410h-161v-366h144q124 0 186.5 46t62.5 143q0 94 -57.5 135.5t-174.5 41.5z" />
    <glyph glyph-name="afii10047" unicode="&#x42d;" horiz-adv-x="721" 
d="M55 546v83q31 32 98.5 56t151.5 25q169 0 268 -98t99 -263q0 -158 -99 -258.5t-267 -100.5q-87 0 -155.5 27.5t-99.5 63.5v77q32 -54 100 -89t160 -35q141 1 224.5 85t86.5 219h-437v44h436q-9 128 -92.5 205.5t-223.5 78.5q-82 0 -150 -33t-100 -87z" />
    <glyph glyph-name="afii10048" unicode="&#x42e;" horiz-adv-x="1052" 
d="M651 -10q-160 3 -250.5 95.5t-94.5 252.5h-158v-338h-48v700h48v-318h159q9 143 98.5 233.5t231.5 93.5v1q171 0 268 -96.5t97 -264.5q0 -155 -96 -255.5t-255 -103.5zM953 350q0 142 -84 228.5t-232 87.5q-127 -3 -205.5 -89.5t-78.5 -226.5q0 -142 80.5 -228.5
t220.5 -87.5q133 3 216 89.5t83 226.5z" />
    <glyph glyph-name="afii10049" unicode="&#x42f;" horiz-adv-x="681" 
d="M533 0v246h-177q-43 0 -72 4l-178 -250h-58l187 259q-156 42 -156 211q0 114 75.5 172t220.5 58h206v-700h-48zM129 467q0 -94 57.5 -135.5t174.5 -41.5h172v366h-155q-124 0 -186.5 -46t-62.5 -143z" />
    <glyph glyph-name="afii10065" unicode="&#x430;" horiz-adv-x="517" 
d="M395 238h-148q-79 0 -118 -22.5t-39 -74.5q0 -49 35 -77.5t95 -28.5q78 0 125.5 48t49.5 104v51zM79 460q61 50 170 50q96 0 143.5 -41t47.5 -141v-328h-43v114q-20 -56 -70.5 -89t-117.5 -33q-75 0 -120 38.5t-45 107.5q0 75 51.5 106.5t151.5 31.5h148v51q0 74 -35 108
t-111 34q-117 0 -170 -82v73z" />
    <glyph glyph-name="afii10066" unicode="&#x431;" horiz-adv-x="587" 
d="M500 774v-52q-18 -10 -167 -32q-50 -7 -87.5 -22t-62 -40t-40 -49.5t-24.5 -65t-13 -71.5t-8 -82q25 67 81.5 105t135.5 38q105 0 165 -62t60 -184q0 -128 -62.5 -197.5t-175.5 -69.5q-116 0 -179 79.5t-63 241.5q0 145 23.5 230t74.5 128.5t141 61.5q13 2 63.5 9.5
t87 15.5t50.5 18zM108 275q0 -116 51.5 -178.5t141.5 -62.5t141 56t51 162q0 102 -49.5 155.5t-138.5 53.5q-87 0 -142 -51.5t-55 -134.5z" />
    <glyph glyph-name="afii10067" unicode="&#x432;" horiz-adv-x="533" 
d="M83 0v500h217q163 0 163 -118q0 -94 -97 -117q122 -10 122 -117q0 -75 -44 -111.5t-140 -36.5h-221zM128 41h178q137 0 137 102q0 50 -33 73t-101 23h-181v-198zM128 279h154q136 0 136 96q0 44 -30 64t-93 20h-167v-180z" />
    <glyph glyph-name="afii10068" unicode="&#x433;" horiz-adv-x="453" 
d="M83 0v500h335v-42h-290v-458h-45z" />
    <glyph glyph-name="afii10069" unicode="&#x434;" horiz-adv-x="565" 
d="M9 44h61q57 126 57 389v67h333v-456h80v-174h-44v130h-443v-130h-44v174zM169 401q-2 -235 -53 -357h298v414h-244z" />
    <glyph glyph-name="afii10070" unicode="&#x435;" horiz-adv-x="546" 
d="M285 510q101 0 158.5 -62.5t57.5 -173.5v-37h-409q3 -103 54.5 -154.5t140.5 -51.5q68 0 115 23t69 59v-62q-21 -26 -68 -43.5t-116 -17.5q-114 0 -177.5 66.5t-63.5 195.5q0 123 67 190.5t172 67.5zM285 469q-84 0 -135 -49t-57 -143h363v3q0 91 -46.5 140t-124.5 49z
" />
    <glyph glyph-name="afii10072" unicode="&#x436;" horiz-adv-x="716" 
d="M337 0v237h-115l-150 -237h-52l165 258l-151 242h52l135 -223h116v223h45v-223h115l136 223h50l-149 -241l162 -259h-53l-146 237h-115v-237h-45z" />
    <glyph glyph-name="afii10073" unicode="&#x437;" horiz-adv-x="480" 
d="M44 51v62q22 -36 70 -59t113 -23q77 1 120 30t43 79q0 99 -157 99h-75v38h73q63 0 98 25.5t35 70.5q0 93 -132 96q-123 0 -183 -82v73q70 50 183 50q178 -3 178 -130q0 -85 -93 -116q53 -8 85.5 -37.5t32.5 -81.5q0 -74 -55.5 -113.5t-152.5 -41.5q-65 0 -113.5 17.5
t-69.5 43.5z" />
    <glyph glyph-name="afii10074" unicode="&#x438;" horiz-adv-x="587" 
d="M123 0h-40v500h45v-429l335 429h41v-500h-45v432z" />
    <glyph glyph-name="afii10075" unicode="&#x439;" horiz-adv-x="587" 
d="M123 0h-40v500h45v-429l335 429h41v-500h-45v432zM398 737h43q0 -63 -39.5 -96.5t-100.5 -33.5q-70 0 -110.5 33t-40.5 97h44q0 -45 27.5 -68.5t77.5 -23.5q46 0 72.5 23t26.5 69z" />
    <glyph glyph-name="afii10076" unicode="&#x43a;" horiz-adv-x="539" 
d="M83 0v500h45v-223h127l176 223h54l-193 -239l224 -261h-57l-204 237h-127v-237h-45z" />
    <glyph glyph-name="afii10077" unicode="&#x43b;" horiz-adv-x="550" 
d="M422 0v458h-243l-2 -70q-4 -107 -14.5 -183t-23 -116t-31.5 -62.5t-34 -27.5t-37 -5q-18 0 -30 5v49q14 -6 27 -6q16 0 27.5 6t25 29t22.5 63.5t16.5 114.5t10.5 176l2 69h329v-500h-45z" />
    <glyph glyph-name="afii10078" unicode="&#x43c;" horiz-adv-x="660" 
d="M532 0v439l-191 -275h-21l-192 274v-438h-45v500h53l196 -278l194 278h51v-500h-45z" />
    <glyph glyph-name="afii10079" unicode="&#x43d;" horiz-adv-x="582" 
d="M454 0v234h-326v-234h-45v500h45v-224h326v224h45v-500h-45z" />
    <glyph glyph-name="afii10080" unicode="&#x43e;" horiz-adv-x="572" 
d="M46 252q0 123 67 190.5t172 67.5q113 -1 176.5 -67.5t63.5 -194.5q0 -123 -67 -190.5t-172 -67.5q-114 1 -177 67t-63 195zM92 252v-3q0 -109 51.5 -163.5t142.5 -54.5q90 0 141.5 55.5t51.5 161.5v3q0 109 -52 163.5t-143 54.5q-90 -1 -141 -56.5t-51 -160.5z" />
    <glyph glyph-name="afii10081" unicode="&#x43f;" horiz-adv-x="574" 
d="M446 0v458h-318v-458h-45v500h408v-500h-45z" />
    <glyph glyph-name="afii10082" unicode="&#x440;" horiz-adv-x="593" 
d="M83 -180v680h43v-111l1 -11q17 56 64.5 94t134.5 38q102 0 161 -62t59 -187q0 -272 -227 -272q-72 0 -122 32.5t-69 87.5v-289h-45zM128 283v-60q0 -89 50.5 -140.5t135.5 -51.5q187 0 187 225q0 109 -49.5 160.5t-137.5 51.5t-136 -50t-50 -135z" />
    <glyph glyph-name="afii10083" unicode="&#x441;" horiz-adv-x="498" 
d="M450 51q-19 -26 -61 -43.5t-102 -17.5q-114 0 -177.5 66.5t-63.5 195.5q0 123 67 190.5t172 67.5q99 0 160 -50v-73q-53 82 -160 82q-90 0 -141.5 -55.5t-51.5 -161.5v-3q0 -109 52 -163.5t143 -54.5q59 0 101 23t62 59v-62z" />
    <glyph glyph-name="afii10084" unicode="&#x442;" horiz-adv-x="438" 
d="M197 0v458h-181v42h408v-42h-182v-458h-45z" />
    <glyph glyph-name="afii10085" unicode="&#x443;" horiz-adv-x="502" 
d="M249 -2l-223 502h52l195 -443l166 443h49l-213 -553q-28 -73 -59 -103.5t-73 -30.5t-67 19v54q25 -29 65 -29q30 0 56 29.5t52 111.5z" />
    <glyph glyph-name="afii10086" unicode="&#x444;" horiz-adv-x="667" 
d="M311 750h45v-246h19q246 0 246 -254q0 -127 -65.5 -190.5t-180.5 -63.5h-19v-176h-45v176h-19q-245 0 -245 254q0 127 65 190.5t180 63.5h19v246zM373 462h-17v-424h15q98 0 151 51.5t53 156.5q0 116 -51.5 166t-150.5 50zM92 254q0 -116 52 -166t150 -50h17v424h-14
q-98 0 -151.5 -51.5t-53.5 -156.5z" />
    <glyph glyph-name="afii10087" unicode="&#x445;" horiz-adv-x="482" 
d="M19 0l191 257l-179 243h57l151 -207l156 207h54l-183 -239l197 -261h-56l-169 225l-165 -225h-54z" />
    <glyph glyph-name="afii10088" unicode="&#x446;" horiz-adv-x="587" 
d="M83 0v500h45v-456h310v456h45v-456h79v-174h-43v130h-436z" />
    <glyph glyph-name="afii10089" unicode="&#x447;" horiz-adv-x="534" 
d="M406 0v199q-60 -31 -154 -31q-194 0 -194 162v170h45v-165q0 -125 151 -125q94 0 152 30v260h45v-500h-45z" />
    <glyph glyph-name="afii10090" unicode="&#x448;" horiz-adv-x="741" 
d="M83 0v500h45v-456h220v456h45v-456h220v456h45v-500h-575z" />
    <glyph glyph-name="afii10091" unicode="&#x449;" horiz-adv-x="762" 
d="M83 0v500h45v-456h220v456h45v-456h220v456h45v-456h79v-174h-44v130h-610z" />
    <glyph glyph-name="afii10092" unicode="&#x44a;" horiz-adv-x="561" 
d="M150 0v458h-134v42h179v-178h122q103 0 155 -34t52 -120q0 -88 -49.5 -128t-159.5 -40h-165zM479 168q-1 63 -40 88t-124 25h-120v-239h118q87 0 126.5 28t39.5 98z" />
    <glyph glyph-name="afii10093" unicode="&#x44b;" horiz-adv-x="653" 
d="M83 0v500h45v-178h108q103 0 154.5 -34.5t52.5 -119.5q0 -88 -49.5 -128t-159.5 -40h-151zM398 168q-1 62 -40 87t-123 25h-107v-238h105q86 0 125.5 28t39.5 98zM525 0v500h45v-500h-45z" />
    <glyph glyph-name="afii10094" unicode="&#x44c;" horiz-adv-x="494" 
d="M457 168q0 -88 -49.5 -128t-159.5 -40h-165v500h45v-178h122q104 0 155.5 -34t51.5 -120zM412 168q-1 63 -40 88t-123 25h-121v-239h119q86 0 125.5 28t39.5 98z" />
    <glyph glyph-name="afii10095" unicode="&#x44d;" horiz-adv-x="509" 
d="M50 387v73q65 50 172 50q114 0 177.5 -66.5t63.5 -195.5q0 -123 -67 -190.5t-172 -67.5q-63 0 -108 17.5t-65 43.5v62q21 -36 65.5 -59t107.5 -23q87 0 138 52t55 151h-263v42h262q-6 96 -57 144.5t-137 48.5q-115 0 -172 -82z" />
    <glyph glyph-name="afii10096" unicode="&#x44e;" horiz-adv-x="755" 
d="M83 0v500h45v-224h111q7 111 70 171.5t159 60.5q113 -1 176.5 -67.5t63.5 -194.5q0 -123 -67 -190.5t-172 -67.5q-106 1 -166 63t-64 183h-111v-234h-45zM470 29q89 0 140.5 55.5t51.5 161.5v3q0 108 -51.5 162.5t-142.5 55.5q-86 0 -135.5 -55.5t-49.5 -161.5v-3
q0 -109 49.5 -163.5t137.5 -54.5z" />
    <glyph glyph-name="afii10097" unicode="&#x44f;" horiz-adv-x="519" 
d="M391 0v186h-155h-3l-146 -186h-53l150 191q-57 12 -90 48.5t-33 93.5q0 87 49.5 127t159.5 40h166v-500h-45zM271 458q-86 0 -125.5 -28t-39.5 -97q1 -51 37 -80t98 -29h150v234h-120z" />
    <glyph glyph-name="afii10071" unicode="&#x451;" horiz-adv-x="546" 
d="M285 510q101 0 158.5 -62.5t57.5 -173.5v-37h-409q3 -103 54.5 -154.5t140.5 -51.5q68 0 115 23t69 59v-62q-21 -26 -68 -43.5t-116 -17.5q-114 0 -177.5 66.5t-63.5 195.5q0 123 67 190.5t172 67.5zM285 469q-84 0 -135 -49t-57 -143h363v3q0 91 -46.5 140t-124.5 49z
M345 726q0 14 9.5 23t24.5 9q16 0 25 -9t9 -23t-9 -23t-25 -9q-15 0 -24.5 9t-9.5 23zM137 726q0 14 9.5 23t24.5 9q16 0 25 -9t9 -23t-9 -23t-25 -9q-15 0 -24.5 9t-9.5 23z" />
    <glyph glyph-name="afii10099" unicode="&#x452;" horiz-adv-x="596" 
d="M500 -36v251q0 81 -37.5 116.5t-113.5 36.5h-3q-87 0 -130.5 -46t-41.5 -129v-193h-45v534h-103v42h103v174h45v-174h154v-42h-154v-240q13 52 60.5 83.5t125.5 31.5h2q183 -2 183 -180v-263q0 -77 -28 -114.5t-95 -37.5q-41 0 -73 19v59q29 -34 75 -34q39 0 57.5 23.5
t18.5 82.5z" />
    <glyph glyph-name="afii10100" unicode="&#x453;" horiz-adv-x="453" 
d="M83 0v500h335v-42h-290v-458h-45zM203 590h-34l100 160h74z" />
    <glyph glyph-name="afii10101" unicode="&#x454;" horiz-adv-x="499" 
d="M346 276v-42h-250q4 -101 55.5 -152t139.5 -51q59 0 101 23t62 59v-62q-19 -26 -61 -43.5t-102 -17.5q-114 0 -177.5 66.5t-63.5 195.5q0 123 67 190.5t172 67.5q99 0 160 -50v-73q-53 82 -160 82q-85 0 -136 -49.5t-57 -143.5h250z" />
    <glyph glyph-name="afii10102" unicode="&#x455;" horiz-adv-x="478" 
d="M408 387q-53 82 -160 82h-2q-64 0 -101.5 -24t-37.5 -69q0 -39 33 -61.5t79.5 -33.5t93 -23.5t79.5 -43t33 -80.5q0 -69 -48.5 -106t-140.5 -38q-62 0 -109 17.5t-69 43.5v62q23 -36 70 -59t108 -23q68 0 106 26t38 73q0 39 -33 62t-79.5 34.5t-93 24t-79.5 42.5t-33 79
q0 62 47.5 100t138.5 38q99 0 160 -50v-73z" />
    <glyph glyph-name="afii10103" unicode="&#x456;" horiz-adv-x="240" 
d="M86 726q0 14 9.5 23t24.5 9q16 0 25 -9t9 -23t-9 -23t-25 -9q-15 0 -24.5 9t-9.5 23zM98 0v500h45v-500h-45z" />
    <glyph glyph-name="afii10104" unicode="&#x457;" horiz-adv-x="211" 
d="M83 0v500h45v-500h-45zM18 730q0 13 7.5 21t20.5 8t21 -8t8 -21t-8 -20.5t-21 -7.5q-28 0 -28 28zM139 730q0 13 7.5 21t20.5 8q28 0 28 -29q0 -28 -28 -28t-28 28z" />
    <glyph glyph-name="afii10105" unicode="&#x458;" horiz-adv-x="237" 
d="M97 -36v536h45v-534q0 -77 -28 -114.5t-94 -37.5q-42 0 -74 19v59q29 -34 75 -34q39 0 57.5 23.5t18.5 82.5zM85 726q0 14 9.5 23t25.5 9t25 -9t9 -23t-9.5 -23t-24.5 -9q-16 0 -25.5 9t-9.5 23z" />
    <glyph glyph-name="afii10106" unicode="&#x459;" horiz-adv-x="800" 
d="M409 0v458h-230l-2 -70q-4 -107 -14.5 -183t-23 -116t-31.5 -62.5t-34 -27.5t-37 -5q-18 0 -30 5v49q14 -6 27 -6q16 0 27.5 6t25 29t22.5 63.5t16.5 114.5t10.5 176l2 69h316v-178h102q102 0 154 -34.5t53 -119.5q0 -88 -49.5 -128t-159.5 -40h-145zM554 280h-100v-238
h98q86 0 125.5 28t40.5 97q-1 63 -40 88t-124 25z" />
    <glyph glyph-name="afii10107" unicode="&#x45a;" horiz-adv-x="827" 
d="M428 0v275h-300v-275h-45v500h45v-183h300v183h45v-181h110q102 0 154 -33.5t53 -117.5q0 -88 -49.5 -128t-159.5 -40h-153zM582 277h-109v-235h107q85 0 124.5 27t40.5 95q-1 63 -40 88t-123 25z" />
    <glyph glyph-name="afii10108" unicode="&#x45b;" horiz-adv-x="596" 
d="M129 750h45v-174h154v-42h-154v-244q17 52 63.5 85t113.5 34q89 0 137 -45t48 -135v-229h-45v215q0 80 -36.5 115.5t-110.5 37.5h-2q-82 0 -124 -51t-44 -132v-185h-45v534h-103v42h103v174z" />
    <glyph glyph-name="afii10109" unicode="&#x45c;" horiz-adv-x="539" 
d="M83 0v500h45v-223h127l176 223h54l-193 -239l224 -261h-57l-204 237h-127v-237h-45zM256 590h-34l100 160h74z" />
    <glyph glyph-name="afii10110" unicode="&#x45e;" horiz-adv-x="502" 
d="M249 -2l-223 502h52l195 -443l166 443h49l-213 -553q-28 -73 -59 -103.5t-73 -30.5t-67 19v54q25 -29 65 -29q30 0 56 29.5t52 111.5zM363 737h43q0 -63 -39.5 -96.5t-100.5 -33.5q-70 0 -110.5 33t-40.5 97h44q0 -45 27.5 -68.5t77.5 -23.5q46 0 72.5 23t26.5 69z" />
    <glyph glyph-name="afii10193" unicode="&#x45f;" horiz-adv-x="583" 
d="M83 0v500h45v-456h327v456h45v-500h-187v-130h-43v130h-187z" />
    <glyph glyph-name="afii10050" unicode="&#x490;" horiz-adv-x="585" 
d="M520 830h46v-174h-411v-656h-48v700h413v130z" />
    <glyph glyph-name="afii10098" unicode="&#x491;" horiz-adv-x="452" 
d="M83 0v500h290v130h44v-172h-289v-458h-45z" />
    <glyph glyph-name="cyrGebar" unicode="&#x492;" 
d="M570 700v-44h-412v-274h287v-44h-287v-338h-48v338h-119v44h119v318h460z" />
    <glyph glyph-name="cyrgebar" unicode="&#x493;" horiz-adv-x="475" 
d="M358 276v-42h-214v-234h-45v234h-82v42h82v224h341v-42h-296v-182h214z" />
    <glyph glyph-name="cyrKadesc" unicode="&#x49a;" horiz-adv-x="731" 
d="M148 336v-336h-48v700h48v-326h158l303 326h62l-319 -341l312 -314h44v-175h-46v130h-17l-335 336h-162z" />
    <glyph glyph-name="cyrkadesc" unicode="&#x49b;" horiz-adv-x="547" 
d="M83 0v500h45v-223h133l176 223h54l-193 -239l188 -219h38v-172h-44v130h-15l-204 237h-133v-237h-45z" />
    <glyph glyph-name="cyrEndesc" unicode="&#x4a2;" horiz-adv-x="799" 
d="M633 0v338h-485v-338h-48v700h48v-318h485v318h48v-656h94v-174h-46v130h-96z" />
    <glyph glyph-name="cyrendesc" unicode="&#x4a3;" horiz-adv-x="585" 
d="M440 0v234h-312v-234h-45v500h45v-224h312v224h45v-456h80v-174h-44v130h-81z" />
    <glyph glyph-name="cyrstraightU" unicode="&#x4ae;" horiz-adv-x="626" 
d="M618 700l-283 -425v-275h-48v284l-279 416h56l252 -373l247 373h55z" />
    <glyph glyph-name="cyrstraightu" unicode="&#x4af;" horiz-adv-x="489" 
d="M225 -180v187l-209 493h50l183 -435l176 435h48l-203 -490v-190h-45z" />
    <glyph glyph-name="cyrstraightUbar" unicode="&#x4b0;" horiz-adv-x="626" 
d="M535 320v-44h-196v-276h-48v276h-197v44h169l-255 380h56l252 -373l247 373h55l-254 -380h171z" />
    <glyph glyph-name="cyrstraightubar" unicode="&#x4b1;" horiz-adv-x="489" 
d="M77 44h132l-193 456h50l183 -435l176 435h48l-189 -456h135v-44h-149v-180h-45v180h-148v44z" />
    <glyph glyph-name="cyrH" unicode="&#x4ba;" horiz-adv-x="682" 
d="M557 0v233q0 86 -54 124.5t-170 38.5q-56 0 -112.5 -12t-84.5 -31v-353h-48v700h48v-304q29 18 87 31t117 13q265 0 265 -188v-252h-48z" />
    <glyph glyph-name="cyrh" unicode="&#x4bb;" horiz-adv-x="579" 
d="M457 0v315q0 82 -38 117.5t-116 35.5q-87 0 -131 -46t-44 -129v-293h-45v750h45v-356q16 52 63.5 83.5t125.5 31.5h2q183 -2 183 -180v-329h-45z" />
    <glyph glyph-name="cyrI" unicode="&#x4c0;" horiz-adv-x="248" 
d="M148 700v-700h-48v700h48z" />
    <glyph glyph-name="uni04CF" unicode="&#x4cf;" horiz-adv-x="211" 
d="M83 750h45v-750h-45v750z" />
    <glyph glyph-name="cyrinvE" unicode="&#x4d8;" horiz-adv-x="783" 
d="M147 546v83q35 37 101 59t137 22q162 0 255 -97t93 -264q0 -157 -94 -257.5t-248 -101.5q-146 0 -243.5 89t-97.5 252v51h634q-9 129 -88 206.5t-211 77.5q-78 0 -142.5 -33t-95.5 -87zM390 34q128 0 210 83t86 221h-588v-7q0 -140 82 -218t210 -79z" />
    <glyph glyph-name="cyrinve" unicode="&#x4d9;" horiz-adv-x="553" 
 />
    <glyph glyph-name="cyrObar" unicode="&#x4e8;" horiz-adv-x="814" 
d="M399 710q171 0 268 -96.5t97 -264.5q0 -157 -98.5 -258t-258.5 -101q-167 2 -262 98.5t-95 262.5q0 155 96 255.5t253 103.5zM415 34q130 2 212.5 85t86.5 219h-614q4 -137 87.5 -220t227.5 -84zM101 382h611q-9 128 -92 205.5t-221 78.5q-125 -3 -206.5 -80t-91.5 -204z
" />
    <glyph glyph-name="cyrobar" unicode="&#x4e9;" horiz-adv-x="572" 
d="M47 252q0 123 66.5 190.5t171.5 67.5q113 -1 176.5 -67.5t63.5 -194.5q0 -123 -67 -190.5t-172 -67.5q-114 1 -176.5 67t-62.5 195zM286 31q87 0 138 52t55 151h-387q4 -102 55 -152.5t139 -50.5zM92 276h386q-6 96 -57 144.5t-137 48.5q-84 -1 -135 -50.5t-57 -142.5z
" />
    <glyph glyph-name="Germandbls" unicode="&#x1e9e;" horiz-adv-x="701" 
d="M355 462v51l171 109q-73 25 -159 25q-116 0 -170 -38.5t-54 -124.5v-484h-48v503q0 188 265 188q64 0 126.5 -15t86.5 -34v-41l-10 -6q-53 -33 -149 -92q231 -17 231 -253q0 -127 -70.5 -190.5t-194.5 -63.5h-25q-63 0 -89 17v53q33 -27 91 -28h18q106 0 163.5 51.5
t57.5 156.5q0 116 -56 166t-163 50h-22z" />
    <glyph glyph-name="endash" unicode="&#x2013;" horiz-adv-x="707" 
d="M120 271v44h467v-44h-467z" />
    <glyph glyph-name="emdash" unicode="&#x2014;" horiz-adv-x="907" 
d="M120 271v44h667v-44h-667z" />
    <glyph glyph-name="quoteleft" unicode="&#x2018;" horiz-adv-x="293" 
d="M240 689q-46 -11 -69.5 -49.5t-11.5 -68.5q6 6 13 6q39 0 39 -38q0 -37 -39 -37q-29 0 -44.5 22.5t-15.5 59.5q0 50 32 87.5t70 47.5z" />
    <glyph glyph-name="quoteright" unicode="&#x2019;" horiz-adv-x="293" 
d="M53 493q46 12 69.5 50t11.5 68q-5 -5 -13 -5q-39 0 -39 37t39 37q28 0 44 -22.5t16 -58.5q0 -51 -32 -88t-70 -48z" />
    <glyph glyph-name="quotesinglbase" unicode="&#x201a;" horiz-adv-x="293" 
d="M53 -107q46 12 69.5 50t11.5 68q-5 -5 -13 -5q-39 0 -39 37t39 37q29 0 44.5 -24.5t15.5 -56.5q0 -51 -32 -88t-70 -48z" />
    <glyph glyph-name="quotedblleft" unicode="&#x201c;" horiz-adv-x="493" 
d="M240 689q-46 -11 -69.5 -49.5t-11.5 -68.5q6 6 13 6q39 0 39 -38q0 -37 -39 -37q-29 0 -44.5 22.5t-15.5 59.5q0 50 32 87.5t70 47.5zM440 689q-46 -11 -69.5 -49.5t-11.5 -68.5q6 6 13 6q39 0 39 -38q0 -37 -39 -37q-29 0 -44.5 22.5t-15.5 59.5q0 50 32 87.5t70 47.5z
" />
    <glyph glyph-name="quotedblright" unicode="&#x201d;" horiz-adv-x="493" 
d="M253 493q46 12 69.5 50t11.5 68q-5 -5 -13 -5q-39 0 -39 37t39 37q28 0 44 -22.5t16 -58.5q0 -51 -32 -88t-70 -48zM53 493q46 12 69.5 50t11.5 68q-5 -5 -13 -5q-39 0 -39 37t39 37q28 0 44 -22.5t16 -58.5q0 -51 -32 -88t-70 -48z" />
    <glyph glyph-name="quotedblbase" unicode="&#x201e;" horiz-adv-x="493" 
d="M253 -107q46 12 69.5 50t11.5 68q-5 -5 -13 -5q-39 0 -39 37t39 37q29 0 44.5 -24.5t15.5 -56.5q0 -51 -32 -88t-70 -48zM53 -107q46 12 69.5 50t11.5 68q-5 -5 -13 -5q-39 0 -39 37t39 37q29 0 44.5 -24.5t15.5 -56.5q0 -51 -32 -88t-70 -48z" />
    <glyph glyph-name="dagger" unicode="&#x2020;" horiz-adv-x="520" 
d="M270 -100h-20l-25 400v1l24 184l-189 -22v70l190 -24l-24 191h70l-24 -191l188 23v-70l-187 23l22 -184v-1z" />
    <glyph glyph-name="daggerdbl" unicode="&#x2021;" horiz-adv-x="520" 
d="M60 463v70l190 -24l-24 191h70l-24 -191l188 23v-70l-187 23l22 -184v-1l-24 -190l189 23v-70l-189 23l23 -185h-70l24 186l-188 -22v70l187 -24l-22 189v1l23 184z" />
    <glyph glyph-name="bullet" unicode="&#x2022;" horiz-adv-x="334" 
d="M104 327q0 62 63 62t63 -62t-63 -62t-63 62z" />
    <glyph glyph-name="ellipsis" unicode="&#x2026;" horiz-adv-x="933" 
d="M90 35q0 41 42 41t42 -41t-42 -41t-42 41zM401 35q0 41 42 41t42 -41t-42 -41t-42 41zM712 35q0 41 42 41t42 -41t-42 -41t-42 41z" />
    <glyph glyph-name="perthousand" unicode="&#x2030;" horiz-adv-x="1232" 
d="M64 548q0 72 46.5 115.5t121.5 43.5q72 0 115.5 -42.5t43.5 -116.5t-45.5 -118t-120.5 -44q-72 0 -116.5 45t-44.5 117zM105 548q0 -54 34.5 -87.5t90.5 -33.5q55 0 88 33t33 88t-33 86.5t-90 31.5q-56 0 -89.5 -31.5t-33.5 -86.5zM450 156q0 72 46.5 115.5t121.5 43.5
q72 0 115.5 -42.5t43.5 -116.5t-45.5 -118t-120.5 -44q-72 0 -116.5 45t-44.5 117zM491 156q0 -54 34.5 -87.5t90.5 -33.5q55 0 88 33t33 88t-33 86.5t-90 31.5q-56 0 -89.5 -31.5t-33.5 -86.5zM700 700l-504 -700h-53l507 700h50zM836 156q0 72 46.5 115.5t121.5 43.5
q72 0 115.5 -42.5t43.5 -116.5t-45.5 -118t-120.5 -44q-72 0 -116.5 45t-44.5 117zM877 156q0 -54 34.5 -87.5t90.5 -33.5q55 0 88 33t33 88t-33 86.5t-90 31.5q-56 0 -89.5 -31.5t-33.5 -86.5z" />
    <glyph glyph-name="guilsinglleft" unicode="&#x2039;" horiz-adv-x="291" 
d="M235 89v-57l-195 218l195 218v-58l-144 -160z" />
    <glyph glyph-name="guilsinglright" unicode="&#x203a;" horiz-adv-x="291" 
d="M56 411v57l195 -218l-195 -218v58l144 160z" />
    <glyph glyph-name="fraction" unicode="&#x2044;" horiz-adv-x="394" 
d="M475 700l-504 -700h-52l507 700h49z" />
    <glyph glyph-name="Euro" unicode="&#x20ac;" horiz-adv-x="620" 
d="M48 467h64q22 125 90 183t164 58q136 0 188 -73l-20 -75q-19 47 -65 74.5t-106 27.5q-162 0 -199 -195h353l-11 -44h-348q-3 -35 -3 -74q0 -36 3 -66h310l-11 -44h-294q35 -201 207 -203q117 0 180 94v-65q-61 -75 -181 -75q-219 0 -258 249h-74l11 44h57q-2 21 -2 66
q0 39 3 74h-70z" />
    <glyph glyph-name="uni20B4" unicode="&#x20b4;" horiz-adv-x="620" 
d="M100 307h420v-44h-277q-91 -55 -91 -117q0 -44 37.5 -76t112.5 -32q140 0 207 105v-82q-72 -69 -203 -69q-106 0 -155 41.5t-49 100.5q0 75 85 129h-87v44zM100 455h275q83 46 83 109q0 46 -38.5 72t-111.5 26q-67 0 -117 -28t-72 -72v75q21 29 73 50t119 21
q102 0 149.5 -38t47.5 -94q0 -73 -74 -121h86v-44h-420v44z" />
    <glyph glyph-name="uni20B8" unicode="&#x20b8;" 
d="M37 494v44h512v-44h-233v-494h-48v494h-231zM37 656v44h512v-44h-512z" />
    <glyph glyph-name="uni20BD" unicode="&#x20bd;" horiz-adv-x="620" 
d="M40 302h108v398h146q137 0 207 -52t70 -166q0 -224 -296 -224h-79v-87h264v-44h-264v-127h-48v127h-108v44h108v87h-108v44zM288 656h-92v-354h76q125 0 187 43t62 140q0 94 -57 132.5t-176 38.5z" />
    <glyph glyph-name="afii61352" unicode="&#x2116;" horiz-adv-x="1242" 
d="M645 0l-497 623v-623h-48v700h49l498 -624v624h48v-700h-50zM795 508q0 72 46.5 115.5t122.5 43.5q71 0 114.5 -42.5t43.5 -116.5t-45.5 -118t-120.5 -44q-71 0 -116 45t-45 117zM836 508q0 -54 34.5 -87.5t90.5 -33.5q55 0 88 33t33 88t-33 86.5t-90 31.5
q-56 0 -89.5 -31.5t-33.5 -86.5zM1134 276v-42h-342v42h342z" />
    <glyph glyph-name="servicemark" unicode="&#x2120;" horiz-adv-x="948" 
d="M824 350v297l-134 -192h-23l-134 191v-296h-41v350h51l138 -196l135 196h48v-350h-40zM375 678v-59q-46 53 -133 53q-120 0 -120 -61q0 -28 29 -43t70.5 -21t83 -13.5t70.5 -29t29 -59.5q0 -50 -44 -78.5t-133 -28.5q-98 0 -155 38v59q21 -26 63.5 -43t95.5 -16
q131 0 131 64q0 28 -29 43t-70.5 20.5t-83.5 13t-71 29.5t-29 61q0 50 37 76.5t126 26.5q74 0 133 -32z" />
    <glyph glyph-name="trademark" unicode="&#x2122;" horiz-adv-x="933" 
d="M788 350v298l-134 -193h-23l-135 192v-297h-40v350h51l137 -196l135 196h49v-350h-40zM197 350v312h-142v38h323v-38h-141v-312h-40z" />
    <glyph glyph-name="onethird" unicode="&#x2153;" horiz-adv-x="815" 
d="M469 263v59q59 32 133 32q61 0 93 -25t32 -67q0 -59 -65 -80q87 -13 87 -82q0 -49 -40 -76.5t-113 -27.5q-83 1 -130 38v59q17 -26 52.5 -42.5t80.5 -16.5q110 0 110 69q0 57 -101 57h-72v36h52q100 0 100 60q0 57 -90 60q-38 1 -73 -14t-56 -39zM641 700l-504 -700h-52
l507 700h49zM60 594v40l128 70h27v-354h-40v305z" />
    <glyph glyph-name="twothirds" unicode="&#x2154;" horiz-adv-x="915" 
d="M569 322q59 32 133 32q61 0 93 -25t32 -67q0 -59 -65 -80q87 -13 87 -82q0 -49 -40 -76.5t-113 -27.5q-83 1 -130 38v59q17 -26 52.5 -42.5t80.5 -16.5q110 0 110 69q0 57 -101 57h-72v36h52q100 0 100 60q0 57 -90 60q-38 1 -73 -14t-56 -39v59zM741 700l-504 -700h-52
l507 700h49zM353 386v-36h-293v24q139 80 185.5 121t46.5 90q0 36 -23.5 58t-67.5 23q-37 1 -72 -13.5t-57 -39.5v59q61 33 133 32q59 -1 93 -30t34 -81q0 -49 -31 -90.5t-116 -92.5l-39 -24h207z" />
    <glyph glyph-name="oneeighth" unicode="&#x215b;" horiz-adv-x="813" 
d="M595 -4q-71 0 -112 26.5t-41 73.5q0 71 93 91q-35 6 -57.5 25.5t-22.5 52.5q0 41 35 66t105 25q68 0 101 -24t33 -65q0 -60 -79 -80q45 -8 71 -31t26 -57q0 -47 -39 -75t-113 -28zM629 700l-504 -700h-52l507 700h49zM596 34q113 0 113 67q0 30 -29.5 48t-84.5 18
q-56 0 -85 -18.5t-29 -49.5q0 -32 31 -48.5t84 -16.5zM594 201q47 0 72.5 17t25.5 43q0 57 -98 57q-101 0 -101 -59q0 -25 27.5 -41.5t73.5 -16.5zM60 594v40l128 70h27v-354h-40v305z" />
    <glyph glyph-name="threeeighths" unicode="&#x215c;" horiz-adv-x="889" 
d="M671 -4q-71 0 -112 26.5t-41 73.5q0 71 93 91q-35 6 -57.5 25.5t-22.5 52.5q0 41 35 66t105 25q68 0 101 -24t33 -65q0 -60 -79 -80q45 -8 71 -31t26 -57q0 -47 -39 -75t-113 -28zM672 34q113 0 113 67q0 30 -29.5 48t-84.5 18q-56 0 -85 -18.5t-29 -49.5q0 -32 31 -48.5
t84 -16.5zM670 201q47 0 72.5 17t25.5 43q0 57 -98 57q-101 0 -101 -59q0 -25 27.5 -41.5t73.5 -16.5zM705 700l-504 -700h-52l507 700h49zM63 672q59 32 133 32q61 0 93 -25t32 -67q0 -59 -65 -80q87 -13 87 -82q0 -49 -40 -76.5t-113 -27.5q-83 1 -130 38v59
q17 -26 52.5 -42.5t80.5 -16.5q110 0 110 69q0 57 -101 57h-72v36h52q100 0 100 60q0 57 -90 60q-38 1 -73 -14t-56 -39v59z" />
    <glyph glyph-name="fiveeighths" unicode="&#x215d;" horiz-adv-x="882" 
d="M665 -4q-71 0 -112 26.5t-41 73.5q0 71 93 91q-35 6 -57.5 25.5t-22.5 52.5q0 41 35 66t105 25q68 0 101 -24t33 -65q0 -60 -79 -80q45 -8 70.5 -31t25.5 -57q0 -47 -39 -75t-112 -28zM699 700l-504 -700h-53l507 700h50zM321 700v-36h-196l-10 -103q24 6 63 6
q153 0 153 -108q0 -54 -38 -84t-109 -30q-75 1 -124 39v59q17 -26 52 -43t75 -17q105 1 105 77q0 35 -31 54t-87 19t-98 -14l19 181h226zM666 34q112 0 112 67q0 30 -29 48t-84 18q-56 0 -85 -18.5t-29 -49.5q0 -32 31 -48.5t84 -16.5zM664 201q47 0 72.5 17t25.5 43
q0 57 -98 57q-101 0 -101 -59q0 -25 27.5 -41.5t73.5 -16.5z" />
    <glyph glyph-name="seveneighths" unicode="&#x215e;" horiz-adv-x="819" 
d="M601 -4q-71 0 -112 26.5t-41 73.5q0 71 93 91q-35 6 -57.5 25.5t-22.5 52.5q0 41 35 66t105 25q68 0 101 -24t33 -65q0 -60 -79 -80q45 -8 71 -31t26 -57q0 -47 -39 -75t-113 -28zM635 700l-504 -700h-52l507 700h49zM602 34q113 0 113 67q0 30 -29.5 48t-84.5 18
q-56 0 -85 -18.5t-29 -49.5q0 -32 31 -48.5t84 -16.5zM68 700h266v-22l-166 -328h-41l160 314h-219v36zM600 201q47 0 72.5 17t25.5 43q0 57 -98 57q-101 0 -101 -59q0 -25 27.5 -41.5t73.5 -16.5z" />
    <glyph glyph-name="minus" unicode="&#x2212;" 
d="M82 367h420v-44h-420v44z" />
    <glyph glyph-name="infinity" unicode="&#x221e;" 
d="M154 500q27 0 49 -9.5t39 -30.5t26.5 -36t23.5 -43q15 28 23.5 43t26 36t39 30.5t49.5 9.5q65 0 98.5 -43t33.5 -107t-33.5 -107t-98.5 -43q-27 0 -49 9.5t-39 30.5t-26.5 35.5t-23.5 42.5q-14 -28 -23.5 -42.5t-26.5 -35.5t-39 -30.5t-49 -9.5q-65 0 -98.5 43t-33.5 107
t33.5 107t98.5 43zM312 350q32 -59 56 -84.5t62 -25.5q45 0 68.5 29.5t23.5 80.5t-23.5 80.5t-68.5 29.5q-38 0 -62 -25.5t-56 -84.5zM272 350q-32 59 -56 84.5t-62 25.5q-44 0 -67.5 -29.5t-23.5 -80.5t23.5 -80.5t67.5 -29.5q38 0 62 25.5t56 84.5z" />
    <glyph glyph-name="approxequal" unicode="&#x2248;" 
d="M82 400v47q49 46 111 46q41 0 110.5 -43t106.5 -43q59 0 92 45v-51q-40 -38 -96 -38q-47 0 -115.5 43t-102.5 43q-54 0 -106 -49zM82 200v47q49 46 111 46q41 0 110.5 -43t106.5 -43q59 0 92 45v-51q-40 -38 -96 -38q-47 0 -115.5 43t-102.5 43q-54 0 -106 -49z" />
    <glyph glyph-name="notequal" unicode="&#x2260;" 
d="M148 0l79 223h-145v44h160l59 166h-219v44h235l79 223h45l-79 -223h140v-44h-156l-59 -166h215v-44h-230l-79 -223h-45z" />
    <glyph glyph-name="lessequal" unicode="&#x2264;" 
d="M81 407l422 251v-52l-341 -199l341 -199v-52zM82 125h420v-44h-420v44z" />
    <glyph glyph-name="greaterequal" unicode="&#x2265;" 
d="M504 407l-422 -251v52l341 199l-341 199v52zM82 125h420v-44h-420v44z" />
    <glyph glyph-name="lozenge" unicode="&#x25ca;" horiz-adv-x="580" 
d="M259 0l-182 350l182 350h62l182 -350l-182 -350h-31h-31zM290 36l163 314l-163 314l-162 -314z" />
    <glyph glyph-name="accent" unicode="&#xf400;" horiz-adv-x="0" 
d="M-296 590h-34l100 160h74z" />
    <glyph glyph-name="Breve" unicode="&#xf406;" horiz-adv-x="424" 
d="M212 743q-67 0 -112 33t-60 84h27q48 -75 145 -75q48 0 88.5 21.5t56.5 53.5h27q-15 -51 -62 -84t-110 -33z" />
    <glyph glyph-name="Cedilla" unicode="&#xf407;" horiz-adv-x="269" 
d="M136 0l-22 -65q115 -11 115 -77q0 -36 -31.5 -61.5t-73 -36t-84.5 -10.5v26q55 0 98 21t43 57q0 52 -111 54l31 92h35z" />
    <glyph glyph-name="Circumflex" unicode="&#xf408;" horiz-adv-x="438" 
d="M243 860l155 -114h-39l-140 72l-140 -72h-39l155 114h48z" />
    <glyph glyph-name="Commaaccent" unicode="&#xf409;" horiz-adv-x="200" 
d="M40 -224q43 10 65 43t11 60q-5 -5 -13 -5q-36 0 -36 33q0 32 37 32q28 0 42 -21.5t14 -49.5q0 -45 -30 -77.5t-66 -40.5z" />
    <glyph glyph-name="Apostrophe" unicode="&#xf40a;" horiz-adv-x="256" 
d="M53 474q47 11 71 49.5t12 68.5q-6 -6 -13 -6q-40 0 -40 38q0 37 40 37q28 0 44.5 -23t16.5 -59q0 -51 -32.5 -88t-71.5 -47z" />
    <glyph glyph-name="Dotaccent" unicode="&#xf40b;" horiz-adv-x="148" 
d="M40 823q0 14 9.5 23t24.5 9q16 0 25 -9t9 -23t-9 -23t-25 -9q-15 0 -24.5 9t-9.5 23z" />
    <glyph glyph-name="Ring" unicode="&#xf40c;" horiz-adv-x="317" 
d="M40 780q0 39 31.5 59.5t87.5 20.5q55 0 86.5 -21t31.5 -59t-31.5 -59t-86.5 -21q-56 0 -87.5 21t-31.5 59zM78 780q0 -50 81 -50q80 0 80 50t-80 50q-81 0 -81 -50z" />
    <glyph glyph-name="Tilde" unicode="&#xf40d;" horiz-adv-x="440" 
d="M400 848q-31 -102 -105 -102q-32 0 -81 31t-72 31q-44 0 -70 -62h-32q36 107 111 107q29 0 77.5 -31t70.5 -31q46 0 71 57h30z" />
    <glyph glyph-name="Ogonek" unicode="&#xf40e;" horiz-adv-x="258" 
d="M189 17l16 -17q-115 -68 -115 -144q0 -44 37 -61.5t91 -3.5v-26q-32 -15 -70 -15q-52 0 -80 27t-28 68q0 95 149 172z" />
    <glyph glyph-name="one.tab" unicode="&#xf4e1;" 
d="M103 0v44h197v604l-195 -125v51l206 133h34v-663h163v-44h-405z" />
    <glyph glyph-name="dollar.tab" unicode="&#xf4ec;" horiz-adv-x="602" 
d="M509 562q-31 47 -84 74t-115 26q-168 -3 -168 -121q0 -36 16.5 -63t43.5 -42.5t61.5 -29.5t70.5 -24t70.5 -27t61.5 -37t43.5 -54.5t16.5 -80.5q0 -175 -197 -189v-122h-44v120q-125 3 -191 71v75q31 -47 84 -73.5t115 -25.5q183 1 183 140q0 43 -21 73.5t-55 48
t-74.5 31.5t-81.5 29t-75 35t-55 55t-21 84q0 160 191 173v116h44v-115q116 -5 181 -72v-75z" />
    <glyph glyph-name="Euro.tab" unicode="&#xf4ed;" 
d="M41 467h59q23 125 91 183t163 58q136 0 188 -73l-19 -75q-19 47 -65.5 74.5t-106.5 27.5q-162 0 -198 -195h341l-12 -44h-335q-3 -35 -3 -74q0 -36 3 -66h298l-12 -44h-281q34 -201 206 -203q118 0 180 94v-65q-61 -75 -181 -75q-219 0 -258 249h-70l12 44h52
q-2 21 -2 66q0 39 3 74h-65z" />
    <glyph glyph-name="cent.tab" unicode="&#xf4ee;" 
d="M494 51q-41 -54 -145 -60v-115h-44v115q-102 7 -158.5 73t-56.5 188q0 116 59.5 182.5t156.5 74.5v119h44v-119q85 -6 139 -49v-73q-53 82 -160 82q-90 0 -141.5 -55.5t-51.5 -161.5v-3q0 -109 52 -163.5t143 -54.5q59 0 101 23t62 59v-62z" />
    <glyph glyph-name="sterling.tab" unicode="&#xf4ef;" 
d="M62 367h84v118q0 105 53 165t154 60q99 0 160 -50v-73q-53 82 -160 82q-78 0 -120 -47t-42 -130v-125h291v-44h-291v-279h331v-44h-461v44h85v279h-84v44z" />
    <glyph glyph-name="yen.tab" unicode="&#xf4fa;" 
d="M82 315h169l-228 385h53l220 -373l214 373h52l-227 -385h167v-44h-185v-105h185v-44h-185v-122h-48v122h-187v44h187v105h-187v44z" />
    <glyph glyph-name="florin.tab" unicode="&#xf4fb;" 
d="M170 496h89l8 74q19 181 158 181q60 0 93 -28v-62q-30 46 -96 46q-48 0 -75 -30t-35 -107l-8 -74h168v-42h-173l-47 -454l-3 -31q-5 -76 -34 -113.5t-95 -37.5q-41 0 -73 19v59q29 -34 75 -34q38 0 58 23t24 82l3 33l48 454h-85v42z" />
    <glyph glyph-name="uni20B4.tab" unicode="&#xf4fc;" 
d="M82 307h420v-44h-277q-91 -55 -91 -117q0 -44 37.5 -76t112.5 -32q140 0 207 105v-82q-72 -69 -203 -69q-106 0 -155 41.5t-49 100.5q0 75 85 129h-87v44zM82 455h275q83 46 83 109q0 46 -38.5 72t-111.5 26q-67 0 -117 -28t-72 -72v75q21 29 73 50t119 21
q102 0 149.5 -38t47.5 -94q0 -73 -74 -121h86v-44h-420v44z" />
    <glyph glyph-name="uni20BD.tab" unicode="&#xf4fd;" 
d="M30 302h108v398h128q137 0 207 -52t70 -166q0 -224 -296 -224h-61v-93h264v-44h-264v-121h-48v121h-108v44h108v93h-108v44zM261 656h-75v-354h58q125 0 187 43t62 140q0 93 -57 132t-175 39z" />
    <glyph glyph-name="uni20B8.tab" unicode="&#xf5f3;" 
d="M36 494v44h512v-44h-233v-494h-48v494h-231zM36 656v44h512v-44h-512z" />
    <glyph glyph-name="zero.denominator" unicode="&#xf655;" horiz-adv-x="426" 
d="M60 175q0 93 44 136t110 43q71 -2 111.5 -47.5t40.5 -132.5q0 -93 -44 -136t-110 -43q-71 2 -111.5 47t-40.5 133zM100 175q0 -138 112 -142q51 0 82.5 33.5t31.5 107.5q0 137 -112 142q-51 0 -82.5 -33.5t-31.5 -107.5z" />
    <glyph glyph-name="one.denominator" unicode="&#xf656;" horiz-adv-x="273" 
d="M153 0v305l-115 -61v40l128 70h27v-354h-40z" />
    <glyph glyph-name="two.denominator" unicode="&#xf657;" horiz-adv-x="412" 
d="M352 20v-20h-292v8q152 90 200 133t48 100q0 42 -26 66t-73 27q-86 5 -133 -49v37q60 33 133 32q56 -1 87.5 -29t31.5 -79q0 -48 -30.5 -89t-102.5 -87l-79 -50h236z" />
    <glyph glyph-name="three.denominator" unicode="&#xf658;" horiz-adv-x="399" 
d="M63 322q59 32 133 32q61 0 93 -25t32 -67q0 -59 -65 -80q87 -13 87 -82q0 -49 -40 -76.5t-113 -27.5q-83 1 -130 38v59q17 -26 52.5 -42.5t80.5 -16.5q110 0 110 69q0 57 -101 57h-72v36h52q100 0 100 60q0 57 -90 60q-38 1 -73 -14t-56 -39v59z" />
    <glyph glyph-name="four.denominator" unicode="&#xf659;" horiz-adv-x="398" 
d="M368 107v-20h-84v-87h-20v87h-234v22l234 251v-1h20v-252h84zM56 107h208v224z" />
    <glyph glyph-name="five.denominator" unicode="&#xf65a;" horiz-adv-x="386" 
d="M315 350v-20h-201l-12 -126q28 7 70 7q77 0 115.5 -27.5t38.5 -78.5q0 -110 -139 -110q-73 1 -127 41v39q18 -25 54 -42.5t76 -17.5q116 1 116 91q0 41 -35.5 63t-95.5 22q-54 0 -96 -14l17 173h219z" />
    <glyph glyph-name="six.denominator" unicode="&#xf65b;" horiz-adv-x="415" 
d="M339 258q-17 26 -51 43t-76 15q-52 -2 -83 -38.5t-31 -100.5q0 -16 1 -28q13 31 49.5 52t85.5 21q61 0 93 -29.5t32 -75.5q0 -56 -39.5 -88.5t-101.5 -32.5q-71 0 -114.5 45t-43.5 124q0 86 41 136.5t114 52.5t124 -37v-59zM104 124q8 -40 37.5 -65t80.5 -25q46 0 73 22
t27 60q0 34 -25 54t-69 20q-85 0 -124 -66z" />
    <glyph glyph-name="seven.denominator" unicode="&#xf65c;" horiz-adv-x="326" 
d="M30 350h266v-22l-166 -328h-41l160 314h-219v36z" />
    <glyph glyph-name="eight.denominator" unicode="&#xf65d;" horiz-adv-x="416" 
d="M209 -4q-71 0 -112 26.5t-41 73.5q0 71 93 91q-35 6 -57.5 25.5t-22.5 52.5q0 41 35 66t105 25q67 0 100.5 -24.5t33.5 -64.5q0 -60 -79 -80q45 -8 70.5 -31t25.5 -57q0 -47 -39 -75t-112 -28zM210 34q112 0 112 67q0 30 -29 48t-84 18q-56 0 -85.5 -18.5t-29.5 -49.5
t31.5 -48t84.5 -17zM208 201q47 0 72.5 17t25.5 43q0 57 -98 57q-101 0 -101 -59q0 -25 27.5 -41.5t73.5 -16.5z" />
    <glyph glyph-name="nine.denominator" unicode="&#xf65e;" horiz-adv-x="415" 
d="M77 93q17 -26 51 -43t76 -15q51 2 82.5 38.5t31.5 100.5q0 16 -1 28q-14 -31 -50.5 -52t-85.5 -21q-60 0 -92.5 29.5t-32.5 75.5q0 56 40 88.5t102 32.5q71 0 114 -44.5t43 -124.5q0 -86 -41 -136.5t-113 -52.5q-73 -2 -124 37v59zM311 227q-7 40 -36.5 65t-80.5 25
q-47 0 -73.5 -22t-26.5 -60q0 -34 25 -54t69 -20q84 0 123 66z" />
    <glyph glyph-name="zero.numerator" unicode="&#xf661;" horiz-adv-x="426" 
d="M60 525q0 93 44 136t110 43q71 -2 111.5 -47.5t40.5 -132.5q0 -93 -44 -136t-110 -43q-71 1 -111.5 46.5t-40.5 133.5zM100 525q0 -138 112 -142q51 0 82.5 33.5t31.5 107.5q0 137 -112 142q-51 0 -82.5 -33.5t-31.5 -107.5z" />
    <glyph glyph-name="one.numerator" unicode="&#xf662;" horiz-adv-x="273" 
d="M153 350v305l-115 -61v40l128 70h27v-354h-40z" />
    <glyph glyph-name="two.numerator" unicode="&#xf663;" horiz-adv-x="403" 
d="M347 386v-36h-293v24q139 80 185.5 121t46.5 90q0 36 -23.5 58t-67.5 23q-37 1 -72 -13.5t-57 -39.5v59q61 33 133 32q59 -1 93 -30t34 -81q0 -49 -31 -90.5t-116 -92.5l-39 -24h207z" />
    <glyph glyph-name="three.numerator" unicode="&#xf664;" horiz-adv-x="399" 
d="M63 672q59 32 133 32q61 0 93 -25t32 -67q0 -59 -65 -80q87 -13 87 -82q0 -49 -40 -76.5t-113 -27.5q-83 1 -130 38v59q17 -26 52.5 -42.5t80.5 -16.5q110 0 110 69q0 57 -101 57h-72v36h52q100 0 100 60q0 57 -90 60q-38 1 -73 -14t-56 -39v59z" />
    <glyph glyph-name="four.numerator" unicode="&#xf665;" horiz-adv-x="388" 
d="M30 468l220 232h40v-227h68v-36h-68v-87h-40v87h-220v31zM85 473h165v173z" />
    <glyph glyph-name="five.numerator" unicode="&#xf666;" horiz-adv-x="386" 
d="M317 700v-36h-195l-10 -103q24 6 62 6q153 0 153 -108q0 -54 -37.5 -84t-108.5 -30q-74 1 -125 39v59q17 -26 52 -43t75 -17q105 1 105 77q0 35 -31 54t-86 19q-56 0 -98 -14l18 181h226z" />
    <glyph glyph-name="six.numerator" unicode="&#xf667;" horiz-adv-x="415" 
d="M339 608q-17 26 -51 43t-76 15q-52 -2 -83 -38.5t-31 -100.5q0 -16 1 -28q13 31 49.5 52t85.5 21q61 0 93 -29.5t32 -75.5q0 -56 -39.5 -88.5t-101.5 -32.5q-71 0 -114.5 45t-43.5 124q0 86 41 136.5t114 52.5t124 -37v-59zM104 474q8 -40 37.5 -65t80.5 -25q46 0 73 22
t27 60q0 34 -25 54t-69 20q-85 0 -124 -66z" />
    <glyph glyph-name="seven.numerator" unicode="&#xf668;" horiz-adv-x="326" 
d="M30 700h266v-22l-166 -328h-41l160 314h-219v36z" />
    <glyph glyph-name="eight.numerator" unicode="&#xf669;" horiz-adv-x="416" 
d="M209 346q-71 0 -112 26.5t-41 73.5q0 71 93 91q-35 6 -57.5 25.5t-22.5 52.5q0 41 35 66t105 25q67 0 100.5 -24.5t33.5 -64.5q0 -60 -79 -80q45 -8 70.5 -31t25.5 -57q0 -47 -39 -75t-112 -28zM210 384q112 0 112 67q0 30 -29 48t-84 18q-56 0 -85.5 -18.5t-29.5 -49.5
t31.5 -48t84.5 -17zM208 551q47 0 72.5 17t25.5 43q0 57 -98 57q-101 0 -101 -59q0 -25 27.5 -41.5t73.5 -16.5z" />
    <glyph glyph-name="nine.numerator" unicode="&#xf66a;" horiz-adv-x="415" 
d="M77 443q17 -26 51 -43t76 -15q51 2 82.5 38.5t31.5 100.5q0 16 -1 28q-14 -31 -50.5 -52t-85.5 -21q-60 0 -92.5 29.5t-32.5 75.5q0 56 40 88.5t102 32.5q71 0 114 -44.5t43 -124.5q0 -86 -41 -136.5t-113 -52.5q-73 -2 -124 37v59zM311 577q-7 40 -36.5 65t-80.5 25
q-47 0 -73.5 -22t-26.5 -60q0 -34 25 -54t69 -20q84 0 123 66z" />
    <glyph glyph-name="commaaccent" unicode="&#xf6c3;" horiz-adv-x="200" 
d="M40 -224q43 10 65 43t11 60q-5 -5 -13 -5q-36 0 -36 33q0 32 37 32q28 0 42 -21.5t14 -49.5q0 -45 -30 -77.5t-66 -40.5z" />
    <glyph glyph-name="Acute" unicode="&#xf6c9;" horiz-adv-x="303" 
d="M85 740h-45l135 120h88z" />
    <glyph glyph-name="Caron" unicode="&#xf6ca;" horiz-adv-x="438" 
d="M243 746h-48l-155 114h39l140 -72l140 72h39z" />
    <glyph glyph-name="Dieresis" unicode="&#xf6cb;" horiz-adv-x="356" 
d="M248 823q0 14 9.5 23t24.5 9q16 0 25 -9t9 -23t-9 -23t-25 -9q-15 0 -24.5 9t-9.5 23zM40 823q0 14 9.5 23t24.5 9q16 0 25 -9t9 -23t-9 -23t-25 -9q-15 0 -24.5 9t-9.5 23z" />
    <glyph glyph-name="Grave" unicode="&#xf6ce;" horiz-adv-x="303" 
d="M218 740l-178 120h88l135 -120h-45z" />
    <glyph glyph-name="Hungarumlaut" unicode="&#xf6cf;" horiz-adv-x="447" 
d="M80 740h-40l82 120h76zM234 740h-40l123 120h90z" />
    <glyph glyph-name="Macron" unicode="&#xf6d0;" horiz-adv-x="380" 
d="M40 781v41h300v-41h-300z" />
    <glyph glyph-name="cyrBreve" unicode="&#xf6d1;" horiz-adv-x="443" 
d="M359 880h44q-6 -66 -53 -98.5t-123 -32.5q-176 0 -187 131h47q9 -91 138 -91q124 0 134 91z" />
    <glyph glyph-name="cyrbreve" unicode="&#xf6d4;" horiz-adv-x="371" 
d="M288 737h43q0 -63 -39.5 -96.5t-100.5 -33.5q-70 0 -110.5 33t-40.5 97h44q0 -45 27.5 -68.5t77.5 -23.5q46 0 72.5 23t26.5 69z" />
    <glyph glyph-name="f_f_j" horiz-adv-x="876" 
d="M24 500h90v74q0 93 43.5 137t114.5 44q60 0 93 -28v-62q-30 46 -96 46q-110 0 -110 -137v-74h256v74q0 93 43.5 137t114.5 44q60 0 93 -28v-62q-30 46 -96 46q-110 0 -110 -137v-74h167v-42h-167v-458h-45v458h-256v-458h-45v458h-90v42zM736 -36v536h45v-534
q0 -77 -28 -114.5t-94 -37.5q-42 0 -74 19v59q29 -34 75 -34q39 0 57.5 23.5t18.5 82.5zM724 726q0 14 9.5 23t25.5 9t25 -9t9 -23t-9.5 -23t-24.5 -9q-16 0 -25.5 9t-9.5 23z" />
    <glyph glyph-name="f_f_b" horiz-adv-x="1238" 
d="M728 750h45v-367q43 127 198 127q102 0 161 -62t59 -187q0 -272 -227 -272q-74 0 -124.5 34.5t-68.5 91.5v-115h-43v750zM959 468q-89 0 -136.5 -49.5t-49.5 -135.5v-69q2 -85 52.5 -134t132.5 -49q187 0 187 225q0 109 -49.5 160.5t-136.5 51.5zM24 500h90v74
q0 93 43.5 137t114.5 44q60 0 93 -28v-62q-30 46 -96 46q-110 0 -110 -137v-74h255v74q0 93 44 137t115 44q60 0 93 -28v-62q-30 46 -97 46q-109 0 -109 -137v-74h167v-42h-167v-458h-46v458h-255v-458h-45v458h-90v42z" />
    <glyph glyph-name="f_b" horiz-adv-x="937" 
d="M428 750h44v-370q17 56 64.5 93t133.5 37q102 0 161 -62t59 -187q0 -272 -227 -272q-74 0 -124.5 34.5t-68.5 91.5v-115h-42v750zM472 223q0 -89 50.5 -140.5t135.5 -51.5q187 0 187 225q0 109 -49.5 160.5t-137.5 51.5q-90 0 -138 -52t-48 -141v-52zM24 500h90v74
q0 93 43.5 137t114.5 44q60 0 93 -28v-62q-30 46 -96 46q-110 0 -110 -137v-74h167v-42h-167v-458h-45v458h-90v42z" />
    <glyph glyph-name="f_f_k" horiz-adv-x="1156" 
d="M24 500h90v74q0 93 43.5 137t114.5 44q60 0 93 -28v-62q-30 46 -96 46q-110 0 -110 -137v-74h255v74q0 93 44 137t115 44q60 0 93 -28v-62q-30 46 -97 46q-109 0 -109 -137v-74h167v-42h-167v-458h-46v458h-255v-458h-45v458h-90v42zM732 750h45v-473h94l176 223h54
l-193 -239l225 -261h-58l-204 237h-94v-237h-45v750z" />
    <glyph glyph-name="perthousand.tab" 
d="M361 700l-305 -700h-42l307 700h40zM17 595q0 47 27.5 77t73.5 30q47 0 74 -29.5t27 -77.5t-27 -77.5t-74 -29.5q-46 0 -73.5 29.5t-27.5 77.5zM51 595q0 -31 18.5 -51.5t48.5 -20.5t48.5 20t18.5 52t-18 52t-49 20q-29 0 -48 -20t-19 -52zM141 102q0 47 27.5 77t73.5 30
q47 0 74 -30t27 -77q0 -48 -27 -77.5t-74 -29.5q-46 0 -73.5 29.5t-27.5 77.5zM175 102q0 -32 18.5 -52.5t48.5 -20.5t48.5 20t18.5 53q0 32 -18 52t-49 20q-29 0 -48 -20.5t-19 -51.5zM368 102q0 47 27 77t74 30t74 -30t27 -77q0 -48 -27.5 -77.5t-73.5 -29.5t-73.5 29.5
t-27.5 77.5zM402 102q0 -32 18.5 -52.5t48.5 -20.5t48.5 20t18.5 53q0 32 -18 52t-49 20q-30 0 -48.5 -20t-18.5 -52z" />
    <glyph glyph-name="f_f_h" horiz-adv-x="1222" 
d="M24 500h90v74q0 93 43.5 137t114.5 44q60 0 93 -28v-62q-30 46 -96 46q-110 0 -110 -137v-74h255v74q0 93 44 137t115 44q60 0 93 -28v-62q-30 46 -97 46q-109 0 -109 -137v-74h167v-42h-167v-458h-46v458h-255v-458h-45v458h-90v42zM1100 0v315q0 81 -37.5 116.5
t-113.5 36.5h-3q-87 0 -131 -46t-44 -129v-293h-45v750h45v-356q16 52 63.5 83.5t125.5 31.5h2q183 -2 183 -180v-329h-45z" />
    <glyph glyph-name="f_h" horiz-adv-x="927" 
d="M805 0v315q0 81 -37.5 116.5t-113.5 36.5h-3q-87 0 -131 -46t-44 -129v-293h-45v750h45v-356q16 52 63.5 83.5t125.5 31.5h2q183 -2 183 -180v-329h-45zM24 500h90v74q0 93 43.5 137t114.5 44q60 0 93 -28v-62q-30 46 -96 46q-110 0 -110 -137v-74h167v-42h-167v-458h-45
v458h-90v42z" />
    <glyph glyph-name="percent.tab" 
d="M533 700l-431 -700h-52l434 700h49zM53 588q0 53 32.5 86t88.5 33q57 0 89.5 -33t32.5 -86t-33 -86t-89 -33q-55 0 -88 33t-33 86zM94 588q0 -35 22 -57.5t58 -22.5t58 22t22 58t-21.5 58.5t-58.5 22.5q-35 0 -57.5 -22.5t-22.5 -58.5zM287 109q0 52 33 85.5t89 33.5
t88.5 -33.5t32.5 -85.5q0 -54 -32.5 -86.5t-88.5 -32.5q-55 0 -88.5 33t-33.5 86zM329 109q0 -35 22 -58t58 -23t58 22.5t22 58.5q0 35 -21.5 57.5t-58.5 22.5q-36 0 -58 -22.5t-22 -57.5z" />
    <glyph glyph-name="f_k" horiz-adv-x="855" 
d="M431 750h45v-473h94l177 223h53l-192 -239l224 -261h-58l-204 237h-94v-237h-45v750zM24 500h90v74q0 93 43.5 137t114.5 44q60 0 93 -28v-62q-30 46 -96 46q-110 0 -110 -137v-74h167v-42h-167v-458h-45v458h-90v42z" />
    <glyph glyph-name="f_j" horiz-adv-x="574" 
d="M24 500h90v74q0 93 43.5 137t114.5 44q60 0 93 -28v-62q-30 46 -96 46q-110 0 -110 -137v-74h167v-42h-167v-458h-45v458h-90v42zM435 -36v536h45v-534q0 -76 -28.5 -114t-94.5 -38q-41 0 -73 19v59q29 -34 75 -34q39 0 57.5 23.5t18.5 82.5zM423 726q0 14 9.5 23t24.5 9
q16 0 25 -9t9 -23t-9 -23t-25 -9q-15 0 -24.5 9t-9.5 23z" />
    </font>
</defs>
</svg>
