<?xml version="1.0" standalone="no"?>
<!DOCTYPE svg PUBLIC "-//W3C//DTD SVG 1.1//EN" "http://www.w3.org/Graphics/SVG/1.1/DTD/svg11.dtd" >
<svg xmlns="http://www.w3.org/2000/svg" xmlns:xlink="http://www.w3.org/1999/xlink" version="1.1">
<metadata>
Created by FontForge 20190801 at Mon May  6 12:33:35 2019
 By www-data
Copyright (c) 2018 ParaType Inc., ParaType Ltd. All rights reserved.
</metadata>
<defs>
<font id="SBSansDisplayRegular" horiz-adv-x="620" >
  <font-face 
    font-family="SBSansDisplayRegular"
    font-weight="400"
    font-stretch="normal"
    units-per-em="1000"
    panose-1="2 11 5 3 4 5 4 2 2 4"
    ascent="801"
    descent="-199"
    x-height="500"
    cap-height="700"
    bbox="-100 -250 1263 925"
    underline-thickness="50"
    underline-position="-109"
    unicode-range="U+0020-FEFF"
  />
<missing-glyph horiz-adv-x="0" 
 />
    <glyph glyph-name="f_f" unicode="ff" horiz-adv-x="703" 
d="M30 500h83v74q0 93 50 137t125 44q56 0 89 -28v-98q-30 47 -94 47q-36 0 -61.5 -23t-25.5 -79v-74h243v74q0 93 50 137t125 44q56 0 89 -28v-98q-30 47 -94 47q-36 0 -61.5 -23t-25.5 -79v-74h160v-74h-160v-426h-83v426h-243v-426h-83v426h-83v74z" />
    <glyph glyph-name="fi" unicode="fi" horiz-adv-x="628" 
d="M30 500h83v74q0 93 50 137t125 44q56 0 89 -28v-98q-30 47 -94 47q-36 0 -61.5 -23t-25.5 -79v-74h160v-74h-160v-426h-83v426h-83v74zM451 0v500h83v-500h-83zM437 711q0 23 15.5 37.5t40.5 14.5t40 -14.5t15 -37.5q0 -24 -15 -38.5t-40 -14.5t-40.5 14.5t-15.5 38.5z
" />
    <glyph glyph-name="fl" unicode="fl" horiz-adv-x="694" 
d="M30 500h83v74q0 93 50 137t125 44q56 0 89 -28v-98q-30 47 -94 47q-36 0 -61.5 -23t-25.5 -79v-74h160v-74h-160v-426h-83v426h-83v74zM679 82v-74q-32 -18 -91 -18q-141 0 -141 130v630h83v-599q0 -48 16.5 -65t59.5 -17q38 0 73 13z" />
    <glyph glyph-name="f_f_i" unicode="ffi" horiz-adv-x="964" 
d="M30 500h83v74q0 93 50 137t125 44q56 0 89 -28v-98q-30 47 -94 47q-36 0 -61.5 -23t-25.5 -79v-74h243v74q0 93 50 137t125 44q56 0 89 -28v-98q-30 47 -94 47q-36 0 -61.5 -23t-25.5 -79v-74h160v-74h-160v-426h-83v426h-243v-426h-83v426h-83v74zM787 0v500h83v-500
h-83zM773 711q0 23 15.5 37.5t40.5 14.5t40 -14.5t15 -37.5q0 -24 -15 -38.5t-40 -14.5t-40.5 14.5t-15.5 38.5z" />
    <glyph glyph-name="f_f_l" unicode="ffl" horiz-adv-x="1020" 
d="M30 500h83v74q0 93 50 137t125 44q56 0 89 -28v-98q-30 47 -94 47q-36 0 -61.5 -23t-25.5 -79v-74h243v74q0 93 50 137t125 44q56 0 89 -28v-98q-30 47 -94 47q-36 0 -61.5 -23t-25.5 -79v-74h160v-74h-160v-426h-83v426h-243v-426h-83v426h-83v74zM1005 82v-74
q-32 -18 -91 -18q-141 0 -141 130v630h83v-599q0 -48 16.5 -65t59.5 -17q38 0 73 13z" />
    <glyph glyph-name=".notdef" horiz-adv-x="0" 
 />
    <glyph glyph-name=".null" horiz-adv-x="0" 
 />
    <glyph glyph-name="nonmarkingreturn" horiz-adv-x="333" 
 />
    <glyph glyph-name="space" unicode=" " horiz-adv-x="260" 
 />
    <glyph glyph-name="exclam" unicode="!" horiz-adv-x="341" 
d="M241 700v-470h-90v470h90zM130 54q0 65 65 65q66 0 66 -65q0 -64 -66 -64q-65 0 -65 64z" />
    <glyph glyph-name="quotedbl" unicode="&#x22;" horiz-adv-x="554" 
d="M330 430v270h84v-270h-84zM130 430v270h84v-270h-84z" />
    <glyph glyph-name="numbersign" unicode="#" horiz-adv-x="719" 
d="M47 263h110l64 182h-136l27 75h136l64 180h83l-64 -180h166l64 180h83l-64 -180h119l-27 -75h-119l-64 -182h145l-27 -75h-145l-66 -188h-83l66 188h-166l-66 -188h-83l66 188h-110zM304 445l-64 -182h166l64 182h-166z" />
    <glyph glyph-name="dollar" unicode="$" 
d="M527 522q-77 103 -208 102q-77 -1 -106 -22t-29 -71q0 -36 19.5 -61t50.5 -38.5t69 -25t76 -26t69 -35.5t50.5 -60t19.5 -94q0 -175 -187 -196v-105h-79v103q-117 6 -181 68v120q77 -103 208 -102q75 2 109.5 27t34.5 79q0 51 -36.5 82t-88 46.5t-103 34t-88 60.5
t-36.5 110q0 85 43 132t138 58v92h79v-90q109 -6 176 -68v-120z" />
    <glyph glyph-name="percent" unicode="%" horiz-adv-x="891" 
d="M70 547q0 77 47 120t131 43q75 0 119 -42t44 -121q0 -78 -47.5 -121.5t-129.5 -43.5q-78 0 -121 43t-43 122zM142 547q0 -43 26.5 -68t74.5 -25q46 0 71.5 23.5t25.5 69.5q0 91 -99 91t-99 -91zM480 155q0 77 47 120t131 43q75 0 119 -42t44 -121q0 -78 -47.5 -121.5
t-129.5 -43.5q-78 0 -121 43t-43 122zM552 155q0 -43 26.5 -68t74.5 -25q46 0 71.5 23.5t25.5 69.5q0 91 -99 91t-99 -91zM744 700l-504 -700h-90l507 700h87z" />
    <glyph glyph-name="ampersand" unicode="&#x26;" horiz-adv-x="856" 
d="M558 180q92 127 92 340h86q0 -106 -28.5 -207t-82.5 -177q70 -40 131 -50v-101q-90 22 -188 85q-96 -88 -230 -88q-126 0 -192 63t-66 166q0 60 25.5 104.5t58.5 67.5t82 44q-32 72 -32 134q0 73 43.5 111.5t119.5 38.5q65 0 105 -35t40 -91q0 -34 -10.5 -61t-24.5 -44.5
t-39.5 -33.5t-45 -24.5t-51.5 -20.5q76 -124 207 -221zM275 370q-51 -24 -79 -57.5t-28 -89.5q0 -67 44.5 -109t134.5 -42q87 0 151 48q-141 110 -223 250zM438 567q0 65 -62 65q-79 0 -79 -77q0 -42 24 -98q58 22 87.5 46t29.5 64z" />
    <glyph glyph-name="quotesingle" unicode="'" horiz-adv-x="344" 
d="M130 430v270h84v-270h-84z" />
    <glyph glyph-name="parenleft" unicode="(" horiz-adv-x="315" 
d="M295 723q-19 -22 -38.5 -52t-48 -85t-46 -134t-17.5 -166t17.5 -166t46 -134.5t48 -85.5t38.5 -52l-43 -33q-21 15 -50.5 53.5t-63 97.5t-56 144.5t-22.5 174.5t22.5 174.5t56 145t63 98t50.5 53.5z" />
    <glyph glyph-name="parenright" unicode=")" horiz-adv-x="315" 
d="M256 285q0 -88 -23 -173.5t-56 -144.5t-62.5 -97.5t-50.5 -53.5l-43 33q19 22 38.5 52t48 85.5t46 134.5t17.5 166t-18 165.5t-46 134t-47.5 85t-38.5 51.5l43 33q21 -15 50.5 -53.5t63 -98t56 -145t22.5 -174.5z" />
    <glyph glyph-name="asterisk" unicode="*" horiz-adv-x="544" 
d="M337 700l-38 -160l141 86l40 -124l-165 -13l126 -108l-105 -77l-64 153l-64 -153l-105 77l126 107l-165 14l40 124l141 -87l-38 161h130z" />
    <glyph glyph-name="plus" unicode="+" 
d="M270 135v170h-170v80h170v170h80v-170h170v-80h-170v-170h-80z" />
    <glyph glyph-name="comma" unicode="," horiz-adv-x="324" 
d="M37 -105q52 6 85 33.5t37 61.5h-2q-65 0 -65 64q0 65 65 65q29 0 45 -13q29 -22 29 -86q0 -74 -46 -124t-99 -60z" />
    <glyph glyph-name="hyphen" unicode="-" horiz-adv-x="427" 
d="M79 253v84h268v-84h-268z" />
    <glyph glyph-name="period" unicode="." horiz-adv-x="311" 
d="M90 54q0 65 65 65q66 0 66 -65q0 -64 -66 -64q-65 0 -65 64z" />
    <glyph glyph-name="slash" unicode="/" horiz-adv-x="291" 
d="M-20 -180l248 930h83l-248 -930h-83z" />
    <glyph glyph-name="zero" unicode="0" 
d="M308 708q122 0 192 -91t70 -268q0 -189 -71 -274t-188 -85q-122 1 -191.5 91.5t-69.5 267.5q0 188 70.5 273t187.5 86zM138 349q0 -273 173 -275q83 0 127 60t44 215q0 271 -173 275q-83 0 -127 -60t-44 -215z" />
    <glyph glyph-name="one" unicode="1" horiz-adv-x="420" 
d="M217 0v599l-157 -99v91l180 116h60v-707h-83z" />
    <glyph glyph-name="two" unicode="2" horiz-adv-x="560" 
d="M43 0v56q225 193 292 272.5t67 162.5q0 62 -37 97.5t-107 35.5q-111 1 -192 -94v103q70 76 207 75q103 -2 160 -55.5t57 -149.5q0 -100 -62 -184.5t-230 -218.5l-25 -20h333v-80h-463z" />
    <glyph glyph-name="three" unicode="3" horiz-adv-x="560" 
d="M66 633q65 71 207 75q98 0 151.5 -44.5t53.5 -125.5q0 -129 -114 -173q73 -11 110.5 -55.5t37.5 -116.5q0 -91 -65.5 -146t-182.5 -55q-134 2 -203 69v120q79 -106 208 -105q72 0 115 32.5t43 90.5q0 55 -41 87t-123 32h-102v75h81q72 0 111.5 30t39.5 90q0 111 -135 111
q-111 1 -192 -94v103z" />
    <glyph glyph-name="four" unicode="4" 
d="M24 250l355 450h107v-427h104v-80h-104v-193h-83v193h-379v57zM136 273h267v332z" />
    <glyph glyph-name="five" unicode="5" horiz-adv-x="560" 
d="M72 181q73 -108 191 -105q77 2 115 41.5t38 107.5q0 69 -44.5 102.5t-122.5 33.5q-91 0 -159 -28l33 367h363v-80h-293l-18 -192q33 11 94 11q112 0 173.5 -56t61.5 -155q0 -112 -65 -174t-179 -62h-2q-120 0 -186 69v120z" />
    <glyph glyph-name="six" unicode="6" 
d="M528 519q-77 107 -199 102q-91 -5 -138 -73t-47 -195q0 -19 2 -53q20 65 76 104.5t131 39.5q98 0 159.5 -60t61.5 -150q0 -116 -71.5 -179t-172.5 -63q-125 0 -197 88.5t-72 248.5q0 373 273 379q124 1 194 -69v-120zM340 363q-73 0 -123.5 -40t-57.5 -98
q42 -145 177 -145q65 0 108.5 39t43.5 104q0 68 -40 104t-108 36z" />
    <glyph glyph-name="seven" unicode="7" horiz-adv-x="530" 
d="M33 610v90h460v-58l-259 -642h-94l252 610h-359z" />
    <glyph glyph-name="eight" unicode="8" 
d="M311 -8q-119 0 -185.5 55.5t-66.5 152.5q0 136 139 174q-118 26 -118 150q0 89 56.5 138t173.5 49q222 0 222 -176q0 -123 -116 -160q69 -15 107 -58t38 -111q0 -97 -63.5 -155.5t-186.5 -58.5zM312 78q163 0 163 133q0 123 -164 123q-81 0 -122.5 -32t-41.5 -89
q0 -68 45 -101.5t120 -33.5zM309 401q69 0 104.5 30.5t35.5 83.5q0 58 -32.5 84t-107.5 26q-146 0 -146 -112q0 -49 37.5 -80.5t108.5 -31.5z" />
    <glyph glyph-name="nine" unicode="9" 
d="M92 181q77 -107 199 -102q91 5 138 73t47 195q0 26 -3 53q-20 -65 -76 -104.5t-130 -39.5q-98 0 -159.5 60t-61.5 150q0 116 71.5 179t172.5 63q125 0 197 -88.5t72 -248.5q0 -373 -273 -379q-124 -1 -194 69v120zM280 337q73 0 123 39.5t57 97.5q-40 146 -176 146
q-65 0 -108.5 -39t-43.5 -104q0 -68 40 -104t108 -36z" />
    <glyph glyph-name="colon" unicode=":" horiz-adv-x="311" 
d="M90 54q0 65 65 65q66 0 66 -65q0 -64 -66 -64q-65 0 -65 64zM90 435q0 65 65 65q66 0 66 -65q0 -64 -66 -64q-65 0 -65 64z" />
    <glyph glyph-name="semicolon" unicode=";" horiz-adv-x="324" 
d="M37 -105q52 6 85 33.5t37 61.5h-2q-65 0 -65 64q0 65 65 65q29 0 45 -13q29 -22 29 -86q0 -74 -46 -124t-99 -60zM88 435q0 65 65 65q66 0 66 -65q0 -64 -66 -64q-65 0 -65 64z" />
    <glyph glyph-name="less" unicode="&#x3c;" 
d="M83 347l422 263v-94l-276 -169l276 -169v-94z" />
    <glyph glyph-name="equal" unicode="=" 
d="M100 285h420v-80h-420v80zM100 495h420v-80h-420v80z" />
    <glyph glyph-name="greater" unicode="&#x3e;" 
d="M537 347l-422 -263v94l276 169l-276 169v94z" />
    <glyph glyph-name="question" unicode="?" horiz-adv-x="529" 
d="M60 633q72 78 207 74q202 -8 202 -187q0 -44 -15.5 -79.5t-39 -56t-50.5 -39.5t-50.5 -33.5t-39 -35.5t-15.5 -46h-80q0 39 15.5 69.5t38 47.5t49.5 35t49.5 33.5t38 42.5t15.5 62q0 53 -35.5 80t-97.5 27q-110 0 -192 -97v103zM155 54q0 65 65 65q66 0 66 -65
q0 -64 -66 -64q-65 0 -65 64z" />
    <glyph glyph-name="at" unicode="@" horiz-adv-x="960" 
d="M601 426v75h67v-313q1 -30 12 -44.5t41 -14.5q41 0 69.5 35t29.5 119q0 158 -92.5 251.5t-247.5 93.5q-154 0 -246.5 -92.5t-93.5 -248.5q0 -156 90.5 -249.5t241.5 -95.5q60 -1 112.5 25t85.5 69v-118q-81 -49 -198 -48q-187 3 -299.5 118.5t-112.5 297.5q2 184 116 299
t304 115t304.5 -116t115.5 -300q0 -104 -50 -162.5t-131 -58.5q-112 0 -116 98l-3 -8q-17 -41 -56.5 -66t-100.5 -25q-88 0 -137 52t-49 160q0 122 49.5 176.5t144.5 54.5q53 0 92 -23.5t57 -58.5zM461 126q65 0 99.5 35t36.5 99v47q-2 63 -39 99t-96 36q-70 0 -101.5 -38
t-31.5 -126q0 -152 132 -152z" />
    <glyph glyph-name="A" unicode="A" horiz-adv-x="699" 
d="M294 700h107l292 -700h-98l-78 187h-343l-75 -187h-94zM344 607l-137 -340h277z" />
    <glyph glyph-name="B" unicode="B" horiz-adv-x="699" 
d="M359 0h-259v700h290q223 0 223 -170q0 -129 -112 -165q133 -17 133 -161q0 -204 -275 -204zM190 80h182q171 0 171 123q0 64 -44 90t-124 26h-185v-239zM190 391h177q67 0 111.5 32.5t44.5 89.5q0 107 -153 107h-180v-229z" />
    <glyph glyph-name="C" unicode="C" horiz-adv-x="707" 
d="M667 211v-130q-30 -36 -98.5 -63.5t-154.5 -27.5q-168 1 -266 98t-98 263q0 158 99 258.5t267 100.5q79 0 141 -22t91 -49v-141q-32 54 -95 93t-137 39q-125 0 -198.5 -76.5t-73.5 -203.5q0 -121 69.5 -199t196.5 -81q91 0 158 40.5t99 100.5z" />
    <glyph glyph-name="D" unicode="D" horiz-adv-x="753" 
d="M100 700h243q176 0 268.5 -87t92.5 -249q0 -188 -101.5 -276t-273.5 -88h-229v700zM190 80h134q286 0 286 272q0 268 -282 268h-138v-540z" />
    <glyph glyph-name="E" unicode="E" horiz-adv-x="646" 
d="M538 400v-80h-348v-240h396v-80h-486v700h475v-80h-385v-220h348z" />
    <glyph glyph-name="F" unicode="F" 
d="M558 370v-80h-368v-290h-90v700h474v-80h-384v-250h368z" />
    <glyph glyph-name="G" unicode="G" horiz-adv-x="754" 
d="M416 -10q-170 1 -268 97.5t-98 263.5q0 158 98.5 258t265.5 101q79 0 141 -22t91 -49v-141q-32 54 -95 93t-137 39q-124 -1 -197 -77.5t-73 -202.5q0 -123 71.5 -201t200.5 -79q122 0 180 50v170h-156v80h239v-281q-24 -37 -103 -68t-160 -31z" />
    <glyph glyph-name="H" unicode="H" horiz-adv-x="806" 
d="M616 0v320h-426v-320h-90v700h90v-300h426v300h90v-700h-90z" />
    <glyph glyph-name="I" unicode="I" horiz-adv-x="290" 
d="M190 700v-700h-90v700h90z" />
    <glyph glyph-name="J" unicode="J" horiz-adv-x="446" 
d="M346 700v-514q0 -95 -53 -143t-138 -48q-41 0 -79 11t-56 27v107q21 -29 53.5 -47t68.5 -18q56 0 85 27.5t29 90.5v507h90z" />
    <glyph glyph-name="K" unicode="K" horiz-adv-x="738" 
d="M190 320v-320h-90v700h90v-310h113l272 310h114l-300 -338l339 -362h-118l-302 320h-118z" />
    <glyph glyph-name="L" unicode="L" horiz-adv-x="616" 
d="M190 700v-620h406v-80h-496v700h90z" />
    <glyph glyph-name="M" unicode="M" horiz-adv-x="941" 
d="M751 0v565l-259 -415h-37l-265 410v-560h-90v700h110l267 -425l265 425h99v-700h-90z" />
    <glyph glyph-name="N" unicode="N" horiz-adv-x="825" 
d="M631 0l-441 555v-555h-90v700h93l442 -556v556h90v-700h-94z" />
    <glyph glyph-name="O" unicode="O" horiz-adv-x="831" 
d="M50 351q0 158 99 258.5t267 100.5q169 -1 267.5 -98t98.5 -263q0 -158 -99 -258.5t-267 -100.5q-170 1 -268 97.5t-98 263.5zM144 350q0 -123 72 -201t201 -79q124 0 197.5 76.5t73.5 203.5q0 123 -72 201t-201 79q-125 -1 -198 -77.5t-73 -202.5z" />
    <glyph glyph-name="P" unicode="P" horiz-adv-x="673" 
d="M327 240h-137v-240h-90v700h227q149 0 222.5 -55t73.5 -172q0 -115 -76 -174t-220 -59zM321 620h-131v-300h134q103 0 154 37t51 122q0 77 -49 109t-159 32z" />
    <glyph glyph-name="Q" unicode="Q" horiz-adv-x="831" 
d="M691 -180h-110l-143 171q-7 -1 -22 -1q-170 1 -268 97.5t-98 263.5q0 158 99 258.5t267 100.5q169 -1 267.5 -98t98.5 -263q0 -127 -65.5 -219t-181.5 -125zM415 630q-125 -1 -198 -77.5t-73 -202.5q0 -123 71.5 -201t200.5 -79q125 0 198.5 76.5t73.5 203.5
q0 123 -72 201t-201 79z" />
    <glyph glyph-name="R" unicode="R" horiz-adv-x="711" 
d="M569 0l-189 242q-36 -2 -56 -2h-134v-240h-90v700h224q149 0 222.5 -55t73.5 -172q0 -160 -146 -211l207 -262h-112zM318 620h-128v-300h131q103 0 154 37t51 122q0 77 -49 109t-159 32z" />
    <glyph glyph-name="S" unicode="S" horiz-adv-x="636" 
d="M544 499q-32 54 -94.5 93t-134.5 39q-75 -1 -114 -28t-39 -72q0 -35 23 -59.5t59.5 -38.5t80.5 -26t88 -27t80.5 -36.5t59.5 -60.5t23 -92q0 -91 -67 -146t-184 -55q-88 0 -159 27.5t-102 63.5v130q33 -60 103 -100.5t163 -40.5q71 0 111 30t40 85q0 46 -42.5 74
t-103 44.5t-121 37.5t-103 66.5t-42.5 116.5q0 88 68.5 137.5t177.5 49.5q77 -1 138.5 -22.5t90.5 -48.5v-141z" />
    <glyph glyph-name="T" unicode="T" horiz-adv-x="612" 
d="M602 700v-80h-251v-620h-90v620h-252v80h593z" />
    <glyph glyph-name="U" unicode="U" horiz-adv-x="786" 
d="M185 700v-405q0 -63 18 -109t50 -70t69.5 -35t82.5 -11q89 0 142.5 47t53.5 166v417h90v-413q0 -154 -81 -225.5t-215 -71.5q-142 0 -221 75t-79 214v421h90z" />
    <glyph glyph-name="V" unicode="V" horiz-adv-x="682" 
d="M388 0h-91l-292 700h98l243 -588l237 588h94z" />
    <glyph glyph-name="W" unicode="W" horiz-adv-x="934" 
d="M187 0l-172 700h94l141 -558l180 558h87l179 -556l135 556h88l-168 -700h-91l-189 571l-192 -571h-92z" />
    <glyph glyph-name="X" unicode="X" horiz-adv-x="676" 
d="M10 0l263 356l-250 344h106l207 -284l219 284h102l-264 -337l273 -363h-106l-228 301l-220 -301h-102z" />
    <glyph glyph-name="Y" unicode="Y" horiz-adv-x="632" 
d="M627 700l-265 -433v-267h-90v267l-267 433h102l214 -350l207 350h99z" />
    <glyph glyph-name="Z" unicode="Z" horiz-adv-x="612" 
d="M40 620v80h537v-60l-429 -560h424v-80h-542v60l432 560h-422z" />
    <glyph glyph-name="bracketleft" unicode="[" horiz-adv-x="366" 
d="M80 -180v930h246v-80h-166v-770h166v-80h-246z" />
    <glyph glyph-name="backslash" unicode="\" horiz-adv-x="291" 
d="M63 750l248 -930h-83l-248 930h83z" />
    <glyph glyph-name="bracketright" unicode="]" horiz-adv-x="366" 
d="M286 750v-930h-246v80h166v770h-166v80h246z" />
    <glyph glyph-name="asciicircum" unicode="^" 
d="M150 351h-92l182 349l70 -1l70 1l182 -349h-92l-160 313z" />
    <glyph glyph-name="underscore" unicode="_" horiz-adv-x="260" 
d="M0 -180v80h260v-80h-260z" />
    <glyph glyph-name="grave" unicode="`" horiz-adv-x="264" 
d="M198 590l-158 160h144l80 -160h-66z" />
    <glyph glyph-name="a" unicode="a" horiz-adv-x="535" 
d="M88 344v118q63 48 170 48q102 0 153.5 -41t51.5 -139v-330h-79v85q-20 -42 -65.5 -67.5t-103.5 -25.5q-76 0 -120.5 40t-44.5 115q0 79 52.5 110.5t158.5 31.5h119v40q0 60 -31.5 84.5t-90.5 24.5q-113 0 -170 -94zM236 69q68 0 103.5 32.5t40.5 67.5v54h-116
q-70 0 -99.5 -15t-29.5 -56q0 -38 26 -60.5t75 -22.5z" />
    <glyph glyph-name="b" unicode="b" horiz-adv-x="602" 
d="M80 750h82v-335q48 95 180 95q104 0 161 -61t57 -188q0 -143 -58 -207.5t-170 -64.5q-62 0 -108 27t-67 68v-84h-77v750zM319 64q83 0 120 44.5t37 147.5q0 96 -40.5 137.5t-115.5 41.5q-73 0 -113 -37t-45 -106v-86q6 -67 48.5 -104.5t108.5 -37.5z" />
    <glyph glyph-name="c" unicode="c" horiz-adv-x="499" 
d="M454 51q-19 -26 -61 -43.5t-102 -17.5q-120 0 -184.5 66t-64.5 196q0 125 68.5 191.5t178.5 66.5q97 0 160 -48v-118q-26 43 -68 68.5t-92 25.5q-79 0 -121 -47t-42 -139v-3q0 -187 165 -187q59 0 101 24t62 62v-97z" />
    <glyph glyph-name="d" unicode="d" horiz-adv-x="603" 
d="M441 750h82v-750h-77v97l-1 -2q-20 -47 -67 -76.5t-118 -29.5q-104 0 -161 61t-57 188q0 143 58 207.5t170 64.5q59 0 103.5 -25t67.5 -64v329zM441 222v48q0 77 -43 121t-115 44q-83 0 -120 -44.5t-37 -147.5q0 -96 40.5 -137.5t115.5 -41.5q76 0 116.5 41t42.5 117z
" />
    <glyph glyph-name="e" unicode="e" horiz-adv-x="552" 
d="M289 510q104 0 162.5 -62.5t58.5 -173.5v-54h-383q12 -158 164 -158q68 0 115 24t69 62v-97q-21 -26 -68 -43.5t-116 -17.5q-120 0 -184.5 66t-64.5 196q0 125 68.5 191.5t178.5 66.5zM289 438q-144 0 -161 -147h299v1q0 70 -38.5 108t-99.5 38z" />
    <glyph glyph-name="f" unicode="f" horiz-adv-x="377" 
d="M30 500h83v74q0 93 50 137t125 44q56 0 89 -28v-98q-30 47 -94 47q-36 0 -61.5 -23t-25.5 -79v-74h160v-74h-160v-426h-83v426h-83v74z" />
    <glyph glyph-name="g" unicode="g" horiz-adv-x="603" 
d="M441 39v47q-49 -97 -181 -97q-104 0 -161 61t-57 188q0 143 58 207.5t170 64.5q62 0 108 -27.5t67 -68.5v86h78v-456q0 -122 -60.5 -176.5t-183.5 -54.5q-62 0 -115 18.5t-74 39.5v107q23 -35 71 -62.5t119 -27.5q82 0 121.5 34.5t39.5 116.5zM283 435q-83 0 -120 -44.5
t-37 -147.5q0 -96 40.5 -137.5t115.5 -41.5q79 0 119 43t40 123v47q-2 74 -45.5 116t-112.5 42z" />
    <glyph glyph-name="h" unicode="h" horiz-adv-x="588" 
d="M433 0v309q0 66 -26.5 95.5t-89.5 30.5h-3q-151 0 -151 -166v-269h-83v750h83v-356q11 51 58.5 83t118.5 32q176 0 176 -180v-329h-83z" />
    <glyph glyph-name="i" unicode="i" horiz-adv-x="271" 
d="M80 711q0 23 15.5 37.5t40.5 14.5t40 -14.5t15 -37.5q0 -24 -15 -38.5t-40 -14.5t-40.5 14.5t-15.5 38.5zM94 0v500h83v-500h-83z" />
    <glyph glyph-name="j" unicode="j" horiz-adv-x="268" 
d="M91 -14v514h83v-518q0 -168 -155 -168q-47 0 -79 19v95q30 -35 81 -35q36 0 53 21.5t17 71.5zM77 711q0 23 15.5 37.5t40.5 14.5t40 -14.5t15 -37.5q0 -24 -15 -38.5t-40 -14.5t-40.5 14.5t-15.5 38.5z" />
    <glyph glyph-name="k" unicode="k" horiz-adv-x="535" 
d="M80 750h83v-459h67l157 209h95l-183 -236l216 -264h-105l-180 220h-67v-220h-83v750z" />
    <glyph glyph-name="l" unicode="l" horiz-adv-x="327" 
d="M312 82v-74q-32 -18 -91 -18q-141 0 -141 130v630h83v-599q0 -48 16.5 -65t59.5 -17q38 0 73 13z" />
    <glyph glyph-name="m" unicode="m" horiz-adv-x="882" 
d="M406 0v309q0 67 -26.5 96.5t-86.5 29.5q-130 -1 -130 -166v-269h-83v500h79v-106q12 51 54 83t103 32q138 0 166 -115q14 50 55.5 82t100.5 33q87 0 129.5 -44t42.5 -136v-329h-83v309q0 67 -25 96t-85 30q-128 0 -128 -166v-269h-83z" />
    <glyph glyph-name="n" unicode="n" horiz-adv-x="588" 
d="M433 0v309q0 66 -26.5 95.5t-89.5 30.5h-3q-151 0 -151 -166v-269h-83v500h79v-106q14 51 62.5 83t118.5 32h2q174 -2 174 -180v-329h-83z" />
    <glyph glyph-name="o" unicode="o" horiz-adv-x="579" 
d="M42 252q0 125 68.5 191.5t178.5 66.5q119 -1 183.5 -67t64.5 -195q0 -125 -68.5 -191.5t-178.5 -66.5q-120 1 -184 66.5t-64 195.5zM126 252v-3q0 -187 164 -187q79 0 121 47t42 139v3q0 185 -164 187q-79 0 -121 -47t-42 -139z" />
    <glyph glyph-name="p" unicode="p" horiz-adv-x="602" 
d="M80 -180v680h79v-96q20 47 67 76.5t118 29.5q104 0 161 -61t57 -188q0 -143 -58 -207.5t-170 -64.5q-59 0 -103.5 25t-67.5 63v-257h-83zM163 277v-48q0 -77 43 -121t115 -44q83 0 120 44.5t37 147.5q0 96 -40.5 137.5t-115.5 41.5q-77 0 -117 -41t-42 -117z" />
    <glyph glyph-name="q" unicode="q" horiz-adv-x="603" 
d="M440 -180v266q-48 -97 -181 -97q-104 0 -161 61t-57 188q0 143 58 207.5t170 64.5q62 0 108 -27.5t67 -68.5v86h79v-680h-83zM282 435q-83 0 -120 -44.5t-37 -147.5q0 -96 40.5 -137.5t115.5 -41.5q76 0 116.5 41t42.5 117v55q-2 74 -45.5 116t-112.5 42z" />
    <glyph glyph-name="r" unicode="r" horiz-adv-x="380" 
d="M273 435q-115 0 -110 -166v-269h-83v500h79v-106q8 51 44.5 83t89.5 32q40 -2 57 -17v-86q-26 28 -75 29h-2z" />
    <glyph glyph-name="s" unicode="s" horiz-adv-x="472" 
d="M405 344q-26 43 -68 68.5t-92 25.5h-2q-44 0 -72.5 -17t-28.5 -49q0 -29 29 -47.5t70 -30.5t82 -27.5t70 -47.5t29 -80q0 -69 -49 -108.5t-140 -40.5q-62 0 -109 17.5t-69 43.5v97q23 -38 70 -62t108 -24q51 0 78.5 19.5t27.5 54.5q0 27 -29 45.5t-70 31t-82 28t-70 48
t-29 80.5q0 63 47 102t139 39q97 0 160 -48v-118z" />
    <glyph glyph-name="t" unicode="t" horiz-adv-x="432" 
d="M20 500h103v109l83 31v-140h181v-74h-181v-259q0 -58 18.5 -80t69.5 -22q61 0 113 32v-73q-17 -14 -51 -24t-66 -10q-86 0 -126.5 36.5t-40.5 119.5v280h-103v74z" />
    <glyph glyph-name="u" unicode="u" horiz-adv-x="582" 
d="M274 65q145 1 145 166v269h83v-500h-79v106q-14 -51 -60.5 -82.5t-114.5 -32.5h-2h-2q-172 3 -172 180v329h83v-309q0 -67 27.5 -96.5t91.5 -29.5z" />
    <glyph glyph-name="v" unicode="v" horiz-adv-x="501" 
d="M212 0l-202 500h93l151 -389l149 389h88l-203 -500h-76z" />
    <glyph glyph-name="w" unicode="w" horiz-adv-x="792" 
d="M159 0l-129 500h87l97 -387l142 387h86l145 -382l94 382h81l-131 -500h-88l-144 403l-152 -403h-88z" />
    <glyph glyph-name="x" unicode="x" horiz-adv-x="497" 
d="M10 0l186 256l-174 244h102l127 -179l127 179h97l-176 -237l188 -263h-102l-139 199l-139 -199h-97z" />
    <glyph glyph-name="y" unicode="y" horiz-adv-x="502" 
d="M230 -2l-215 502h96l162 -390l135 390h89l-205 -553q-28 -75 -61.5 -104.5t-80.5 -29.5q-55 0 -80 22v86q29 -29 70 -29q28 0 50 21.5t40 84.5z" />
    <glyph glyph-name="z" unicode="z" horiz-adv-x="490" 
d="M455 0h-420v61l307 365h-291v74h402v-61l-311 -365h313v-74z" />
    <glyph glyph-name="braceleft" unicode="{" horiz-adv-x="436" 
d="M40 247v76q41 0 75.5 31.5t34.5 82.5v153q0 84 38 122t122 38h86v-80h-82q-44 0 -64 -20t-20 -64v-150q0 -64 -29 -100.5t-93 -50.5q65 -15 93.5 -51t28.5 -100v-150q0 -44 20 -64t64 -20h82v-80h-86q-84 0 -122 38t-38 122v153q0 51 -34.5 82.5t-75.5 31.5z" />
    <glyph glyph-name="bar" unicode="|" horiz-adv-x="280" 
d="M100 -180v930h80v-930h-80z" />
    <glyph glyph-name="braceright" unicode="}" horiz-adv-x="436" 
d="M396 323v-76q-41 0 -75.5 -31.5t-34.5 -82.5v-153q0 -84 -38 -122t-122 -38h-86v80h82q44 0 64 20t20 64v150q0 64 28.5 100t93.5 51q-64 14 -93 50.5t-29 100.5v150q0 44 -20 64t-64 20h-82v80h86q84 0 122 -38t38 -122v-153q0 -51 34.5 -82.5t75.5 -31.5z" />
    <glyph glyph-name="asciitilde" unicode="~" 
d="M100 288v83q44 40 111 40q46 0 117.5 -43t107.5 -43q22 0 45.5 12t38.5 35v-89q-40 -38 -98 -38q-38 0 -79.5 21.5t-77 43t-59.5 21.5q-55 0 -106 -43z" />
    <glyph glyph-name="uni00A0" unicode="&#xa0;" horiz-adv-x="260" 
 />
    <glyph glyph-name="exclamdown" unicode="&#xa1;" horiz-adv-x="341" 
d="M150 -200v470h90v-470h-90zM261 446q0 -65 -65 -65q-66 0 -66 65q0 64 66 64q65 0 65 -64z" />
    <glyph glyph-name="cent" unicode="&#xa2;" horiz-adv-x="519" 
d="M464 51q-37 -51 -133 -59v-102h-79v103q-200 27 -200 259q0 111 54.5 176t145.5 78v104h79v-102q78 -9 128 -46v-118q-26 43 -68 68.5t-92 25.5q-79 0 -121 -47t-42 -139v-3q0 -187 165 -187q59 0 101 24t62 62v-97z" />
    <glyph glyph-name="sterling" unicode="&#xa3;" 
d="M80 385h71v89q0 111 58.5 173.5t161.5 62.5q97 0 160 -48v-118q-26 43 -68 68.5t-92 25.5q-61 0 -99 -38t-38 -108v-107h266v-80h-266v-225h306v-80h-461v80h72v225h-71v80z" />
    <glyph glyph-name="currency" unicode="&#xa4;" 
d="M139 367q0 53 23 91l-88 89l56 56l92 -92q41 19 95 19q46 0 83 -17l89 89l56 -56l-87 -87q22 -39 22 -92q0 -54 -23 -91l89 -89l-56 -56l-92 91q-40 -20 -95 -20q-48 0 -84 17l-89 -89l-56 56l87 87q-22 37 -22 94zM211 367q0 -43 26.5 -68t74.5 -25q46 0 71.5 23.5
t25.5 69.5q0 91 -99 91t-99 -91z" />
    <glyph glyph-name="yen" unicode="&#xa5;" 
d="M100 345h121l-209 355h98l205 -350l199 350h95l-209 -355h120v-80h-164v-81h164v-80h-164v-104h-90v104h-166v80h166v81h-166v80z" />
    <glyph glyph-name="brokenbar" unicode="&#xa6;" horiz-adv-x="283" 
d="M100 -180v380h83v-380h-83zM100 370v380h83v-380h-83z" />
    <glyph glyph-name="section" unicode="&#xa7;" horiz-adv-x="543" 
d="M432 543q-26 43 -68 68.5t-92 25.5q-44 -1 -71.5 -17.5t-27.5 -48.5q0 -29 29 -47.5t70 -30.5t82 -27.5t70 -47.5t29 -80q0 -84 -69 -122q69 -41 69 -113q0 -63 -46.5 -101.5t-138.5 -39.5q-97 0 -160 48v118q26 -43 68 -68.5t92 -25.5q45 0 73.5 17t28.5 49
q0 29 -29 47.5t-70 30.5t-82 27.5t-70 47.5t-29 80q0 83 68 122q-68 40 -68 113q0 62 46 101t136 40q97 0 160 -48v-118zM173 350q0 -12 3.5 -22.5t13.5 -19.5t16.5 -15t24.5 -13.5t25 -10.5t30.5 -11.5t29.5 -10.5q54 28 54 77q0 12 -3.5 21.5t-13 18.5t-16.5 14.5
t-24.5 13t-25.5 11t-30.5 11t-29.5 10.5q-54 -24 -54 -74z" />
    <glyph glyph-name="dieresis" unicode="&#xa8;" horiz-adv-x="399" 
d="M248 653q0 23 15.5 37.5t40.5 14.5t40 -14.5t15 -37.5q0 -24 -15 -38.5t-40 -14.5t-40.5 14.5t-15.5 38.5zM40 653q0 23 15.5 37.5t40.5 14.5t40 -14.5t15 -37.5q0 -24 -15 -38.5t-40 -14.5t-40.5 14.5t-15.5 38.5z" />
    <glyph glyph-name="copyright" unicode="&#xa9;" horiz-adv-x="959" 
d="M60 287q2 183 116 298t304 115q190 -1 304.5 -117t114.5 -300q-2 -184 -116 -298.5t-304 -114.5t-304.5 115.5t-114.5 300.5v1zM479 628q-154 -1 -246 -93t-93 -248q0 -158 92.5 -251.5t247.5 -93.5q154 1 246 93t93 248q0 158 -92.5 251.5t-247.5 93.5zM635 115
q-42 -52 -148 -52q-109 0 -167.5 57t-58.5 168q0 108 62 165t162 57q88 0 145 -41v-102q-23 37 -61.5 59t-83.5 22q-72 0 -109.5 -40.5t-37.5 -119.5v-2q0 -161 149 -161q106 0 148 74v-84z" />
    <glyph glyph-name="ordfeminine" unicode="&#xaa;" horiz-adv-x="438" 
d="M87 632q59 32 133 32q75 0 111.5 -22.5t36.5 -84.5v-207h-62v53q-31 -58 -117 -58q-54 0 -86.5 25.5t-32.5 72.5q0 49 38 69t114 20h81v15q0 53 -93 53q-33 0 -67 -17t-56 -42v91zM204 409q49 0 72 19.5t27 42.5v19h-79q-80 0 -80 -44q0 -17 17 -27t43 -10z" />
    <glyph glyph-name="guillemotleft" unicode="&#xab;" horiz-adv-x="465" 
d="M415 119v-99l-195 230l195 230v-100l-108 -130zM235 119v-99l-195 230l195 230v-100l-108 -130z" />
    <glyph glyph-name="logicalnot" unicode="&#xac;" 
d="M437 173v132h-337v80h420v-212h-83z" />
    <glyph glyph-name="uni00AD" unicode="&#xad;" horiz-adv-x="427" 
d="M79 253v84h268v-84h-268z" />
    <glyph glyph-name="registered" unicode="&#xae;" horiz-adv-x="623" 
d="M563 459q-1 -110 -69.5 -179.5t-182.5 -69.5t-182.5 69.5t-68.5 181.5q1 109 69.5 178t182.5 69q114 -1 182 -70t69 -179zM108 460q0 -94 55.5 -150t147.5 -56q93 0 148 55.5t56 149.5q-1 94 -56.5 150t-147.5 56q-92 -1 -147 -56t-56 -149zM207 328v265h95
q69 0 98 -21.5t29 -72.5q-1 -57 -61 -71l83 -100h-55l-78 95h-63v-95h-48zM302 554h-47v-96h64q62 0 62 42q-1 31 -19 42.5t-60 11.5z" />
    <glyph glyph-name="macron" unicode="&#xaf;" horiz-adv-x="380" 
d="M40 628v72h300v-72h-300z" />
    <glyph glyph-name="degree" unicode="&#xb0;" horiz-adv-x="481" 
d="M70 547q0 77 47 120t131 43q75 0 119 -42t44 -121q0 -78 -47.5 -121.5t-129.5 -43.5q-78 0 -121 43t-43 122zM142 547q0 -43 26.5 -68t74.5 -25q46 0 71.5 23.5t25.5 69.5q0 91 -99 91t-99 -91z" />
    <glyph glyph-name="plusminus" unicode="&#xb1;" 
d="M266 262v93h-166v80h166v163h80v-163h174v-80h-174v-93h-80zM100 210h420v-80h-420v80z" />
    <glyph glyph-name="acute" unicode="&#xb4;" horiz-adv-x="304" 
d="M106 590h-66l80 160h144z" />
    <glyph glyph-name="mu" unicode="&#xb5;" 
d="M178 500v-309q0 -66 26.5 -95.5t89.5 -30.5q148 0 148 166v269h83v-500h-79v106q-14 -51 -61 -83t-116 -32h-2q-55 2 -89 17v-188h-83v680h83z" />
    <glyph glyph-name="mu" unicode="&#x3bc;" 
d="M178 500v-309q0 -66 26.5 -95.5t89.5 -30.5q148 0 148 166v269h83v-500h-79v106q-14 -51 -61 -83t-116 -32h-2q-55 2 -89 17v-188h-83v680h83z" />
    <glyph glyph-name="paragraph" unicode="&#xb6;" horiz-adv-x="688" 
d="M508 -180v856h-138v-856h-80v430h-8q-116 0 -178 59t-62 191q0 126 63 188t174 62h309v-930h-80zM125 508q0 -103 39 -143.5t119 -40.5h7v352h-4q-81 0 -121 -39.5t-40 -128.5z" />
    <glyph glyph-name="periodcentered" unicode="&#xb7;" horiz-adv-x="260" 
d="M65 354q0 65 65 65q66 0 66 -65q0 -64 -66 -64q-65 0 -65 64z" />
    <glyph glyph-name="cedilla" unicode="&#xb8;" horiz-adv-x="279" 
d="M167 0l-34 -54q55 -11 80.5 -30t25.5 -51q0 -37 -33 -64.5t-76.5 -39t-89.5 -11.5v42q41 0 74.5 17t33.5 48q0 25 -22 35.5t-68 15.5l49 92h60z" />
    <glyph glyph-name="ordmasculine" unicode="&#xba;" horiz-adv-x="461" 
d="M60 507q0 77 47 120t131 43q75 0 119 -42t44 -121q0 -78 -47.5 -121.5t-129.5 -43.5q-78 0 -121 43t-43 122zM132 507q0 -43 26.5 -68t74.5 -25q46 0 71.5 23.5t25.5 69.5q0 91 -99 91t-99 -91z" />
    <glyph glyph-name="guillemotright" unicode="&#xbb;" horiz-adv-x="465" 
d="M50 381v99l195 -230l-195 -230v100l108 130zM230 381v99l195 -230l-195 -230v100l108 130z" />
    <glyph glyph-name="onequarter" unicode="&#xbc;" horiz-adv-x="768" 
d="M654 700l-504 -700h-90l507 700h87zM370 147l200 203h70v-203h68v-60h-68v-87h-70v87h-200v60zM60 580v66l116 58h45v-354h-70v273zM455 147h115v115z" />
    <glyph glyph-name="onehalf" unicode="&#xbd;" horiz-adv-x="804" 
d="M654 700l-504 -700h-90l507 700h87zM744 60v-60h-263l-31 -1v49q122 66 165 103t43 75q0 27 -20 45t-59 18q-33 1 -67 -16t-56 -42v91q61 33 133 32q65 -1 102 -32t37 -84q0 -45 -27 -85.5t-114 -92.5h157zM60 580v66l116 58h45v-354h-70v273z" />
    <glyph glyph-name="threequarters" unicode="&#xbe;" horiz-adv-x="828" 
d="M714 700l-504 -700h-90l507 700h87zM430 147l200 203h70v-203h68v-60h-68v-87h-70v87h-200v60zM63 581v91q59 32 133 32q62 0 96.5 -25.5t34.5 -66.5q0 -59 -63 -79q85 -13 85 -80q0 -50 -42 -78.5t-117 -28.5q-88 3 -130 35v90q17 -26 52.5 -43t80.5 -16q87 0 87 48
q0 39 -91 39h-65v58h52q83 0 83 40q0 41 -73 41q-33 1 -67 -15.5t-56 -41.5zM515 147h115v115z" />
    <glyph glyph-name="questiondown" unicode="&#xbf;" horiz-adv-x="529" 
d="M469 -133q-72 -78 -207 -74q-202 8 -202 187q0 44 15.5 79.5t39 56t50.5 39.5t50.5 33.5t39 35.5t15.5 46h80q0 -39 -15.5 -69.5t-38 -47.5t-49.5 -35t-49.5 -33.5t-38 -42.5t-15.5 -62q0 -53 35.5 -80t97.5 -27q110 0 192 97v-103zM374 446q0 -65 -65 -65q-66 0 -66 65
q0 64 66 64q65 0 65 -64z" />
    <glyph glyph-name="Agrave" unicode="&#xc0;" horiz-adv-x="699" 
d="M401 700h-107l-289 -700h94l75 187h343l78 -187h98zM207 267l137 340l140 -340h-277zM400 740l-188 120h154l120 -120h-86z" />
    <glyph glyph-name="Aacute" unicode="&#xc1;" horiz-adv-x="699" 
d="M401 700h-107l-289 -700h94l75 187h343l78 -187h98zM207 267l137 340l140 -340h-277zM298 740h-86l120 120h154z" />
    <glyph glyph-name="Acircumflex" unicode="&#xc2;" horiz-adv-x="699" 
d="M401 700h-107l-289 -700h94l75 187h343l78 -187h98zM207 267l137 340l140 -340h-277zM397 860l137 -120h-65l-121 52l-119 -52h-65l137 120h96z" />
    <glyph glyph-name="Atilde" unicode="&#xc3;" horiz-adv-x="699" 
d="M401 700h-107l-289 -700h94l75 187h343l78 -187h98zM207 267l137 340l140 -340h-277zM535 860q-18 -70 -47.5 -95t-75.5 -25q-31 0 -80.5 18.5t-67.5 18.5q-35 0 -51 -37h-50q33 119 121 119q25 0 72.5 -18.5t64.5 -18.5q48 0 64 38h50z" />
    <glyph glyph-name="Adieresis" unicode="&#xc4;" horiz-adv-x="699" 
d="M401 700h-107l-289 -700h94l75 187h343l78 -187h98zM207 267l137 340l140 -340h-277zM398 808q0 23 15.5 37.5t40.5 14.5t40 -14.5t15 -37.5q0 -24 -15 -38.5t-40 -14.5t-40.5 14.5t-15.5 38.5zM190 808q0 23 15.5 37.5t40.5 14.5t40 -14.5t15 -37.5q0 -24 -15 -38.5
t-40 -14.5t-40.5 14.5t-15.5 38.5z" />
    <glyph glyph-name="Aring" unicode="&#xc5;" horiz-adv-x="699" 
d="M401 700h-107l-289 -700h94l75 187h343l78 -187h98zM207 267l137 340l140 -340h-277zM225 780q0 39 33.5 59.5t91.5 20.5t91 -20.5t33 -59.5t-33 -59.5t-91 -20.5t-91.5 20.5t-33.5 59.5zM290 780q0 -35 60 -35q59 0 59 35t-59 35q-60 0 -60 -35z" />
    <glyph glyph-name="AE" unicode="&#xc6;" horiz-adv-x="1009" 
d="M417 700h521v-80h-365v-220h328v-80h-328v-240h376v-80h-466v187h-276l-108 -187h-94zM458 620l-204 -353h229v353h-25z" />
    <glyph glyph-name="Ccedilla" unicode="&#xc7;" horiz-adv-x="707" 
d="M667 211v-130q-30 -36 -98.5 -63.5t-154.5 -27.5q-168 1 -266 98t-98 263q0 158 99 258.5t267 100.5q79 0 141 -22t91 -49v-141q-32 54 -95 93t-137 39q-125 0 -198.5 -76.5t-73.5 -203.5q0 -121 69.5 -199t196.5 -81q91 0 158 40.5t99 100.5zM381 0l-34 -54
q55 -11 80.5 -30t25.5 -51q0 -37 -33 -64.5t-76.5 -39t-89.5 -11.5v42q41 0 74.5 17t33.5 48q0 25 -22 35.5t-68 15.5l49 92h60z" />
    <glyph glyph-name="Egrave" unicode="&#xc8;" horiz-adv-x="646" 
d="M538 400v-80h-348v-240h396v-80h-486v700h475v-80h-385v-220h348zM374 740l-188 120h154l120 -120h-86z" />
    <glyph glyph-name="Eacute" unicode="&#xc9;" horiz-adv-x="646" 
d="M538 400v-80h-348v-240h396v-80h-486v700h475v-80h-385v-220h348zM272 740h-86l120 120h154z" />
    <glyph glyph-name="Ecircumflex" unicode="&#xca;" horiz-adv-x="646" 
d="M538 400v-80h-348v-240h396v-80h-486v700h475v-80h-385v-220h348zM371 860l137 -120h-65l-121 52l-119 -52h-65l137 120h96z" />
    <glyph glyph-name="Edieresis" unicode="&#xcb;" horiz-adv-x="646" 
d="M538 400v-80h-348v-240h396v-80h-486v700h475v-80h-385v-220h348zM371 808q0 23 15.5 37.5t40.5 14.5t40 -14.5t15 -37.5q0 -24 -15 -38.5t-40 -14.5t-40.5 14.5t-15.5 38.5zM163 808q0 23 15.5 37.5t40.5 14.5t40 -14.5t15 -37.5q0 -24 -15 -38.5t-40 -14.5t-40.5 14.5
t-15.5 38.5z" />
    <glyph glyph-name="Igrave" unicode="&#xcc;" horiz-adv-x="290" 
d="M190 700v-700h-90v700h90zM196 740l-188 120h154l120 -120h-86z" />
    <glyph glyph-name="Iacute" unicode="&#xcd;" horiz-adv-x="290" 
d="M190 700v-700h-90v700h90zM94 740h-86l120 120h154z" />
    <glyph glyph-name="Icircumflex" unicode="&#xce;" horiz-adv-x="290" 
d="M190 700v-700h-90v700h90zM193 860l137 -120h-65l-121 52l-119 -52h-65l137 120h96z" />
    <glyph glyph-name="Idieresis" unicode="&#xcf;" horiz-adv-x="290" 
d="M190 700v-700h-90v700h90zM193 808q0 23 15.5 37.5t40.5 14.5t40 -14.5t15 -37.5q0 -24 -15 -38.5t-40 -14.5t-40.5 14.5t-15.5 38.5zM-15 808q0 23 15.5 37.5t40.5 14.5t40 -14.5t15 -37.5q0 -24 -15 -38.5t-40 -14.5t-40.5 14.5t-15.5 38.5z" />
    <glyph glyph-name="Eth" unicode="&#xd0;" horiz-adv-x="753" 
d="M100 700h243q176 0 268.5 -87t92.5 -249q0 -188 -101.5 -276t-273.5 -88h-229v320h-93v80h93v300zM372 400v-80h-182v-240h134q286 0 286 272q0 268 -282 268h-138v-220h182z" />
    <glyph glyph-name="Ntilde" unicode="&#xd1;" horiz-adv-x="825" 
d="M631 0l-441 555v-555h-90v700h93l442 -556v556h90v-700h-94zM598 860q-18 -70 -47.5 -95t-75.5 -25q-31 0 -80.5 18.5t-67.5 18.5q-35 0 -51 -37h-50q33 119 121 119q25 0 72.5 -18.5t64.5 -18.5q48 0 64 38h50z" />
    <glyph glyph-name="Ograve" unicode="&#xd2;" horiz-adv-x="831" 
d="M50 351q0 -167 98 -263.5t268 -97.5q168 0 267 100.5t99 258.5q0 166 -98.5 263t-267.5 98q-168 0 -267 -100.5t-99 -258.5zM144 350q0 126 73 202.5t198 77.5q129 -1 201 -79t72 -201q0 -127 -73.5 -203.5t-197.5 -76.5q-129 1 -201 79t-72 201zM466 740l-188 120h154
l120 -120h-86z" />
    <glyph glyph-name="Oacute" unicode="&#xd3;" horiz-adv-x="831" 
d="M50 351q0 -167 98 -263.5t268 -97.5q168 0 267 100.5t99 258.5q0 166 -98.5 263t-267.5 98q-168 0 -267 -100.5t-99 -258.5zM144 350q0 126 73 202.5t198 77.5q129 -1 201 -79t72 -201q0 -127 -73.5 -203.5t-197.5 -76.5q-129 1 -201 79t-72 201zM364 740h-86l120 120
h154z" />
    <glyph glyph-name="Ocircumflex" unicode="&#xd4;" horiz-adv-x="831" 
d="M50 351q0 -167 98 -263.5t268 -97.5q168 0 267 100.5t99 258.5q0 166 -98.5 263t-267.5 98q-168 0 -267 -100.5t-99 -258.5zM144 350q0 126 73 202.5t198 77.5q129 -1 201 -79t72 -201q0 -127 -73.5 -203.5t-197.5 -76.5q-129 1 -201 79t-72 201zM463 860l137 -120h-65
l-121 52l-119 -52h-65l137 120h96z" />
    <glyph glyph-name="Otilde" unicode="&#xd5;" horiz-adv-x="831" 
d="M50 351q0 -167 98 -263.5t268 -97.5q168 0 267 100.5t99 258.5q0 166 -98.5 263t-267.5 98q-168 0 -267 -100.5t-99 -258.5zM144 350q0 126 73 202.5t198 77.5q129 -1 201 -79t72 -201q0 -127 -73.5 -203.5t-197.5 -76.5q-129 1 -201 79t-72 201zM601 860
q-18 -70 -47.5 -95t-75.5 -25q-31 0 -80.5 18.5t-67.5 18.5q-35 0 -51 -37h-50q33 119 121 119q25 0 72.5 -18.5t64.5 -18.5q48 0 64 38h50z" />
    <glyph glyph-name="Odieresis" unicode="&#xd6;" horiz-adv-x="831" 
d="M50 351q0 -167 98 -263.5t268 -97.5q168 0 267 100.5t99 258.5q0 166 -98.5 263t-267.5 98q-168 0 -267 -100.5t-99 -258.5zM144 350q0 126 73 202.5t198 77.5q129 -1 201 -79t72 -201q0 -127 -73.5 -203.5t-197.5 -76.5q-129 1 -201 79t-72 201zM464 808q0 23 15.5 37.5
t40.5 14.5t40 -14.5t15 -37.5q0 -24 -15 -38.5t-40 -14.5t-40.5 14.5t-15.5 38.5zM256 808q0 23 15.5 37.5t40.5 14.5t40 -14.5t15 -37.5q0 -24 -15 -38.5t-40 -14.5t-40.5 14.5t-15.5 38.5z" />
    <glyph glyph-name="multiply" unicode="&#xd7;" 
d="M430 168l-120 120l-120 -120l-57 57l120 120l-120 120l57 57l120 -120l120 120l57 -57l-120 -120l120 -120z" />
    <glyph glyph-name="Oslash" unicode="&#xd8;" horiz-adv-x="831" 
d="M222 -80l35 97q-99 39 -153 125t-54 209q0 158 99 258.5t267 100.5q48 0 90 -9l34 93l76 -27l-32 -89q94 -39 146 -124.5t52 -204.5q0 -158 -99 -258.5t-267 -100.5q-45 0 -81 7l-37 -104zM415 630q-125 -1 -198 -77.5t-73 -202.5q0 -87 36.5 -153.5t105.5 -99.5l192 527
q-40 6 -63 6zM364 74q32 -4 52 -4q125 0 198.5 76.5t73.5 203.5q0 84 -34.5 149t-99.5 99z" />
    <glyph glyph-name="Ugrave" unicode="&#xd9;" horiz-adv-x="786" 
d="M185 700v-405q0 -63 18 -109t50 -70t69.5 -35t82.5 -11q89 0 142.5 47t53.5 166v417h90v-413q0 -154 -81 -225.5t-215 -71.5q-142 0 -221 75t-79 214v421h90zM444 740l-188 120h154l120 -120h-86z" />
    <glyph glyph-name="Uacute" unicode="&#xda;" horiz-adv-x="786" 
d="M185 700v-405q0 -63 18 -109t50 -70t69.5 -35t82.5 -11q89 0 142.5 47t53.5 166v417h90v-413q0 -154 -81 -225.5t-215 -71.5q-142 0 -221 75t-79 214v421h90zM342 740h-86l120 120h154z" />
    <glyph glyph-name="Ucircumflex" unicode="&#xdb;" horiz-adv-x="786" 
d="M185 700v-405q0 -63 18 -109t50 -70t69.5 -35t82.5 -11q89 0 142.5 47t53.5 166v417h90v-413q0 -154 -81 -225.5t-215 -71.5q-142 0 -221 75t-79 214v421h90zM441 860l137 -120h-65l-121 52l-119 -52h-65l137 120h96z" />
    <glyph glyph-name="Udieresis" unicode="&#xdc;" horiz-adv-x="786" 
d="M185 700v-405q0 -63 18 -109t50 -70t69.5 -35t82.5 -11q89 0 142.5 47t53.5 166v417h90v-413q0 -154 -81 -225.5t-215 -71.5q-142 0 -221 75t-79 214v421h90zM441 808q0 23 15.5 37.5t40.5 14.5t40 -14.5t15 -37.5q0 -24 -15 -38.5t-40 -14.5t-40.5 14.5t-15.5 38.5z
M233 808q0 23 15.5 37.5t40.5 14.5t40 -14.5t15 -37.5q0 -24 -15 -38.5t-40 -14.5t-40.5 14.5t-15.5 38.5z" />
    <glyph glyph-name="Yacute" unicode="&#xdd;" horiz-adv-x="632" 
d="M627 700l-265 -433v-267h-90v267l-267 433h102l214 -350l207 350h99zM265 740h-86l120 120h154z" />
    <glyph glyph-name="Thorn" unicode="&#xde;" horiz-adv-x="665" 
d="M190 700v-100h129q149 0 222.5 -55t73.5 -172q0 -115 -76 -174t-220 -59h-129v-140h-90v700h90zM313 520h-123v-300h126q103 0 154 37t51 122q0 77 -49 109t-159 32z" />
    <glyph glyph-name="germandbls" unicode="&#xdf;" horiz-adv-x="672" 
d="M80 0v500q0 128 56.5 193t195.5 65q54 0 93 -15t59 -39.5t28.5 -50t8.5 -53.5q0 -37 -10 -64.5t-31.5 -47.5t-40.5 -31.5t-50 -26.5h-1l-2 -1q-44 -20 -44 -57q0 -29 29 -47.5t70 -30.5t82 -27.5t70 -47.5t29 -80q0 -69 -49 -108.5t-140 -40.5q-60 0 -102 17.5t-61 43.5
v97q20 -38 62 -62t101 -24q51 0 78.5 19.5t27.5 54.5q0 27 -29 45.5t-70 31t-82 28t-70 48t-29 80.5q0 91 83 123q52 25 73.5 46.5t21.5 59.5q0 88 -114 88q-89 0 -124 -42t-36 -144v-500h-83z" />
    <glyph glyph-name="agrave" unicode="&#xe0;" horiz-adv-x="535" 
d="M88 344v118q63 48 170 48q102 0 153.5 -41t51.5 -139v-330h-79v85q-20 -42 -65.5 -67.5t-103.5 -25.5q-76 0 -120.5 40t-44.5 115q0 79 52.5 110.5t158.5 31.5h119v40q0 60 -31.5 84.5t-90.5 24.5q-113 0 -170 -94zM236 69q68 0 103.5 32.5t40.5 67.5v54h-116
q-70 0 -99.5 -15t-29.5 -56q0 -38 26 -60.5t75 -22.5zM333 590l-158 160h144l80 -160h-66z" />
    <glyph glyph-name="aacute" unicode="&#xe1;" horiz-adv-x="535" 
d="M88 344v118q63 48 170 48q102 0 153.5 -41t51.5 -139v-330h-79v85q-20 -42 -65.5 -67.5t-103.5 -25.5q-76 0 -120.5 40t-44.5 115q0 79 52.5 110.5t158.5 31.5h119v40q0 60 -31.5 84.5t-90.5 24.5q-113 0 -170 -94zM236 69q68 0 103.5 32.5t40.5 67.5v54h-116
q-70 0 -99.5 -15t-29.5 -56q0 -38 26 -60.5t75 -22.5zM221 590h-66l80 160h144z" />
    <glyph glyph-name="acircumflex" unicode="&#xe2;" horiz-adv-x="535" 
d="M88 344v118q63 48 170 48q102 0 153.5 -41t51.5 -139v-330h-79v85q-20 -42 -65.5 -67.5t-103.5 -25.5q-76 0 -120.5 40t-44.5 115q0 79 52.5 110.5t158.5 31.5h119v40q0 60 -31.5 84.5t-90.5 24.5q-113 0 -170 -94zM236 69q68 0 103.5 32.5t40.5 67.5v54h-116
q-70 0 -99.5 -15t-29.5 -56q0 -38 26 -60.5t75 -22.5zM229 750h76l137 -160h-55l-119 82l-121 -82h-55z" />
    <glyph glyph-name="atilde" unicode="&#xe3;" horiz-adv-x="535" 
d="M88 344v118q63 48 170 48q102 0 153.5 -41t51.5 -139v-330h-79v85q-20 -42 -65.5 -67.5t-103.5 -25.5q-76 0 -120.5 40t-44.5 115q0 79 52.5 110.5t158.5 31.5h119v40q0 60 -31.5 84.5t-90.5 24.5q-113 0 -170 -94zM236 69q68 0 103.5 32.5t40.5 67.5v54h-116
q-70 0 -99.5 -15t-29.5 -56q0 -38 26 -60.5t75 -22.5zM453 730q-18 -71 -48 -100.5t-75 -29.5q-31 0 -80.5 23.5t-67.5 23.5q-31 0 -51 -47h-50q19 69 53 99t68 30q25 0 72.5 -23.5t64.5 -23.5q43 0 64 48h50z" />
    <glyph glyph-name="adieresis" unicode="&#xe4;" horiz-adv-x="535" 
d="M88 344v118q63 48 170 48q102 0 153.5 -41t51.5 -139v-330h-79v85q-20 -42 -65.5 -67.5t-103.5 -25.5q-76 0 -120.5 40t-44.5 115q0 79 52.5 110.5t158.5 31.5h119v40q0 60 -31.5 84.5t-90.5 24.5q-113 0 -170 -94zM236 69q68 0 103.5 32.5t40.5 67.5v54h-116
q-70 0 -99.5 -15t-29.5 -56q0 -38 26 -60.5t75 -22.5zM316 653q0 23 15.5 37.5t40.5 14.5t40 -14.5t15 -37.5q0 -24 -15 -38.5t-40 -14.5t-40.5 14.5t-15.5 38.5zM108 653q0 23 15.5 37.5t40.5 14.5t40 -14.5t15 -37.5q0 -24 -15 -38.5t-40 -14.5t-40.5 14.5t-15.5 38.5z
" />
    <glyph glyph-name="aring" unicode="&#xe5;" horiz-adv-x="535" 
d="M88 344v118q63 48 170 48q102 0 153.5 -41t51.5 -139v-330h-79v85q-20 -42 -65.5 -67.5t-103.5 -25.5q-76 0 -120.5 40t-44.5 115q0 79 52.5 110.5t158.5 31.5h119v40q0 60 -31.5 84.5t-90.5 24.5q-113 0 -170 -94zM236 69q68 0 103.5 32.5t40.5 67.5v54h-116
q-70 0 -99.5 -15t-29.5 -56q0 -38 26 -60.5t75 -22.5zM158 695q0 48 29 76.5t80 28.5t80 -28.5t29 -76.5t-29 -76.5t-80 -28.5t-80 28.5t-29 76.5zM214 695q0 -25 14 -40t39 -15q24 0 38.5 15t14.5 40t-14.5 40t-38.5 15q-25 0 -39 -15t-14 -40z" />
    <glyph glyph-name="ae" unicode="&#xe6;" horiz-adv-x="859" 
d="M782 51q-21 -26 -68 -43.5t-116 -17.5q-151 0 -212 101q-17 -44 -64 -71.5t-107 -27.5q-76 0 -120.5 40t-44.5 115q0 79 52.5 110.5t158.5 31.5h90v20q0 60 -22 90t-72 35q-49 4 -95.5 -23t-77.5 -72v122q75 49 174 48q112 0 152 -72q67 73 186 73q104 0 162.5 -62.5
t58.5 -173.5v-54h-383q12 -158 164 -158q68 0 115 24t69 62v-97zM596 438q-144 0 -161 -147h299v1q0 70 -38.5 108t-99.5 38zM236 69q92 0 131 64q-14 41 -17 90h-86q-70 0 -99.5 -15t-29.5 -56q0 -38 26 -60.5t75 -22.5z" />
    <glyph glyph-name="ccedilla" unicode="&#xe7;" horiz-adv-x="499" 
d="M454 51q-19 -26 -61 -43.5t-102 -17.5q-120 0 -184.5 66t-64.5 196q0 125 68.5 191.5t178.5 66.5q97 0 160 -48v-118q-26 43 -68 68.5t-92 25.5q-79 0 -121 -47t-42 -139v-3q0 -187 165 -187q59 0 101 24t62 62v-97zM277 0l-34 -54q55 -11 80.5 -30t25.5 -51
q0 -37 -33 -64.5t-76.5 -39t-89.5 -11.5v42q41 0 74.5 17t33.5 48q0 25 -22 35.5t-68 15.5l49 92h60z" />
    <glyph glyph-name="egrave" unicode="&#xe8;" horiz-adv-x="552" 
d="M289 510q104 0 162.5 -62.5t58.5 -173.5v-54h-383q12 -158 164 -158q68 0 115 24t69 62v-97q-21 -26 -68 -43.5t-116 -17.5q-120 0 -184.5 66t-64.5 196q0 125 68.5 191.5t178.5 66.5zM289 438q-144 0 -161 -147h299v1q0 70 -38.5 108t-99.5 38zM342 590l-158 160h144
l80 -160h-66z" />
    <glyph glyph-name="eacute" unicode="&#xe9;" horiz-adv-x="552" 
d="M289 510q104 0 162.5 -62.5t58.5 -173.5v-54h-383q12 -158 164 -158q68 0 115 24t69 62v-97q-21 -26 -68 -43.5t-116 -17.5q-120 0 -184.5 66t-64.5 196q0 125 68.5 191.5t178.5 66.5zM289 438q-144 0 -161 -147h299v1q0 70 -38.5 108t-99.5 38zM230 590h-66l80 160h144z
" />
    <glyph glyph-name="ecircumflex" unicode="&#xea;" horiz-adv-x="552" 
d="M289 510q104 0 162.5 -62.5t58.5 -173.5v-54h-383q12 -158 164 -158q68 0 115 24t69 62v-97q-21 -26 -68 -43.5t-116 -17.5q-120 0 -184.5 66t-64.5 196q0 125 68.5 191.5t178.5 66.5zM289 438q-144 0 -161 -147h299v1q0 70 -38.5 108t-99.5 38zM238 750h76l137 -160h-55
l-119 82l-121 -82h-55z" />
    <glyph glyph-name="edieresis" unicode="&#xeb;" horiz-adv-x="552" 
d="M289 510q104 0 162.5 -62.5t58.5 -173.5v-54h-383q12 -158 164 -158q68 0 115 24t69 62v-97q-21 -26 -68 -43.5t-116 -17.5q-120 0 -184.5 66t-64.5 196q0 125 68.5 191.5t178.5 66.5zM289 438q-144 0 -161 -147h299v1q0 70 -38.5 108t-99.5 38zM324 653q0 23 15.5 37.5
t40.5 14.5t40 -14.5t15 -37.5q0 -24 -15 -38.5t-40 -14.5t-40.5 14.5t-15.5 38.5zM116 653q0 23 15.5 37.5t40.5 14.5t40 -14.5t15 -37.5q0 -24 -15 -38.5t-40 -14.5t-40.5 14.5t-15.5 38.5z" />
    <glyph glyph-name="igrave" unicode="&#xec;" horiz-adv-x="271" 
d="M94 0v500h83v-500h-83zM201 590l-158 160h144l80 -160h-66z" />
    <glyph glyph-name="iacute" unicode="&#xed;" horiz-adv-x="271" 
d="M94 0v500h83v-500h-83zM89 590h-66l80 160h144z" />
    <glyph glyph-name="icircumflex" unicode="&#xee;" horiz-adv-x="271" 
d="M94 0v500h83v-500h-83zM97 750h76l137 -160h-55l-119 82l-121 -82h-55z" />
    <glyph glyph-name="idieresis" unicode="&#xef;" horiz-adv-x="271" 
d="M94 0v500h83v-500h-83zM184 653q0 23 15.5 37.5t40.5 14.5t40 -14.5t15 -37.5q0 -24 -15 -38.5t-40 -14.5t-40.5 14.5t-15.5 38.5zM-24 653q0 23 15.5 37.5t40.5 14.5t40 -14.5t15 -37.5q0 -24 -15 -38.5t-40 -14.5t-40.5 14.5t-15.5 38.5z" />
    <glyph glyph-name="eth" unicode="&#xf0;" horiz-adv-x="579" 
d="M195 537l-32 64l106 54q-34 31 -79 61l33 41q40 -13 106 -71l101 52l33 -64l-80 -41q66 -66 110 -170t44 -215q0 -125 -68 -191t-178 -67q-120 0 -184.5 66t-64.5 196q0 125 68.5 191.5t178.5 66.5q66 0 116 -32q-35 68 -83 124zM126 249q0 -187 164 -187q79 0 121 47
t42 139v3q0 185 -164 187q-79 0 -121 -47t-42 -139v-3z" />
    <glyph glyph-name="ntilde" unicode="&#xf1;" horiz-adv-x="588" 
d="M433 0v309q0 66 -26.5 95.5t-89.5 30.5h-3q-151 0 -151 -166v-269h-83v500h79v-106q14 51 62.5 83t118.5 32h2q174 -2 174 -180v-329h-83zM480 730q-18 -71 -48 -100.5t-75 -29.5q-31 0 -80.5 23.5t-67.5 23.5q-31 0 -51 -47h-50q19 69 53 99t68 30q25 0 72.5 -23.5
t64.5 -23.5q43 0 64 48h50z" />
    <glyph glyph-name="ograve" unicode="&#xf2;" horiz-adv-x="579" 
d="M42 252q0 -130 64 -195.5t184 -66.5q110 0 178.5 66.5t68.5 191.5q0 129 -64.5 195t-183.5 67q-110 0 -178.5 -66.5t-68.5 -191.5zM126 252q0 92 42 139t121 47q164 -2 164 -187v-3q0 -92 -42 -139t-121 -47q-164 0 -164 187v3zM355 590l-158 160h144l80 -160h-66z" />
    <glyph glyph-name="oacute" unicode="&#xf3;" horiz-adv-x="579" 
d="M42 252q0 -130 64 -195.5t184 -66.5q110 0 178.5 66.5t68.5 191.5q0 129 -64.5 195t-183.5 67q-110 0 -178.5 -66.5t-68.5 -191.5zM126 252q0 92 42 139t121 47q164 -2 164 -187v-3q0 -92 -42 -139t-121 -47q-164 0 -164 187v3zM243 590h-66l80 160h144z" />
    <glyph glyph-name="ocircumflex" unicode="&#xf4;" horiz-adv-x="579" 
d="M42 252q0 -130 64 -195.5t184 -66.5q110 0 178.5 66.5t68.5 191.5q0 129 -64.5 195t-183.5 67q-110 0 -178.5 -66.5t-68.5 -191.5zM126 252q0 92 42 139t121 47q164 -2 164 -187v-3q0 -92 -42 -139t-121 -47q-164 0 -164 187v3zM251 750h76l137 -160h-55l-119 82
l-121 -82h-55z" />
    <glyph glyph-name="otilde" unicode="&#xf5;" horiz-adv-x="579" 
d="M42 252q0 -130 64 -195.5t184 -66.5q110 0 178.5 66.5t68.5 191.5q0 129 -64.5 195t-183.5 67q-110 0 -178.5 -66.5t-68.5 -191.5zM126 252q0 92 42 139t121 47q164 -2 164 -187v-3q0 -92 -42 -139t-121 -47q-164 0 -164 187v3zM475 730q-18 -71 -48 -100.5t-75 -29.5
q-31 0 -80.5 23.5t-67.5 23.5q-31 0 -51 -47h-50q19 69 53 99t68 30q25 0 72.5 -23.5t64.5 -23.5q43 0 64 48h50z" />
    <glyph glyph-name="odieresis" unicode="&#xf6;" horiz-adv-x="579" 
d="M42 252q0 -130 64 -195.5t184 -66.5q110 0 178.5 66.5t68.5 191.5q0 129 -64.5 195t-183.5 67q-110 0 -178.5 -66.5t-68.5 -191.5zM126 252q0 92 42 139t121 47q164 -2 164 -187v-3q0 -92 -42 -139t-121 -47q-164 0 -164 187v3zM338 653q0 23 15.5 37.5t40.5 14.5
t40 -14.5t15 -37.5q0 -24 -15 -38.5t-40 -14.5t-40.5 14.5t-15.5 38.5zM130 653q0 23 15.5 37.5t40.5 14.5t40 -14.5t15 -37.5q0 -24 -15 -38.5t-40 -14.5t-40.5 14.5t-15.5 38.5z" />
    <glyph glyph-name="divide" unicode="&#xf7;" 
d="M100 385h420v-80h-420v80zM255 518q0 23 15.5 37.5t40.5 14.5t40 -14.5t15 -37.5q0 -24 -15 -38.5t-40 -14.5t-40.5 14.5t-15.5 38.5zM255 173q0 23 15.5 37.5t40.5 14.5t40 -14.5t15 -37.5q0 -24 -15 -38.5t-40 -14.5t-40.5 14.5t-15.5 38.5z" />
    <glyph glyph-name="oslash" unicode="&#xf8;" horiz-adv-x="579" 
d="M351 504l37 103l68 -25l-37 -100q118 -59 118 -234q0 -125 -68.5 -191.5t-178.5 -66.5q-26 0 -49 3l-40 -110l-67 24l38 104q-130 56 -130 241q0 125 68.5 191.5t178.5 66.5q32 0 62 -6zM126 252v-3q0 -123 72 -166l127 352q-18 3 -37 3q-162 -2 -162 -186zM290 62
q79 0 121 47t42 139v3q0 113 -61 157l-126 -345q8 -1 24 -1z" />
    <glyph glyph-name="ugrave" unicode="&#xf9;" horiz-adv-x="582" 
d="M274 65q145 1 145 166v269h83v-500h-79v106q-14 -51 -60.5 -82.5t-114.5 -32.5h-2h-2q-172 3 -172 180v329h83v-309q0 -67 27.5 -96.5t91.5 -29.5zM357 590l-158 160h144l80 -160h-66z" />
    <glyph glyph-name="uacute" unicode="&#xfa;" horiz-adv-x="582" 
d="M274 65q145 1 145 166v269h83v-500h-79v106q-14 -51 -60.5 -82.5t-114.5 -32.5h-2h-2q-172 3 -172 180v329h83v-309q0 -67 27.5 -96.5t91.5 -29.5zM245 590h-66l80 160h144z" />
    <glyph glyph-name="ucircumflex" unicode="&#xfb;" horiz-adv-x="582" 
d="M274 65q145 1 145 166v269h83v-500h-79v106q-14 -51 -60.5 -82.5t-114.5 -32.5h-2h-2q-172 3 -172 180v329h83v-309q0 -67 27.5 -96.5t91.5 -29.5zM253 750h76l137 -160h-55l-119 82l-121 -82h-55z" />
    <glyph glyph-name="udieresis" unicode="&#xfc;" horiz-adv-x="582" 
d="M274 65q145 1 145 166v269h83v-500h-79v106q-14 -51 -60.5 -82.5t-114.5 -32.5h-2h-2q-172 3 -172 180v329h83v-309q0 -67 27.5 -96.5t91.5 -29.5zM339 653q0 23 15.5 37.5t40.5 14.5t40 -14.5t15 -37.5q0 -24 -15 -38.5t-40 -14.5t-40.5 14.5t-15.5 38.5zM131 653
q0 23 15.5 37.5t40.5 14.5t40 -14.5t15 -37.5q0 -24 -15 -38.5t-40 -14.5t-40.5 14.5t-15.5 38.5z" />
    <glyph glyph-name="yacute" unicode="&#xfd;" horiz-adv-x="502" 
d="M230 -2l-215 502h96l162 -390l135 390h89l-205 -553q-28 -75 -61.5 -104.5t-80.5 -29.5q-55 0 -80 22v86q29 -29 70 -29q28 0 50 21.5t40 84.5zM205 590h-66l80 160h144z" />
    <glyph glyph-name="thorn" unicode="&#xfe;" horiz-adv-x="604" 
d="M80 750h83v-338q49 98 181 98q104 0 161 -61t57 -188q0 -143 -58 -207.5t-170 -64.5q-59 0 -103.5 25t-67.5 63v-257h-83v930zM163 269v-40q0 -77 43 -121t115 -44q83 0 120 44.5t37 147.5q0 96 -40.5 137.5t-115.5 41.5q-79 0 -119 -43t-40 -123z" />
    <glyph glyph-name="ydieresis" unicode="&#xff;" horiz-adv-x="502" 
d="M230 -2l-215 502h96l162 -390l135 390h89l-205 -553q-28 -75 -61.5 -104.5t-80.5 -29.5q-55 0 -80 22v86q29 -29 70 -29q28 0 50 21.5t40 84.5zM299 653q0 23 15.5 37.5t40.5 14.5t40 -14.5t15 -37.5q0 -24 -15 -38.5t-40 -14.5t-40.5 14.5t-15.5 38.5zM91 653
q0 23 15.5 37.5t40.5 14.5t40 -14.5t15 -37.5q0 -24 -15 -38.5t-40 -14.5t-40.5 14.5t-15.5 38.5z" />
    <glyph glyph-name="Amacron" unicode="&#x100;" horiz-adv-x="699" 
d="M294 700h107l292 -700h-98l-78 187h-343l-75 -187h-94zM344 607l-137 -340h277zM199 768v72h300v-72h-300z" />
    <glyph glyph-name="amacron" unicode="&#x101;" horiz-adv-x="535" 
d="M88 344v118q63 48 170 48q102 0 153.5 -41t51.5 -139v-330h-79v85q-20 -42 -65.5 -67.5t-103.5 -25.5q-76 0 -120.5 40t-44.5 115q0 79 52.5 110.5t158.5 31.5h119v40q0 60 -31.5 84.5t-90.5 24.5q-113 0 -170 -94zM236 69q68 0 103.5 32.5t40.5 67.5v54h-116
q-70 0 -99.5 -15t-29.5 -56q0 -38 26 -60.5t75 -22.5zM117 628v72h300v-72h-300z" />
    <glyph glyph-name="Abreve" unicode="&#x102;" horiz-adv-x="699" 
d="M294 700h107l292 -700h-98l-78 187h-343l-75 -187h-94zM344 607l-137 -340h277zM349 740q-68 0 -111.5 32.5t-60.5 87.5h47q50 -45 125 -45q91 0 125 45h47q-18 -58 -62.5 -89t-109.5 -31z" />
    <glyph glyph-name="abreve" unicode="&#x103;" horiz-adv-x="535" 
d="M88 344v118q63 48 170 48q102 0 153.5 -41t51.5 -139v-330h-79v85q-20 -42 -65.5 -67.5t-103.5 -25.5q-76 0 -120.5 40t-44.5 115q0 79 52.5 110.5t158.5 31.5h119v40q0 60 -31.5 84.5t-90.5 24.5q-113 0 -170 -94zM236 69q68 0 103.5 32.5t40.5 67.5v54h-116
q-70 0 -99.5 -15t-29.5 -56q0 -38 26 -60.5t75 -22.5zM267 590q-69 0 -110.5 43t-51.5 117h47q30 -80 115 -80t115 80h47q-10 -72 -54 -116t-108 -44z" />
    <glyph glyph-name="Aogonek" unicode="&#x104;" horiz-adv-x="699" 
d="M294 700h107l292 -700h-98l-78 187h-343l-75 -187h-94zM344 607l-137 -340h277zM440 0q-89 -67 -89 -129q0 -33 23 -49.5t67 -12.5v-44q-32 -15 -72 -15q-54 0 -83 27t-29 68q0 47 41.5 95.5t115.5 88.5z" />
    <glyph glyph-name="aogonek" unicode="&#x105;" horiz-adv-x="535" 
d="M88 344v118q63 48 170 48q102 0 153.5 -41t51.5 -139v-330h-79v85q-20 -42 -65.5 -67.5t-103.5 -25.5q-76 0 -120.5 40t-44.5 115q0 79 52.5 110.5t158.5 31.5h119v40q0 60 -31.5 84.5t-90.5 24.5q-113 0 -170 -94zM236 69q68 0 103.5 32.5t40.5 67.5v54h-116
q-70 0 -99.5 -15t-29.5 -56q0 -38 26 -60.5t75 -22.5zM358 0q-89 -67 -89 -129q0 -33 23 -49.5t67 -12.5v-44q-32 -15 -72 -15q-54 0 -83 27t-29 68q0 47 41.5 95.5t115.5 88.5z" />
    <glyph glyph-name="Cacute" unicode="&#x106;" horiz-adv-x="707" 
d="M667 211v-130q-30 -36 -98.5 -63.5t-154.5 -27.5q-168 1 -266 98t-98 263q0 158 99 258.5t267 100.5q79 0 141 -22t91 -49v-141q-32 54 -95 93t-137 39q-125 0 -198.5 -76.5t-73.5 -203.5q0 -121 69.5 -199t196.5 -81q91 0 158 40.5t99 100.5zM302 740h-86l120 120h154z
" />
    <glyph glyph-name="cacute" unicode="&#x107;" horiz-adv-x="499" 
d="M454 51q-19 -26 -61 -43.5t-102 -17.5q-120 0 -184.5 66t-64.5 196q0 125 68.5 191.5t178.5 66.5q97 0 160 -48v-118q-26 43 -68 68.5t-92 25.5q-79 0 -121 -47t-42 -139v-3q0 -187 165 -187q59 0 101 24t62 62v-97zM203 590h-66l80 160h144z" />
    <glyph glyph-name="Ccircumflex" unicode="&#x108;" horiz-adv-x="707" 
d="M667 211v-130q-30 -36 -98.5 -63.5t-154.5 -27.5q-168 1 -266 98t-98 263q0 158 99 258.5t267 100.5q79 0 141 -22t91 -49v-141q-32 54 -95 93t-137 39q-125 0 -198.5 -76.5t-73.5 -203.5q0 -121 69.5 -199t196.5 -81q91 0 158 40.5t99 100.5zM451 860l137 -120h-65
l-121 52l-119 -52h-65l137 120h96z" />
    <glyph glyph-name="ccircumflex" unicode="&#x109;" horiz-adv-x="499" 
d="M454 51q-19 -26 -61 -43.5t-102 -17.5q-120 0 -184.5 66t-64.5 196q0 125 68.5 191.5t178.5 66.5q97 0 160 -48v-118q-26 43 -68 68.5t-92 25.5q-79 0 -121 -47t-42 -139v-3q0 -187 165 -187q59 0 101 24t62 62v-97zM231 750h76l137 -160h-55l-119 82l-121 -82h-55z" />
    <glyph glyph-name="Cdotaccent" unicode="&#x10a;" horiz-adv-x="707" 
d="M667 211v-130q-30 -36 -98.5 -63.5t-154.5 -27.5q-168 1 -266 98t-98 263q0 158 99 258.5t267 100.5q79 0 141 -22t91 -49v-141q-32 54 -95 93t-137 39q-125 0 -198.5 -76.5t-73.5 -203.5q0 -121 69.5 -199t196.5 -81q91 0 158 40.5t99 100.5zM298 808q0 23 15.5 37.5
t40.5 14.5t40 -14.5t15 -37.5q0 -24 -15 -38.5t-40 -14.5t-40.5 14.5t-15.5 38.5z" />
    <glyph glyph-name="cdotaccent" unicode="&#x10b;" horiz-adv-x="499" 
d="M454 51q-19 -26 -61 -43.5t-102 -17.5q-120 0 -184.5 66t-64.5 196q0 125 68.5 191.5t178.5 66.5q97 0 160 -48v-118q-26 43 -68 68.5t-92 25.5q-79 0 -121 -47t-42 -139v-3q0 -187 165 -187q59 0 101 24t62 62v-97zM194 653q0 23 15.5 37.5t40.5 14.5t40 -14.5t15 -37.5
q0 -24 -15 -38.5t-40 -14.5t-40.5 14.5t-15.5 38.5z" />
    <glyph glyph-name="Ccaron" unicode="&#x10c;" horiz-adv-x="707" 
d="M667 211v-130q-30 -36 -98.5 -63.5t-154.5 -27.5q-168 1 -266 98t-98 263q0 158 99 258.5t267 100.5q79 0 141 -22t91 -49v-141q-32 54 -95 93t-137 39q-125 0 -198.5 -76.5t-73.5 -203.5q0 -121 69.5 -199t196.5 -81q91 0 158 40.5t99 100.5zM401 740h-96l-137 120h65
l119 -52l121 52h65z" />
    <glyph glyph-name="ccaron" unicode="&#x10d;" horiz-adv-x="499" 
d="M454 51q-19 -26 -61 -43.5t-102 -17.5q-120 0 -184.5 66t-64.5 196q0 125 68.5 191.5t178.5 66.5q97 0 160 -48v-118q-26 43 -68 68.5t-92 25.5q-79 0 -121 -47t-42 -139v-3q0 -187 165 -187q59 0 101 24t62 62v-97zM287 590h-76l-137 160h55l119 -82l121 82h55z" />
    <glyph glyph-name="Dcaron" unicode="&#x10e;" horiz-adv-x="753" 
d="M343 700h-243v-700h229q172 0 273.5 88t101.5 276q0 162 -92.5 249t-268.5 87zM324 80h-134v540h138q282 0 282 -268q0 -272 -286 -272zM424 740h-96l-137 120h65l119 -52l121 52h65z" />
    <glyph glyph-name="dcaron" unicode="&#x10f;" horiz-adv-x="603" 
d="M441 750h82v-750h-77v97l-1 -2q-20 -47 -67 -76.5t-118 -29.5q-104 0 -161 61t-57 188q0 143 58 207.5t170 64.5q59 0 103.5 -25t67.5 -64v329zM441 222v48q0 77 -43 121t-115 44q-83 0 -120 -44.5t-37 -147.5q0 -96 40.5 -137.5t115.5 -41.5q76 0 116.5 41t42.5 117z
M213 497q47 5 77 30t34 56h-2q-59 0 -59 58q0 59 59 59q25 0 40 -12q27 -20 27 -78q0 -67 -41.5 -111.5t-90.5 -54.5z" />
    <glyph glyph-name="Dcroat" unicode="&#x110;" horiz-adv-x="753" 
d="M100 700h243q176 0 268.5 -87t92.5 -249q0 -188 -101.5 -276t-273.5 -88h-229v320h-93v80h93v300zM372 400v-80h-182v-240h134q286 0 286 272q0 268 -282 268h-138v-220h182z" />
    <glyph glyph-name="dcroat" unicode="&#x111;" horiz-adv-x="603" 
d="M441 750h82v-100h63v-74h-63v-576h-77v97l-1 -2q-20 -47 -67 -76.5t-118 -29.5q-104 0 -161 61t-57 188q0 143 58 207.5t170 64.5q59 0 103.5 -25t67.5 -64v155h-181v74h181v100zM283 435q-83 0 -120 -44.5t-37 -147.5q0 -96 40.5 -137.5t115.5 -41.5q76 0 116.5 41
t42.5 117v55q-2 74 -45.5 116t-112.5 42z" />
    <glyph glyph-name="Emacron" unicode="&#x112;" horiz-adv-x="646" 
d="M538 400v-80h-348v-240h396v-80h-486v700h475v-80h-385v-220h348zM173 768v72h300v-72h-300z" />
    <glyph glyph-name="emacron" unicode="&#x113;" horiz-adv-x="552" 
d="M289 510q104 0 162.5 -62.5t58.5 -173.5v-54h-383q12 -158 164 -158q68 0 115 24t69 62v-97q-21 -26 -68 -43.5t-116 -17.5q-120 0 -184.5 66t-64.5 196q0 125 68.5 191.5t178.5 66.5zM289 438q-144 0 -161 -147h299v1q0 70 -38.5 108t-99.5 38zM126 628v72h300v-72h-300
z" />
    <glyph glyph-name="Edotaccent" unicode="&#x116;" horiz-adv-x="646" 
d="M538 400v-80h-348v-240h396v-80h-486v700h475v-80h-385v-220h348zM267 808q0 23 15.5 37.5t40.5 14.5t40 -14.5t15 -37.5q0 -24 -15 -38.5t-40 -14.5t-40.5 14.5t-15.5 38.5z" />
    <glyph glyph-name="edotaccent" unicode="&#x117;" horiz-adv-x="552" 
d="M289 510q104 0 162.5 -62.5t58.5 -173.5v-54h-383q12 -158 164 -158q68 0 115 24t69 62v-97q-21 -26 -68 -43.5t-116 -17.5q-120 0 -184.5 66t-64.5 196q0 125 68.5 191.5t178.5 66.5zM289 438q-144 0 -161 -147h299v1q0 70 -38.5 108t-99.5 38zM220 653q0 23 15.5 37.5
t40.5 14.5t40 -14.5t15 -37.5q0 -24 -15 -38.5t-40 -14.5t-40.5 14.5t-15.5 38.5z" />
    <glyph glyph-name="Eogonek" unicode="&#x118;" horiz-adv-x="646" 
d="M538 400v-80h-348v-240h396v-80h-486v700h475v-80h-385v-220h348zM414 0q-89 -67 -89 -129q0 -33 23 -49.5t67 -12.5v-44q-32 -15 -72 -15q-54 0 -83 27t-29 68q0 47 41.5 95.5t115.5 88.5z" />
    <glyph glyph-name="eogonek" unicode="&#x119;" horiz-adv-x="552" 
d="M289 510q104 0 162.5 -62.5t58.5 -173.5v-54h-383q12 -158 164 -158q68 0 115 24t69 62v-97q-21 -26 -68 -43.5t-116 -17.5q-120 0 -184.5 66t-64.5 196q0 125 68.5 191.5t178.5 66.5zM289 438q-144 0 -161 -147h299v1q0 70 -38.5 108t-99.5 38zM367 0q-89 -67 -89 -129
q0 -33 23 -49.5t67 -12.5v-44q-32 -15 -72 -15q-54 0 -83 27t-29 68q0 47 41.5 95.5t115.5 88.5z" />
    <glyph glyph-name="Ecaron" unicode="&#x11a;" horiz-adv-x="646" 
d="M538 400v-80h-348v-240h396v-80h-486v700h475v-80h-385v-220h348zM371 740h-96l-137 120h65l119 -52l121 52h65z" />
    <glyph glyph-name="ecaron" unicode="&#x11b;" horiz-adv-x="552" 
d="M289 510q104 0 162.5 -62.5t58.5 -173.5v-54h-383q12 -158 164 -158q68 0 115 24t69 62v-97q-21 -26 -68 -43.5t-116 -17.5q-120 0 -184.5 66t-64.5 196q0 125 68.5 191.5t178.5 66.5zM289 438q-144 0 -161 -147h299v1q0 70 -38.5 108t-99.5 38zM314 590h-76l-137 160h55
l119 -82l121 82h55z" />
    <glyph glyph-name="Gcircumflex" unicode="&#x11c;" horiz-adv-x="754" 
d="M416 -10q-170 1 -268 97.5t-98 263.5q0 158 98.5 258t265.5 101q79 0 141 -22t91 -49v-141q-32 54 -95 93t-137 39q-124 -1 -197 -77.5t-73 -202.5q0 -123 71.5 -201t200.5 -79q122 0 180 50v170h-156v80h239v-281q-24 -37 -103 -68t-160 -31zM449 860l137 -120h-65
l-121 52l-119 -52h-65l137 120h96z" />
    <glyph glyph-name="gcircumflex" unicode="&#x11d;" horiz-adv-x="603" 
d="M441 39q0 -82 -39.5 -116.5t-121.5 -34.5q-71 0 -119 27.5t-71 62.5v-107q21 -21 74 -39.5t115 -18.5q123 0 183.5 54.5t60.5 176.5v456h-78v-86q-21 41 -67 68.5t-108 27.5q-112 0 -170 -64.5t-58 -207.5q0 -127 57 -188t161 -61q132 0 181 97v-47zM283 435
q69 0 112.5 -42t45.5 -116v-47q0 -80 -40 -123t-119 -43q-75 0 -115.5 41.5t-40.5 137.5q0 103 37 147.5t120 44.5zM216 750h76l137 -160h-55l-119 82l-121 -82h-55z" />
    <glyph glyph-name="Gbreve" unicode="&#x11e;" horiz-adv-x="754" 
d="M416 -10q-170 1 -268 97.5t-98 263.5q0 158 98.5 258t265.5 101q79 0 141 -22t91 -49v-141q-32 54 -95 93t-137 39q-124 -1 -197 -77.5t-73 -202.5q0 -123 71.5 -201t200.5 -79q122 0 180 50v170h-156v80h239v-281q-24 -37 -103 -68t-160 -31zM377 740q-68 0 -111.5 32.5
t-60.5 87.5h47q50 -45 125 -45q91 0 125 45h47q-18 -58 -62.5 -89t-109.5 -31z" />
    <glyph glyph-name="gbreve" unicode="&#x11f;" horiz-adv-x="603" 
d="M441 39v47q-49 -97 -181 -97q-104 0 -161 61t-57 188q0 143 58 207.5t170 64.5q62 0 108 -27.5t67 -68.5v86h78v-456q0 -122 -60.5 -176.5t-183.5 -54.5q-62 0 -115 18.5t-74 39.5v107q23 -35 71 -62.5t119 -27.5q82 0 121.5 34.5t39.5 116.5zM283 435q-83 0 -120 -44.5
t-37 -147.5q0 -96 40.5 -137.5t115.5 -41.5q79 0 119 43t40 123v47q-2 74 -45.5 116t-112.5 42zM301 590q-69 0 -110.5 43t-51.5 117h47q30 -80 115 -80t115 80h47q-10 -72 -54 -116t-108 -44z" />
    <glyph glyph-name="Gdotaccent" unicode="&#x120;" horiz-adv-x="754" 
d="M416 -10q-170 1 -268 97.5t-98 263.5q0 158 98.5 258t265.5 101q79 0 141 -22t91 -49v-141q-32 54 -95 93t-137 39q-124 -1 -197 -77.5t-73 -202.5q0 -123 71.5 -201t200.5 -79q122 0 180 50v170h-156v80h239v-281q-24 -37 -103 -68t-160 -31zM321 808q0 23 15.5 37.5
t40.5 14.5t40 -14.5t15 -37.5q0 -24 -15 -38.5t-40 -14.5t-40.5 14.5t-15.5 38.5z" />
    <glyph glyph-name="gdotaccent" unicode="&#x121;" horiz-adv-x="603" 
d="M441 39q0 -82 -39.5 -116.5t-121.5 -34.5q-71 0 -119 27.5t-71 62.5v-107q21 -21 74 -39.5t115 -18.5q123 0 183.5 54.5t60.5 176.5v456h-78v-86q-21 41 -67 68.5t-108 27.5q-112 0 -170 -64.5t-58 -207.5q0 -127 57 -188t161 -61q132 0 181 97v-47zM283 435
q69 0 112.5 -42t45.5 -116v-47q0 -80 -40 -123t-119 -43q-75 0 -115.5 41.5t-40.5 137.5q0 103 37 147.5t120 44.5zM246 653q0 23 15.5 37.5t40.5 14.5t40 -14.5t15 -37.5q0 -24 -15 -38.5t-40 -14.5t-40.5 14.5t-15.5 38.5z" />
    <glyph glyph-name="Gcommaaccent" unicode="&#x122;" horiz-adv-x="754" 
d="M416 -10q-170 1 -268 97.5t-98 263.5q0 158 98.5 258t265.5 101q79 0 141 -22t91 -49v-141q-32 54 -95 93t-137 39q-124 -1 -197 -77.5t-73 -202.5q0 -123 71.5 -201t200.5 -79q122 0 180 50v170h-156v80h239v-281q-24 -37 -103 -68t-160 -31zM291 -204q47 4 76 26t32 49
h-2q-57 0 -57 51t57 51q25 0 40 -10q26 -18 26 -68q0 -59 -40.5 -98t-87.5 -47z" />
    <glyph glyph-name="gcommaaccent" unicode="&#x123;" horiz-adv-x="603" 
d="M441 39v47q-49 -97 -181 -97q-104 0 -161 61t-57 188q0 143 58 207.5t170 64.5q62 0 108 -27.5t67 -68.5v86h78v-456q0 -122 -60.5 -176.5t-183.5 -54.5q-62 0 -115 18.5t-74 39.5v107q23 -35 71 -62.5t119 -27.5q82 0 121.5 34.5t39.5 116.5zM283 435q-83 0 -120 -44.5
t-37 -147.5q0 -96 40.5 -137.5t115.5 -41.5q79 0 119 43t40 123v47q-2 74 -45.5 116t-112.5 42zM215 -204q47 4 76 26t32 49h-2q-57 0 -57 51t57 51q25 0 40 -10q26 -18 26 -68q0 -59 -40.5 -98t-87.5 -47z" />
    <glyph glyph-name="Hcircumflex" unicode="&#x124;" horiz-adv-x="806" 
d="M616 0v320h-426v-320h-90v700h90v-300h426v300h90v-700h-90zM451 860l137 -120h-65l-121 52l-119 -52h-65l137 120h96z" />
    <glyph glyph-name="hcircumflex" unicode="&#x125;" horiz-adv-x="588" 
d="M433 0v309q0 66 -26.5 95.5t-89.5 30.5h-3q-151 0 -151 -166v-269h-83v750h83v-356q11 51 58.5 83t118.5 32q176 0 176 -180v-329h-83zM84 925h76l137 -160h-55l-119 82l-121 -82h-55z" />
    <glyph glyph-name="Hbar" unicode="&#x126;" horiz-adv-x="806" 
d="M19 500v80h81v120h90v-120h426v120h90v-120h80v-80h-80v-500h-90v320h-426v-320h-90v500h-81zM190 500v-100h426v100h-426z" />
    <glyph glyph-name="hbar" unicode="&#x127;" horiz-adv-x="588" 
d="M10 650h70v100h83v-100h173v-74h-173v-182q11 51 58.5 83t118.5 32q176 0 176 -180v-329h-83v309q0 67 -27.5 96.5t-91.5 29.5q-151 0 -151 -166v-269h-83v576h-70v74z" />
    <glyph glyph-name="Imacron" unicode="&#x12a;" horiz-adv-x="290" 
d="M190 700v-700h-90v700h90zM-5 768v72h300v-72h-300z" />
    <glyph glyph-name="imacron" unicode="&#x12b;" horiz-adv-x="271" 
d="M94 0v500h83v-500h-83zM-15 628v72h300v-72h-300z" />
    <glyph glyph-name="Iogonek" unicode="&#x12e;" horiz-adv-x="290" 
d="M190 700v-700h-90v700h90zM236 0q-89 -67 -89 -129q0 -33 23 -49.5t67 -12.5v-44q-32 -15 -72 -15q-54 0 -83 27t-29 68q0 47 41.5 95.5t115.5 88.5z" />
    <glyph glyph-name="iogonek" unicode="&#x12f;" horiz-adv-x="271" 
d="M94 0v500h83v-500h-83zM226 0q-89 -67 -89 -129q0 -33 23 -49.5t67 -12.5v-44q-32 -15 -72 -15q-54 0 -83 27t-29 68q0 47 41.5 95.5t115.5 88.5z" />
    <glyph glyph-name="Idotaccent" unicode="&#x130;" horiz-adv-x="290" 
d="M190 700v-700h-90v700h90zM89 808q0 23 15.5 37.5t40.5 14.5t40 -14.5t15 -37.5q0 -24 -15 -38.5t-40 -14.5t-40.5 14.5t-15.5 38.5z" />
    <glyph glyph-name="dotlessi" unicode="&#x131;" horiz-adv-x="271" 
d="M94 0v500h83v-500h-83z" />
    <glyph glyph-name="Jcircumflex" unicode="&#x134;" horiz-adv-x="446" 
d="M346 700v-514q0 -95 -53 -143t-138 -48q-41 0 -79 11t-56 27v107q21 -29 53.5 -47t68.5 -18q56 0 85 27.5t29 90.5v507h90zM347 860l137 -120h-65l-121 52l-119 -52h-65l137 120h96z" />
    <glyph glyph-name="jcircumflex" unicode="&#x135;" horiz-adv-x="254" 
d="M91 -14v514h83v-518q0 -168 -155 -168q-47 0 -79 19v95q30 -35 81 -35q36 0 53 21.5t17 71.5zM91 750h76l137 -160h-55l-119 82l-121 -82h-55z" />
    <glyph glyph-name="Kcommaaccent" unicode="&#x136;" horiz-adv-x="738" 
d="M190 320v-320h-90v700h90v-310h113l272 310h114l-300 -338l339 -362h-118l-302 320h-118zM283 -204q47 4 76 26t32 49h-2q-57 0 -57 51t57 51q25 0 40 -10q26 -18 26 -68q0 -59 -40.5 -98t-87.5 -47z" />
    <glyph glyph-name="kcommaaccent" unicode="&#x137;" horiz-adv-x="535" 
d="M80 750h83v-459h67l157 209h95l-183 -236l216 -264h-105l-180 220h-67v-220h-83v750zM181 -204q47 4 76 26t32 49h-2q-57 0 -57 51t57 51q25 0 40 -10q26 -18 26 -68q0 -59 -40.5 -98t-87.5 -47z" />
    <glyph glyph-name="Lacute" unicode="&#x139;" horiz-adv-x="616" 
d="M190 700v-620h406v-80h-496v700h90zM257 740h-86l120 120h154z" />
    <glyph glyph-name="lacute" unicode="&#x13a;" horiz-adv-x="327" 
d="M312 82v-74q-32 -18 -91 -18q-141 0 -141 130v630h83v-599q0 -48 16.5 -65t59.5 -17q38 0 73 13zM117 590h-66l80 160h144z" />
    <glyph glyph-name="Lcommaaccent" unicode="&#x13b;" horiz-adv-x="616" 
d="M190 700v-620h406v-80h-496v700h90zM222 -204q47 4 76 26t32 49h-2q-57 0 -57 51t57 51q25 0 40 -10q26 -18 26 -68q0 -59 -40.5 -98t-87.5 -47z" />
    <glyph glyph-name="lcommaaccent" unicode="&#x13c;" horiz-adv-x="327" 
d="M312 82v-74q-32 -18 -91 -18q-141 0 -141 130v630h83v-599q0 -48 16.5 -65t59.5 -17q38 0 73 13zM77 -204q47 4 76 26t32 49h-2q-57 0 -57 51t57 51q25 0 40 -10q26 -18 26 -68q0 -59 -40.5 -98t-87.5 -47z" />
    <glyph glyph-name="Lcaron" unicode="&#x13d;" horiz-adv-x="616" 
d="M190 700v-620h406v-80h-496v700h90zM360 497q50 5 81.5 30t35.5 56h-2q-62 0 -62 58q0 59 62 59q26 0 43 -12q28 -20 28 -78q0 -67 -44 -111.5t-95 -54.5z" />
    <glyph glyph-name="lcaron" unicode="&#x13e;" horiz-adv-x="327" 
d="M312 82v-74q-32 -18 -91 -18q-141 0 -141 130v630h83v-599q0 -48 16.5 -65t59.5 -17q38 0 73 13zM75 497q47 5 77 30t34 56h-2q-59 0 -59 58q0 59 59 59q25 0 40 -12q27 -20 27 -78q0 -67 -41.5 -111.5t-90.5 -54.5z" />
    <glyph glyph-name="Ldot" unicode="&#x13f;" horiz-adv-x="616" 
d="M190 700v-620h406v-80h-496v700h90zM389 391q0 23 15.5 37.5t40.5 14.5t40 -14.5t15 -37.5q0 -24 -15 -38.5t-40 -14.5t-40.5 14.5t-15.5 38.5z" />
    <glyph glyph-name="ldot" unicode="&#x140;" horiz-adv-x="327" 
d="M312 82v-74q-32 -18 -91 -18q-141 0 -141 130v630h83v-599q0 -48 16.5 -65t59.5 -17q38 0 73 13zM226 401q0 23 15.5 37.5t40.5 14.5t40 -14.5t15 -37.5q0 -24 -15 -38.5t-40 -14.5t-40.5 14.5t-15.5 38.5z" />
    <glyph glyph-name="Lslash" unicode="&#x141;" horiz-adv-x="616" 
d="M362 527v-92l-172 -134v-221h406v-80h-496v231l-86 -67l-1 87l87 69v380h90v-309z" />
    <glyph glyph-name="lslash" unicode="&#x142;" horiz-adv-x="327" 
d="M282 536v-92l-119 -109v-184q0 -48 16.5 -65t59.5 -17q38 0 73 13v-74q-32 -18 -91 -18q-141 0 -141 130v140l-76 -69l-1 88l77 71v400h83v-324z" />
    <glyph glyph-name="Nacute" unicode="&#x143;" horiz-adv-x="825" 
d="M631 0l-441 555v-555h-90v700h93l442 -556v556h90v-700h-94zM361 740h-86l120 120h154z" />
    <glyph glyph-name="nacute" unicode="&#x144;" horiz-adv-x="588" 
d="M433 0v309q0 66 -26.5 95.5t-89.5 30.5h-3q-151 0 -151 -166v-269h-83v500h79v-106q14 51 62.5 83t118.5 32h2q174 -2 174 -180v-329h-83zM248 590h-66l80 160h144z" />
    <glyph glyph-name="Ncommaaccent" unicode="&#x145;" horiz-adv-x="825" 
d="M631 0l-441 555v-555h-90v700h93l442 -556v556h90v-700h-94zM326 -204q47 4 76 26t32 49h-2q-57 0 -57 51t57 51q25 0 40 -10q26 -18 26 -68q0 -59 -40.5 -98t-87.5 -47z" />
    <glyph glyph-name="ncommaaccent" unicode="&#x146;" horiz-adv-x="588" 
d="M433 0v309q0 66 -26.5 95.5t-89.5 30.5h-3q-151 0 -151 -166v-269h-83v500h79v-106q14 51 62.5 83t118.5 32h2q174 -2 174 -180v-329h-83zM208 -204q47 4 76 26t32 49h-2q-57 0 -57 51t57 51q25 0 40 -10q26 -18 26 -68q0 -59 -40.5 -98t-87.5 -47z" />
    <glyph glyph-name="Ncaron" unicode="&#x147;" horiz-adv-x="825" 
d="M631 0l-441 555v-555h-90v700h93l442 -556v556h90v-700h-94zM460 740h-96l-137 120h65l119 -52l121 52h65z" />
    <glyph glyph-name="ncaron" unicode="&#x148;" horiz-adv-x="588" 
d="M433 0v309q0 66 -26.5 95.5t-89.5 30.5h-3q-151 0 -151 -166v-269h-83v500h79v-106q14 51 62.5 83t118.5 32h2q174 -2 174 -180v-329h-83zM332 590h-76l-137 160h55l119 -82l121 82h55z" />
    <glyph glyph-name="Omacron" unicode="&#x14c;" horiz-adv-x="831" 
d="M50 351q0 158 99 258.5t267 100.5q169 -1 267.5 -98t98.5 -263q0 -158 -99 -258.5t-267 -100.5q-170 1 -268 97.5t-98 263.5zM144 350q0 -123 72 -201t201 -79q124 0 197.5 76.5t73.5 203.5q0 123 -72 201t-201 79q-125 -1 -198 -77.5t-73 -202.5zM265 768v72h300v-72
h-300z" />
    <glyph glyph-name="omacron" unicode="&#x14d;" horiz-adv-x="579" 
d="M42 252q0 125 68.5 191.5t178.5 66.5q119 -1 183.5 -67t64.5 -195q0 -125 -68.5 -191.5t-178.5 -66.5q-120 1 -184 66.5t-64 195.5zM126 252v-3q0 -187 164 -187q79 0 121 47t42 139v3q0 185 -164 187q-79 0 -121 -47t-42 -139zM139 628v72h300v-72h-300z" />
    <glyph glyph-name="Ohungarumlaut" unicode="&#x150;" horiz-adv-x="831" 
d="M50 351q0 -167 98 -263.5t268 -97.5q168 0 267 100.5t99 258.5q0 166 -98.5 263t-267.5 98q-168 0 -267 -100.5t-99 -258.5zM144 350q0 126 73 202.5t198 77.5q129 -1 201 -79t72 -201q0 -127 -73.5 -203.5t-197.5 -76.5q-129 1 -201 79t-72 201zM284 740h-76l70 120h124
zM438 740h-76l117 120h144z" />
    <glyph glyph-name="ohungarumlaut" unicode="&#x151;" horiz-adv-x="579" 
d="M42 252q0 -130 64 -195.5t184 -66.5q110 0 178.5 66.5t68.5 191.5q0 129 -64.5 195t-183.5 67q-110 0 -178.5 -66.5t-68.5 -191.5zM126 252q0 92 42 139t121 47q164 -2 164 -187v-3q0 -92 -42 -139t-121 -47q-164 0 -164 187v3zM158 590h-66l60 160h114zM312 590h-66
l107 160h134z" />
    <glyph glyph-name="OE" unicode="&#x152;" horiz-adv-x="1076" 
d="M968 400v-80h-348v-240h396v-80h-605q-176 0 -268.5 87t-92.5 249q0 188 101.5 276t273.5 88h580v-80h-385v-220h348zM144 348q0 -268 282 -268h104v540h-100q-286 0 -286 -272z" />
    <glyph glyph-name="oe" unicode="&#x153;" horiz-adv-x="876" 
d="M613 510q104 0 162.5 -62.5t58.5 -173.5v-54h-383q12 -158 164 -158q68 0 115 24t69 62v-97q-21 -26 -68 -43.5t-116 -17.5q-127 0 -189 71q-53 -72 -166 -72q-104 0 -161 61t-57 188q0 143 58 207.5t170 64.5q103 0 159 -72q67 72 184 72zM283 435q-83 0 -120 -44.5
t-37 -147.5q0 -96 40.5 -137.5t115.5 -41.5q73 0 115 39q-31 62 -31 149q0 84 30 140q-41 43 -113 43zM452 291h299v1q0 70 -38.5 108t-99.5 38q-144 0 -161 -147z" />
    <glyph glyph-name="Racute" unicode="&#x154;" horiz-adv-x="711" 
d="M569 0l-189 242q-36 -2 -56 -2h-134v-240h-90v700h224q149 0 222.5 -55t73.5 -172q0 -160 -146 -211l207 -262h-112zM318 620h-128v-300h131q103 0 154 37t51 122q0 77 -49 109t-159 32zM304 740h-86l120 120h154z" />
    <glyph glyph-name="racute" unicode="&#x155;" horiz-adv-x="380" 
d="M273 435q-115 0 -110 -166v-269h-83v500h79v-106q8 51 44.5 83t89.5 32q40 -2 57 -17v-86q-26 28 -75 29h-2zM144 590h-66l80 160h144z" />
    <glyph glyph-name="Rcommaaccent" unicode="&#x156;" horiz-adv-x="711" 
d="M569 0l-189 242q-36 -2 -56 -2h-134v-240h-90v700h224q149 0 222.5 -55t73.5 -172q0 -160 -146 -211l207 -262h-112zM318 620h-128v-300h131q103 0 154 37t51 122q0 77 -49 109t-159 32zM269 -204q47 4 76 26t32 49h-2q-57 0 -57 51t57 51q25 0 40 -10q26 -18 26 -68
q0 -59 -40.5 -98t-87.5 -47z" />
    <glyph glyph-name="rcommaaccent" unicode="&#x157;" horiz-adv-x="380" 
d="M273 435q-115 0 -110 -166v-269h-83v500h79v-106q8 51 44.5 83t89.5 32q40 -2 57 -17v-86q-26 28 -75 29h-2zM104 -204q47 4 76 26t32 49h-2q-57 0 -57 51t57 51q25 0 40 -10q26 -18 26 -68q0 -59 -40.5 -98t-87.5 -47z" />
    <glyph glyph-name="Rcaron" unicode="&#x158;" horiz-adv-x="711" 
d="M569 0l-189 242q-36 -2 -56 -2h-134v-240h-90v700h224q149 0 222.5 -55t73.5 -172q0 -160 -146 -211l207 -262h-112zM318 620h-128v-300h131q103 0 154 37t51 122q0 77 -49 109t-159 32zM403 740h-96l-137 120h65l119 -52l121 52h65z" />
    <glyph glyph-name="rcaron" unicode="&#x159;" horiz-adv-x="380" 
d="M273 435q-115 0 -110 -166v-269h-83v500h79v-106q8 51 44.5 83t89.5 32q40 -2 57 -17v-86q-26 28 -75 29h-2zM228 590h-76l-137 160h55l119 -82l121 82h55z" />
    <glyph glyph-name="Sacute" unicode="&#x15a;" horiz-adv-x="636" 
d="M544 499q-32 54 -94.5 93t-134.5 39q-75 -1 -114 -28t-39 -72q0 -35 23 -59.5t59.5 -38.5t80.5 -26t88 -27t80.5 -36.5t59.5 -60.5t23 -92q0 -91 -67 -146t-184 -55q-88 0 -159 27.5t-102 63.5v130q33 -60 103 -100.5t163 -40.5q71 0 111 30t40 85q0 46 -42.5 74
t-103 44.5t-121 37.5t-103 66.5t-42.5 116.5q0 88 68.5 137.5t177.5 49.5q77 -1 138.5 -22.5t90.5 -48.5v-141zM267 740h-86l120 120h154z" />
    <glyph glyph-name="sacute" unicode="&#x15b;" horiz-adv-x="472" 
d="M405 344q-26 43 -68 68.5t-92 25.5h-2q-44 0 -72.5 -17t-28.5 -49q0 -29 29 -47.5t70 -30.5t82 -27.5t70 -47.5t29 -80q0 -69 -49 -108.5t-140 -40.5q-62 0 -109 17.5t-69 43.5v97q23 -38 70 -62t108 -24q51 0 78.5 19.5t27.5 54.5q0 27 -29 45.5t-70 31t-82 28t-70 48
t-29 80.5q0 63 47 102t139 39q97 0 160 -48v-118zM190 590h-66l80 160h144z" />
    <glyph glyph-name="Scircumflex" unicode="&#x15c;" horiz-adv-x="636" 
d="M544 499q-32 54 -94.5 93t-134.5 39q-75 -1 -114 -28t-39 -72q0 -35 23 -59.5t59.5 -38.5t80.5 -26t88 -27t80.5 -36.5t59.5 -60.5t23 -92q0 -91 -67 -146t-184 -55q-88 0 -159 27.5t-102 63.5v130q33 -60 103 -100.5t163 -40.5q71 0 111 30t40 85q0 46 -42.5 74
t-103 44.5t-121 37.5t-103 66.5t-42.5 116.5q0 88 68.5 137.5t177.5 49.5q77 -1 138.5 -22.5t90.5 -48.5v-141zM366 860l137 -120h-65l-121 52l-119 -52h-65l137 120h96z" />
    <glyph glyph-name="scircumflex" unicode="&#x15d;" horiz-adv-x="472" 
d="M405 344q-26 43 -68 68.5t-92 25.5h-2q-44 0 -72.5 -17t-28.5 -49q0 -29 29 -47.5t70 -30.5t82 -27.5t70 -47.5t29 -80q0 -69 -49 -108.5t-140 -40.5q-62 0 -109 17.5t-69 43.5v97q23 -38 70 -62t108 -24q51 0 78.5 19.5t27.5 54.5q0 27 -29 45.5t-70 31t-82 28t-70 48
t-29 80.5q0 63 47 102t139 39q97 0 160 -48v-118zM197 750h76l137 -160h-55l-119 82l-121 -82h-55z" />
    <glyph glyph-name="Scedilla" unicode="&#x15e;" horiz-adv-x="636" 
d="M544 499q-32 54 -94.5 93t-134.5 39q-75 -1 -114 -28t-39 -72q0 -35 23 -59.5t59.5 -38.5t80.5 -26t88 -27t80.5 -36.5t59.5 -60.5t23 -92q0 -91 -67 -146t-184 -55q-88 0 -159 27.5t-102 63.5v130q33 -60 103 -100.5t163 -40.5q71 0 111 30t40 85q0 46 -42.5 74
t-103 44.5t-121 37.5t-103 66.5t-42.5 116.5q0 88 68.5 137.5t177.5 49.5q77 -1 138.5 -22.5t90.5 -48.5v-141zM345 0l-34 -54q55 -11 80.5 -30t25.5 -51q0 -37 -33 -64.5t-76.5 -39t-89.5 -11.5v42q41 0 74.5 17t33.5 48q0 25 -22 35.5t-68 15.5l49 92h60z" />
    <glyph glyph-name="scedilla" unicode="&#x15f;" horiz-adv-x="472" 
d="M405 344q-26 43 -68 68.5t-92 25.5h-2q-44 0 -72.5 -17t-28.5 -49q0 -29 29 -47.5t70 -30.5t82 -27.5t70 -47.5t29 -80q0 -69 -49 -108.5t-140 -40.5q-62 0 -109 17.5t-69 43.5v97q23 -38 70 -62t108 -24q51 0 78.5 19.5t27.5 54.5q0 27 -29 45.5t-70 31t-82 28t-70 48
t-29 80.5q0 63 47 102t139 39q97 0 160 -48v-118zM263 0l-34 -54q55 -11 80.5 -30t25.5 -51q0 -37 -33 -64.5t-76.5 -39t-89.5 -11.5v42q41 0 74.5 17t33.5 48q0 25 -22 35.5t-68 15.5l49 92h60z" />
    <glyph glyph-name="Scaron" unicode="&#x160;" horiz-adv-x="636" 
d="M544 499q-32 54 -94.5 93t-134.5 39q-75 -1 -114 -28t-39 -72q0 -35 23 -59.5t59.5 -38.5t80.5 -26t88 -27t80.5 -36.5t59.5 -60.5t23 -92q0 -91 -67 -146t-184 -55q-88 0 -159 27.5t-102 63.5v130q33 -60 103 -100.5t163 -40.5q71 0 111 30t40 85q0 46 -42.5 74
t-103 44.5t-121 37.5t-103 66.5t-42.5 116.5q0 88 68.5 137.5t177.5 49.5q77 -1 138.5 -22.5t90.5 -48.5v-141zM366 740h-96l-137 120h65l119 -52l121 52h65z" />
    <glyph glyph-name="scaron" unicode="&#x161;" horiz-adv-x="472" 
d="M405 344q-26 43 -68 68.5t-92 25.5h-2q-44 0 -72.5 -17t-28.5 -49q0 -29 29 -47.5t70 -30.5t82 -27.5t70 -47.5t29 -80q0 -69 -49 -108.5t-140 -40.5q-62 0 -109 17.5t-69 43.5v97q23 -38 70 -62t108 -24q51 0 78.5 19.5t27.5 54.5q0 27 -29 45.5t-70 31t-82 28t-70 48
t-29 80.5q0 63 47 102t139 39q97 0 160 -48v-118zM274 590h-76l-137 160h55l119 -82l121 82h55z" />
    <glyph glyph-name="Tcedilla" unicode="&#x162;" horiz-adv-x="612" 
d="M602 700v-80h-251v-620h-90v620h-252v80h593zM333 0l-34 -54q55 -11 80.5 -30t25.5 -51q0 -37 -33 -64.5t-76.5 -39t-89.5 -11.5v42q41 0 74.5 17t33.5 48q0 25 -22 35.5t-68 15.5l49 92h60z" />
    <glyph glyph-name="tcedilla" unicode="&#x163;" horiz-adv-x="432" 
d="M20 500h103v109l83 31v-140h181v-74h-181v-259q0 -58 18.5 -80t69.5 -22q61 0 113 32v-73q-17 -14 -51 -24t-66 -10q-86 0 -126.5 36.5t-40.5 119.5v280h-103v74zM243 0l-34 -54q55 -11 80.5 -30t25.5 -51q0 -37 -33 -64.5t-76.5 -39t-89.5 -11.5v42q41 0 74.5 17
t33.5 48q0 25 -22 35.5t-68 15.5l49 92h60z" />
    <glyph glyph-name="Tcaron" unicode="&#x164;" horiz-adv-x="612" 
d="M602 700v-80h-251v-620h-90v620h-252v80h593zM354 740h-96l-137 120h65l119 -52l121 52h65z" />
    <glyph glyph-name="tcaron" unicode="&#x165;" horiz-adv-x="432" 
d="M20 500h103v109l83 31v-140h181v-74h-181v-259q0 -58 18.5 -80t69.5 -22q61 0 113 32v-73q-17 -14 -51 -24t-66 -10q-86 0 -126.5 36.5t-40.5 119.5v280h-103v74zM128 497q47 5 77 30t34 56h-2q-59 0 -59 58q0 59 59 59q25 0 40 -12q27 -20 27 -78q0 -67 -41.5 -111.5
t-90.5 -54.5z" />
    <glyph glyph-name="Umacron" unicode="&#x16a;" horiz-adv-x="786" 
d="M185 700v-405q0 -63 18 -109t50 -70t69.5 -35t82.5 -11q89 0 142.5 47t53.5 166v417h90v-413q0 -154 -81 -225.5t-215 -71.5q-142 0 -221 75t-79 214v421h90zM243 768v72h300v-72h-300z" />
    <glyph glyph-name="umacron" unicode="&#x16b;" horiz-adv-x="582" 
d="M274 65q145 1 145 166v269h83v-500h-79v106q-14 -51 -60.5 -82.5t-114.5 -32.5h-2h-2q-172 3 -172 180v329h83v-309q0 -67 27.5 -96.5t91.5 -29.5zM141 628v72h300v-72h-300z" />
    <glyph glyph-name="Ubreve" unicode="&#x16c;" horiz-adv-x="786" 
d="M185 700v-405q0 -63 18 -109t50 -70t69.5 -35t82.5 -11q89 0 142.5 47t53.5 166v417h90v-413q0 -154 -81 -225.5t-215 -71.5q-142 0 -221 75t-79 214v421h90zM393 740q-68 0 -111.5 32.5t-60.5 87.5h47q50 -45 125 -45q91 0 125 45h47q-18 -58 -62.5 -89t-109.5 -31z" />
    <glyph glyph-name="ubreve" unicode="&#x16d;" horiz-adv-x="582" 
d="M274 65q145 1 145 166v269h83v-500h-79v106q-14 -51 -60.5 -82.5t-114.5 -32.5h-2h-2q-172 3 -172 180v329h83v-309q0 -67 27.5 -96.5t91.5 -29.5zM281 590q-69 0 -110.5 43t-51.5 117h47q30 -80 115 -80t115 80h47q-10 -72 -54 -116t-108 -44z" />
    <glyph glyph-name="Uring" unicode="&#x16e;" horiz-adv-x="786" 
d="M185 700v-405q0 -63 18 -109t50 -70t69.5 -35t82.5 -11q89 0 142.5 47t53.5 166v417h90v-413q0 -154 -81 -225.5t-215 -71.5q-142 0 -221 75t-79 214v421h90zM268 780q0 39 33.5 59.5t91.5 20.5t91 -20.5t33 -59.5t-33 -59.5t-91 -20.5t-91.5 20.5t-33.5 59.5zM333 780
q0 -35 60 -35q59 0 59 35t-59 35q-60 0 -60 -35z" />
    <glyph glyph-name="uring" unicode="&#x16f;" horiz-adv-x="582" 
d="M274 65q145 1 145 166v269h83v-500h-79v106q-14 -51 -60.5 -82.5t-114.5 -32.5h-2h-2q-172 3 -172 180v329h83v-309q0 -67 27.5 -96.5t91.5 -29.5zM182 695q0 48 29 76.5t80 28.5t80 -28.5t29 -76.5t-29 -76.5t-80 -28.5t-80 28.5t-29 76.5zM238 695q0 -25 14 -40t39 -15
q24 0 38.5 15t14.5 40t-14.5 40t-38.5 15q-25 0 -39 -15t-14 -40z" />
    <glyph glyph-name="Uhungarumlaut" unicode="&#x170;" horiz-adv-x="786" 
d="M185 700v-405q0 -63 18 -109t50 -70t69.5 -35t82.5 -11q89 0 142.5 47t53.5 166v417h90v-413q0 -154 -81 -225.5t-215 -71.5q-142 0 -221 75t-79 214v421h90zM261 740h-76l70 120h124zM415 740h-76l117 120h144z" />
    <glyph glyph-name="uhungarumlaut" unicode="&#x171;" horiz-adv-x="582" 
d="M274 65q145 1 145 166v269h83v-500h-79v106q-14 -51 -60.5 -82.5t-114.5 -32.5h-2h-2q-172 3 -172 180v329h83v-309q0 -67 27.5 -96.5t91.5 -29.5zM159 590h-66l60 160h114zM313 590h-66l107 160h134z" />
    <glyph glyph-name="Uogonek" unicode="&#x172;" horiz-adv-x="786" 
d="M185 700v-405q0 -63 18 -109t50 -70t69.5 -35t82.5 -11q89 0 142.5 47t53.5 166v417h90v-413q0 -154 -81 -225.5t-215 -71.5q-142 0 -221 75t-79 214v421h90zM484 0q-89 -67 -89 -129q0 -33 23 -49.5t67 -12.5v-44q-32 -15 -72 -15q-54 0 -83 27t-29 68q0 47 41.5 95.5
t115.5 88.5z" />
    <glyph glyph-name="uogonek" unicode="&#x173;" horiz-adv-x="582" 
d="M274 65q145 1 145 166v269h83v-500h-79v106q-14 -51 -60.5 -82.5t-114.5 -32.5h-2h-2q-172 3 -172 180v329h83v-309q0 -67 27.5 -96.5t91.5 -29.5zM382 0q-89 -67 -89 -129q0 -33 23 -49.5t67 -12.5v-44q-32 -15 -72 -15q-54 0 -83 27t-29 68q0 47 41.5 95.5t115.5 88.5z
" />
    <glyph glyph-name="Ydieresis" unicode="&#x178;" horiz-adv-x="632" 
d="M627 700l-265 -433v-267h-90v267l-267 433h102l214 -350l207 350h99zM364 808q0 23 15.5 37.5t40.5 14.5t40 -14.5t15 -37.5q0 -24 -15 -38.5t-40 -14.5t-40.5 14.5t-15.5 38.5zM156 808q0 23 15.5 37.5t40.5 14.5t40 -14.5t15 -37.5q0 -24 -15 -38.5t-40 -14.5
t-40.5 14.5t-15.5 38.5z" />
    <glyph glyph-name="Zacute" unicode="&#x179;" horiz-adv-x="612" 
d="M40 620v80h537v-60l-429 -560h424v-80h-542v60l432 560h-422zM255 740h-86l120 120h154z" />
    <glyph glyph-name="zacute" unicode="&#x17a;" horiz-adv-x="490" 
d="M455 0h-420v61l307 365h-291v74h402v-61l-311 -365h313v-74zM199 590h-66l80 160h144z" />
    <glyph glyph-name="Zdotaccent" unicode="&#x17b;" horiz-adv-x="612" 
d="M40 620v80h537v-60l-429 -560h424v-80h-542v60l432 560h-422zM250 808q0 23 15.5 37.5t40.5 14.5t40 -14.5t15 -37.5q0 -24 -15 -38.5t-40 -14.5t-40.5 14.5t-15.5 38.5z" />
    <glyph glyph-name="zdotaccent" unicode="&#x17c;" horiz-adv-x="490" 
d="M455 0h-420v61l307 365h-291v74h402v-61l-311 -365h313v-74zM189 653q0 23 15.5 37.5t40.5 14.5t40 -14.5t15 -37.5q0 -24 -15 -38.5t-40 -14.5t-40.5 14.5t-15.5 38.5z" />
    <glyph glyph-name="Zcaron" unicode="&#x17d;" horiz-adv-x="612" 
d="M40 620v80h537v-60l-429 -560h424v-80h-542v60l432 560h-422zM354 740h-96l-137 120h65l119 -52l121 52h65z" />
    <glyph glyph-name="zcaron" unicode="&#x17e;" horiz-adv-x="490" 
d="M455 0h-420v61l307 365h-291v74h402v-61l-311 -365h313v-74zM283 590h-76l-137 160h55l119 -82l121 82h55z" />
    <glyph glyph-name="Schwa" unicode="&#x18f;" horiz-adv-x="792" 
d="M158 498v141q29 27 91 48.5t141 22.5q163 0 258 -97t95 -264q0 -158 -95.5 -258.5t-256.5 -100.5q-150 1 -245.5 86.5t-95.5 241.5v82h599q-14 103 -81 166t-178 64q-74 0 -137 -39t-95 -93zM391 70q113 0 182.5 67.5t77.5 182.5h-512v-3q0 -112 68 -179t184 -68z" />
    <glyph glyph-name="florin" unicode="&#x192;" horiz-adv-x="416" 
d="M42 496h82l8 74q10 94 56.5 137.5t118.5 43.5q56 0 89 -28v-98q-30 47 -94 47q-77 0 -87 -102l-8 -74h161v-74h-169l-44 -422l-1 -14q0 -168 -155 -168q-47 0 -79 19v95q30 -35 81 -35q36 0 53 21.5t17 71.5l1 10l44 422h-74v74z" />
    <glyph glyph-name="eturn" unicode="&#x1dd;" horiz-adv-x="564" 
d="M83 462q71 48 178 48q120 0 184.5 -66t64.5 -196q0 -125 -68.5 -191.5t-178.5 -66.5q-104 0 -162.5 62.5t-58.5 173.5v54h383q-13 158 -164 158q-56 0 -102.5 -25.5t-75.5 -68.5v118zM263 62q143 0 161 147h-299v-1q0 -70 38.5 -108t99.5 -38z" />
    <glyph glyph-name="Gcaron" unicode="&#x1e6;" horiz-adv-x="754" 
d="M416 -10q-170 1 -268 97.5t-98 263.5q0 158 98.5 258t265.5 101q79 0 141 -22t91 -49v-141q-32 54 -95 93t-137 39q-124 -1 -197 -77.5t-73 -202.5q0 -123 71.5 -201t200.5 -79q122 0 180 50v170h-156v80h239v-281q-24 -37 -103 -68t-160 -31zM449 740h-96l-137 120h65
l119 -52l121 52h65z" />
    <glyph glyph-name="Scommaaccent" unicode="&#x218;" horiz-adv-x="636" 
d="M544 499q-32 54 -94.5 93t-134.5 39q-75 -1 -114 -28t-39 -72q0 -35 23 -59.5t59.5 -38.5t80.5 -26t88 -27t80.5 -36.5t59.5 -60.5t23 -92q0 -91 -67 -146t-184 -55q-88 0 -159 27.5t-102 63.5v130q33 -60 103 -100.5t163 -40.5q71 0 111 30t40 85q0 46 -42.5 74
t-103 44.5t-121 37.5t-103 66.5t-42.5 116.5q0 88 68.5 137.5t177.5 49.5q77 -1 138.5 -22.5t90.5 -48.5v-141zM232 -204q47 4 76 26t32 49h-2q-57 0 -57 51t57 51q25 0 40 -10q26 -18 26 -68q0 -59 -40.5 -98t-87.5 -47z" />
    <glyph glyph-name="scommaaccent" unicode="&#x219;" horiz-adv-x="472" 
d="M405 344q-26 43 -68 68.5t-92 25.5h-2q-44 0 -72.5 -17t-28.5 -49q0 -29 29 -47.5t70 -30.5t82 -27.5t70 -47.5t29 -80q0 -69 -49 -108.5t-140 -40.5q-62 0 -109 17.5t-69 43.5v97q23 -38 70 -62t108 -24q51 0 78.5 19.5t27.5 54.5q0 27 -29 45.5t-70 31t-82 28t-70 48
t-29 80.5q0 63 47 102t139 39q97 0 160 -48v-118zM150 -204q47 4 76 26t32 49h-2q-57 0 -57 51t57 51q25 0 40 -10q26 -18 26 -68q0 -59 -40.5 -98t-87.5 -47z" />
    <glyph glyph-name="Tcommaaccent" unicode="&#x21a;" horiz-adv-x="612" 
d="M602 700v-80h-251v-620h-90v620h-252v80h593zM220 -204q47 4 76 26t32 49h-2q-57 0 -57 51t57 51q25 0 40 -10q26 -18 26 -68q0 -59 -40.5 -98t-87.5 -47z" />
    <glyph glyph-name="tcommaaccent" unicode="&#x21b;" horiz-adv-x="432" 
d="M20 500h103v109l83 31v-140h181v-74h-181v-259q0 -58 18.5 -80t69.5 -22q61 0 113 32v-73q-17 -14 -51 -24t-66 -10q-86 0 -126.5 36.5t-40.5 119.5v280h-103v74zM130 -204q47 4 76 26t32 49h-2q-57 0 -57 51t57 51q25 0 40 -10q26 -18 26 -68q0 -59 -40.5 -98t-87.5 -47
z" />
    <glyph glyph-name="dotlessj" unicode="&#x237;" horiz-adv-x="254" 
d="M91 -14v514h83v-518q0 -168 -155 -168q-47 0 -79 19v95q30 -35 81 -35q36 0 53 21.5t17 71.5z" />
    <glyph glyph-name="schwa" unicode="&#x259;" horiz-adv-x="564" 
d="M83 462q71 48 178 48q120 0 184.5 -66t64.5 -196q0 -125 -68.5 -191.5t-178.5 -66.5q-104 0 -162.5 62.5t-58.5 173.5v54h383q-13 158 -164 158q-56 0 -102.5 -25.5t-75.5 -68.5v118zM263 62q143 0 161 147h-299v-1q0 -70 38.5 -108t99.5 -38z" />
    <glyph glyph-name="afii57929" unicode="&#x2bc;" horiz-adv-x="256" 
d="M40 497q47 5 77 30t34 56h-2q-59 0 -59 58q0 59 59 59q25 0 40 -12q27 -20 27 -78q0 -67 -41.5 -111.5t-90.5 -54.5z" />
    <glyph glyph-name="circumflex" unicode="&#x2c6;" horiz-adv-x="430" 
d="M177 750h76l137 -160h-55l-119 82l-121 -82h-55z" />
    <glyph glyph-name="caron" unicode="&#x2c7;" horiz-adv-x="430" 
d="M253 590h-76l-137 160h55l119 -82l121 82h55z" />
    <glyph glyph-name="breve" unicode="&#x2d8;" horiz-adv-x="404" 
d="M202 590q-69 0 -110.5 43t-51.5 117h47q30 -80 115 -80t115 80h47q-10 -72 -54 -116t-108 -44z" />
    <glyph glyph-name="dotaccent" unicode="&#x2d9;" horiz-adv-x="191" 
d="M40 653q0 23 15.5 37.5t40.5 14.5t40 -14.5t15 -37.5q0 -24 -15 -38.5t-40 -14.5t-40.5 14.5t-15.5 38.5z" />
    <glyph glyph-name="ring" unicode="&#x2da;" horiz-adv-x="298" 
d="M40 695q0 48 29 76.5t80 28.5t80 -28.5t29 -76.5t-29 -76.5t-80 -28.5t-80 28.5t-29 76.5zM96 695q0 -25 14 -40t39 -15q24 0 38.5 15t14.5 40t-14.5 40t-38.5 15q-25 0 -39 -15t-14 -40z" />
    <glyph glyph-name="ogonek" unicode="&#x2db;" horiz-adv-x="264" 
d="M223 0q-89 -67 -89 -129q0 -33 23 -49.5t67 -12.5v-44q-32 -15 -72 -15q-54 0 -83 27t-29 68q0 47 41.5 95.5t115.5 88.5z" />
    <glyph glyph-name="tilde" unicode="&#x2dc;" horiz-adv-x="452" 
d="M412 730q-18 -71 -48 -100.5t-75 -29.5q-31 0 -80.5 23.5t-67.5 23.5q-31 0 -51 -47h-50q19 69 53 99t68 30q25 0 72.5 -23.5t64.5 -23.5q43 0 64 48h50z" />
    <glyph glyph-name="hungarumlaut" unicode="&#x2dd;" horiz-adv-x="475" 
d="M106 590h-66l60 160h114zM260 590h-66l107 160h134z" />
    <glyph glyph-name="acutecomb" unicode="&#x301;" horiz-adv-x="404" 
d="M246 590h-66l80 160h144z" />
    <glyph glyph-name="Delta" unicode="&#x394;" 
d="M362 700l248 -700h-599l248 700h103zM310 611l-188 -531h376z" />
    <glyph glyph-name="Delta" unicode="&#x2206;" 
d="M362 700l248 -700h-599l248 700h103zM310 611l-188 -531h376z" />
    <glyph glyph-name="Omega" unicode="&#x3a9;" horiz-adv-x="831" 
d="M45 0v80h122q-127 87 -127 281q0 158 100 253.5t276 95.5q177 -1 276.5 -93t99.5 -258q0 -190 -132 -279h129v-80h-353v80q125 0 193.5 71.5t68.5 198.5q0 124 -73.5 201.5t-209.5 78.5q-132 -1 -206.5 -77t-74.5 -203q0 -123 67 -196t196 -74v-80h-352z" />
    <glyph glyph-name="Omega" unicode="&#x2126;" horiz-adv-x="831" 
d="M45 0v80h122q-127 87 -127 281q0 158 100 253.5t276 95.5q177 -1 276.5 -93t99.5 -258q0 -190 -132 -279h129v-80h-353v80q125 0 193.5 71.5t68.5 198.5q0 124 -73.5 201.5t-209.5 78.5q-132 -1 -206.5 -77t-74.5 -203q0 -123 67 -196t196 -74v-80h-352z" />
    <glyph glyph-name="pi" unicode="&#x3c0;" horiz-adv-x="702" 
d="M672 82v-74q-32 -18 -91 -18q-141 0 -141 130v306h-237v-426h-83v426h-80v74h570v-74h-87v-275q0 -48 16.5 -65t59.5 -17q38 0 73 13z" />
    <glyph glyph-name="afii10023" unicode="&#x401;" horiz-adv-x="646" 
d="M100 0v700h475v-80h-385v-220h348v-80h-348v-240h396v-80h-486zM390 808q0 23 15.5 37.5t40.5 14.5t40 -14.5t15 -37.5q0 -24 -15 -38.5t-40 -14.5t-40.5 14.5t-15.5 38.5zM182 808q0 23 15.5 37.5t40.5 14.5t40 -14.5t15 -37.5q0 -24 -15 -38.5t-40 -14.5t-40.5 14.5
t-15.5 38.5z" />
    <glyph glyph-name="afii10051" unicode="&#x402;" horiz-adv-x="823" 
d="M602 700v-80h-251v-191q77 31 177 31q125 0 186 -50t61 -134v-90q0 -95 -53 -143t-138 -48q-41 0 -79 11t-56 27v107q21 -29 53.5 -47t68.5 -18q56 0 85 27.5t29 90.5v41q0 76 -39 111.5t-136 35.5q-98 0 -159 -27v-354h-90v620h-252v80h593z" />
    <glyph glyph-name="afii10052" unicode="&#x403;" horiz-adv-x="585" 
d="M566 700v-80h-376v-620h-90v700h466zM241 740h-86l120 120h154z" />
    <glyph glyph-name="afii10053" unicode="&#x404;" horiz-adv-x="707" 
d="M494 400v-80h-349q9 -110 78 -179t187 -71q91 0 158 40.5t99 100.5v-130q-30 -36 -98.5 -63.5t-154.5 -27.5q-168 1 -266 98t-98 263q0 158 99 258.5t267 100.5q79 0 141 -22t91 -49v-141q-32 54 -95 93t-137 39q-112 0 -183.5 -62t-85.5 -168h347z" />
    <glyph glyph-name="afii10054" unicode="&#x405;" horiz-adv-x="636" 
d="M544 499q-32 54 -94.5 93t-134.5 39q-75 -1 -114 -28t-39 -72q0 -35 23 -59.5t59.5 -38.5t80.5 -26t88 -27t80.5 -36.5t59.5 -60.5t23 -92q0 -91 -67 -146t-184 -55q-88 0 -159 27.5t-102 63.5v130q33 -60 103 -100.5t163 -40.5q71 0 111 30t40 85q0 46 -42.5 74
t-103 44.5t-121 37.5t-103 66.5t-42.5 116.5q0 88 68.5 137.5t177.5 49.5q77 -1 138.5 -22.5t90.5 -48.5v-141z" />
    <glyph glyph-name="afii10055" unicode="&#x406;" horiz-adv-x="290" 
d="M190 700v-700h-90v700h90z" />
    <glyph glyph-name="afii10056" unicode="&#x407;" horiz-adv-x="290" 
d="M190 700v-700h-90v700h90zM170 815q0 20 12.5 32.5t33.5 12.5q20 0 32 -12.5t12 -32.5q0 -21 -12 -34t-32 -13q-21 0 -33.5 13t-12.5 34zM30 815q0 20 12.5 32.5t33.5 12.5q20 0 32 -12.5t12 -32.5q0 -21 -12 -34t-32 -13q-21 0 -33.5 13t-12.5 34z" />
    <glyph glyph-name="afii10057" unicode="&#x408;" horiz-adv-x="446" 
d="M346 700v-514q0 -95 -53 -143t-138 -48q-41 0 -79 11t-56 27v107q21 -29 53.5 -47t68.5 -18q56 0 85 27.5t29 90.5v507h90z" />
    <glyph glyph-name="afii10058" unicode="&#x409;" horiz-adv-x="1093" 
d="M564 0v620h-294l-3 -68q-8 -148 -24 -253.5t-34.5 -164t-45.5 -91.5t-50.5 -42t-55.5 -9q-24 0 -42 6v97q13 -5 27 -5q18 0 31.5 7t31.5 34t31 75t25 137t18 212l7 145h468v-240h95q149 0 222.5 -55t73.5 -172q0 -115 -76 -174t-220 -59h-185zM743 380h-89v-300h92
q103 0 154 37t51 122q0 77 -49 109t-159 32z" />
    <glyph glyph-name="afii10059" unicode="&#x40a;" horiz-adv-x="1153" 
d="M596 0v339h-406v-339h-90v700h90v-281h406v281h90v-280h123q153 0 224.5 -46.5t71.5 -160.5q0 -112 -74 -162.5t-222 -50.5h-213zM803 340h-117v-260h120q108 0 156.5 28t48.5 111q0 75 -46 98t-162 23z" />
    <glyph glyph-name="afii10060" unicode="&#x40b;" horiz-adv-x="824" 
d="M602 700v-80h-251v-191q72 31 178 31q125 0 186 -50t61 -134v-276h-90v234q0 76 -39 111.5t-136 35.5q-95 0 -160 -27v-354h-90v620h-252v80h593z" />
    <glyph glyph-name="afii10061" unicode="&#x40c;" horiz-adv-x="738" 
d="M190 0v320h118l302 -320h118l-339 362l300 338h-114l-272 -310h-113v310h-90v-700h90zM318 740h-86l120 120h154z" />
    <glyph glyph-name="afii10062" unicode="&#x40e;" horiz-adv-x="699" 
d="M246 77q53 0 83 63l-314 560h106l257 -453l212 453h94l-270 -569q-38 -80 -74.5 -109.5t-87.5 -29.5q-35 0 -64 13v100q21 -28 58 -28zM456 880h81q-7 -67 -57 -102t-125 -35q-37 0 -65.5 5t-58 19t-47.5 42.5t-22 70.5h87q10 -67 104 -67t103 67z" />
    <glyph glyph-name="afii10145" unicode="&#x40f;" horiz-adv-x="793" 
d="M100 0v700h90v-620h413v620h90v-700h-254v-130h-84v130h-255z" />
    <glyph glyph-name="afii10017" unicode="&#x410;" horiz-adv-x="699" 
d="M294 700h107l292 -700h-98l-78 187h-343l-75 -187h-94zM344 607l-137 -340h277z" />
    <glyph glyph-name="afii10018" unicode="&#x411;" horiz-adv-x="678" 
d="M100 0v700h479v-80h-389v-160h137q149 0 222.5 -55t73.5 -172q0 -115 -76 -174t-220 -59h-227zM321 380h-131v-300h134q103 0 154 37t51 122q0 77 -49 109t-159 32z" />
    <glyph glyph-name="afii10019" unicode="&#x412;" horiz-adv-x="699" 
d="M359 0h-259v700h290q223 0 223 -170q0 -129 -112 -165q133 -17 133 -161q0 -204 -275 -204zM190 80h182q171 0 171 123q0 64 -44 90t-124 26h-185v-239zM190 391h177q67 0 111.5 32.5t44.5 89.5q0 107 -153 107h-180v-229z" />
    <glyph glyph-name="afii10020" unicode="&#x413;" horiz-adv-x="585" 
d="M566 700v-80h-376v-620h-90v700h466z" />
    <glyph glyph-name="afii10021" unicode="&#x414;" horiz-adv-x="753" 
d="M5 80h84q73 177 77 475l2 145h470v-620h90v-210h-84v130h-555v-130h-84v210zM246 552q-6 -293 -72 -472h374v540h-301z" />
    <glyph glyph-name="afii10022" unicode="&#x415;" horiz-adv-x="646" 
d="M538 400v-80h-348v-240h396v-80h-486v700h475v-80h-385v-220h348z" />
    <glyph glyph-name="afii10024" unicode="&#x416;" horiz-adv-x="1002" 
d="M546 700v-310h126l184 310h96l-196 -334l231 -366h-110l-203 320h-128v-320h-90v320h-127l-204 -320h-110l232 356l-200 344h103l177 -310h129v310h90z" />
    <glyph glyph-name="afii10025" unicode="&#x417;" horiz-adv-x="643" 
d="M71 498v141q29 27 91 49t141 22q107 -1 173 -44t66 -128q0 -126 -119 -169q155 -26 155 -170q0 -89 -70.5 -148.5t-192.5 -60.5q-90 0 -162 27.5t-103 63.5v130q33 -60 104 -100.5t166 -40.5q73 2 118 37.5t45 98.5q0 57 -41 84.5t-131 27.5h-111v75h110q138 0 138 121
q0 55 -42.5 84.5t-102.5 31.5q-74 1 -137 -38t-95 -94z" />
    <glyph glyph-name="afii10026" unicode="&#x418;" horiz-adv-x="825" 
d="M190 700v-572l441 572h94v-700h-90v576l-441 -576h-94v700h90z" />
    <glyph glyph-name="afii10027" unicode="&#x419;" horiz-adv-x="825" 
d="M190 700v-572l441 572h94v-700h-90v576l-441 -576h-94v700h90zM513 880h81q-7 -67 -57 -102t-125 -35q-37 0 -65.5 5t-58 19t-47.5 42.5t-22 70.5h87q10 -67 104 -67t103 67z" />
    <glyph glyph-name="afii10028" unicode="&#x41a;" horiz-adv-x="738" 
d="M190 320v-320h-90v700h90v-310h113l272 310h114l-300 -338l339 -362h-118l-302 320h-118z" />
    <glyph glyph-name="afii10029" unicode="&#x41b;" horiz-adv-x="774" 
d="M584 0v620h-314l-3 -68q-8 -148 -24 -253.5t-34.5 -164t-45.5 -91.5t-50.5 -42t-55.5 -9q-24 0 -42 6v97q13 -5 27 -5q18 0 31.5 7t31.5 34t31 75t25 137t18 212l7 145h488v-700h-90z" />
    <glyph glyph-name="afii10030" unicode="&#x41c;" horiz-adv-x="941" 
d="M751 0v565l-259 -415h-37l-265 410v-560h-90v700h110l267 -425l265 425h99v-700h-90z" />
    <glyph glyph-name="afii10031" unicode="&#x41d;" horiz-adv-x="806" 
d="M616 0v320h-426v-320h-90v700h90v-300h426v300h90v-700h-90z" />
    <glyph glyph-name="afii10032" unicode="&#x41e;" horiz-adv-x="831" 
d="M50 351q0 158 99 258.5t267 100.5q169 -1 267.5 -98t98.5 -263q0 -158 -99 -258.5t-267 -100.5q-170 1 -268 97.5t-98 263.5zM144 350q0 -123 72 -201t201 -79q124 0 197.5 76.5t73.5 203.5q0 123 -72 201t-201 79q-125 -1 -198 -77.5t-73 -202.5z" />
    <glyph glyph-name="afii10033" unicode="&#x41f;" horiz-adv-x="805" 
d="M615 0v620h-425v-620h-90v700h605v-700h-90z" />
    <glyph glyph-name="afii10034" unicode="&#x420;" horiz-adv-x="673" 
d="M327 240h-137v-240h-90v700h227q149 0 222.5 -55t73.5 -172q0 -115 -76 -174t-220 -59zM321 620h-131v-300h134q103 0 154 37t51 122q0 77 -49 109t-159 32z" />
    <glyph glyph-name="afii10035" unicode="&#x421;" horiz-adv-x="707" 
d="M667 211v-130q-30 -36 -98.5 -63.5t-154.5 -27.5q-168 1 -266 98t-98 263q0 158 99 258.5t267 100.5q79 0 141 -22t91 -49v-141q-32 54 -95 93t-137 39q-125 0 -198.5 -76.5t-73.5 -203.5q0 -121 69.5 -199t196.5 -81q91 0 158 40.5t99 100.5z" />
    <glyph glyph-name="afii10036" unicode="&#x422;" horiz-adv-x="612" 
d="M602 700v-80h-251v-620h-90v620h-252v80h593z" />
    <glyph glyph-name="afii10037" unicode="&#x423;" horiz-adv-x="699" 
d="M246 77q53 0 83 63l-314 560h106l257 -453l212 453h94l-270 -569q-38 -80 -74.5 -109.5t-87.5 -29.5q-35 0 -64 13v100q21 -28 58 -28z" />
    <glyph glyph-name="afii10038" unicode="&#x424;" horiz-adv-x="934" 
d="M512 720v-53h39q159 0 246 -81.5t87 -227.5q0 -152 -89.5 -231.5t-252.5 -79.5h-30v-67h-90v67h-39q-159 0 -246 81.5t-87 227.5q0 152 89.5 231.5t252.5 79.5h30v53h90zM144 364q0 -122 65 -182.5t179 -60.5h34v472h-32q-246 0 -246 -229zM546 593h-34v-472h32
q246 0 246 229q0 122 -65 182.5t-179 60.5z" />
    <glyph glyph-name="afii10039" unicode="&#x425;" horiz-adv-x="676" 
d="M10 0l263 356l-250 344h106l207 -284l219 284h102l-264 -337l273 -363h-106l-228 301l-220 -301h-102z" />
    <glyph glyph-name="afii10040" unicode="&#x426;" horiz-adv-x="808" 
d="M100 0v700h90v-620h413v620h90v-620h90v-210h-84v130h-599z" />
    <glyph glyph-name="afii10041" unicode="&#x427;" horiz-adv-x="707" 
d="M160 700v-231q0 -76 39 -111.5t136 -35.5q124 0 182 39v339h90v-700h-90v285q-28 -18 -84.5 -30t-115.5 -12q-125 0 -186 50t-61 134v273h90z" />
    <glyph glyph-name="afii10042" unicode="&#x428;" horiz-adv-x="1036" 
d="M563 700v-620h283v620h90v-700h-836v700h90v-620h283v620h90z" />
    <glyph glyph-name="afii10043" unicode="&#x429;" horiz-adv-x="1051" 
d="M563 700v-620h283v620h90v-620h90v-210h-84v130h-842v700h90v-620h283v620h90z" />
    <glyph glyph-name="afii10044" unicode="&#x42a;" horiz-adv-x="748" 
d="M19 620v80h258v-240h127q149 0 222.5 -55t73.5 -172q0 -115 -76 -174t-220 -59h-217v620h-168zM398 380h-121v-300h124q103 0 154 37t51 122q0 77 -49 109t-159 32z" />
    <glyph glyph-name="afii10045" unicode="&#x42b;" horiz-adv-x="896" 
d="M190 700v-240h115q149 0 222.5 -55t73.5 -172q0 -115 -76 -174t-220 -59h-205v700h90zM299 380h-109v-300h112q103 0 154 37t51 122q0 77 -49 109t-159 32zM706 0v700h90v-700h-90z" />
    <glyph glyph-name="afii10046" unicode="&#x42c;" horiz-adv-x="663" 
d="M190 700v-240h129q149 0 222.5 -55t73.5 -172q0 -115 -76 -174t-220 -59h-219v700h90zM313 380h-123v-300h126q103 0 154 37t51 122q0 77 -49 109t-159 32z" />
    <glyph glyph-name="afii10047" unicode="&#x42d;" horiz-adv-x="721" 
d="M61 498v141q31 27 96 48.5t148 22.5q170 0 268.5 -97t98.5 -264q0 -158 -99 -258.5t-267 -100.5q-87 0 -155.5 27.5t-99.5 63.5v130q33 -60 100.5 -100.5t159.5 -40.5q116 1 187 68.5t79 181.5h-380v80h378q-14 104 -83.5 166.5t-186.5 63.5q-78 0 -144 -39t-100 -93z
" />
    <glyph glyph-name="afii10048" unicode="&#x42e;" horiz-adv-x="1078" 
d="M665 -10q-154 0 -247 88t-102 242h-126v-320h-90v700h90v-300h127q15 139 107 224t238 86q170 0 268.5 -97t98.5 -264q0 -158 -98.5 -258t-265.5 -101zM935 350q0 123 -72 201t-201 79q-118 -1 -187.5 -77.5t-69.5 -202.5q0 -123 68 -201t192 -79q125 1 197.5 77
t72.5 203z" />
    <glyph glyph-name="afii10049" unicode="&#x42f;" horiz-adv-x="705" 
d="M515 0v240h-146q-43 0 -62 2l-169 -242h-108l187 260q-144 45 -144 207q0 115 76 174t220 59h236v-700h-90zM167 461q0 -77 49 -109t159 -32h140v300h-143q-103 0 -154 -37t-51 -122z" />
    <glyph glyph-name="afii10065" unicode="&#x430;" horiz-adv-x="535" 
d="M88 344v118q63 48 170 48q102 0 153.5 -41t51.5 -139v-330h-79v85q-20 -42 -65.5 -67.5t-103.5 -25.5q-76 0 -120.5 40t-44.5 115q0 79 52.5 110.5t158.5 31.5h119v40q0 60 -31.5 84.5t-90.5 24.5q-113 0 -170 -94zM236 69q68 0 103.5 32.5t40.5 67.5v54h-116
q-70 0 -99.5 -15t-29.5 -56q0 -38 26 -60.5t75 -22.5z" />
    <glyph glyph-name="afii10066" unicode="&#x431;" horiz-adv-x="588" 
d="M500 771v-90q-21 -12 -150 -21q-67 -5 -110.5 -24t-68 -56t-35 -79t-16.5 -109q70 108 203 108q223 0 223 -243q0 -132 -63.5 -199.5t-182.5 -67.5q-129 0 -190.5 80t-61.5 252q0 207 54.5 302t184.5 113q9 1 63.5 6.5t93 12t56.5 15.5zM134 263q0 -90 41.5 -142
t120.5 -52q75 0 118.5 43t43.5 135q0 177 -157 177q-77 0 -122 -42.5t-45 -118.5z" />
    <glyph glyph-name="afii10067" unicode="&#x432;" horiz-adv-x="543" 
d="M80 0v500h223q92 0 131 -28.5t39 -84.5q0 -96 -86 -117q54 -7 82.5 -34t28.5 -88q0 -148 -199 -148h-219zM163 72h135q117 0 117 75q0 43 -25.5 59.5t-76.5 16.5h-150v-151zM163 294h123q103 0 103 74q0 35 -22.5 47.5t-73.5 12.5l-130 -1v-133z" />
    <glyph glyph-name="afii10068" unicode="&#x433;" horiz-adv-x="474" 
d="M80 0v500h334v-74h-251v-426h-83z" />
    <glyph glyph-name="afii10069" unicode="&#x434;" horiz-adv-x="588" 
d="M15 79h60q56 122 56 364v57h352v-421h81v-209h-79v130h-391v-130h-79v209zM209 385q-5 -194 -52 -306h243v347h-190z" />
    <glyph glyph-name="afii10070" unicode="&#x435;" horiz-adv-x="552" 
d="M289 510q104 0 162.5 -62.5t58.5 -173.5v-54h-383q12 -158 164 -158q68 0 115 24t69 62v-97q-21 -26 -68 -43.5t-116 -17.5q-120 0 -184.5 66t-64.5 196q0 125 68.5 191.5t178.5 66.5zM289 438q-144 0 -161 -147h299v1q0 70 -38.5 108t-99.5 38z" />
    <glyph glyph-name="afii10072" unicode="&#x436;" horiz-adv-x="756" 
d="M336 0v220h-83l-137 -220h-96l164 259l-150 241h95l123 -209h84v209h83v-209h84l128 209h89l-147 -237l163 -263h-98l-132 220h-87v-220h-83z" />
    <glyph glyph-name="afii10073" unicode="&#x437;" horiz-adv-x="480" 
d="M50 51v97q22 -38 70 -62t113 -24q54 1 86.5 22.5t32.5 62.5q0 39 -29.5 55.5t-89.5 16.5h-75v66h60q50 0 79 20t29 60q0 36 -20.5 54t-67.5 19q-57 0 -105 -25.5t-78 -68.5v118q73 48 183 48h2q91 0 130.5 -33.5t39.5 -96.5q0 -45 -18.5 -70t-58.5 -44q102 -20 102 -114
q0 -81 -56.5 -121.5t-145.5 -40.5q-65 0 -113.5 17.5t-69.5 43.5z" />
    <glyph glyph-name="afii10074" unicode="&#x438;" horiz-adv-x="598" 
d="M154 0h-74v500h83v-372l282 372h73v-500h-83v375l-272 -363z" />
    <glyph glyph-name="afii10075" unicode="&#x439;" horiz-adv-x="598" 
d="M154 0h-74v500h83v-372l282 372h73v-500h-83v375l-272 -363zM376 749h79q0 -70 -44 -106t-108 -36q-72 0 -117.5 35.5t-45.5 106.5h80q0 -77 81 -77q36 0 55.5 16.5t19.5 60.5z" />
    <glyph glyph-name="afii10076" unicode="&#x43a;" horiz-adv-x="558" 
d="M80 0v500h83v-209h90l157 209h95l-183 -236l216 -264h-105l-180 220h-90v-220h-83z" />
    <glyph glyph-name="afii10077" unicode="&#x43b;" horiz-adv-x="569" 
d="M406 0v426h-194l-1 -38q-4 -108 -15.5 -184t-25.5 -116t-36 -62t-39.5 -27t-44.5 -5q-23 0 -40 5v89q14 -3 25 -3q23 0 36.5 8t28.5 39.5t23 105t12 193.5l2 69h352v-500h-83z" />
    <glyph glyph-name="afii10078" unicode="&#x43c;" horiz-adv-x="704" 
d="M541 0v378l-170 -250h-37l-171 250v-378h-83v500h90l186 -265l183 265h85v-500h-83z" />
    <glyph glyph-name="afii10079" unicode="&#x43d;" horiz-adv-x="590" 
d="M427 0v216h-264v-216h-83v500h83v-209h264v209h83v-500h-83z" />
    <glyph glyph-name="afii10080" unicode="&#x43e;" horiz-adv-x="579" 
d="M42 252q0 125 68.5 191.5t178.5 66.5q119 -1 183.5 -67t64.5 -195q0 -125 -68.5 -191.5t-178.5 -66.5q-120 1 -184 66.5t-64 195.5zM126 252v-3q0 -187 164 -187q79 0 121 47t42 139v3q0 185 -164 187q-79 0 -121 -47t-42 -139z" />
    <glyph glyph-name="afii10081" unicode="&#x43f;" horiz-adv-x="582" 
d="M419 0v426h-256v-426h-83v500h422v-500h-83z" />
    <glyph glyph-name="afii10082" unicode="&#x440;" horiz-adv-x="604" 
d="M80 -180v680h79v-96q20 47 67 76.5t118 29.5q104 0 161 -61t57 -188q0 -143 -58 -207.5t-170 -64.5q-59 0 -103.5 25t-67.5 63v-257h-83zM163 277v-48q0 -77 43 -121t115 -44q83 0 120 44.5t37 147.5q0 96 -40.5 137.5t-115.5 41.5q-77 0 -117 -41t-42 -117z" />
    <glyph glyph-name="afii10083" unicode="&#x441;" horiz-adv-x="499" 
d="M454 51q-19 -26 -61 -43.5t-102 -17.5q-120 0 -184.5 66t-64.5 196q0 125 68.5 191.5t178.5 66.5q97 0 160 -48v-118q-26 43 -68 68.5t-92 25.5q-79 0 -121 -47t-42 -139v-3q0 -187 165 -187q59 0 101 24t62 62v-97z" />
    <glyph glyph-name="afii10084" unicode="&#x442;" horiz-adv-x="466" 
d="M192 0v426h-167v74h416v-74h-166v-426h-83z" />
    <glyph glyph-name="afii10085" unicode="&#x443;" horiz-adv-x="502" 
d="M230 -2l-215 502h96l162 -390l135 390h89l-205 -553q-28 -75 -61.5 -104.5t-80.5 -29.5q-55 0 -80 22v86q29 -29 70 -29q28 0 50 21.5t40 84.5z" />
    <glyph glyph-name="afii10086" unicode="&#x444;" horiz-adv-x="695" 
d="M306 750h83v-250h24q116 0 178 -59t62 -191q0 -126 -63 -188t-174 -62h-27v-180h-83v180h-24q-116 0 -178 59t-62 191q0 126 63 188t174 62h27v250zM412 426h-23v-352h20q81 0 121 39.5t40 128.5q0 103 -39 143.5t-119 40.5zM125 258q0 -103 39 -143.5t119 -40.5h23v352
h-20q-81 0 -121 -39.5t-40 -128.5z" />
    <glyph glyph-name="afii10087" unicode="&#x445;" horiz-adv-x="497" 
d="M10 0l186 256l-174 244h102l127 -179l127 179h97l-176 -237l188 -263h-102l-139 199l-139 -199h-97z" />
    <glyph glyph-name="afii10088" unicode="&#x446;" horiz-adv-x="602" 
d="M80 0v500h83v-421h253v421h83v-421h79v-209h-79v130h-419z" />
    <glyph glyph-name="afii10089" unicode="&#x447;" horiz-adv-x="547" 
d="M384 0v184q-52 -28 -130 -28q-199 0 -199 174v170h83v-161q0 -108 122 -108q70 0 124 24v245h83v-500h-83z" />
    <glyph glyph-name="afii10090" unicode="&#x448;" horiz-adv-x="797" 
d="M80 0v500h83v-421h194v421h83v-421h194v421h83v-500h-637z" />
    <glyph glyph-name="afii10091" unicode="&#x449;" horiz-adv-x="818" 
d="M80 0v500h83v-421h194v421h83v-421h194v421h83v-421h77v-209h-79v130h-635z" />
    <glyph glyph-name="afii10092" unicode="&#x44a;" horiz-adv-x="600" 
d="M155 0v426h-130v74h213v-161h115q108 0 157.5 -34.5t49.5 -128.5q-1 -96 -51.5 -136t-168.5 -40h-185zM339 74q74 0 105.5 21.5t32.5 80.5q-1 55 -28 72t-105 17h-106v-191h101z" />
    <glyph glyph-name="afii10093" unicode="&#x44b;" horiz-adv-x="703" 
d="M80 0v500h83v-161h101q108 0 157 -34.5t50 -127.5q0 -97 -50.5 -137t-169.5 -40h-171zM540 0v500h83v-500h-83zM388 177q-1 54 -28.5 71t-104.5 17h-92v-191h87q75 0 106.5 21.5t31.5 81.5z" />
    <glyph glyph-name="afii10094" unicode="&#x44c;" horiz-adv-x="525" 
d="M485 176q-1 -96 -51.5 -136t-168.5 -40h-185v500h83v-161h115q108 0 157.5 -34.5t49.5 -128.5zM402 177q-1 54 -28.5 71t-104.5 17h-106v-191h101q75 0 106.5 21.5t31.5 81.5z" />
    <glyph glyph-name="afii10095" unicode="&#x44d;" horiz-adv-x="513" 
d="M50 344v118q67 48 172 48q120 0 184.5 -66t64.5 -196q0 -125 -68.5 -191.5t-178.5 -66.5q-63 0 -108 17.5t-65 43.5v97q21 -38 65.5 -62t107.5 -24q147 0 161 154h-225v75h225q-18 147 -163 147q-53 0 -98 -25.5t-74 -68.5z" />
    <glyph glyph-name="afii10096" unicode="&#x44e;" horiz-adv-x="792" 
d="M80 0v500h83v-209h103q11 105 74.5 160.5t160.5 56.5q120 0 184.5 -66t64.5 -196q0 -125 -68 -191t-178 -67q-108 0 -169.5 57.5t-69.5 170.5h-102v-216h-83zM345 247q0 -187 158 -187q79 0 121 47t42 139v3q0 185 -164 187q-76 0 -116.5 -47t-40.5 -139v-3z" />
    <glyph glyph-name="afii10097" unicode="&#x44f;" horiz-adv-x="550" 
d="M387 0v180h-130l-136 -180h-96l143 189q-105 29 -105 135q0 96 50.5 136t169.5 40h187v-500h-83zM284 426q-75 0 -106.5 -21.5t-31.5 -80.5q2 -79 108 -79h133v181h-103z" />
    <glyph glyph-name="afii10071" unicode="&#x451;" horiz-adv-x="552" 
d="M331 711q0 23 15.5 37.5t40.5 14.5t40 -14.5t15 -37.5q0 -24 -15 -38.5t-40 -14.5t-40.5 14.5t-15.5 38.5zM123 711q0 23 15.5 37.5t40.5 14.5t40 -14.5t15 -37.5q0 -24 -15 -38.5t-40 -14.5t-40.5 14.5t-15.5 38.5zM289 510q104 0 162.5 -62.5t58.5 -173.5v-54h-383
q12 -158 164 -158q68 0 115 24t69 62v-97q-21 -26 -68 -43.5t-116 -17.5q-120 0 -184.5 66t-64.5 196q0 125 68.5 191.5t178.5 66.5zM289 438q-144 0 -161 -147h299v1q0 70 -38.5 108t-99.5 38z" />
    <glyph glyph-name="afii10099" unicode="&#x452;" horiz-adv-x="596" 
d="M20 576h81v174h83v-174h162v-74h-162v-208q10 51 57.5 83t118.5 32q176 0 176 -180v-247q0 -168 -155 -168q-47 0 -79 19v95q30 -35 81 -35q36 0 53 21.5t17 71.5v223q0 67 -27.5 96.5t-91.5 29.5q-152 0 -150 -166v-169h-83v502h-81v74z" />
    <glyph glyph-name="afii10100" unicode="&#x453;" horiz-adv-x="474" 
d="M80 0v500h334v-74h-251v-426h-83zM191 590h-66l80 160h144z" />
    <glyph glyph-name="afii10101" unicode="&#x454;" horiz-adv-x="499" 
d="M342 291v-75h-215q15 -154 164 -154q59 0 101 24t62 62v-97q-19 -26 -61 -43.5t-102 -17.5q-120 0 -184.5 66t-64.5 196q0 125 68.5 191.5t178.5 66.5q97 0 160 -48v-118q-26 43 -68 68.5t-92 25.5q-144 0 -161 -147h214z" />
    <glyph glyph-name="afii10102" unicode="&#x455;" horiz-adv-x="472" 
d="M405 344q-26 43 -68 68.5t-92 25.5h-2q-44 0 -72.5 -17t-28.5 -49q0 -29 29 -47.5t70 -30.5t82 -27.5t70 -47.5t29 -80q0 -69 -49 -108.5t-140 -40.5q-62 0 -109 17.5t-69 43.5v97q23 -38 70 -62t108 -24q51 0 78.5 19.5t27.5 54.5q0 27 -29 45.5t-70 31t-82 28t-70 48
t-29 80.5q0 63 47 102t139 39q97 0 160 -48v-118z" />
    <glyph glyph-name="afii10103" unicode="&#x456;" horiz-adv-x="271" 
d="M80 711q0 23 15.5 37.5t40.5 14.5t40 -14.5t15 -37.5q0 -24 -15 -38.5t-40 -14.5t-40.5 14.5t-15.5 38.5zM94 0v500h83v-500h-83z" />
    <glyph glyph-name="afii10104" unicode="&#x457;" horiz-adv-x="243" 
d="M80 0v500h83v-500h-83zM15 717q0 21 12.5 33.5t34.5 12.5q20 0 32.5 -13t12.5 -33q0 -22 -12.5 -35t-32.5 -13q-22 0 -34.5 13t-12.5 35zM136 717q0 20 12.5 33t33.5 13t33.5 -13t12.5 -33q0 -22 -12.5 -35t-33.5 -13t-33.5 13t-12.5 35z" />
    <glyph glyph-name="afii10105" unicode="&#x458;" horiz-adv-x="268" 
d="M91 -14v514h83v-518q0 -168 -155 -168q-47 0 -79 19v95q30 -35 81 -35q36 0 53 21.5t17 71.5zM77 711q0 23 15.5 37.5t40.5 14.5t40 -14.5t15 -37.5q0 -24 -15 -38.5t-40 -14.5t-40.5 14.5t-15.5 38.5z" />
    <glyph glyph-name="afii10106" unicode="&#x459;" horiz-adv-x="798" 
d="M386 0v426h-174l-1 -38q-4 -108 -15.5 -184t-25.5 -116t-36 -62t-39.5 -27t-44.5 -5q-23 0 -40 5v89q14 -3 25 -3q23 0 36.5 8t28.5 39.5t23 105t12 193.5l2 69h332v-161h82q108 0 157.5 -34.5t49.5 -128.5q-1 -96 -51.5 -136t-168.5 -40h-152zM542 265h-73v-191h68
q74 0 105.5 21.5t32.5 80.5q-1 55 -28 72t-105 17z" />
    <glyph glyph-name="afii10107" unicode="&#x45a;" horiz-adv-x="828" 
d="M407 0v260h-244v-260h-83v500h83v-165h244v165h83v-161h91q108 0 157.5 -34.5t49.5 -128.5q-1 -96 -51.5 -136t-168.5 -40h-161zM572 265h-82v-191h77q74 0 105.5 21.5t32.5 80.5q-1 55 -28 72t-105 17z" />
    <glyph glyph-name="afii10108" unicode="&#x45b;" horiz-adv-x="596" 
d="M101 750h83v-174h162v-74h-162v-184q24 41 68.5 65.5t104.5 25.5h4h2q170 -3 170 -180v-229h-83v209q0 67 -27.5 96.5t-91.5 29.5q-144 -3 -147 -158v-177h-83v502h-81v74h81v174z" />
    <glyph glyph-name="afii10109" unicode="&#x45c;" horiz-adv-x="558" 
d="M80 0v500h83v-209h90l157 209h95l-183 -236l216 -264h-105l-180 220h-90v-220h-83zM233 590h-66l80 160h144z" />
    <glyph glyph-name="afii10110" unicode="&#x45e;" horiz-adv-x="502" 
d="M230 -2l-215 502h96l162 -390l135 390h89l-205 -553q-28 -75 -61.5 -104.5t-80.5 -29.5q-55 0 -80 22v86q29 -29 70 -29q28 0 50 21.5t40 84.5zM329 749h79q0 -70 -44 -106t-108 -36q-72 0 -117.5 35.5t-45.5 106.5h80q0 -77 81 -77q36 0 55.5 16.5t19.5 60.5z" />
    <glyph glyph-name="afii10193" unicode="&#x45f;" horiz-adv-x="579" 
d="M80 0v500h83v-421h253v421h83v-500h-170v-130h-79v130h-170z" />
    <glyph glyph-name="afii10050" unicode="&#x490;" horiz-adv-x="585" 
d="M482 830h84v-210h-376v-620h-90v700h382v130z" />
    <glyph glyph-name="afii10098" unicode="&#x491;" horiz-adv-x="474" 
d="M414 426h-251v-426h-83v500h255v130h79v-204z" />
    <glyph glyph-name="cyrGebar" unicode="&#x492;" horiz-adv-x="595" 
d="M576 700v-80h-376v-220h273v-80h-273v-320h-90v320h-93v80h93v300h466z" />
    <glyph glyph-name="cyrgebar" unicode="&#x493;" horiz-adv-x="486" 
d="M344 291v-75h-169v-216h-83v216h-72v75h72v209h334v-74h-251v-135h169z" />
    <glyph glyph-name="cyrKadesc" unicode="&#x49a;" horiz-adv-x="738" 
d="M190 320v-320h-90v700h90v-310h113l272 310h114l-300 -338l264 -282h75v-210h-84v130h-34l-302 320h-118z" />
    <glyph glyph-name="cyrkadesc" unicode="&#x49b;" horiz-adv-x="558" 
d="M80 0v500h83v-209h90l157 209h95l-183 -236l155 -190h61v-204h-79v130h-26l-180 220h-90v-220h-83z" />
    <glyph glyph-name="cyrEndesc" unicode="&#x4a2;" horiz-adv-x="806" 
d="M616 0v320h-426v-320h-90v700h90v-300h426v300h90v-620h83v-210h-84v130h-89z" />
    <glyph glyph-name="cyrendesc" unicode="&#x4a3;" horiz-adv-x="590" 
d="M427 0v216h-264v-216h-83v500h83v-209h264v209h83v-426h78v-204h-79v130h-82z" />
    <glyph glyph-name="cyrstraightU" unicode="&#x4ae;" horiz-adv-x="632" 
d="M627 700l-265 -433v-267h-90v267l-267 433h102l214 -350l207 350h99z" />
    <glyph glyph-name="cyrstraightu" unicode="&#x4af;" horiz-adv-x="501" 
d="M208 -180v190l-198 490h93l151 -389l149 389h88l-200 -493v-187h-83z" />
    <glyph glyph-name="cyrstraightUbar" unicode="&#x4b0;" horiz-adv-x="632" 
d="M544 350v-80h-181l-1 -3v-267h-90v267l-2 3h-182v80h132l-215 350h102l214 -350l207 350h99l-215 -350h132z" />
    <glyph glyph-name="cyrstraightubar" unicode="&#x4b1;" horiz-adv-x="501" 
d="M58 79h122l-170 421h93l151 -389l149 389h88l-171 -421h123v-79h-152v-180h-83v180h-150v79z" />
    <glyph glyph-name="cyrH" unicode="&#x4ba;" horiz-adv-x="679" 
d="M517 0v231q0 76 -39 111.5t-136 35.5q-124 0 -182 -39v-339h-90v700h90v-286q28 18 84 30.5t116 12.5q125 0 186 -50t61 -134v-273h-90z" />
    <glyph glyph-name="cyrh" unicode="&#x4bb;" horiz-adv-x="588" 
d="M433 0v309q0 66 -26.5 95.5t-89.5 30.5h-3q-151 0 -151 -166v-269h-83v750h83v-356q11 51 58.5 83t118.5 32q176 0 176 -180v-329h-83z" />
    <glyph glyph-name="cyrI" unicode="&#x4c0;" horiz-adv-x="290" 
d="M190 700v-700h-90v700h90z" />
    <glyph glyph-name="uni04CF" unicode="&#x4cf;" horiz-adv-x="243" 
d="M80 750h83v-750h-83v750z" />
    <glyph glyph-name="cyrinvE" unicode="&#x4d8;" horiz-adv-x="792" 
d="M158 498v141q29 27 91 48.5t141 22.5q163 0 258 -97t95 -264q0 -158 -95.5 -258.5t-256.5 -100.5q-150 1 -245.5 86.5t-95.5 241.5v82h599q-14 103 -81 166t-178 64q-74 0 -137 -39t-95 -93zM391 70q113 0 182.5 67.5t77.5 182.5h-512v-3q0 -112 68 -179t184 -68z" />
    <glyph glyph-name="cyrinve" unicode="&#x4d9;" horiz-adv-x="564" 
d="M83 344v118q71 48 178 48q120 0 184.5 -66t64.5 -196q0 -125 -68.5 -191.5t-178.5 -66.5q-104 0 -162.5 62.5t-58.5 173.5v54h383q-13 158 -164 158q-56 0 -102.5 -25.5t-75.5 -68.5zM263 62q143 0 161 147h-299v-1q0 -70 38.5 -108t99.5 -38z" />
    <glyph glyph-name="cyrObar" unicode="&#x4e8;" horiz-adv-x="831" 
d="M415 710q170 0 268.5 -97t98.5 -264q0 -158 -98.5 -258t-266.5 -101q-170 0 -268.5 97t-98.5 264q0 158 98.5 258t266.5 101zM417 70q117 0 189 68t81 182h-542q9 -111 80 -180t192 -70zM147 400h537q-14 103 -83.5 166t-184.5 64q-112 0 -183.5 -62t-85.5 -168z" />
    <glyph glyph-name="cyrobar" unicode="&#x4e9;" horiz-adv-x="579" 
d="M288 510q120 0 184.5 -66t64.5 -196q0 -125 -68.5 -191.5t-178.5 -66.5q-120 1 -184 66.5t-64 195.5q0 125 68 191t178 67zM291 62q146 0 160 154h-324q15 -154 164 -154zM128 291h323q-18 147 -163 147q-144 -2 -160 -147z" />
    <glyph glyph-name="Germandbls" unicode="&#x1e9e;" horiz-adv-x="674" 
d="M337 426v100l128 92q-53 11 -105 11q-97 0 -136 -35.5t-39 -111.5v-482h-90v524q0 84 61 134t186 50q65 0 125 -14.5t84 -34.5v-76l-2 1l-125 -88q200 -26 200 -246q0 -126 -68 -188t-188 -62h-31q-45 0 -62 17v86q26 -29 77 -29h8q88 0 131 39.5t43 128.5
q0 103 -42.5 143.5t-128.5 40.5h-26z" />
    <glyph glyph-name="figuredash" unicode="&#x2012;" horiz-adv-x="573" 
d="M97 314v80h379v-80h-379z" />
    <glyph glyph-name="endash" unicode="&#x2013;" horiz-adv-x="707" 
d="M120 253v80h467v-80h-467z" />
    <glyph glyph-name="emdash" unicode="&#x2014;" horiz-adv-x="907" 
d="M120 253v80h667v-80h-667z" />
    <glyph glyph-name="quoteleft" unicode="&#x2018;" horiz-adv-x="293" 
d="M263 666q-50 -6 -80.5 -30.5t-34.5 -55.5h2q61 0 61 -58q0 -59 -61 -59q-26 0 -43 12q-27 20 -27 78q0 66 43.5 111t93.5 55z" />
    <glyph glyph-name="quoteright" unicode="&#x2019;" horiz-adv-x="293" 
d="M30 517q49 5 80 30t35 55h-2q-61 0 -61 58q0 59 61 59q26 0 43 -12q27 -20 27 -77q0 -67 -43.5 -112t-93.5 -55z" />
    <glyph glyph-name="quotesinglbase" unicode="&#x201a;" horiz-adv-x="293" 
d="M30 -83q49 5 80 30t35 55h-2q-61 0 -61 58q0 59 61 59q26 0 43 -12q27 -20 27 -77q0 -67 -43.5 -112t-93.5 -55z" />
    <glyph glyph-name="quotedblleft" unicode="&#x201c;" horiz-adv-x="493" 
d="M263 666q-50 -6 -80.5 -30.5t-34.5 -55.5h2q61 0 61 -58q0 -59 -61 -59q-26 0 -43 12q-27 20 -27 78q0 66 43.5 111t93.5 55zM463 666q-50 -6 -80.5 -30.5t-34.5 -55.5h2q61 0 61 -58q0 -59 -61 -59q-26 0 -43 12q-27 20 -27 78q0 66 43.5 111t93.5 55z" />
    <glyph glyph-name="quotedblright" unicode="&#x201d;" horiz-adv-x="493" 
d="M230 517q49 5 80 30t35 55h-2q-61 0 -61 58q0 59 61 59q26 0 43 -12q27 -20 27 -77q0 -67 -43.5 -112t-93.5 -55zM30 517q49 5 80 30t35 55h-2q-61 0 -61 58q0 59 61 59q26 0 43 -12q27 -20 27 -77q0 -67 -43.5 -112t-93.5 -55z" />
    <glyph glyph-name="quotedblbase" unicode="&#x201e;" horiz-adv-x="493" 
d="M230 -83q49 5 80 30t35 55h-2q-61 0 -61 58q0 59 61 59q26 0 43 -12q27 -20 27 -77q0 -67 -43.5 -112t-93.5 -55zM30 -83q49 5 80 30t35 55h-2q-61 0 -61 58q0 59 61 59q26 0 43 -12q27 -20 27 -77q0 -67 -43.5 -112t-93.5 -55z" />
    <glyph glyph-name="dagger" unicode="&#x2020;" horiz-adv-x="520" 
d="M277 -100h-35l-47 400v1l42 173l-177 -41v130l178 -43l-42 180h130l-43 -180l177 42v-130l-176 42l41 -173v-1z" />
    <glyph glyph-name="daggerdbl" unicode="&#x2021;" horiz-adv-x="520" 
d="M60 433v130l178 -43l-42 180h130l-43 -180l177 42v-130l-176 42l41 -173v-1l-43 -179l178 42v-130l-177 42l41 -174h-130l42 175l-176 -41v130l177 -43l-42 178v1l42 173z" />
    <glyph glyph-name="bullet" unicode="&#x2022;" horiz-adv-x="357" 
d="M80 356q0 98 98 98q99 0 99 -98q0 -96 -99 -96q-98 0 -98 96z" />
    <glyph glyph-name="ellipsis" unicode="&#x2026;" horiz-adv-x="933" 
d="M90 54q0 65 65 65q66 0 66 -65q0 -64 -66 -64q-65 0 -65 64zM401 54q0 65 65 65q66 0 66 -65q0 -64 -66 -64q-65 0 -65 64zM712 54q0 65 65 65q66 0 66 -65q0 -64 -66 -64q-65 0 -65 64z" />
    <glyph glyph-name="perthousand" unicode="&#x2030;" horiz-adv-x="1302" 
d="M70 547q0 77 47 120t131 43q75 0 119 -42t44 -121q0 -78 -47.5 -121.5t-129.5 -43.5q-78 0 -121 43t-43 122zM142 547q0 -43 26.5 -68t74.5 -25q46 0 71.5 23.5t25.5 69.5q0 91 -99 91t-99 -91zM480 155q0 77 47 120t131 43q75 0 119 -42t44 -121q0 -78 -47.5 -121.5
t-129.5 -43.5q-78 0 -121 43t-43 122zM552 155q0 -43 26.5 -68t74.5 -25q46 0 71.5 23.5t25.5 69.5q0 91 -99 91t-99 -91zM744 700l-504 -700h-90l507 700h87zM878 155q0 77 47 120t131 43q75 0 119 -42t44 -121q0 -78 -47.5 -121.5t-129.5 -43.5q-78 0 -121 43t-43 122z
M950 155q0 -43 26.5 -68t74.5 -25q46 0 71.5 23.5t25.5 69.5q0 91 -99 91t-99 -91z" />
    <glyph glyph-name="guilsinglleft" unicode="&#x2039;" horiz-adv-x="285" 
d="M235 119v-99l-195 230l195 230v-100l-108 -130z" />
    <glyph glyph-name="guilsinglright" unicode="&#x203a;" horiz-adv-x="285" 
d="M50 381v99l195 -230l-195 -230v100l108 130z" />
    <glyph glyph-name="fraction" unicode="&#x2044;" horiz-adv-x="394" 
d="M494 700l-504 -700h-90l507 700h87z" />
    <glyph glyph-name="Euro" unicode="&#x20ac;" 
d="M53 485h39q50 221 273 223q145 0 199 -69l-32 -120q-52 106 -173 105q-134 -3 -168 -139h331l-21 -80h-322q-2 -18 -2 -56q0 -33 1 -48h295l-21 -80h-261q40 -145 179 -147q71 0 118.5 23.5t87.5 70.5v-103q-69 -75 -207 -75q-107 0 -179 58t-98 173h-60l21 80h27
q-1 15 -1 48q0 38 2 56h-50z" />
    <glyph glyph-name="uni20B4" unicode="&#x20b4;" 
d="M100 325h420v-80h-282q-44 -38 -44 -80q0 -37 31 -62.5t88 -26.5q129 -1 208 105v-120q-74 -71 -203 -69q-115 2 -167 43t-52 103q0 59 52 107h-51v80zM100 473h277q37 38 37 74q0 37 -32 56.5t-86 20.5q-67 0 -114 -27.5t-69 -72.5v113q22 30 69 50.5t114 20.5h3
q103 0 155.5 -37.5t52.5 -92.5q0 -59 -41 -105h54v-80h-420v80z" />
    <glyph glyph-name="uni20B8" unicode="&#x20b8;" 
d="M41 464v80h538v-80h-224v-464h-90v464h-224zM41 620v80h538v-80h-538z" />
    <glyph glyph-name="uni20BD" unicode="&#x20bd;" 
d="M30 320h90v380h169q149 0 222.5 -55t73.5 -172q0 -115 -76 -174t-220 -59h-79v-69h240v-80h-240v-91h-90v91h-90v80h90v69h-90v80zM283 620h-73v-300h76q103 0 154 37t51 122q0 77 -49 109t-159 32z" />
    <glyph glyph-name="afii61352" unicode="&#x2116;" horiz-adv-x="1241" 
d="M631 0l-441 555v-555h-90v700h93l442 -556v556h90v-700h-94zM800 507q0 77 47 120t131 43q75 0 119 -42t44 -121q0 -78 -47.5 -121.5t-129.5 -43.5q-78 0 -121 43t-43 122zM872 507q0 -43 26.5 -68t74.5 -25q46 0 71.5 23.5t25.5 69.5q0 91 -99 91t-99 -91zM1122 291v-75
h-294v75h294z" />
    <glyph glyph-name="servicemark" unicode="&#x2120;" horiz-adv-x="973" 
d="M813 350v256l-113 -151h-35l-114 152v-257h-70v350h84l121 -160l119 160h78v-350h-70zM378 678v-91q-21 25 -57 42t-76 17q-85 0 -85 -39q0 -19 25.5 -30t62 -17.5t73 -16t62 -32.5t25.5 -59q0 -114 -177 -114q-104 1 -155 35v90q21 -26 63.5 -43t95.5 -16q95 0 95 39
q0 17 -18.5 27.5t-45.5 15t-59.5 12t-59.5 16.5t-45.5 30.5t-18.5 52.5q0 55 36.5 84t126.5 29q76 0 132 -32z" />
    <glyph glyph-name="trademark" unicode="&#x2122;" horiz-adv-x="933" 
d="M773 350v256l-113 -151h-35l-114 152v-257h-70v350h84l121 -160l119 160h78v-350h-70zM182 350v286h-127v64h323v-64h-126v-286h-70z" />
    <glyph glyph-name="onethird" unicode="&#x2153;" horiz-adv-x="809" 
d="M654 700l-504 -700h-90l507 700h87zM463 231v91q59 32 133 32q62 0 96.5 -25.5t34.5 -66.5q0 -59 -63 -79q85 -13 85 -80q0 -50 -42 -78.5t-117 -28.5q-88 3 -130 35v90q17 -26 52.5 -43t80.5 -16q87 0 87 48q0 39 -91 39h-65v58h52q83 0 83 40q0 41 -73 41
q-33 1 -67 -15.5t-56 -41.5zM60 580v66l116 58h45v-354h-70v273z" />
    <glyph glyph-name="twothirds" unicode="&#x2154;" horiz-adv-x="909" 
d="M754 700l-504 -700h-90l507 700h87zM563 322q59 32 133 32q62 0 96.5 -25.5t34.5 -66.5q0 -59 -63 -79q85 -13 85 -80q0 -50 -42 -78.5t-117 -28.5q-88 3 -130 35v90q17 -26 52.5 -43t80.5 -16q87 0 87 48q0 39 -91 39h-65v58h52q83 0 83 40q0 41 -73 41q-33 1 -67 -15.5
t-56 -41.5v91zM354 410v-60h-267l-27 -1v49q122 66 165 103t43 75q0 27 -20 45t-59 18q-33 1 -67 -16t-56 -42v91q61 33 133 32q65 -1 102 -32t37 -84q0 -45 -27 -85.5t-114 -92.5h157z" />
    <glyph glyph-name="oneeighth" unicode="&#x215b;" horiz-adv-x="821" 
d="M601 -4q-75 0 -118 28t-43 76q0 68 89 87q-76 13 -76 75q0 94 148 94q142 0 142 -88q0 -62 -75 -80q93 -16 93 -85q0 -48 -41 -77.5t-119 -29.5zM654 700l-504 -700h-90l507 700h87zM60 580v66l116 58h45v-354h-70v273zM602 60q50 0 72 11.5t22 39.5q0 46 -95 46t-95 -50
q0 -47 96 -47zM600 211q80 0 80 43q0 38 -80 38q-83 0 -83 -40q0 -41 83 -41z" />
    <glyph glyph-name="threeeighths" unicode="&#x215c;" horiz-adv-x="891" 
d="M671 -4q-75 0 -118 28t-43 76q0 68 89 87q-76 13 -76 75q0 94 148 94q142 0 142 -88q0 -62 -75 -80q93 -16 93 -85q0 -48 -41 -77.5t-119 -29.5zM672 60q50 0 72 11.5t22 39.5q0 46 -95 46t-95 -50q0 -47 96 -47zM670 211q80 0 80 43q0 38 -80 38q-83 0 -83 -40
q0 -41 83 -41zM724 700l-504 -700h-90l507 700h87zM63 672q59 32 133 32q62 0 96.5 -25.5t34.5 -66.5q0 -59 -63 -79q85 -13 85 -80q0 -50 -42 -78.5t-117 -28.5q-88 3 -130 35v90q17 -26 52.5 -43t80.5 -16q87 0 87 48q0 39 -91 39h-65v58h52q83 0 83 40q0 41 -73 41
q-33 1 -67 -15.5t-56 -41.5v91z" />
    <glyph glyph-name="fiveeighths" unicode="&#x215d;" horiz-adv-x="881" 
d="M661 -4q-75 0 -118 28t-43 76q0 68 89 87q-76 13 -76 75q0 94 148 94q142 0 142 -88q0 -62 -75 -80q93 -16 93 -85q0 -48 -41 -77.5t-119 -29.5zM714 700l-504 -700h-90l507 700h87zM329 700v-60h-187l-7 -69q16 4 51 4q151 0 151 -111q0 -56 -42 -87t-115 -31
q-78 0 -120 35v90q16 -26 48.5 -43.5t73.5 -17.5q88 1 88 55q0 56 -97 56q-59 0 -101 -14l21 193h236zM662 60q50 0 72 11.5t22 39.5q0 46 -95 46t-95 -50q0 -47 96 -47zM660 211q80 0 80 43q0 38 -80 38q-83 0 -83 -40q0 -41 83 -41z" />
    <glyph glyph-name="seveneighths" unicode="&#x215e;" horiz-adv-x="821" 
d="M601 -4q-75 0 -118 28t-43 76q0 68 89 87q-76 13 -76 75q0 94 148 94q142 0 142 -88q0 -62 -75 -80q93 -16 93 -85q0 -48 -41 -77.5t-119 -29.5zM654 700l-504 -700h-90l507 700h87zM80 700h282v-29l-166 -321h-69l153 290h-200v60zM602 60q50 0 72 11.5t22 39.5
q0 46 -95 46t-95 -50q0 -47 96 -47zM600 211q80 0 80 43q0 38 -80 38q-83 0 -83 -40q0 -41 83 -41z" />
    <glyph glyph-name="minus" unicode="&#x2212;" 
d="M100 385h420v-80h-420v80z" />
    <glyph glyph-name="infinity" unicode="&#x221e;" 
d="M170 500q51 0 82.5 -26.5t57.5 -71.5q25 45 57 71.5t83 26.5q68 0 105 -43.5t37 -106.5t-37 -106.5t-105 -43.5q-51 0 -83 26.5t-57 71.5q-26 -45 -57.5 -71.5t-82.5 -26.5q-68 0 -105 43.5t-37 106.5t37 106.5t105 43.5zM344 350q26 -42 48.5 -61t57.5 -19q34 0 52 21
t18 59t-18 59t-52 21q-35 0 -57.5 -19t-48.5 -61zM276 350q-26 42 -48.5 61t-57.5 19q-34 0 -52 -21t-18 -59t18 -59t52 -21q35 0 57.5 19t48.5 61z" />
    <glyph glyph-name="approxequal" unicode="&#x2248;" 
d="M100 388v83q44 40 111 40q46 0 117.5 -43t107.5 -43q22 0 45.5 12t38.5 35v-89q-40 -38 -98 -38q-38 0 -79.5 21.5t-77 43t-59.5 21.5q-55 0 -106 -43zM100 188v83q44 40 111 40q46 0 117.5 -43t107.5 -43q22 0 45.5 12t38.5 35v-89q-40 -38 -98 -38q-38 0 -79.5 21.5
t-77 43t-59.5 21.5q-55 0 -106 -43z" />
    <glyph glyph-name="notequal" unicode="&#x2260;" 
d="M145 0l72 205h-117v80h146l46 130h-192v80h220l73 205h83l-73 -205h117v-80h-145l-46 -130h191v-80h-220l-72 -205h-83z" />
    <glyph glyph-name="lessequal" unicode="&#x2264;" 
d="M99 407l422 263v-94l-276 -169l276 -169v-94zM100 143h420v-80h-420v80z" />
    <glyph glyph-name="greaterequal" unicode="&#x2265;" 
d="M522 407l-422 -263v94l276 169l-276 169v94zM100 143h420v-80h-420v80z" />
    <glyph glyph-name="lozenge" unicode="&#x25ca;" 
d="M255 2l-182 349l182 349l55 -1l55 1l182 -349l-182 -349h-55h-55zM310 67l145 284l-145 283l-145 -283z" />
    <glyph glyph-name="accent" unicode="&#xf400;" horiz-adv-x="40" 
d="M246 590h-66l80 160h144z" />
    <glyph glyph-name="Breve" unicode="&#xf406;" horiz-adv-x="424" 
d="M212 740q-68 0 -111.5 32.5t-60.5 87.5h47q50 -45 125 -45q91 0 125 45h47q-18 -58 -62.5 -89t-109.5 -31z" />
    <glyph glyph-name="Cedilla" unicode="&#xf407;" horiz-adv-x="279" 
d="M167 0l-34 -54q55 -11 80.5 -30t25.5 -51q0 -37 -33 -64.5t-76.5 -39t-89.5 -11.5v42q41 0 74.5 17t33.5 48q0 25 -22 35.5t-68 15.5l49 92h60z" />
    <glyph glyph-name="Circumflex" unicode="&#xf408;" horiz-adv-x="450" 
d="M273 860l137 -120h-65l-121 52l-119 -52h-65l137 120h96z" />
    <glyph glyph-name="Commaaccent" unicode="&#xf409;" horiz-adv-x="252" 
d="M40 -204q47 4 76 26t32 49h-2q-57 0 -57 51t57 51q25 0 40 -10q26 -18 26 -68q0 -59 -40.5 -98t-87.5 -47z" />
    <glyph glyph-name="Apostrophe" unicode="&#xf40a;" horiz-adv-x="266" 
d="M40 497q50 5 81.5 30t35.5 56h-2q-62 0 -62 58q0 59 62 59q26 0 43 -12q28 -20 28 -78q0 -67 -44 -111.5t-95 -54.5z" />
    <glyph glyph-name="Dotaccent" unicode="&#xf40b;" horiz-adv-x="191" 
d="M40 808q0 23 15.5 37.5t40.5 14.5t40 -14.5t15 -37.5q0 -24 -15 -38.5t-40 -14.5t-40.5 14.5t-15.5 38.5z" />
    <glyph glyph-name="Ring" unicode="&#xf40c;" horiz-adv-x="329" 
d="M40 780q0 39 33.5 59.5t91.5 20.5t91 -20.5t33 -59.5t-33 -59.5t-91 -20.5t-91.5 20.5t-33.5 59.5zM105 780q0 -35 60 -35q59 0 59 35t-59 35q-60 0 -60 -35z" />
    <glyph glyph-name="Tilde" unicode="&#xf40d;" horiz-adv-x="452" 
d="M412 860q-18 -70 -47.5 -95t-75.5 -25q-31 0 -80.5 18.5t-67.5 18.5q-35 0 -51 -37h-50q33 119 121 119q25 0 72.5 -18.5t64.5 -18.5q48 0 64 38h50z" />
    <glyph glyph-name="Ogonek" unicode="&#xf40e;" horiz-adv-x="264" 
d="M223 0q-89 -67 -89 -129q0 -33 23 -49.5t67 -12.5v-44q-32 -15 -72 -15q-54 0 -83 27t-29 68q0 47 41.5 95.5t115.5 88.5z" />
    <glyph glyph-name="one.tab" unicode="&#xf4e1;" 
d="M133 0v80h184v519l-157 -99v91l180 116h60v-627h138v-80h-405z" />
    <glyph glyph-name="dollar.tab" unicode="&#xf4ec;" 
d="M527 522q-77 103 -208 102q-77 -1 -106 -22t-29 -71q0 -36 19.5 -61t50.5 -38.5t69 -25t76 -26t69 -35.5t50.5 -60t19.5 -94q0 -175 -187 -196v-105h-79v103q-117 6 -181 68v120q77 -103 208 -102q75 2 109.5 27t34.5 79q0 51 -36.5 82t-88 46.5t-103 34t-88 60.5
t-36.5 110q0 85 43 132t138 58v92h79v-90q109 -6 176 -68v-120z" />
    <glyph glyph-name="Euro.tab" unicode="&#xf4ed;" 
d="M53 485h39q50 221 273 223q145 0 199 -69l-32 -120q-52 106 -173 105q-134 -3 -168 -139h331l-21 -80h-322q-2 -18 -2 -56q0 -33 1 -48h295l-21 -80h-261q40 -145 179 -147q71 0 118.5 23.5t87.5 70.5v-103q-69 -75 -207 -75q-107 0 -179 58t-98 173h-60l21 80h27
q-1 15 -1 48q0 38 2 56h-50z" />
    <glyph glyph-name="cent.tab" unicode="&#xf4ee;" 
d="M512 51q-37 -51 -133 -59v-102h-79v103q-200 27 -200 259q0 111 54.5 176t145.5 78v104h79v-102q78 -9 128 -46v-118q-26 43 -68 68.5t-92 25.5q-79 0 -121 -47t-42 -139v-3q0 -187 165 -187q59 0 101 24t62 62v-97z" />
    <glyph glyph-name="sterling.tab" unicode="&#xf4ef;" 
d="M80 385h71v89q0 111 58.5 173.5t161.5 62.5q97 0 160 -48v-118q-26 43 -68 68.5t-92 25.5q-61 0 -99 -38t-38 -108v-107h266v-80h-266v-225h306v-80h-461v80h72v225h-71v80z" />
    <glyph glyph-name="yen.tab" unicode="&#xf4fa;" 
d="M100 345h121l-209 355h98l205 -350l199 350h95l-209 -355h120v-80h-164v-81h164v-80h-164v-104h-90v104h-166v80h166v81h-166v80z" />
    <glyph glyph-name="florin.tab" unicode="&#xf4fb;" 
d="M182 496h82l8 74q10 94 56.5 137.5t118.5 43.5q56 0 89 -28v-98q-30 47 -94 47q-77 0 -87 -102l-8 -74h161v-74h-169l-44 -422l-1 -14q0 -168 -155 -168q-47 0 -79 19v95q30 -35 81 -35q36 0 53 21.5t17 71.5l1 10l44 422h-74v74z" />
    <glyph glyph-name="uni20B4.tab" unicode="&#xf4fc;" 
d="M100 325h420v-80h-282q-44 -38 -44 -80q0 -37 31 -62.5t88 -26.5q129 -1 208 105v-120q-74 -71 -203 -69q-115 2 -167 43t-52 103q0 59 52 107h-51v80zM100 473h277q37 38 37 74q0 37 -32 56.5t-86 20.5q-67 0 -114 -27.5t-69 -72.5v113q22 30 69 50.5t114 20.5h3
q103 0 155.5 -37.5t52.5 -92.5q0 -59 -41 -105h54v-80h-420v80z" />
    <glyph glyph-name="uni20BD.tab" unicode="&#xf4fd;" 
d="M30 320h90v380h169q149 0 222.5 -55t73.5 -172q0 -115 -76 -174t-220 -59h-79v-69h240v-80h-240v-91h-90v91h-90v80h90v69h-90v80zM283 620h-73v-300h76q103 0 154 37t51 122q0 77 -49 109t-159 32z" />
    <glyph glyph-name="uni20B8.tab" unicode="&#xf5f3;" 
d="M41 464v80h538v-80h-224v-464h-90v464h-224zM41 620v80h538v-80h-538z" />
    <glyph glyph-name="zero.denominator" unicode="&#xf655;" horiz-adv-x="450" 
d="M60 175q0 94 45.5 136.5t120.5 42.5q77 -2 120.5 -47t43.5 -133q0 -94 -45.5 -136.5t-120.5 -42.5q-77 2 -120.5 47t-43.5 133zM130 175q0 -61 24 -87.5t70 -28.5q96 0 96 115q0 62 -25 88.5t-73 27.5q-92 -3 -92 -115z" />
    <glyph glyph-name="one.denominator" unicode="&#xf656;" horiz-adv-x="291" 
d="M141 0v273l-91 -43v66l116 58h45v-354h-70z" />
    <glyph glyph-name="two.denominator" unicode="&#xf657;" horiz-adv-x="404" 
d="M354 60v-60h-263l-31 -1v49q122 66 165 103t43 75q0 27 -20 45t-59 18q-33 1 -67 -16t-56 -42v91q61 33 133 32q65 -1 102 -32t37 -84q0 -45 -27 -85.5t-114 -92.5h157z" />
    <glyph glyph-name="three.denominator" unicode="&#xf658;" horiz-adv-x="399" 
d="M63 322q59 32 133 32q62 0 96.5 -25.5t34.5 -66.5q0 -59 -63 -79q85 -13 85 -80q0 -50 -42 -78.5t-117 -28.5q-88 3 -130 35v90q17 -26 52.5 -43t80.5 -16q87 0 87 48q0 39 -91 39h-65v58h52q83 0 83 40q0 41 -73 41q-33 1 -67 -15.5t-56 -41.5v91z" />
    <glyph glyph-name="four.denominator" unicode="&#xf659;" horiz-adv-x="398" 
d="M30 147l200 203h70v-203h68v-60h-68v-87h-70v87h-200v60zM115 147h115v115z" />
    <glyph glyph-name="five.denominator" unicode="&#xf65a;" horiz-adv-x="387" 
d="M319 350v-60h-187l-7 -69q2 0 10 2h4q3 1 11 1q8 1 26 1h8q11 0 16 -1q24 -2 34 -4l7 -2q1 0 3 -0.5t3 -0.5l11 -4q2 -1 5 -2t5.5 -2t4.5 -2q3 -1 9 -5l4 -2l11 -9q11 -10 20 -28l5 -12q2 -6 2 -9q3 -14 3 -28v-6q0 -1 -0.5 -5t-0.5 -6q-1 -5 -5 -20q-4 -12 -7 -18l-5 -8
l-6 -8q-6 -8 -18 -16q-23 -16 -50 -23q-2 -1 -31 -6q-16 -2 -27 -2h-7q-13 0 -19 1q-6 0 -9 1l-27 3q-8 2 -14 4q-18 5 -34 14l-6 4l-6 3l-5 5v90l3 -5q9 -14 26 -27l12 -8l12 -6l10 -5l7 -2q26 -8 52 -8h4q14 0 21 1l14 3q23 4 35 17l3 3q7 6 8 14l1 2q0 3 1 5q0 1 0.5 4.5
t0.5 5.5v5q-2 10 -4 15q-4 8 -7 11l-7 7l-4 3l-8 4q-6 3 -22 7q-12 3 -27 3q-6 1 -18 1h-15q-3 0 -9 -0.5t-9 -0.5q-1 0 -3 -0.5t-3 -0.5q-12 -1 -41 -6l-9 -2q-2 -1 -4 -1.5t-4.5 -1.5t-3.5 -1l21 193h236z" />
    <glyph glyph-name="six.denominator" unicode="&#xf65b;" horiz-adv-x="438" 
d="M359 230q-17 26 -51 43.5t-76 16.5q-108 -4 -108 -113q0 -16 1 -28q12 33 48 53t84 20q65 0 98 -29t33 -76q0 -58 -45.5 -89.5t-110.5 -31.5q-80 0 -126 44.5t-46 124.5q0 86 46 137t129 52q78 1 124 -34v-90zM136 120q15 -60 100 -60q41 0 64.5 14.5t23.5 41.5
q0 26 -20.5 41t-58.5 15q-69 0 -109 -52z" />
    <glyph glyph-name="seven.denominator" unicode="&#xf65c;" horiz-adv-x="342" 
d="M30 350h282v-29l-166 -321h-69l153 290h-200v60z" />
    <glyph glyph-name="eight.denominator" unicode="&#xf65d;" horiz-adv-x="421" 
d="M211 -4q-75 0 -118 28t-43 76q0 68 89 87q-76 13 -76 75q0 94 148 94q142 0 142 -88q0 -62 -75 -80q93 -16 93 -85q0 -48 -41 -77.5t-119 -29.5zM212 60q50 0 72 11.5t22 39.5q0 46 -95 46t-95 -50q0 -47 96 -47zM210 211q80 0 80 43q0 38 -80 38q-83 0 -83 -40
q0 -41 83 -41z" />
    <glyph glyph-name="nine.denominator" unicode="&#xf65e;" horiz-adv-x="438" 
d="M79 121q17 -26 51 -43.5t76 -16.5q108 4 108 113q0 16 -1 28q-12 -33 -48 -53t-84 -20q-65 0 -98 29t-33 76q0 58 45.5 89.5t110.5 31.5q80 0 126 -44.5t46 -124.5q0 -86 -46 -137t-129 -52q-78 -1 -124 34v90zM302 231q-15 60 -100 60q-41 0 -64.5 -14.5t-23.5 -41.5
q0 -26 20.5 -41t58.5 -15q69 0 109 52z" />
    <glyph glyph-name="zero.numerator" unicode="&#xf661;" horiz-adv-x="450" 
d="M60 525q0 94 45.5 136.5t120.5 42.5q77 -2 120.5 -47t43.5 -133q0 -94 -45.5 -136.5t-120.5 -42.5q-77 1 -120.5 46.5t-43.5 133.5zM130 525q0 -61 24 -87.5t70 -28.5q96 0 96 115q0 62 -25 88.5t-73 27.5q-92 -3 -92 -115z" />
    <glyph glyph-name="one.numerator" unicode="&#xf662;" horiz-adv-x="291" 
d="M141 350v273l-91 -43v66l116 58h45v-354h-70z" />
    <glyph glyph-name="two.numerator" unicode="&#xf663;" horiz-adv-x="404" 
d="M354 410v-60h-263l-31 -1v49q122 66 165 103t43 75q0 27 -20 45t-59 18q-33 1 -67 -16t-56 -42v91q61 33 133 32q65 -1 102 -32t37 -84q0 -45 -27 -85.5t-114 -92.5h157z" />
    <glyph glyph-name="three.numerator" unicode="&#xf664;" horiz-adv-x="399" 
d="M63 672q59 32 133 32q62 0 96.5 -25.5t34.5 -66.5q0 -59 -63 -79q85 -13 85 -80q0 -50 -42 -78.5t-117 -28.5q-88 3 -130 35v90q17 -26 52.5 -43t80.5 -16q87 0 87 48q0 39 -91 39h-65v58h52q83 0 83 40q0 41 -73 41q-33 1 -67 -15.5t-56 -41.5v91z" />
    <glyph glyph-name="four.numerator" unicode="&#xf665;" horiz-adv-x="398" 
d="M30 497l200 203h70v-203h68v-60h-68v-87h-70v87h-200v60zM115 497h115v115z" />
    <glyph glyph-name="five.numerator" unicode="&#xf666;" horiz-adv-x="387" 
d="M319 700v-60h-187l-7 -69q16 4 51 4q151 0 151 -111q0 -56 -42 -87t-115 -31q-78 0 -120 35v90q16 -26 48.5 -43.5t73.5 -17.5q88 1 88 55q0 56 -97 56q-59 0 -101 -14l21 193h236z" />
    <glyph glyph-name="six.numerator" unicode="&#xf667;" horiz-adv-x="438" 
d="M359 580q-17 26 -51 43.5t-76 16.5q-108 -4 -108 -113q0 -16 1 -28q12 33 48 53t84 20q65 0 98 -29t33 -76q0 -58 -45.5 -89.5t-110.5 -31.5q-80 0 -126 44.5t-46 124.5q0 86 46 137t129 52q78 1 124 -34v-90zM136 470q15 -60 100 -60q41 0 64.5 14.5t23.5 41.5
q0 26 -20.5 41t-58.5 15q-69 0 -109 -52z" />
    <glyph glyph-name="seven.numerator" unicode="&#xf668;" horiz-adv-x="342" 
d="M30 700h282v-29l-166 -321h-69l153 290h-200v60z" />
    <glyph glyph-name="eight.numerator" unicode="&#xf669;" horiz-adv-x="421" 
d="M211 346q-75 0 -118 28t-43 76q0 68 89 87q-76 13 -76 75q0 94 148 94q142 0 142 -88q0 -62 -75 -80q93 -16 93 -85q0 -48 -41 -77.5t-119 -29.5zM212 410q50 0 72 11.5t22 39.5q0 46 -95 46t-95 -50q0 -47 96 -47zM210 561q80 0 80 43q0 38 -80 38q-83 0 -83 -40
q0 -41 83 -41z" />
    <glyph glyph-name="nine.numerator" unicode="&#xf66a;" horiz-adv-x="438" 
d="M79 471q17 -26 51 -43.5t76 -16.5q108 4 108 113q0 16 -1 28q-12 -33 -48 -53t-84 -20q-65 0 -98 29t-33 76q0 58 45.5 89.5t110.5 31.5q80 0 126 -44.5t46 -124.5q0 -86 -46 -137t-129 -52q-78 -1 -124 34v90zM302 581q-15 60 -100 60q-41 0 -64.5 -14.5t-23.5 -41.5
q0 -26 20.5 -41t58.5 -15q69 0 109 52z" />
    <glyph glyph-name="uniF6BA" unicode="&#xf6ba;" horiz-adv-x="427" 
d="M79 308v84h268v-84h-268z" />
    <glyph glyph-name="uniF6BB" unicode="&#xf6bb;" horiz-adv-x="707" 
d="M120 310v80h467v-80h-467z" />
    <glyph glyph-name="uniF6BC" unicode="&#xf6bc;" horiz-adv-x="907" 
d="M120 310v80h667v-80h-667z" />
    <glyph glyph-name="commaaccent" unicode="&#xf6c3;" horiz-adv-x="252" 
d="M40 -204q47 4 76 26t32 49h-2q-57 0 -57 51t57 51q25 0 40 -10q26 -18 26 -68q0 -59 -40.5 -98t-87.5 -47z" />
    <glyph glyph-name="Acute" unicode="&#xf6c9;" horiz-adv-x="354" 
d="M126 740h-86l120 120h154z" />
    <glyph glyph-name="Caron" unicode="&#xf6ca;" horiz-adv-x="450" 
d="M273 740h-96l-137 120h65l119 -52l121 52h65z" />
    <glyph glyph-name="Dieresis" unicode="&#xf6cb;" horiz-adv-x="399" 
d="M248 808q0 23 15.5 37.5t40.5 14.5t40 -14.5t15 -37.5q0 -24 -15 -38.5t-40 -14.5t-40.5 14.5t-15.5 38.5zM40 808q0 23 15.5 37.5t40.5 14.5t40 -14.5t15 -37.5q0 -24 -15 -38.5t-40 -14.5t-40.5 14.5t-15.5 38.5z" />
    <glyph glyph-name="Grave" unicode="&#xf6ce;" horiz-adv-x="354" 
d="M228 740l-188 120h154l120 -120h-86z" />
    <glyph glyph-name="Hungarumlaut" unicode="&#xf6cf;" horiz-adv-x="495" 
d="M116 740h-76l70 120h124zM270 740h-76l117 120h144z" />
    <glyph glyph-name="Macron" unicode="&#xf6d0;" horiz-adv-x="380" 
d="M40 768v72h300v-72h-300z" />
    <glyph glyph-name="cyrBreve" unicode="&#xf6d1;" horiz-adv-x="455" 
d="M334 880h81q-7 -67 -57 -102t-125 -35q-37 0 -65.5 5t-58 19t-47.5 42.5t-22 70.5h87q10 -67 104 -67t103 67z" />
    <glyph glyph-name="cyrbreve" unicode="&#xf6d4;" horiz-adv-x="395" 
d="M276 749h79q0 -70 -44 -106t-108 -36q-72 0 -117.5 35.5t-45.5 106.5h80q0 -77 81 -77q36 0 55.5 16.5t19.5 60.5z" />
    <glyph glyph-name="uniFEFF" unicode="&#xfeff;" horiz-adv-x="0" 
 />
    <glyph glyph-name="percent.tab" 
d="M570 700l-430 -700h-90l433 700h87zM50 583q0 58 34.5 92t95.5 34q62 0 96.5 -34t34.5 -92q0 -57 -35 -91.5t-96 -34.5t-95.5 34.5t-34.5 91.5zM117 583q0 -30 17 -48t46 -18t46.5 18.5t17.5 47.5q0 30 -17.5 48t-46.5 18t-46 -18t-17 -48zM308 116q0 58 34.5 92t96.5 34
t96.5 -34t34.5 -92t-34.5 -92t-96.5 -34t-96.5 34t-34.5 92zM375 116q0 -30 17 -48t47 -18q29 0 46.5 18t17.5 48t-17.5 48t-46.5 18q-30 0 -47 -18t-17 -48z" />
    <glyph glyph-name="perthousand.tab" 
d="M382 700l-305 -700h-72l307 700h70zM9 583q0 58 29 92t80 34t80 -34t29 -92t-29 -92t-80 -34t-80 34t-29 92zM65 583q0 -30 14 -48t39 -18q24 0 38.5 18t14.5 48t-14.5 48t-38.5 18q-25 0 -39 -18t-14 -48zM163 116q0 58 29 92t80 34t80 -34t29 -92t-29 -92t-80 -34
t-80 34t-29 92zM219 116q0 -30 14 -48t39 -18q24 0 38.5 18t14.5 48t-14.5 48t-38.5 18q-25 0 -39 -18t-14 -48zM397 116q0 58 29 92t80 34t80 -34t29 -92t-29 -92t-80 -34t-80 34t-29 92zM453 116q0 -30 14 -48t39 -18q24 0 38.5 18t14.5 48t-14.5 48t-38.5 18
q-25 0 -39 -18t-14 -48z" />
    <glyph glyph-name="NULL" horiz-adv-x="0" 
 />
    <glyph glyph-name="f_b" horiz-adv-x="979" 
d="M457 750h82v-335q48 95 180 95q104 0 161 -61t57 -188q0 -143 -58 -207.5t-170 -64.5q-62 0 -108 27t-67 68v-84h-77v750zM697 435q-73 0 -113 -37t-45 -106v-86q6 -67 48.5 -104.5t108.5 -37.5q83 0 120 44.5t37 147.5q0 96 -40.5 137.5t-115.5 41.5zM30 500h83v74
q0 93 50 137t125 44q56 0 89 -28v-98q-30 47 -94 47q-36 0 -61.5 -23t-25.5 -79v-74h160v-74h-160v-426h-83v426h-83v74z" />
    <glyph glyph-name="f_f_b" horiz-adv-x="1305" 
d="M783 750h82v-335q48 95 180 95q104 0 161 -61t57 -188q0 -143 -58 -207.5t-170 -64.5q-62 0 -108 27t-67 68v-84h-77v750zM30 500h83v74q0 93 50 137t125 44q56 0 89 -28v-98q-30 47 -94 47q-36 0 -61.5 -23t-25.5 -79v-74h243v74q0 93 50 137t125 44q56 0 89 -28v-98
q-30 47 -94 47q-36 0 -61.5 -23t-25.5 -79v-74h160v-74h-160v-426h-83v426h-243v-426h-83v426h-83v74zM1023 435q-73 0 -113 -37t-45 -106v-86q6 -67 48.5 -104.5t108.5 -37.5q83 0 120 44.5t37 147.5q0 96 -40.5 137.5t-115.5 41.5z" />
    <glyph glyph-name="f_f_h" horiz-adv-x="1291" 
d="M30 500h83v74q0 93 50 137t125 44q56 0 89 -28v-98q-30 47 -94 47q-36 0 -61.5 -23t-25.5 -79v-74h243v74q0 93 50 137t125 44q56 0 89 -28v-98q-30 47 -94 47q-36 0 -61.5 -23t-25.5 -79v-74h160v-74h-160v-426h-83v426h-243v-426h-83v426h-83v74zM1136 0v309
q0 67 -27.5 96.5t-91.5 29.5q-151 0 -151 -166v-269h-83v750h83v-356q11 51 58.5 83t118.5 32q176 0 176 -180v-329h-83z" />
    <glyph glyph-name="f_f_j" horiz-adv-x="961" 
d="M30 500h83v74q0 93 50 137t125 44q56 0 89 -28v-98q-30 47 -94 47q-36 0 -61.5 -23t-25.5 -79v-74h243v74q0 93 50 137t125 44q56 0 89 -28v-98q-30 47 -94 47q-36 0 -61.5 -23t-25.5 -79v-74h160v-74h-160v-426h-83v426h-243v-426h-83v426h-83v74zM784 -14v514h83v-518
q0 -168 -155 -168q-47 0 -79 19v95q30 -35 81 -35q36 0 53 21.5t17 71.5zM770 711q0 23 15.5 37.5t40.5 14.5t40 -14.5t15 -37.5q0 -24 -15 -38.5t-40 -14.5t-40.5 14.5t-15.5 38.5z" />
    <glyph glyph-name="f_f_k" horiz-adv-x="1238" 
d="M30 500h83v74q0 93 50 137t125 44q56 0 89 -28v-98q-30 47 -94 47q-36 0 -61.5 -23t-25.5 -79v-74h243v74q0 93 50 137t125 44q56 0 89 -28v-98q-30 47 -94 47q-36 0 -61.5 -23t-25.5 -79v-74h160v-74h-160v-426h-83v426h-243v-426h-83v426h-83v74zM783 750h83v-459h67
l157 209h95l-183 -236l216 -264h-105l-180 220h-67v-220h-83v750z" />
    <glyph glyph-name="f_h" horiz-adv-x="965" 
d="M810 0v309q0 67 -27.5 96.5t-91.5 29.5q-151 0 -151 -166v-269h-83v750h83v-356q11 51 58.5 83t118.5 32h2q174 -2 174 -180v-329h-83zM30 500h83v74q0 93 50 137t125 44q56 0 89 -28v-98q-30 47 -94 47q-36 0 -61.5 -23t-25.5 -79v-74h160v-74h-160v-426h-83v426h-83v74
z" />
    <glyph glyph-name="f_j" horiz-adv-x="635" 
d="M30 500h83v74q0 93 50 137t125 44q56 0 89 -28v-98q-30 47 -94 47q-36 0 -61.5 -23t-25.5 -79v-74h160v-74h-160v-426h-83v426h-83v74zM458 -14v514h83v-518q0 -168 -155 -168q-47 0 -79 19v95q30 -35 81 -35q36 0 53 21.5t17 71.5zM444 711q0 23 15.5 37.5t40.5 14.5
t40 -14.5t15 -37.5q0 -24 -15 -38.5t-40 -14.5t-40.5 14.5t-15.5 38.5z" />
    <glyph glyph-name="f_k" horiz-adv-x="912" 
d="M457 750h83v-459h67l157 209h95l-183 -236l216 -264h-105l-180 220h-67v-220h-83v750zM30 500h83v74q0 93 50 137t125 44q56 0 89 -28v-98q-30 47 -94 47q-36 0 -61.5 -23t-25.5 -79v-74h160v-74h-160v-426h-83v426h-83v74z" />
    </font>
</defs>
</svg>
