<svg width="46" height="46" viewBox="0 0 46 46" fill="none" xmlns="http://www.w3.org/2000/svg">
<path fill-rule="evenodd" clip-rule="evenodd" d="M6.77778 10C3.9548 10 1.66667 12.2881 1.66667 15.1111C1.66667 17.9341 3.9548 20.2222 6.77778 20.2222C9.60075 20.2222 11.8889 17.9341 11.8889 15.1111C11.8889 14.6899 11.8379 14.2805 11.7419 13.8889H18C20.2077 13.8889 22 15.6812 22 17.8889C22 20.0966 20.2077 21.8889 18 21.8889H6C2.6879 21.8889 0 24.575 0 27.8889C0 31.2028 2.6879 33.8889 6 33.8889H13C13.5523 33.8889 14 33.4412 14 32.8889C14 32.3366 13.5523 31.8889 13 31.8889H6C3.7921 31.8889 2 30.0978 2 27.8889C2 25.6799 3.7921 23.8889 6 23.8889H18C21.3123 23.8889 24 21.2012 24 17.8889C24 14.5766 21.3123 11.8889 18 11.8889H11C10.92 11.8889 10.8421 11.8983 10.7675 11.9161C9.83084 10.7479 8.39172 10 6.77778 10ZM6.77778 17.6667C5.3662 17.6667 4.22222 16.5227 4.22222 15.1111C4.22222 13.6995 5.3662 12.5556 6.77778 12.5556C8.18936 12.5556 9.33333 13.6995 9.33333 15.1111C9.33333 16.5227 8.18936 17.6667 6.77778 17.6667ZM24.7071 30.096C25.0976 29.7055 25.0976 29.0723 24.7071 28.6818C24.3166 28.2913 23.6834 28.2913 23.2929 28.6818L19 32.9747L17.2071 31.1818C16.8166 30.7913 16.1834 30.7913 15.7929 31.1818C15.4024 31.5723 15.4024 32.2055 15.7929 32.596L18.2929 35.096C18.6834 35.4865 19.3166 35.4865 19.7071 35.096L24.7071 30.096Z" fill="url(#paint0_linear_1063_9297)"/>
<defs>
<linearGradient id="paint0_linear_1063_9297" x1="3.125" y1="-0.578703" x2="25.5529" y2="45.1676" gradientUnits="userSpaceOnUse">
<stop stop-color="#2EF3CF"/>
<stop offset="1" stop-color="#5172EA"/>
</linearGradient>
</defs>
</svg>
