<svg width="46" height="46" viewBox="0 0 46 46" fill="none" xmlns="http://www.w3.org/2000/svg">
<path fill-rule="evenodd" clip-rule="evenodd" d="M8.94618 15.3334V8.94447H15.3351C16.0408 8.94447 16.6128 8.37238 16.6128 7.66669C16.6128 6.961 16.0408 6.38892 15.3351 6.38892H8.94618C7.53412 6.38892 6.39062 7.53319 6.39062 8.94447V15.3334C6.39062 16.0391 6.96271 16.6111 7.6684 16.6111C8.37409 16.6111 8.94618 16.0391 8.94618 15.3334ZM30.6684 8.94447H37.0573V15.3334C37.0573 16.0391 37.6294 16.6111 38.3351 16.6111C39.0408 16.6111 39.6128 16.0391 39.6128 15.3334V8.94447C39.6128 7.53319 38.4694 6.38892 37.0573 6.38892H30.6684C29.9627 6.38892 29.3906 6.961 29.3906 7.66669C29.3906 8.37238 29.9627 8.94447 30.6684 8.94447ZM8.94618 37.0556H15.3351C16.0408 37.0556 16.6128 37.6276 16.6128 38.3334C16.6128 39.0391 16.0408 39.6111 15.3351 39.6111H8.94618C7.53412 39.6111 6.39062 38.4669 6.39062 37.0556V30.6667C6.39062 29.961 6.96271 29.3889 7.6684 29.3889C8.37409 29.3889 8.94618 29.961 8.94618 30.6667V37.0556ZM37.0573 30.6667V37.0556H30.6684C29.9627 37.0556 29.3906 37.6276 29.3906 38.3334C29.3906 39.0391 29.9627 39.6111 30.6684 39.6111H37.0573C38.4694 39.6111 39.6128 38.4669 39.6128 37.0556V30.6667C39.6128 29.961 39.0408 29.3889 38.3351 29.3889C37.6294 29.3889 37.0573 29.961 37.0573 30.6667ZM32.0232 23.6203C32.2254 23.737 32.4078 23.8849 32.5639 24.0585C32.9059 24.5765 33.1222 25.1673 33.1958 25.7837C33.2694 26.3999 33.198 27.025 32.9876 27.609C32.8529 28.2002 32.5042 28.7206 32.0087 29.07C31.7359 29.2599 31.4416 29.4168 31.1321 29.5375C30.8396 31.4143 29.8859 33.1246 28.4432 34.36C27.0004 35.5953 25.1636 36.2742 23.2642 36.2742C21.3648 36.2742 19.528 35.5953 18.0852 34.36C16.6424 33.1246 15.6888 31.4143 15.3963 29.5375C15.0826 29.422 14.7835 29.27 14.5052 29.0847C14.0127 28.7293 13.6609 28.2121 13.5116 27.6235C13.304 27.0376 13.237 26.4111 13.3157 25.7945C13.3944 25.1779 13.6166 24.5883 13.9645 24.0731L14.169 23.854C13.3808 22.6104 12.9185 21.1885 12.8249 19.7192C12.7098 18.6842 12.8143 17.6366 13.1315 16.6446C13.4487 15.6527 13.9716 14.7388 14.6658 13.9626C15.8486 12.8368 17.4162 12.2046 19.0491 12.1947C20.4682 10.9269 22.3036 10.225 24.2066 10.2222C24.7663 10.222 25.3246 10.2807 25.8721 10.3976C27.6301 10.7455 29.2393 11.6239 30.4827 12.9144C31.7263 14.205 32.5443 15.8455 32.8268 17.6152C33.044 19.6524 32.7684 21.7119 32.0232 23.6203ZM29.1717 28.1943C29.2444 28.0538 29.3446 27.9292 29.4664 27.8281C29.7264 27.6479 30.0437 27.5699 30.3576 27.609H30.4015C30.5266 27.5683 30.6446 27.5093 30.7521 27.4337C30.8139 27.3694 30.8547 27.2879 30.869 27.1998C30.9884 26.7202 30.9884 26.2185 30.869 25.7388C30.6743 25.8822 30.4387 25.959 30.1969 25.958H29.8754C29.6041 25.8909 29.3642 25.732 29.1965 25.5083C29.0288 25.2847 28.9434 25.01 28.955 24.7307C29.0436 23.5548 28.7516 22.3818 28.1222 21.3848C27.897 21.0835 27.6034 20.8402 27.2654 20.675C26.9275 20.5099 26.5551 20.4276 26.1791 20.4351C21.9127 20.4059 19.838 19.237 18.8736 18.3312C18.2016 18.9302 16.9889 20.4351 17.4126 24.4384C17.449 24.6976 17.3984 24.9614 17.2689 25.1887C17.1393 25.416 16.9382 25.5942 16.6967 25.695C16.5453 25.781 16.374 25.8262 16.1999 25.8265C15.9895 25.8271 15.7828 25.7717 15.6008 25.6657C15.5009 26.151 15.5261 26.6538 15.6739 27.1267C15.6917 27.2093 15.7322 27.2852 15.7909 27.346C15.9 27.4187 16.0178 27.4776 16.1415 27.5213H16.2583C16.5668 27.5202 16.8644 27.6354 17.0919 27.8438C17.3193 28.0524 17.4599 28.3388 17.4857 28.6463C17.6949 30.0291 18.3929 31.291 19.4532 32.203C20.5135 33.1149 21.8657 33.6164 23.2642 33.6164C24.6627 33.6164 26.0149 33.1149 27.0752 32.203C28.1355 31.291 28.8335 30.0291 29.0427 28.6463C29.055 28.4885 29.0989 28.3347 29.1717 28.1943ZM20.2909 14.0649C20.0515 14.2644 19.7546 14.3822 19.4435 14.4008H19.166C18.0866 14.4034 17.0461 14.804 16.2438 15.5259C15.776 16.0899 15.4295 16.7443 15.2259 17.4482C15.0223 18.152 14.9659 18.8903 15.0603 19.6169C15.0872 20.0532 15.1656 20.4849 15.2941 20.9027C15.8931 17.1915 18.1869 16.1249 18.713 15.9496C18.8518 15.8914 19.0008 15.8616 19.1513 15.862C19.3582 15.8618 19.5618 15.914 19.7431 16.0135C19.9245 16.1132 20.0778 16.2571 20.1886 16.4317C20.2324 16.5048 21.4013 18.2142 26.2667 18.2142C26.998 18.2099 27.7195 18.3815 28.3706 18.7146C29.0215 19.0477 29.5828 19.5326 30.007 20.1282C30.2006 20.4037 30.3668 20.6973 30.5037 21.0049C30.7225 20.0021 30.767 18.9692 30.6353 17.9513C30.426 16.6237 29.8131 15.3928 28.8799 14.4256C27.9467 13.4585 26.7385 12.802 25.4193 12.5453C25.0112 12.4573 24.5949 12.4132 24.1774 12.4139C22.7169 12.4401 21.3236 13.032 20.2909 14.0649Z" fill="url(#paint0_linear_1063_9188)"/>
<defs>
<linearGradient id="paint0_linear_1063_9188" x1="10.5434" y1="-7.45368" x2="39.6128" y2="52.7616" gradientUnits="userSpaceOnUse">
<stop stop-color="#2EF3CF"/>
<stop offset="1" stop-color="#5172EA"/>
</linearGradient>
</defs>
</svg>
