<svg width="30" height="30" viewBox="0 0 30 30" fill="none" xmlns="http://www.w3.org/2000/svg">
<path fill-rule="evenodd" clip-rule="evenodd" d="M7.9292 7.92843C4.02376 11.8339 4.02376 18.1657 7.9292 22.0711L8.12228 22.2587C11.2495 25.2121 16.1769 25.8233 19.959 23.8532L20.0959 23.7783L23.9203 24.9629L24.0087 24.9853C24.5955 25.1015 25.1253 24.5649 24.9752 23.9647L23.8025 19.2733L23.8957 19.0893C25.7407 15.3052 25.0947 10.9529 22.0711 7.92852C18.2306 4.08892 12.0442 4.02493 8.12643 7.73646L7.9292 7.92843ZM20.8926 9.10701C23.5113 11.7265 23.9793 15.5129 22.187 18.7646L22.1423 18.8592C22.0782 19.0205 22.0658 19.1988 22.1083 19.369L22.9984 22.9333L20.2466 22.0808C20.0215 22.0111 19.7773 22.04 19.5747 22.1603C16.311 24.0979 11.8044 23.5893 9.10771 20.8926C5.85315 17.638 5.85315 12.3615 9.10771 9.10695C12.3615 5.8532 17.638 5.8532 20.8926 9.10701ZM12.0835 15C12.0835 15.6904 11.5238 16.25 10.8335 16.25C10.1431 16.25 9.58346 15.6904 9.58346 15C9.58346 14.3096 10.1431 13.75 10.8335 13.75C11.5238 13.75 12.0835 14.3096 12.0835 15ZM16.2501 15C16.2501 15.6904 15.6905 16.25 15.0001 16.25C14.3098 16.25 13.7501 15.6904 13.7501 15C13.7501 14.3096 14.3098 13.75 15.0001 13.75C15.6905 13.75 16.2501 14.3096 16.2501 15ZM19.1668 16.25C19.8571 16.25 20.4168 15.6904 20.4168 15C20.4168 14.3096 19.8571 13.75 19.1668 13.75C18.4764 13.75 17.9168 14.3096 17.9168 15C17.9168 15.6904 18.4764 16.25 19.1668 16.25Z" fill="currentColor"/>
</svg>
