<svg width="14" height="15" viewBox="0 0 14 15" fill="none" xmlns="http://www.w3.org/2000/svg">
<path fill-rule="evenodd" clip-rule="evenodd" d="M0.321725 0.265202C0.727546 -0.109402 1.3602 -0.0840959 1.73481 0.321725L7 6.02569L12.2652 0.321725C12.6398 -0.0840959 13.2725 -0.109402 13.6783 0.265202C14.0841 0.639805 14.1094 1.27246 13.7348 1.67829L8.36091 7.5L13.7348 13.3217C14.1094 13.7275 14.0841 14.3602 13.6783 14.7348C13.2725 15.1094 12.6398 15.0841 12.2652 14.6783L7 8.97432L1.73481 14.6783C1.3602 15.0841 0.727546 15.1094 0.321725 14.7348C-0.0840959 14.3602 -0.109402 13.7275 0.265202 13.3217L5.6391 7.5L0.265202 1.67829C-0.109402 1.27246 -0.0840959 0.639805 0.321725 0.265202Z" fill="currentColor"/>
</svg>
