<svg width="46" height="46" viewBox="0 0 46 46" fill="none" xmlns="http://www.w3.org/2000/svg">
<path fill-rule="evenodd" clip-rule="evenodd" d="M29.3871 7.98608C32.2098 7.98608 34.4983 10.2745 34.4983 13.0972V14.0555C34.4983 16.7666 32.3816 19.0018 29.6493 19.1596L29.3871 19.1666C26.5645 19.1666 24.276 16.8782 24.276 14.0555V13.0972C24.276 10.2745 26.5645 7.98608 29.3871 7.98608ZM29.3872 10.5416C27.9759 10.5416 26.8316 11.6859 26.8316 13.0972V14.0555C26.8316 15.4668 27.9759 16.6111 29.3502 16.6116L29.5385 16.6067C30.884 16.5287 31.9427 15.4107 31.9427 14.0555V13.0972C31.9427 11.6859 30.7984 10.5416 29.3872 10.5416ZM20.4427 15.6528C20.4427 12.8301 18.1543 10.5416 15.3316 10.5416C12.5089 10.5416 10.2205 12.8301 10.2205 15.6528V16.6111C10.2205 19.4337 12.5089 21.7222 15.3316 21.7222L15.5937 21.7152C18.3261 21.5574 20.4427 19.3221 20.4427 16.6111V15.6528ZM12.776 15.6528C12.776 14.2415 13.9203 13.0972 15.3316 13.0972C16.7429 13.0972 17.8872 14.2415 17.8872 15.6528V16.6111C17.8872 17.9662 16.8284 19.0843 15.4829 19.1623L15.2947 19.1672C13.9203 19.1666 12.776 18.0223 12.776 16.6111V15.6528ZM37.0538 29.3889C37.0538 26.5661 34.7658 24.2778 31.9427 24.2778H26.8316C26.1259 24.2778 25.5538 23.7057 25.5538 23C25.5538 22.2943 26.1259 21.7222 26.8316 21.7222H31.9427C36.1772 21.7222 39.6094 25.1548 39.6094 29.3889C39.6094 31.5052 37.8924 33.2222 35.776 33.2222H30.6649C29.9592 33.2222 29.3872 32.6501 29.3872 31.9444C29.3872 31.2387 29.9592 30.6666 30.6649 30.6666H35.776C36.481 30.6666 37.0538 30.0938 37.0538 29.3889ZM17.8872 24.2778C22.1217 24.2778 25.5538 27.7104 25.5538 31.9444C25.5538 34.0608 23.8369 35.7778 21.7205 35.7778H8.94271C6.82634 35.7778 5.10938 34.0608 5.10938 31.9444C5.10938 27.7108 8.5424 24.2778 12.776 24.2778H17.8872ZM12.776 26.8333C9.95379 26.8333 7.66493 29.1222 7.66493 31.9444C7.66493 32.6494 8.23774 33.2222 8.94271 33.2222H21.7205C22.4255 33.2222 22.9983 32.6494 22.9983 31.9444C22.9983 29.1217 20.7102 26.8333 17.8872 26.8333H12.776Z" fill="url(#paint0_linear_1063_9247)"/>
<defs>
<linearGradient id="paint0_linear_1063_9247" x1="5.10938" y1="35.7778" x2="38.1779" y2="35.7778" gradientUnits="userSpaceOnUse">
<stop stop-color="#5172EA"/>
<stop offset="1" stop-color="#2EF3CF"/>
</linearGradient>
</defs>
</svg>
