<svg width="46" height="46" viewBox="0 0 46 46" fill="none" xmlns="http://www.w3.org/2000/svg">
<path fill-rule="evenodd" clip-rule="evenodd" d="M37.0478 12.6288C36.974 11.9933 36.4339 11.5 35.7786 11.5C35.0729 11.5 34.5009 12.0721 34.5009 12.7778V25.0061L34.4941 25.3235C34.3813 27.959 32.8695 30.34 30.5283 31.5362L26.2694 33.7123L25.9583 33.8619C23.9717 34.76 21.6857 34.7101 19.7322 33.7122L15.4735 31.5362L15.1965 31.387C12.9226 30.0975 11.5009 27.6604 11.5009 25.0061V12.7778L11.4923 12.6288C11.4185 11.9933 10.8784 11.5 10.2231 11.5C9.51739 11.5 8.94531 12.0721 8.94531 12.7778V25.0061L8.95176 25.3649C9.08036 28.9422 11.1251 32.1843 14.3107 33.8119L18.5695 35.988L18.9204 36.1585C21.6294 37.4089 24.7617 37.3521 27.4321 35.988L31.691 33.8119L32.0058 33.6438C35.1144 31.91 37.0564 28.6044 37.0564 25.0061V12.7778L37.0478 12.6288ZM24.9567 18.2138C25.1301 17.5297 25.8252 17.1158 26.5093 17.2892C27.1934 17.4626 27.6073 18.1577 27.4339 18.8418C27.3635 19.1195 27.2371 19.4907 27.0364 19.8804C26.8137 20.3129 26.5434 20.6743 26.1771 20.9446C25.4166 21.5042 24.3092 21.7291 23.0076 21.7222C21.6926 21.7291 20.5851 21.5042 19.8235 20.9437C19.4583 20.6743 19.188 20.3129 18.9653 19.8804C18.7647 19.4907 18.6382 19.1195 18.5678 18.8418C18.3944 18.1577 18.8084 17.4626 19.4924 17.2892C20.1276 17.1282 20.7724 17.4736 21.0001 18.0715L21.0968 18.3809C21.1318 18.4806 21.1799 18.5989 21.2374 18.7105L21.3394 18.8863C21.5532 19.0436 22.1802 19.171 23.0076 19.1667C23.8215 19.171 24.4486 19.0436 24.6611 18.8872L24.7643 18.7105C24.8218 18.5989 24.8699 18.4806 24.905 18.3809L24.9567 18.2138ZM26.1953 25.5556C26.901 25.5556 27.4731 26.1276 27.4731 26.8333C27.4731 27.4886 26.9798 28.0287 26.3443 28.1025L26.1953 28.1111H19.8064C19.1007 28.1111 18.5286 27.539 18.5286 26.8333C18.5286 26.178 19.0219 25.638 19.6574 25.5642L19.8064 25.5556H26.1953Z" fill="url(#paint0_linear_1063_9171)"/>
<defs>
<linearGradient id="paint0_linear_1063_9171" x1="12.4592" y1="0.851856" x2="33.4769" y2="48.7422" gradientUnits="userSpaceOnUse">
<stop stop-color="#2EF3CF"/>
<stop offset="1" stop-color="#5172EA"/>
</linearGradient>
</defs>
</svg>
