<svg width="182" height="18" viewBox="0 0 182 18" fill="none" xmlns="http://www.w3.org/2000/svg">
<g clip-path="url(#clip0_1206_13452)">
<path d="M85.8802 5.97879L82.1863 12.0241H81.1523L77.3767 6.0597V14.5264H75.3242V3.15137H77.918L81.7267 9.34289L85.5024 3.15137H87.932V14.5271H85.8795L85.8802 5.97879Z" fill="#222458"/>
<path d="M96.5371 3.15137L101.265 14.5271H99.0814L97.9814 11.8296H92.7112L91.6277 14.5271H89.543L94.2057 3.15137H96.5371ZM93.4506 9.96048H97.2262L95.3381 5.29661L93.4506 9.96048Z" fill="#222458"/>
<path d="M104.939 10.9831V14.5261H102.887V3.15039H106.712C110.34 3.15039 111.883 4.43457 111.883 7.00218C111.883 9.65145 110.077 10.9839 106.712 10.9839H104.939V10.9831ZM104.939 5.01876V9.11403H106.859C108.763 9.11403 109.749 8.49643 109.749 6.95245C109.749 5.5547 108.896 5.01876 106.893 5.01876H104.939Z" fill="#222458"/>
<path d="M116.2 14.5254H114.148V3.15039H116.2V7.92783H117.924L121.619 3.15039H124.114L119.731 8.56175L124.821 14.5261H122.194L118.023 9.60172H116.201V14.5254H116.2Z" fill="#222458"/>
<path d="M133.788 9.60172H128.501V12.657H134.576V14.5261H126.449V3.15039H134.395V5.0195H128.501V7.73335H133.787V9.60172H133.788Z" fill="#222458"/>
<path d="M145.552 5.0195H141.678V14.5261H139.625V5.0195H135.816V3.15039H145.552V5.0195Z" fill="#222458"/>
<path d="M149.331 11.6497L155.602 3.15039H157.834V14.5261H155.782V5.8969L149.478 14.5261H147.277V3.15113H149.329V11.6497H149.331Z" fill="#222458"/>
<path d="M169.168 9.60172H162.88V14.5261H160.828V3.15039H162.88V7.73335H169.168V3.15039H171.22V14.5261H169.168V9.60172Z" fill="#222458"/>
<path d="M182.001 5.01876H176.256V14.5254H174.203V3.15039H182.001V5.01876Z" fill="#222458"/>
<path d="M55.0459 5.04474L57.6427 3.15039H48.9531V14.5261H57.6427V12.6325H51.433V9.71974H56.7294V7.82613H51.433V5.04474H55.0459Z" fill="#21A038"/>
<path d="M42.3911 7.58489H39.3736V5.04474H44.1908L46.7869 3.15039H36.8945V14.5261H42.0717C44.9759 14.5261 46.6414 13.2234 46.6414 10.9527C46.6414 8.78147 45.132 7.58489 42.3911 7.58489ZM41.9599 12.6325H39.3744V9.47924H41.9599C43.5339 9.47924 44.2665 10.007 44.2665 11.0559C44.2665 12.1278 43.4904 12.6325 41.9599 12.6325Z" fill="#21A038"/>
<path d="M64.6841 3.15137H59.9531V14.5271H62.433V11.3048H64.6841C67.7031 11.3048 69.5785 9.73334 69.5785 7.22214C69.5785 4.71094 67.7031 3.15137 64.6841 3.15137ZM64.6308 9.41044H62.433V5.04497H64.6308C66.2198 5.04497 67.0949 5.81993 67.0949 7.22733C67.0949 8.63548 66.2198 9.41044 64.6308 9.41044Z" fill="#21A038"/>
<path d="M32.6395 12.0635C32.0037 12.4109 31.2635 12.5942 30.4986 12.5942C28.2633 12.5942 26.6405 11.0146 26.6405 8.83819C26.6405 6.66176 28.2633 5.08215 30.4986 5.08215C31.3445 5.08215 32.1026 5.31746 32.7542 5.78065L34.533 4.48311L34.4153 4.38068C33.3766 3.4773 31.9894 3 30.4027 3C28.6817 3 27.1197 3.57454 26.0046 4.61747C24.8828 5.66708 24.2656 7.14277 24.2656 8.77435C24.2656 10.4133 24.8813 11.9113 25.9986 12.9928C27.1197 14.0773 28.6779 14.6749 30.3869 14.6749C32.1746 14.6749 33.7351 14.058 34.7932 12.9357C33.9765 12.3404 33.1885 11.7651 33.1885 11.7651L32.6395 12.0635Z" fill="#21A038"/>
<path d="M16.3014 3.50098C16.7331 4.05601 17.0927 4.65364 17.3949 5.29402L9.09267 11.3419L5.625 9.19316V6.60325L9.09267 8.75202L16.3014 3.50098Z" fill="#21A038"/>
<path d="M2.10072 9.00755C2.10072 8.89373 2.10072 8.77984 2.11516 8.66602L0.0144302 8.56641C-1.68465e-06 8.7087 0 8.86526 0 9.02175C0 11.5121 1.02162 13.7605 2.66193 15.3828L4.15832 13.9028C2.87774 12.6505 2.10072 10.9144 2.10072 9.00755Z" fill="url(#paint0_linear_1206_13452)"/>
<path d="M9.09457 2.07762C9.20966 2.07762 9.32474 2.07762 9.4399 2.0919L9.54063 0.0142729C9.39676 -2.62633e-07 9.23845 0 9.08015 0C6.56216 0 4.28876 1.01038 2.64844 2.63266L4.14489 4.11258C5.4111 2.86029 7.16651 2.07762 9.09457 2.07762Z" fill="url(#paint1_linear_1206_13452)"/>
<path d="M9.09449 15.9236C8.97941 15.9236 8.86425 15.9236 8.74917 15.9093L8.64844 17.987C8.79232 18.0012 8.95062 18.0012 9.10892 18.0012C11.6269 18.0012 13.9003 16.9909 15.5406 15.3686L14.0442 13.8887C12.778 15.1552 11.0226 15.9236 9.09449 15.9236Z" fill="url(#paint2_linear_1206_13452)"/>
<path d="M13.0518 3.28724L14.8217 1.99228C13.2533 0.739995 11.2677 0 9.10938 0V2.07763C10.5626 2.07763 11.9151 2.53304 13.0518 3.28724Z" fill="url(#paint3_linear_1206_13452)"/>
<path d="M18.1998 9.00645C18.1998 8.45149 18.1566 7.91073 18.0559 7.39844L16.0991 8.82148C16.0991 8.87836 16.0991 8.9495 16.0991 9.00645C16.0991 11.0414 15.207 12.8771 13.7969 14.1436L15.207 15.6947C17.0487 14.0298 18.1998 11.6533 18.1998 9.00645Z" fill="#21A038"/>
<path d="M9.0908 15.9233C7.03322 15.9233 5.17708 15.0411 3.89652 13.6465L2.32812 15.0411C3.99725 16.8625 6.40015 18.001 9.07644 18.001V15.9233H9.0908Z" fill="url(#paint4_linear_1206_13452)"/>
<path d="M4.4029 3.8704L2.99283 2.31934C1.15113 3.97002 0 6.34649 0 8.99335H2.10072C2.10072 6.97267 2.99283 5.13696 4.4029 3.8704Z" fill="url(#paint5_linear_1206_13452)"/>
</g>
<defs>
<linearGradient id="paint0_linear_1206_13452" x1="3.08596" y1="15.112" x2="0.832953" y2="8.52709" gradientUnits="userSpaceOnUse">
<stop offset="0.1444" stop-color="#F2E913"/>
<stop offset="0.3037" stop-color="#E7E518"/>
<stop offset="0.5823" stop-color="#CADB26"/>
<stop offset="0.891" stop-color="#A3CD39"/>
</linearGradient>
<linearGradient id="paint1_linear_1206_13452" x1="3.26149" y1="3.00722" x2="9.16339" y2="0.73312" gradientUnits="userSpaceOnUse">
<stop offset="0.0592" stop-color="#0FA8E0"/>
<stop offset="0.5385" stop-color="#0099F9"/>
<stop offset="0.9234" stop-color="#0291EB"/>
</linearGradient>
<linearGradient id="paint2_linear_1206_13452" x1="8.50472" y1="16.7546" x2="15.1904" y2="15.2268" gradientUnits="userSpaceOnUse">
<stop offset="0.1226" stop-color="#A3CD39"/>
<stop offset="0.2846" stop-color="#86C339"/>
<stop offset="0.8693" stop-color="#21A038"/>
</linearGradient>
<linearGradient id="paint3_linear_1206_13452" x1="8.65871" y1="0.699237" x2="14.3699" y2="2.48108" gradientUnits="userSpaceOnUse">
<stop offset="0.0566" stop-color="#0291EB"/>
<stop offset="0.79" stop-color="#0C8ACB"/>
</linearGradient>
<linearGradient id="paint4_linear_1206_13452" x1="2.87118" y1="14.7933" x2="9.08294" y2="17.14" gradientUnits="userSpaceOnUse">
<stop offset="0.1324" stop-color="#F2E913"/>
<stop offset="0.2977" stop-color="#EBE716"/>
<stop offset="0.5306" stop-color="#D9E01F"/>
<stop offset="0.8023" stop-color="#BBD62D"/>
<stop offset="0.9829" stop-color="#A3CD39"/>
</linearGradient>
<linearGradient id="paint5_linear_1206_13452" x1="0.77694" y1="9.25792" x2="3.22944" y2="2.80712" gradientUnits="userSpaceOnUse">
<stop offset="0.0698" stop-color="#A3CD39"/>
<stop offset="0.2599" stop-color="#81C55F"/>
<stop offset="0.9216" stop-color="#0FA8E0"/>
</linearGradient>
<clipPath id="clip0_1206_13452">
<rect width="182" height="18" fill="white"/>
</clipPath>
</defs>
</svg>
