<svg width="46" height="46" viewBox="0 0 46 46" fill="none" xmlns="http://www.w3.org/2000/svg">
<path fill-rule="evenodd" clip-rule="evenodd" d="M38.3316 12.7779C38.3316 9.95488 36.0435 7.66675 33.2205 7.66675C30.8387 7.66675 28.8377 9.29552 28.2704 11.5001H21.7205C21.0148 11.5001 20.4427 12.0722 20.4427 12.7779V21.7223H15.1706C14.6033 19.5177 12.6022 17.889 10.2205 17.889C7.39751 17.889 5.10938 20.1771 5.10938 23.0001C5.10938 25.8231 7.39751 28.1112 10.2205 28.1112C12.6022 28.1112 14.6033 26.4824 15.1706 24.2779H20.4427V33.2223C20.4427 33.928 21.0148 34.5001 21.7205 34.5001H28.2704C28.8377 36.7046 30.8387 38.3334 33.2205 38.3334C36.0435 38.3334 38.3316 36.0453 38.3316 33.2223C38.3316 30.3993 36.0435 28.1112 33.2205 28.1112C30.8387 28.1112 28.8377 29.74 28.2704 31.9445H22.9983V14.0556H28.2704C28.8377 16.2602 30.8387 17.889 33.2205 17.889C36.0435 17.889 38.3316 15.6008 38.3316 12.7779ZM33.2205 10.2223C31.8089 10.2223 30.6649 11.3663 30.6649 12.7779C30.6649 14.1894 31.8089 15.3334 33.2205 15.3334C34.6321 15.3334 35.776 14.1894 35.776 12.7779C35.776 11.3663 34.6321 10.2223 33.2205 10.2223ZM33.2205 30.6667C31.8089 30.6667 30.6649 31.8107 30.6649 33.2223C30.6649 34.6339 31.8089 35.7779 33.2205 35.7779C34.6321 35.7779 35.776 34.6339 35.776 33.2223C35.776 31.8107 34.6321 30.6667 33.2205 30.6667ZM10.2205 20.4445C8.80891 20.4445 7.66493 21.5885 7.66493 23.0001C7.66493 24.4117 8.80891 25.5556 10.2205 25.5556C11.6321 25.5556 12.776 24.4117 12.776 23.0001C12.776 21.5885 11.6321 20.4445 10.2205 20.4445Z" fill="url(#paint0_linear_1063_9327)"/>
<defs>
<linearGradient id="paint0_linear_1063_9327" x1="9.26215" y1="-5.11103" x2="34.7438" y2="52.0711" gradientUnits="userSpaceOnUse">
<stop stop-color="#2EF3CF"/>
<stop offset="1" stop-color="#5172EA"/>
</linearGradient>
</defs>
</svg>
